<svg width="1225" height="1793" viewBox="0 0 1225 1793" fill="none" xmlns="http://www.w3.org/2000/svg">
<path d="M89.3327 3.00007C70.666 7.80007 58.9327 13.4001 45.9994 23.4001C23.5994 40.8667 9.46602 63.6667 2.79935 93.1334C0.799349 101.933 0.666016 172.867 0.666016 895.267C0.666016 1663.67 0.799349 1688.33 3.19935 1699.8C9.33268 1729.13 23.3327 1751.8 45.9994 1769.13C60.266 1780.07 71.066 1785 90.3994 1789.8C100.533 1792.33 113.466 1792.33 612.666 1792.33C1111.87 1792.33 1124.8 1792.33 1134.93 1789.8C1153.73 1785.27 1165.6 1779.8 1178.67 1769.93C1201.47 1752.73 1216 1729.4 1222.13 1699.8C1224.53 1688.33 1224.67 1663.8 1224.67 895.8C1224.67 169.4 1224.53 102.867 1222.53 93.6667C1215.07 59.4001 1196.67 33.0001 1167.33 14.8667C1161.87 11.4001 1146 5.40007 1135.33 2.86674C1125.73 0.466736 1107.07 0.333403 611.999 0.466736C120.133 0.600069 98.266 0.600069 89.3327 3.00007ZM1124.4 43.6667C1135.2 45.9334 1138.93 47.4001 1148.27 53.1334C1157.47 59.0001 1161.33 62.4667 1167.07 70.3334C1173.2 78.6001 1175.6 83.1334 1178.8 92.3334C1181.33 99.5334 1181.33 117.267 1181.33 896.333C1181.33 1675.4 1181.33 1693.13 1178.8 1700.33C1169.47 1727.4 1149.2 1744.73 1121.47 1749.67C1116.13 1750.6 950.533 1751 611.866 1751C76.3994 1751 101.866 1751.27 86.666 1745C69.5994 1737.8 54.7994 1722.07 47.466 1703.4L43.9994 1694.33L43.5994 901.667C43.3327 336.2 43.5994 106.6 44.666 100.467C48.5327 77.9334 66.266 55.9334 87.3327 47.5334C101.733 41.8001 84.666 41.9334 611.599 41.8001C1047.73 41.6667 1116.4 41.9334 1124.4 43.6667Z" fill="black"/>
<path d="M182.666 170.467C177.333 173.267 174.133 176.2 171.466 181C169.466 184.6 169.333 200.6 169.333 369C169.333 575 168.533 557.267 178.933 565.267L183.733 569H612.666H1041.6L1046.4 565.267C1056.8 557.267 1056 575 1056 369C1056 163 1056.8 180.733 1046.4 172.733L1041.6 169L614.133 168.733C228.399 168.333 186.266 168.6 182.666 170.467ZM1012.4 369.267C1012.53 474.2 1012.27 527 1011.33 527C1010.67 527 831.199 527 612.666 527C394.133 527 214.799 527 213.999 527C212.533 527 211.999 213.4 213.599 211.933C213.999 211.4 393.866 211.133 613.199 211.267L1012 211.667L1012.4 369.267Z" fill="black"/>
<path d="M329.998 395.4C321.998 399.133 315.865 409.533 317.198 417C318.398 423.267 323.332 429.8 329.332 433.267L334.665 436.333H417.065H499.465L505.732 433.133C513.865 429 516.665 424.067 516.665 414.2C516.665 408.067 515.998 405.667 513.198 402.067C506.665 393.4 509.065 393.667 416.798 393.8C356.132 393.8 332.398 394.333 329.998 395.4Z" fill="black"/>
<path d="M182.665 676.867C177.732 679 171.732 685.8 170.265 690.734C169.065 695.4 169.065 865.267 170.265 869.934C171.732 875 177.865 881.667 182.932 883.8C188.799 886.334 360.132 886.334 367.332 883.934C369.999 883 373.732 879.934 376.265 876.6L380.665 870.734V780.467V690.067L376.532 684.467C369.465 674.6 373.865 675 275.065 675C204.532 675.134 185.865 675.4 182.665 676.867ZM335.865 717.134C337.732 717.8 337.999 724.734 337.999 780.467V843L335.065 843.667C333.332 844.067 305.332 844.2 272.665 844.067L213.332 843.667L212.932 781.667C212.799 747.534 212.932 718.867 213.332 717.934C213.732 716.734 227.065 716.334 273.865 716.334C306.799 716.334 334.665 716.734 335.865 717.134Z" fill="black"/>
<path d="M531.333 676.467C526.933 678.2 522.267 682.733 519.6 687.667C517.733 691.267 517.467 701.4 517.467 780.333C517.467 859.267 517.733 869.4 519.6 873C522.4 878.2 527.067 882.467 531.733 884.2C537.333 886.333 709.067 886.067 715.333 883.933C718 883 721.733 879.933 724.267 876.6L728.667 870.733V780.467V690.067L724.533 684.467C717.467 674.6 721.867 675 623.067 675.133C567.6 675.133 533.467 675.667 531.333 676.467ZM683.867 717.133C685.733 717.8 686 724.733 686 780.467V843L683.067 843.667C681.333 844.067 653.333 844.2 620.667 844.067L561.333 843.667L560.933 781.667C560.8 747.533 560.933 718.867 561.333 717.933C561.733 716.733 575.067 716.333 621.867 716.333C654.8 716.333 682.667 716.733 683.867 717.133Z" fill="black"/>
<path d="M857.066 677C854.799 677.934 850.933 681.4 848.799 684.467L844.666 690.067V780.467V870.734L849.066 876.6C851.599 879.934 855.333 883 857.999 883.934C865.199 886.334 1036.53 886.334 1042.4 883.8C1048.13 881.534 1053.6 874.867 1055.33 868.334C1056.27 864.734 1056.67 834.734 1056.4 777.4C1056 700.6 1055.73 691.267 1053.73 687.667C1050.93 682.467 1046.27 678.2 1041.6 676.467C1039.07 675.4 1008.93 675 949.599 675C877.333 675.134 860.533 675.4 857.066 677ZM1012 780.334V843.667L952.666 844.067C919.999 844.2 891.999 844.067 890.399 843.667L887.333 843V780.467C887.333 731.667 887.733 717.8 889.066 717.267C889.866 716.867 917.999 716.6 951.333 716.734L1012 717V780.334Z" fill="black"/>
<path d="M180.4 930.734C175.067 933.934 170.267 942.467 169.334 950.2C168.934 953.934 168.667 994.2 168.934 1039.67C169.334 1113.53 169.6 1122.73 171.6 1126.33C174.4 1131.53 179.067 1135.8 183.734 1137.53C186.267 1138.47 216.4 1139 275.2 1139C373.6 1139 369.467 1139.4 376.667 1129.4L380.667 1123.93V1033.67V943.4L376.667 937.934C369.334 927.8 375.467 928.334 274.4 928.467C193.734 928.6 183.6 928.867 180.4 930.734ZM336.534 971.534C337.6 972.734 337.867 990.467 337.734 1034.47L337.334 1095.67L275.067 1096.07L212.667 1096.33V1033.93C212.667 999.534 213.067 971 213.6 970.6C214 970.067 241.6 969.667 274.667 969.667C324 969.667 335.334 969.934 336.534 971.534Z" fill="black"/>
<path d="M524 934.334C520.533 937.8 518 941.534 517.866 943.267C517.866 945 517.866 986.734 517.733 1035.93L517.6 1125.67L521.2 1130.33C528.133 1139.4 522.933 1139 623.333 1139H714.266L718.4 1136.07C720.8 1134.47 724 1131.67 725.6 1129.8L728.533 1126.33L728.666 1034.47C728.666 945.934 728.533 942.467 726.133 938.467C724.666 936.2 721.733 933 719.466 931.267L715.466 928.334H622.666H529.866L524 934.334ZM684.533 971.534C685.6 972.734 685.866 990.467 685.733 1034.47L685.333 1095.67L623.066 1096.07L560.666 1096.33V1033.93C560.666 999.534 561.066 971 561.6 970.6C562 970.067 589.6 969.667 622.666 969.667C672 969.667 683.333 969.934 684.533 971.534Z" fill="black"/>
<path d="M855.199 931.4C852.799 933 849.333 936.467 847.733 938.867L844.666 943.4V1033.67V1123.93L848.666 1129.4C855.866 1139.4 851.733 1139 950.133 1139C1008.93 1139 1039.07 1138.47 1041.6 1137.53C1046.27 1135.8 1050.93 1131.53 1053.73 1126.33C1055.73 1122.73 1056 1113.53 1056.4 1039.67C1056.67 994.2 1056.4 953.934 1056 950.2C1055.07 942.2 1050.13 933.934 1044.4 930.6C1040.8 928.467 1033.2 928.334 950.133 928.334H859.733L855.199 931.4ZM1012.4 1033.4L1012.67 1096.33L950.399 1096.07L887.999 1095.67L887.599 1034.47C887.466 990.2 887.733 972.867 888.799 971.534C890.133 969.934 900.933 969.667 951.199 969.934L1012 970.334L1012.4 1033.4Z" fill="black"/>
<path d="M183.334 1182.47C177.2 1185.13 174.267 1187.93 171.6 1193.67C169.6 1197.8 169.334 1207.13 168.934 1281C168.667 1326.47 168.934 1366.73 169.334 1370.6C170.4 1379.13 174.4 1385.27 181.334 1389.27L186.667 1392.33H275.334H364L369.334 1389.27C372.267 1387.53 375.867 1383.93 377.6 1381L380.667 1375.67V1286.6C380.667 1206.33 380.4 1197.13 378.4 1193.27C375.867 1188.2 373.734 1186.33 366.667 1183C361.6 1180.47 357.467 1180.33 274.667 1180.47C200.534 1180.47 187.334 1180.73 183.334 1182.47ZM336.4 1224.33C337.6 1224.33 338 1237.67 338 1286.33V1348.33L335.067 1349C333.334 1349.4 305.334 1349.53 272.667 1349.4L213.334 1349L212.934 1287.13C212.8 1250.73 213.2 1224.87 213.867 1224.47C214.8 1223.93 295.334 1223.8 336.4 1224.33Z" fill="black"/>
<path d="M531.333 1182.47C525.2 1185.13 522.133 1188.07 519.733 1193.67C518.133 1197.53 517.733 1210.47 517.333 1275C517.2 1317.13 517.333 1357.53 517.733 1364.73C518.533 1379.8 520.667 1384.33 529.333 1389.27L534.667 1392.33H623.067C708.933 1392.33 711.6 1392.2 716.667 1389.67C719.6 1388.2 723.467 1384.73 725.333 1382.07L728.667 1377V1287.27C728.667 1206.47 728.4 1197.13 726.4 1193.27C723.867 1188.2 721.733 1186.33 714.667 1183C709.6 1180.47 705.467 1180.33 622.667 1180.47C548.533 1180.47 535.333 1180.73 531.333 1182.47ZM684.4 1224.33C685.733 1224.33 686 1237.27 685.733 1286.6L685.333 1349H623.333H561.333L560.933 1287.13C560.8 1250.73 561.2 1224.87 561.867 1224.47C562.533 1224.07 590 1223.8 622.933 1223.93C655.733 1224.2 683.467 1224.33 684.4 1224.33Z" fill="black"/>
<path d="M858.666 1183C851.599 1186.33 849.466 1188.2 846.933 1193.27C844.933 1197.13 844.666 1206.33 844.666 1286.6V1375.67L847.733 1381C849.466 1383.93 853.066 1387.53 855.999 1389.27L861.333 1392.33H949.999H1038.67L1044 1389.27C1051.47 1385 1054.93 1379.13 1056 1369.27C1056.4 1364.73 1056.67 1324.33 1056.4 1279.67C1056 1192.2 1056 1193 1049.07 1186.73C1042 1180.33 1042.27 1180.33 950.399 1180.33C867.866 1180.33 863.733 1180.47 858.666 1183ZM1011.73 1224.33C1012.27 1224.33 1012.53 1252.33 1012.4 1286.6L1012 1349L952.666 1349.4C919.999 1349.53 891.999 1349.4 890.399 1349L887.333 1348.33V1286.47C887.333 1229.53 887.466 1224.47 889.599 1224.07C891.199 1223.8 995.466 1223.93 1011.73 1224.33Z" fill="black"/>
<path d="M184.265 1435.53C177.865 1437.93 174.532 1440.87 171.599 1446.87C169.599 1451.27 169.332 1459.53 169.332 1540.33C169.332 1627.67 169.332 1629.13 172.132 1633.67C173.599 1636.2 176.932 1639.67 179.332 1641.27L183.732 1644.33H275.065C365.465 1644.33 366.399 1644.33 370.932 1641.53C373.332 1639.93 376.532 1636.47 377.999 1633.53C380.532 1628.6 380.665 1625.4 380.665 1539.67C380.665 1454.6 380.532 1450.73 378.132 1445.93C376.665 1443.27 373.332 1439.53 370.532 1437.67L365.465 1434.33L277.465 1434.07C205.465 1433.8 188.399 1434.07 184.265 1435.53ZM337.332 1539.67V1602.33H275.332H213.332L212.932 1539.27L212.665 1476.33L274.932 1476.6L337.332 1477V1539.67Z" fill="black"/>
<path d="M532.266 1435.53C526 1437.8 522.533 1440.87 519.733 1446.6C518 1450.47 517.733 1462.07 517.6 1539.27C517.466 1624.6 517.466 1627.8 520 1633C521.466 1635.8 524.666 1639.67 527.2 1641.27L531.733 1644.33H623.066C713.466 1644.33 714.4 1644.33 718.933 1641.53C721.333 1639.93 724.533 1636.47 726 1633.53C728.533 1628.6 728.666 1625.4 728.666 1539.67C728.666 1454.6 728.533 1450.73 726.133 1445.93C724.666 1443.27 721.333 1439.53 718.533 1437.67L713.466 1434.33L625.466 1434.07C553.466 1433.8 536.4 1434.07 532.266 1435.53ZM685.333 1539.67V1602.33H623.333H561.333L560.933 1539.27L560.666 1476.33L622.933 1476.6L685.333 1477V1539.67Z" fill="black"/>
<path d="M860.399 1435C855.199 1436.47 849.733 1441.13 847.066 1446.07C844.933 1449.93 844.799 1458.07 844.666 1539.4C844.666 1625.4 844.799 1628.6 847.333 1633.53C848.799 1636.47 851.999 1639.93 854.399 1641.53C858.933 1644.33 859.866 1644.33 950.266 1644.33H1041.6L1046 1641.27C1048.4 1639.67 1051.73 1636.2 1053.2 1633.67C1056 1629.13 1056 1627.67 1056 1540.33C1056 1459.53 1055.73 1451.27 1053.73 1446.87C1052.53 1444.33 1050.27 1441.13 1048.8 1439.8C1042.27 1433.93 1040.67 1433.8 949.999 1433.8C902.666 1433.93 862.399 1434.33 860.399 1435ZM1012.4 1539.27L1012 1602.33H949.999H887.999L887.599 1541C887.466 1507.27 887.599 1478.87 887.999 1477.93C888.399 1476.73 902.266 1476.33 950.666 1476.33H1012.67L1012.4 1539.27Z" fill="black"/>
</svg>
