<svg width="1799" height="1802" viewBox="0 0 1799 1802" fill="none" xmlns="http://www.w3.org/2000/svg">
<path d="M315.733 52.9333L315.333 106L157.6 106.4L0 106.667V954V1801.33L899.067 1801.07L1798 1800.67L1798.4 956.667C1798.53 492.4 1798.4 111.333 1798 109.733L1797.33 106.667L1639.6 106.4L1482 106L1481.6 52.9333L1481.33 -5.32568e-05H1428H1374.53L1374.67 52.1333C1374.8 80.9333 1374.27 104.933 1373.73 105.467C1373.07 106.133 1337.87 106.533 1294.53 106.4L1216.67 106L1216.27 52.9333L1216 -5.32568e-05H1163.33H1110.67L1110.4 52.9333L1110 106L1031.47 106.4C969.467 106.667 952.667 106.4 951.733 105.067C951.2 104.133 950.667 80.1333 950.667 51.5999V-5.32568e-05H898.667H846.667V51.5999C846.667 80.1333 846.133 104.133 845.6 105.067C844.667 106.4 827.867 106.667 765.867 106.4L687.333 106L686.933 52.9333L686.667 -5.32568e-05H634H581.333L581.067 52.9333L580.667 106L502.8 106.4C459.467 106.533 424.267 106.133 423.6 105.467C423.067 104.933 422.533 80.9333 422.667 52.1333L422.8 -5.32568e-05H369.333H316L315.733 52.9333ZM315.733 264.533C315.867 299.2 316.533 315.6 317.467 316.933C318.667 318.267 328.933 318.667 369.333 318.667C409.733 318.667 420 318.267 421.2 316.933C422.133 315.6 422.8 299.2 422.933 264.533L423.333 214H502H580.667L581.333 266L582 318H634H686L686.667 266L687.333 214L766.4 213.6C809.733 213.467 845.467 213.467 845.6 213.6C845.733 213.867 846.267 237.333 846.667 266L847.333 318H898.667H950L950.667 266C951.067 237.333 951.6 213.867 951.733 213.6C951.867 213.467 987.6 213.467 1031.07 213.6L1110 214L1110.67 266L1111.33 318H1163.33H1215.33L1216 266L1216.67 214H1295.33H1374L1374.4 264.533C1374.53 299.2 1375.2 315.6 1376.13 316.933C1377.33 318.267 1387.6 318.667 1428 318.667C1468.4 318.667 1478.67 318.267 1479.87 316.933C1480.8 315.6 1481.47 299.2 1481.6 264.533L1482 214H1587.33H1692.67L1693.07 317.867C1693.2 393.467 1692.93 422.133 1691.87 423.467C1689.73 426 108.133 426.267 105.6 423.733C104.4 422.533 104 397.333 104 318.667C104 261.733 104.4 214.667 104.933 214.267C105.333 213.733 152.933 213.467 210.533 213.6L315.333 214L315.733 264.533ZM1691.73 532.267C1694 534.533 1694 1692.13 1691.73 1694.4C1689.47 1696.67 107.867 1696.67 105.6 1694.4C103.333 1692.13 103.333 534.533 105.6 532.267C107.867 530 1689.47 530 1691.73 532.267Z" fill="black"/>
<path d="M451.333 744.667C431.2 748 410.133 755.333 395.333 764.4C376.8 775.733 355.866 795.2 344.8 811.2C323.866 841.733 314 879.333 317.466 915.6C320 943.467 329.2 968.667 345.066 992C353.2 1003.87 373.2 1023.87 385.2 1031.87C405.466 1045.6 427.866 1054.53 450.933 1058C483.066 1062.93 516.8 1057.73 544.666 1043.73C581.733 1025.07 610.133 993.6 623.866 955.733C636.4 921.333 636.4 880.533 623.6 846C621.466 840 614.266 824.8 611.6 820.667C601.466 804.4 588.933 789.867 576.133 779.467C566.666 771.733 543.733 757.333 540.933 757.333C540 757.333 538.666 756.8 537.866 756.133C537.2 755.467 534 753.867 530.666 752.667C505.066 743.467 476.533 740.667 451.333 744.667ZM493.466 852C503.066 855.867 511.2 862 517.066 869.867C525.466 881.2 527.333 886.933 527.333 901.333C527.333 915.867 525.466 921.467 516.8 933.067C511.066 940.8 503.6 946.533 493.733 950.8C485.2 954.4 466.133 954.667 457.333 951.2C444.133 946 433.466 936.4 427.066 924C423.6 917.333 423.333 915.467 423.333 902C423.333 888.667 423.733 886.533 427.066 879.333C433.2 866.267 444 856.667 458.533 851.333C466.266 848.4 485.333 848.8 493.466 852Z" fill="black"/>
<path d="M875.334 744.667C845.334 749.333 816.4 762.667 794.667 782C753.067 819.2 733.734 871.6 742 925.067C756.267 1018.8 848.934 1078.8 941.334 1054.27C956 1050.27 978.667 1039.07 992.267 1029.07C1074.67 968 1079.33 848.933 1002.13 781.467C967.734 751.6 920.267 737.733 875.334 744.667ZM916 851.6C931.2 857.2 943.467 869.467 948.534 884.533C952.267 895.333 951.067 914.133 946.134 924.4C941.067 934.8 931.467 944.133 920.4 949.333C912.267 953.2 910.267 953.6 898.667 953.6C887.067 953.6 885.067 953.2 876.934 949.333C865.867 944.133 856.267 934.8 851.2 924.4C846.267 914.267 845.067 894.4 848.8 884.4C854.667 868.667 864.667 858.533 880.667 851.867C888.134 848.8 907.867 848.533 916 851.6Z" fill="black"/>
<path d="M1324.67 744.667C1284.27 751.2 1247.87 772.8 1223.47 804.667C1213.6 817.6 1213.33 818 1206.8 831.333C1187.87 870 1185.33 912.933 1199.33 954C1210.8 987.733 1234.27 1016.67 1266.67 1036.8C1273.6 1041.2 1290.13 1049.33 1292 1049.33C1292.67 1049.33 1295.2 1050.13 1297.6 1051.2C1309.87 1056.27 1331.07 1060 1348.67 1060C1360.4 1060 1382.4 1057.07 1390.4 1054.53C1406.27 1049.33 1420.13 1043.47 1428.67 1038.27C1462.53 1017.6 1486.67 987.867 1498.4 952.667C1505.07 932.4 1506.67 922.4 1506.67 901.867C1506.67 839.867 1474 787.2 1418 758.933C1390.67 745.067 1355.47 739.733 1324.67 744.667ZM1372.4 854.533C1385.47 861.067 1393.07 870.133 1399.87 887.067C1400.67 889.067 1401.33 895.6 1401.33 901.333C1401.33 907.067 1400.67 913.6 1399.87 915.6C1392.93 932.933 1385.2 941.867 1371.33 948.8C1362.27 953.333 1360.93 953.6 1348.93 953.6C1336.93 953.6 1335.47 953.2 1326.13 948.8C1307.07 939.6 1296 922.267 1296 901.333C1296 878.8 1308.27 861.2 1330.4 852C1335.47 849.867 1339.2 849.467 1350 849.733C1362.13 850 1364.13 850.4 1372.4 854.533Z" fill="black"/>
<path d="M450.667 1168.67C415.2 1174.4 389.067 1187.87 362.933 1213.73C328.667 1247.73 312.4 1294.27 318 1342.67C320.8 1367.6 326.8 1385.33 339.067 1406C369.867 1457.87 429.733 1488.53 488.933 1482.67C538.533 1477.73 579.867 1453.07 607.333 1412C639.733 1363.47 642 1297.73 612.933 1246.93C597.6 1220 572.933 1196.53 545.333 1182.67C519.067 1169.33 481.067 1163.73 450.667 1168.67ZM497.6 1277.33C508.667 1282.8 517.733 1292 522.933 1302.67C526.8 1310.53 527.2 1312.53 527.2 1324.67C527.333 1337.2 527.067 1338.67 522.933 1347.07C517.467 1358.13 508 1367.87 497.733 1372.93C490.533 1376.4 488.8 1376.67 474.667 1376.67C460.133 1376.67 458.933 1376.4 452 1372.67C442.267 1367.2 431.733 1356.53 427.2 1347.07C423.6 1340 423.333 1338.13 423.333 1324.67C423.333 1311.07 423.6 1309.47 427.333 1302.13C432.533 1291.87 441.867 1282.53 451.6 1277.87C462 1272.93 466.8 1272 478.933 1272.67C487.067 1273.07 491.067 1274.13 497.6 1277.33Z" fill="black"/>
<path d="M873.333 1168.8C853.6 1172.13 834.133 1178.8 822.8 1185.87C819.867 1187.73 817.067 1189.33 816.533 1189.33C816.133 1189.33 809.867 1193.87 802.533 1199.47C775.067 1220.53 754.8 1250.13 745.867 1282.67C737.333 1313.2 738.533 1351.33 748.8 1375.73C749.867 1378.13 750.667 1380.67 750.667 1381.47C750.667 1384 762.133 1406.13 768 1414.8C771.2 1419.47 779.2 1428.93 785.867 1435.73C812.133 1462.8 845.733 1478.8 884.4 1482.67C919.333 1486.27 958.4 1476.13 988.267 1455.87C1000.13 1447.73 1019.87 1428.27 1028 1416.53C1034.67 1406.93 1046.67 1384.4 1046.67 1381.47C1046.67 1380.67 1047.47 1378.13 1048.53 1375.73C1053.6 1363.6 1057.33 1342.27 1057.33 1325.07C1057.33 1276.4 1032.8 1227.47 994.267 1199.07C979.467 1188.13 978.933 1187.87 968 1182.53C939.733 1168.8 903.733 1163.47 873.333 1168.8ZM917.333 1275.47C925.6 1278.67 936 1286.8 941.067 1293.73C948.133 1303.6 950.667 1312 950.667 1325.07C950.667 1336.67 949.067 1342.93 943.733 1352.67C940.267 1358.93 929.333 1368.8 921.333 1372.93C914.533 1376.4 912.8 1376.67 898.667 1376.67C884.533 1376.67 882.8 1376.4 876 1372.93C856.933 1363.2 846.667 1346.4 846.667 1325.07C846.667 1316.53 847.333 1311.6 849.333 1306.53C856.133 1289.47 870.267 1277.33 888.667 1272.8C894 1271.47 911.467 1273.07 917.333 1275.47Z" fill="black"/>
<path d="M1465.07 1195.6C1459.07 1202.8 1452.67 1210.13 1451.2 1212C1449.6 1213.87 1444.27 1220.13 1439.2 1226C1428.13 1238.8 1433.2 1232.8 1383.47 1290.93C1357.33 1321.47 1341.73 1338.67 1340.13 1338.67C1338.8 1338.67 1336.53 1337.6 1335.07 1336.27C1333.47 1335.07 1326.13 1329.33 1318.53 1323.73C1310.93 1318.13 1296.93 1307.73 1287.47 1300.67C1278 1293.6 1269.33 1288.13 1268.13 1288.27C1265.47 1288.8 1206.8 1366.53 1206.67 1369.6C1206.67 1371.6 1237.2 1395.47 1278.53 1425.87C1280.4 1427.33 1297.2 1440 1315.73 1453.87C1352.67 1481.73 1355.6 1483.6 1358.13 1481.87C1359.2 1481.2 1384.4 1452.13 1414.13 1417.33C1444 1382.53 1471.2 1350.67 1474.67 1346.67C1521.07 1292.93 1556 1251.6 1556 1250.67C1556 1248.67 1546.53 1240 1528.8 1225.2C1526.53 1223.47 1522.4 1219.87 1519.47 1217.2C1500.67 1200.53 1479.07 1182.67 1477.73 1182.67C1476.93 1182.67 1471.2 1188.53 1465.07 1195.6Z" fill="black"/>
</svg>
