<?xml version="1.0" standalone="no"?>
<!DOCTYPE svg PUBLIC "-//W3C//DTD SVG 20010904//EN"
 "http://www.w3.org/TR/2001/REC-SVG-20010904/DTD/svg10.dtd">
<svg version="1.0" xmlns="http://www.w3.org/2000/svg"
 width="570.000000pt" height="900.000000pt" viewBox="0 0 570.000000 900.000000"
 preserveAspectRatio="xMidYMid meet">
<metadata>
Created by potrace 1.10, written by Peter Selinger 2001-2011
</metadata>
<g transform="translate(0.000000,900.000000) scale(0.100000,-0.100000)"
fill="#000000" stroke="none">
<path d="M3033 7329 c-54 -27 -117 -87 -143 -138 -14 -29 -20 -59 -20 -110 0
-65 2 -72 35 -112 20 -23 35 -49 33 -58 -2 -11 -31 -22 -98 -37 -127 -29 -171
-44 -268 -93 -183 -90 -340 -216 -456 -365 -64 -82 -141 -211 -178 -295 -64
-149 -108 -360 -108 -520 0 -289 115 -609 298 -828 212 -252 479 -407 801
-463 207 -36 415 -20 621 49 475 160 826 585 885 1074 16 135 16 166 2 312
-50 548 -493 1038 -1024 1136 -85 16 -89 24 -41 89 42 57 50 135 20 203 -26
59 -93 131 -146 157 -58 28 -156 27 -213 -1z m211 -112 c39 -31 75 -94 76
-133 0 -11 -12 -43 -26 -72 -35 -71 -79 -97 -161 -96 -73 2 -110 24 -148 88
-44 74 -28 146 45 209 65 55 146 57 214 4z m37 -406 c149 -16 298 -68 464
-161 285 -159 499 -453 576 -790 32 -137 31 -364 0 -509 -36 -165 -119 -341
-230 -489 -299 -396 -853 -566 -1326 -407 -452 151 -778 552 -830 1019 -22
193 3 386 70 556 121 305 306 508 596 657 52 27 128 59 169 71 41 13 91 28
110 34 74 24 264 33 401 19z"/>
<path d="M3679 6208 c-35 -22 -107 -60 -159 -83 -138 -62 -500 -231 -580 -272
-19 -10 -40 -29 -47 -43 -30 -63 -125 -264 -166 -355 -25 -55 -72 -158 -104
-230 -33 -71 -76 -154 -96 -184 -68 -98 -42 -118 63 -49 35 23 112 63 170 91
58 27 139 65 180 84 41 19 102 48 135 63 214 99 305 150 305 170 0 4 43 97 96
206 53 110 118 249 146 309 60 134 92 197 130 252 33 49 37 83 10 83 -11 0
-48 -19 -83 -42z m-111 -190 c2 -9 -17 -52 -42 -95 -51 -88 -176 -360 -176
-384 0 -18 -19 -39 -37 -39 -7 0 -29 19 -50 43 -62 69 -166 171 -202 198 -46
34 -37 59 31 83 62 21 78 28 218 94 58 27 132 65 165 86 63 38 88 42 93 14z
m-463 -444 c148 -149 154 -162 84 -183 -55 -17 -297 -132 -390 -187 -42 -24
-81 -44 -87 -44 -22 0 -12 45 21 100 56 94 187 374 187 401 0 14 29 49 41 49
4 0 69 -61 144 -136z"/>
</g>
</svg>
