<svg width="1799" height="2118" viewBox="0 0 1799 2118" fill="none" xmlns="http://www.w3.org/2000/svg">
<path d="M868.667 1.99982C867.867 3.06649 863.6 4.53316 858.667 5.33316C824.534 10.5332 786.267 31.5998 759.867 59.8665C735.867 85.4665 720.534 114.533 712.4 150C709.067 164.933 708.934 209.2 712.4 224.933C719.867 259.467 736.134 290.533 760.534 316.533C768.667 325.333 768.8 326.933 761.334 328.133C737.067 332.133 707.6 337.733 698.667 340C696.134 340.667 689.867 342.133 684.667 343.333C679.6 344.533 672.4 346.267 668.667 347.333C665.067 348.4 658.667 350.267 654.667 351.333C640.4 355.467 633.734 357.467 612 364.533C590.4 371.467 584.934 373.6 566.134 381.467C561.067 383.6 556.534 385.333 555.867 385.333C555.334 385.333 547.467 388.667 538.4 392.8C529.334 396.933 519.334 401.467 516 402.933C512.667 404.267 508.8 406.133 507.467 406.933C506 407.733 496.4 412.667 486.134 417.867C465.2 428.667 432.534 447.333 417.334 457.467C411.867 461.067 406.4 464.4 405.334 464.933C404.267 465.467 398.267 469.467 392 473.867C385.734 478.267 376.8 484.533 371.867 487.867C358.267 497.467 335.867 515.2 314.8 533.333C259.334 580.8 210.534 633.333 170.4 689.067C157.067 707.6 146.667 722.533 146.667 723.333C146.667 723.733 144.134 727.733 140.934 732.267C134.934 741.2 118.667 767.733 118.667 768.8C118.667 769.067 116 773.733 112.8 779.067C99.0669 801.733 76.2669 849.733 63.4669 882.667C60.8003 889.6 57.7336 897.067 56.8003 899.333C55.8669 901.467 54.0003 905.733 52.9336 908.667C50.5336 914.667 35.7336 962 32.5336 973.333C31.4669 977.333 29.8669 982.4 29.0669 984.667C28.4003 986.8 27.3336 991.067 26.6669 994C26.1336 996.933 25.0669 1001.73 24.2669 1004.67C23.4669 1007.6 21.8669 1014.13 20.6669 1019.33C19.4669 1024.4 18.0003 1030.8 17.3336 1033.33C16.0003 1038.93 7.46693 1092.13 5.33359 1108C-1.19974 1158.4 -1.19974 1276.13 5.33359 1326.67C8.40026 1350.27 16.2669 1397.2 19.4669 1410.67C21.3336 1418.4 23.7336 1428.53 24.8003 1433.33C25.8669 1438.13 27.4669 1444.13 28.2669 1446.67C29.0669 1449.2 30.2669 1453.07 30.8003 1455.33C34.8003 1471.47 47.7336 1512.53 54.4003 1530C58.9336 1542.13 73.3336 1576.8 78.9336 1589.33C84.6669 1602 107.867 1647.87 111.6 1653.6C113.2 1656.4 114.667 1658.93 114.667 1659.33C114.667 1660.67 135.6 1694.8 147.334 1712.67C206 1801.47 283.067 1882.27 368.667 1944.67C393.467 1962.8 453.467 2001.33 456.8 2001.33C457.067 2001.33 459.6 2002.8 462.4 2004.4C468.667 2008.4 508.934 2028.8 524 2035.73C535.6 2041.07 561.867 2052 571.334 2055.6C574.267 2056.67 577.734 2058.13 578.934 2058.8C581.6 2060.13 586.534 2061.87 606 2068.53C617.867 2072.67 625.2 2074.93 654.667 2083.47C658.667 2084.67 664.4 2086.4 667.334 2087.47C670.4 2088.53 673.867 2089.33 675.2 2089.33C676.667 2089.33 680.8 2090.27 684.534 2091.33C712.267 2099.47 780.934 2110.8 818 2113.33C826.8 2114 840.667 2115.07 848.667 2115.87C867.6 2117.73 929.734 2117.73 948.667 2115.87C956.8 2115.07 970.534 2114 979.334 2113.33C1016.4 2110.8 1085.07 2099.47 1112.8 2091.33C1116.53 2090.27 1120.67 2089.33 1122.13 2089.33C1123.47 2089.33 1126.93 2088.53 1130 2087.47C1132.93 2086.4 1138.67 2084.67 1142.67 2083.47C1172.13 2074.93 1179.47 2072.67 1191.33 2068.53C1210.8 2061.87 1215.73 2060.13 1218.4 2058.8C1219.6 2058.13 1223.33 2056.53 1226.67 2055.33C1238.4 2050.8 1262.13 2040.93 1273.33 2035.73C1286.67 2029.6 1329.33 2008 1334.93 2004.53C1337.73 2002.8 1340.27 2001.33 1340.53 2001.33C1341.87 2001.33 1376.4 1980.13 1394 1968.53C1482.67 1910.13 1563.6 1833.07 1626 1747.33C1644.27 1722.27 1682.67 1662.53 1682.67 1659.33C1682.67 1658.93 1684.13 1656.4 1685.73 1653.6C1689.47 1647.87 1712.67 1602 1718.4 1589.33C1724 1576.8 1738.4 1542.13 1742.93 1530C1749.6 1512.53 1762.53 1471.47 1766.53 1455.33C1767.07 1453.07 1768.27 1449.2 1769.07 1446.67C1769.87 1444.13 1771.47 1438.13 1772.53 1433.33C1773.6 1428.53 1776 1418.4 1777.87 1410.67C1783.87 1384.93 1792.8 1325.2 1794.67 1298C1795.33 1289.2 1796.4 1275.33 1797.2 1267.33C1799.33 1245.6 1799.07 1182.8 1796.67 1160.67C1795.6 1150.4 1794.67 1138.8 1794.67 1135.07C1794.67 1131.2 1793.87 1122.8 1792.8 1116.4C1791.73 1109.87 1790.27 1098.93 1789.33 1092C1787.2 1074.4 1780.53 1036.27 1777.33 1022.67C1775.73 1016.4 1773.6 1007.47 1772.53 1002.67C1771.47 997.867 1769.73 991.333 1768.8 988C1767.73 984.667 1765.07 975.067 1762.67 966.667C1755.47 941.467 1744.93 910.133 1737.6 892.667C1736.13 888.933 1732.93 881.2 1730.67 875.333C1721.6 852.667 1694 795.067 1686.53 783.333C1685.2 781.067 1683.6 778.4 1683.07 777.333C1682.53 776.267 1678.27 768.667 1673.47 760.667C1646.27 714.4 1617.73 674.8 1578 627.867C1564 611.333 1510.13 557.333 1490.67 540.4C1462.4 515.733 1432.8 493.067 1401.33 471.867C1383.47 459.733 1351.47 439.733 1345.33 436.933C1344.27 436.4 1341.6 434.8 1339.33 433.333C1335.2 430.667 1314 419.6 1294.67 409.867C1276.4 400.667 1267.2 396.533 1234 382.8C1232.53 382.133 1228.67 380.667 1225.33 379.333C1222 378.133 1218.27 376.533 1216.93 375.733C1214.4 374.4 1167.2 358.8 1154.67 355.2C1139.47 350.667 1133.87 349.067 1129.33 347.6C1126.8 346.8 1122.53 345.733 1120 345.2C1117.47 344.667 1107.47 342.4 1097.87 340.133C1082.27 336.4 1064 332.933 1040.67 329.333C1036.27 328.533 1030.67 327.733 1028.4 327.333C1023.07 326.4 1022.67 323.467 1027.2 319.333C1032.13 314.667 1047.2 295.733 1052.8 287.067C1059.2 277.067 1068.8 256.4 1072.13 245.333C1073.6 240.533 1075.47 234.8 1076.13 232.4C1079.07 223.067 1081.33 203.733 1081.33 188.533C1081.33 173.867 1078.4 146.8 1076.4 143.6C1075.87 142.8 1075.07 140 1074.53 137.466C1072.8 128.8 1069.73 121.2 1060.67 102.533C1047.47 75.5998 1024.53 49.8665 998.267 32.3998C977.734 18.7998 949.467 7.59982 929.067 4.66649C924.8 4.13316 922.667 3.19982 922.667 1.86649C922.667 -0.933509 870.667 -0.933509 868.667 1.99982ZM913.467 55.3332C920.4 56.5332 930.134 58.6665 935.2 60.2665C946.667 63.8665 965.067 73.0665 974 79.8665C991.6 93.1998 1010 116.133 1017.87 134.666C1032.8 169.466 1032 211.6 1015.87 244.267C1008.13 260.133 1001.87 268.933 989.334 281.467C973.2 297.733 958.534 306.933 936.267 314.667C929.6 317.067 925.334 317.333 895.334 317.333C858.8 317.333 858.134 317.2 838 308.133C816.8 298.533 795.467 279.467 781.6 258C780.134 255.733 772.667 240.533 769.2 232.667C762.534 217.733 760.134 181.2 764.534 160.266C774.4 113.466 808.8 75.5998 855.6 60.1332C859.867 58.7998 867.867 56.9332 873.334 55.9998C878.8 55.1998 884.267 54.2665 885.334 53.9998C890.667 52.9332 902.134 53.4665 913.467 55.3332ZM976 379.467C986.667 380.533 1002 382.267 1010 383.467C1018.13 384.533 1026.53 385.733 1028.67 386C1035.2 386.8 1077.6 394.667 1082.67 396C1085.2 396.667 1091.6 398.133 1096.67 399.333C1124.67 405.733 1181.73 423.733 1208 434.667C1249.33 451.6 1291.47 471.6 1308.27 482.267C1311.07 483.867 1313.6 485.333 1313.87 485.333C1314.53 485.333 1333.47 496.667 1346 504.533C1376.67 523.733 1426 560 1444.13 576.4C1447.47 579.467 1454.8 585.867 1460.4 590.667C1473.07 601.467 1515.07 643.6 1527.33 658C1532.4 663.867 1538.53 670.8 1540.8 673.333C1554.53 688.4 1587.73 732.8 1604.4 758.667C1635.47 806.667 1664.93 864.4 1684.93 916.667C1686.13 919.6 1687.73 923.733 1688.67 926C1690.8 931.067 1703.2 969.2 1705.87 978.8C1707.07 982.8 1709.2 990.133 1710.67 995.333C1713.6 1005.07 1714.4 1008 1717.87 1023.33C1726 1058.4 1730.8 1087.6 1736.93 1138.67C1740.13 1166.27 1740.13 1266.27 1736.93 1295.33C1734 1320.93 1730.93 1344.13 1729.33 1352.67C1728.67 1356.27 1727.2 1365.07 1726 1372C1724 1384.4 1720.53 1400.4 1716.53 1416.67C1714.67 1424.27 1713.33 1429.07 1708.67 1445.6C1705.87 1456 1690.53 1504 1688.53 1508.67C1687.6 1510.8 1685.07 1517.2 1682.93 1522.67C1666.4 1564 1645.87 1607.33 1631.73 1630.4C1628.93 1634.93 1626.67 1638.93 1626.67 1639.33C1626.67 1640 1617.73 1654.93 1612.67 1662.67C1611.07 1665.2 1606.8 1671.87 1603.2 1677.33C1543.33 1770.27 1450.93 1862.53 1358.67 1921.87C1353.2 1925.47 1347.07 1929.47 1345.07 1930.8C1343.07 1932.27 1341.2 1933.33 1340.8 1933.33C1340.4 1933.33 1337.6 1935.07 1334.4 1937.2C1331.2 1939.2 1325.07 1942.93 1320.67 1945.33C1316.27 1947.73 1310.53 1951.07 1308 1952.67C1302 1956.4 1261.2 1977.07 1247.6 1983.2C1234 1989.33 1206.67 2000.8 1194 2005.6C1184.4 2009.2 1150.13 2020.67 1140.67 2023.33C1136.27 2024.53 1130 2026.4 1126.67 2027.33C1082.93 2040.27 1036 2049.07 978 2055.33C952.134 2058.13 885.334 2059.2 851.334 2057.47C824.267 2056.13 818.4 2055.6 785.334 2051.2C762.4 2048.13 728.534 2042.4 716 2039.33C712 2038.27 704.134 2036.53 698.667 2035.2C693.2 2034 686.267 2032.27 683.334 2031.33C680.4 2030.4 674.134 2028.67 669.334 2027.33C664.534 2026 658.267 2024.27 655.334 2023.33C624.667 2013.47 609.867 2008.53 602 2005.33C580.267 1996.67 570.934 1992.8 564.667 1990C561.067 1988.4 552.267 1984.53 545.334 1981.47C538.4 1978.4 530.8 1974.8 528.4 1973.6C526 1972.4 517.6 1968 509.734 1964C497.867 1958 475.867 1945.73 466.667 1940.13C465.6 1939.33 459.6 1935.73 453.334 1931.87C348.134 1866.67 249.334 1767.87 184.134 1662.67C180.267 1656.4 176.667 1650.4 175.867 1649.33C163.734 1629.73 141.334 1587.07 132.667 1566.8C130.267 1561.2 127.2 1554 125.734 1550.67C123.2 1545.07 120.534 1538.67 110.8 1514.27C106.4 1503.47 94.5336 1467.2 88.9336 1447.6C84.4003 1432 82.6669 1425.73 80.8003 1417.33C79.6003 1412.53 77.6003 1403.6 76.1336 1397.33C71.6003 1378.27 65.8669 1341.07 60.4003 1296.67C57.0669 1269.6 57.2003 1166.53 60.4003 1138.67C66.6669 1086.8 71.0669 1059.33 79.4669 1023.33C82.9336 1008.13 83.7336 1005.07 86.6669 995.333C88.1336 990.133 90.2669 982.8 91.4669 978.8C94.1336 969.2 106.534 931.067 108.667 926C109.6 923.733 111.2 919.6 112.4 916.667C132.4 864.4 161.867 806.667 192.934 758.667C209.6 732.8 242.8 688.4 256.534 673.333C258.8 670.8 264.934 663.867 270 658C282.267 643.6 324.267 601.467 336.934 590.667C342.534 585.867 349.867 579.467 353.2 576.4C371.334 560 420.667 523.733 451.334 504.533C463.867 496.667 482.8 485.333 483.467 485.333C483.734 485.333 486.267 484 489.067 482.267C508.667 469.867 569.067 441.867 603.334 429.067C611.334 426.133 647.067 414.267 657.334 411.2C678.8 404.8 689.6 401.733 700.667 399.333C705.867 398.133 712.134 396.667 714.667 396C723.067 393.867 764.4 386.533 775.334 385.2C781.2 384.533 786.934 383.6 788 383.333C793.334 381.733 831.467 378.267 854 377.333C888.534 376 952.4 377.067 976 379.467Z" fill="black"/>
<path d="M1302 779.6C1298.4 780.667 1290 784.134 1283.33 787.334C1276.8 790.534 1258.8 799.2 1243.33 806.667C1228 814.267 1208.13 823.734 1199.33 828C1190.53 832.267 1170.8 841.734 1155.33 849.334C1140 856.8 1118 867.467 1106.67 872.934C1095.33 878.534 1075.2 888.267 1062 894.667C1048.8 901.067 1029.87 910.267 1020 915.067C1010.13 919.734 990 929.467 975.334 936.667C960.667 943.734 939.334 954.134 928 959.6C916.667 965.2 894.4 976 878.667 983.734C862.934 991.334 845.2 999.867 839.334 1002.67C825.467 1009.2 770.8 1035.73 755.067 1043.6C747.467 1047.47 740.534 1052.13 736.8 1055.87C730.134 1062.67 723.334 1075.87 682.4 1161.33C673.067 1180.8 657.867 1211.87 614.667 1300.67C607.067 1316 597.867 1335.2 594 1343.33C587.6 1356.8 580.534 1371.47 550 1434C543.867 1446.4 533.467 1467.87 526.8 1481.6C520.134 1495.47 509.334 1517.6 502.8 1530.93C496.267 1544.4 486.667 1564.27 481.334 1575.33C476 1586.27 469.734 1599.2 467.467 1604C465.2 1608.8 462.134 1616 460.8 1620.13C458.4 1627.33 458.4 1627.73 460.667 1635.33C464 1645.6 470.534 1652 480.934 1655.2C488.4 1657.47 488.934 1657.47 496.667 1654.93C501.067 1653.47 515.734 1646.93 529.334 1640.27C575.2 1618.13 596.534 1607.73 620.667 1596C660.934 1576.4 694.534 1560 711.334 1552C720.134 1547.73 741.2 1537.6 758 1529.33C774.934 1521.2 796.134 1510.8 805.334 1506.4C814.534 1501.87 837.2 1490.93 855.734 1481.87C874.267 1472.8 889.734 1465.33 890 1465.33C890.267 1465.33 907.067 1457.2 927.6 1447.2C964 1429.33 985.067 1419.2 1029.87 1397.33C1059.6 1382.93 1063.73 1379.2 1075.2 1355.47C1079.87 1345.87 1089.2 1326.53 1096 1312.67C1102.8 1298.67 1113.47 1276.8 1119.6 1264C1125.87 1251.2 1135.87 1230.4 1142 1218C1148 1205.47 1157.47 1186 1163.07 1174.67C1168.53 1163.33 1178.67 1142.27 1185.73 1128C1201.87 1094.8 1218.27 1060.93 1231.07 1034.67C1241.47 1013.07 1258 979.067 1276.67 940.667C1292.13 908.8 1307.6 876.934 1322.13 847.067C1328.93 833.067 1335.47 818.267 1336.8 814.267C1338.93 807.334 1338.93 806.534 1336.8 800C1333.6 790.267 1329.87 785.734 1322 782.134C1312.67 777.734 1309.6 777.334 1302 779.6ZM1243.07 875.467C1242.8 877.2 1233.47 896.8 1215.33 934C1189.2 987.467 1158.53 1050.8 1147.33 1074C1135.6 1098.27 1110.53 1150 1077.6 1217.47C1068.8 1235.47 1059.07 1255.87 1055.87 1262.8C1045.33 1285.47 1033.87 1307.2 1032.13 1307.73C1030.13 1308.4 808 1086.93 808 1084.27C808 1083.33 820.4 1076.53 835.734 1069.2C850.934 1061.73 872.4 1051.33 883.334 1046C894.4 1040.67 914.8 1030.67 928.667 1024C942.667 1017.2 961.867 1007.87 971.334 1003.33C980.934 998.8 1000.67 989.2 1015.33 982C1030 974.934 1052.27 964 1064.67 958C1097.33 942.134 1132.67 924.934 1152.67 915.334C1202.27 891.467 1231.73 877.067 1234.67 875.334C1238.27 873.2 1243.47 873.2 1243.07 875.467ZM878.267 1237.87C939.467 1299.07 989.334 1349.87 989.067 1350.8C988.534 1352.53 974.267 1360.13 947.334 1372.93C937.734 1377.47 914.667 1388.53 896 1397.73C877.334 1406.8 853.6 1418.4 843.334 1423.33C833.067 1428.27 812.934 1438 798.667 1445.07C784.4 1452 765.467 1461.07 756.667 1465.33C740.267 1473.2 711.2 1487.33 665.334 1509.73C554.134 1563.87 554.667 1563.6 554.667 1559.47C554.667 1557.87 565.2 1535.6 588.667 1487.33C598.4 1467.33 611.734 1439.73 634.534 1392.93C641.2 1379.2 652.134 1356.8 658.8 1342.93C665.467 1329.2 675.334 1308.93 680.667 1298C696.8 1264.4 711.734 1233.73 722.667 1211.33C728.4 1199.6 740 1175.73 748.534 1158.27C756.934 1140.93 764.534 1126.67 765.334 1126.67C766.267 1126.67 816.934 1176.67 878.267 1237.87Z" fill="black"/>
</svg>
