<svg width="1799" height="1113" viewBox="0 0 1799 1113" fill="none" xmlns="http://www.w3.org/2000/svg">
<path d="M1134 2.33344C1128.93 3.26677 1122.27 4.2001 1119.47 4.2001C1116.53 4.33344 1110.8 5.13344 1106.8 6.20011C1102.67 7.26677 1094.8 9.13344 1089.33 10.3334C1059.6 17.1334 1035.47 25.9334 1005.2 41.0001C944.399 71.2668 893.599 116.867 855.066 175.667C851.466 181.267 849.066 183.667 847.199 183.4C845.866 183.267 838.666 181.133 831.333 178.467C768.133 155.8 690.399 156.6 629.333 180.333C625.333 181.933 620.533 183.667 618.666 184.333C611.599 186.6 588.133 198.333 576.666 205.4C524.533 237.4 486.133 280.067 459.199 336.2L453.199 348.733L442.933 347.8C437.333 347.4 429.333 346.467 425.333 345.8C412.666 343.667 352.266 344.067 336.266 346.333C298.533 351.8 257.999 362.867 229.999 375.533C170.133 402.6 122.399 439.267 83.066 488.333C74.7993 498.6 58.666 521.133 58.666 522.333C58.666 522.6 56.9326 525.4 54.7993 528.6C49.1993 537 36.1326 562.867 29.066 579.667C14.7993 613.133 8.26596 638.2 1.46596 685.4C-0.400709 697.8 -0.400709 756.2 1.33262 771C7.59929 823.133 22.3993 869.667 46.5326 913.4C54.7993 928.467 53.9993 927.133 65.5993 944.333C92.7993 985.133 132.399 1024.07 173.333 1050.33C186.266 1058.6 187.199 1059.13 196.666 1064.33C227.999 1081.67 261.733 1094.73 294.666 1102.33C300.133 1103.53 308.133 1105.4 312.266 1106.47C316.533 1107.53 321.866 1108.33 324.266 1108.33C326.666 1108.33 333.466 1109.27 339.333 1110.33C348.533 1111.93 429.599 1112.2 925.466 1112.33C1321.87 1112.33 1503.2 1111.93 1508.13 1111C1512.13 1110.2 1519.6 1109 1524.67 1108.33C1533.73 1107.13 1536.93 1106.47 1554 1101.93C1630.93 1081.93 1696.67 1035.27 1742.93 967.667C1771.33 926.067 1788.93 878.333 1796.8 820.733C1799.2 802.2 1798.93 760.333 1796.13 743C1790.13 706.333 1783.33 681.533 1772.67 657C1769.47 649.4 1754.27 619.667 1751.07 614.333C1717.87 560.467 1668.8 516.067 1613.33 489.4C1603.87 484.867 1582.4 476.333 1574 473.667C1571.07 472.733 1566.53 471.267 1564 470.2C1561.47 469.267 1557.6 468.2 1555.47 467.667C1551.07 466.733 1551.07 469.533 1556.13 439.667C1558.67 424.467 1559.07 417.4 1559.07 383C1559.07 348.733 1558.8 341.267 1556.13 325.667C1552.93 305.8 1546.93 280.067 1542.67 267.667C1541.07 263.267 1539.33 257.8 1538.67 255.667C1537.47 251.4 1534.93 244.733 1532 238.333C1531.07 236.067 1529.2 231.933 1527.87 229C1517.07 204.333 1510.4 192.333 1493.73 167.667C1477.87 144.067 1468.67 133 1449.33 113.533C1408.27 72.2001 1366.13 45.2668 1306.67 22.2001C1291.6 16.4668 1243.87 4.33344 1235.73 4.33344C1233.33 4.33344 1226.53 3.4001 1220.67 2.33344C1206.53 -0.199895 1147.47 -0.199895 1134 2.33344ZM1200.13 71.0001C1229.33 73.2668 1262 80.0668 1282.67 88.3334C1286.67 89.9334 1291.6 91.6668 1293.6 92.3334C1302 95.0001 1336.27 112.733 1348.53 120.867C1393.6 150.867 1429.07 189.8 1454.13 237.133C1464.13 256.067 1473.87 281.267 1480.67 306.333C1491.73 346.467 1493.2 401 1484.53 442.333C1482.13 453.8 1478.93 466.333 1477.2 471.667C1471.73 487.667 1470.93 496.467 1473.73 504.333C1479.6 520.6 1487.6 526.2 1510 530.2C1557.47 538.467 1599.07 557 1632.93 584.6C1641.2 591.4 1663.33 613.533 1669.87 621.667C1690.93 647.533 1708.8 681.267 1717.87 712.333C1731.2 757.667 1731.2 810.867 1718 856.333C1716.8 860.333 1715.33 865.4 1714.8 867.667C1713.33 872.867 1704.93 892.2 1699.73 902.333C1679.87 941.133 1649.2 975.4 1612.13 999.933C1575.6 1024.2 1534.67 1037.93 1488.13 1041.67C1463.6 1043.53 392.399 1043.53 363.733 1041.67C341.066 1040.2 324.533 1037.67 304.799 1032.73C290.133 1029.13 271.999 1023.27 269.999 1021.53C269.333 1020.87 267.999 1020.33 266.933 1020.33C263.866 1020.33 231.066 1004.07 217.466 995.8C179.199 972.467 142.933 936.733 116.933 896.733C113.466 891.4 110.666 886.867 110.666 886.467C110.666 886.067 108.799 882.733 106.533 879C97.7326 864.733 81.866 823.933 76.7993 803C63.1993 745.533 65.7326 683.933 83.7326 630.333C89.066 614.6 101.333 586.067 106.533 577.667C108.799 573.933 110.666 570.6 110.666 570.2C110.666 569.8 113.466 565.133 116.933 559.933C144.133 518.867 179.199 484.067 216.933 461.133C262.666 433.267 306.666 419.4 362.399 414.867C391.599 412.6 421.466 415.133 457.466 423.133C488.533 429.933 502.933 422.467 511.866 394.467C531.466 333.133 575.333 282.467 632.266 255.267C653.066 245.4 673.599 238.867 699.333 234.467C715.333 231.667 749.999 231.667 765.999 234.467C791.599 238.867 813.466 245.8 835.333 256.2C855.733 266.067 861.466 267.533 870.933 265.4C883.733 262.467 889.866 257.267 898.533 241.267C900.799 237.133 904.533 230.2 906.799 225.933C921.466 199.267 950.799 164.733 979.333 140.733C993.466 128.867 1020.13 111.8 1039.07 102.467C1049.2 97.5334 1059.07 93.0001 1061.07 92.3334C1063.07 91.6668 1068 89.9334 1072 88.3334C1076 86.7334 1081.2 84.8668 1083.33 84.3334C1110.13 76.7334 1123.87 74.0668 1148 71.6668C1169.87 69.5334 1178.53 69.4001 1200.13 71.0001Z" fill="black"/>
</svg>
