<svg width="1800" height="1800" viewBox="0 0 1800 1800" fill="none" xmlns="http://www.w3.org/2000/svg">
<path d="M1798.1 1371.03C1797.03 1371.03 1795.7 1369.17 1795.3 1366.9C1792.77 1355.7 1778.77 1338.63 1766.37 1331.97C1752.9 1324.5 1750.77 1324.37 1667.83 1324.37C1625.7 1324.37 1590.63 1323.83 1589.7 1323.3C1588.5 1322.63 1587.97 1308.1 1587.57 1269.03C1586.9 1221.7 1586.63 1214.1 1584.1 1201.43C1580.77 1185.3 1575.17 1166.9 1570.1 1156.77C1568.23 1152.9 1566.63 1149.43 1566.63 1149.03C1566.63 1147.57 1553.7 1127.03 1548.1 1119.7C1540.1 1109.03 1535.3 1103.83 1509.03 1076.77C1495.57 1063.03 1486.9 1053.17 1487.43 1052.1C1487.83 1051.17 1490.37 1048.63 1493.17 1046.37C1501.3 1039.97 1507.17 1031.43 1512.77 1017.7C1515.17 1011.97 1515.3 996.499 1515.3 529.699C1515.3 61.299 1515.17 47.4323 1512.77 41.699C1507.97 30.2323 1505.97 26.7657 1499.57 19.5657C1492.63 11.9657 1481.57 4.63232 1472.5 1.96566C1465.03 -0.167678 1361.17 -0.301016 1356.9 1.83232C1352.63 4.09898 1346.63 9.83232 1344.5 13.9656C1340.5 21.699 1342.77 36.2323 1349.17 43.5656C1355.03 50.2323 1356.1 50.3656 1408.37 51.0323L1457.57 51.699L1460.1 54.899C1462.63 57.9657 1462.63 67.299 1462.63 529.566C1462.63 954.232 1462.37 1001.43 1460.5 1004.1L1458.5 1007.03L898.635 1007.03L338.768 1007.03L336.768 1004.1C334.902 1001.43 334.635 954.232 334.635 529.566C334.635 67.2989 334.635 57.9656 337.168 54.8989L339.702 51.6989L798.235 51.0323L1256.63 50.3656L1260.63 47.4323C1267.43 42.6323 1270.37 38.6323 1272.1 32.099C1275.17 20.899 1269.43 7.29898 1259.83 2.49898C1255.97 0.632313 1211.57 0.365644 792.902 0.365626C435.168 0.365611 329.035 0.765606 324.768 1.96561C315.968 4.63227 304.768 11.8323 297.968 19.2989C291.302 26.6323 289.035 30.4989 284.635 41.0323C281.968 47.6989 281.968 47.8323 281.568 522.766C281.435 805.032 281.702 1001.43 282.502 1006.77C284.368 1020.1 289.835 1032.1 297.835 1040.63C299.702 1042.63 301.302 1044.9 301.302 1045.57C301.302 1046.37 291.835 1058.5 280.235 1072.63C246.502 1113.7 240.502 1121.97 231.435 1139.97C221.968 1159.03 217.035 1173.43 212.502 1196.37C210.768 1205.57 210.235 1218.63 209.702 1265.03C209.302 1307.17 208.768 1322.63 207.568 1323.3C206.635 1323.83 171.568 1324.37 129.435 1324.37C46.5015 1324.37 44.3682 1324.5 30.9015 1331.97C17.5682 1339.3 5.96818 1353.7 1.03484 1369.7C-1.09849 1376.37 -1.36516 1384.5 -1.23183 1452.37L-1.23183 1527.7L1.83484 1533.03C3.43484 1535.97 7.7015 1540.37 11.4348 1542.77C17.4348 1546.9 18.6348 1547.3 26.2348 1546.77C35.0348 1546.23 41.1682 1542.63 47.1682 1534.5C49.8348 1530.9 49.9682 1529.03 50.6348 1457.03C51.3015 1386.9 51.4348 1383.17 53.8348 1380.5L56.3682 1377.7L235.568 1377.7C412.902 1377.7 414.635 1377.7 417.302 1380.37C419.968 1383.03 419.968 1384.77 419.968 1562.1L419.968 1741.3L417.168 1743.83C414.502 1746.23 409.302 1746.37 236.368 1746.77L58.5015 1747.03L54.5015 1743.17L50.6348 1739.3L50.6348 1689.03C50.6348 1642.5 50.5015 1638.63 48.1015 1633.97C46.7682 1631.3 44.5015 1627.97 43.0348 1626.77C39.4348 1623.43 29.1682 1619.03 24.9015 1619.03C19.7015 1619.03 10.6348 1623.43 6.5015 1627.97C-1.4985 1636.5 -1.36517 1635.43 -1.36517 1693.3C-1.36517 1739.97 -1.09851 1747.3 1.03483 1753.7C7.70149 1775.03 22.3682 1789.7 43.9682 1796.63C50.9015 1798.9 62.7682 1799.03 235.968 1799.03C407.568 1799.03 421.168 1798.77 427.968 1796.63C443.968 1791.7 458.368 1780.1 465.702 1766.77C473.568 1752.37 473.302 1761.3 473.302 1561.7C473.302 1433.57 472.902 1377.03 471.835 1372.63C466.902 1351.83 450.768 1334.5 428.902 1326.63C425.968 1325.57 399.035 1324.9 343.968 1324.37L263.302 1323.7L262.902 1269.7C262.635 1219.97 262.768 1214.77 265.302 1202.77C269.035 1184.9 275.035 1169.03 283.168 1155.7C290.235 1143.97 354.768 1063.7 358.902 1061.57C362.502 1059.57 868.368 1059.97 870.368 1061.97C872.635 1064.23 872.635 1320.5 870.368 1322.77C869.168 1323.97 849.968 1324.37 792.102 1324.37C708.635 1324.37 708.102 1324.5 693.435 1331.97C679.035 1339.57 665.168 1358.5 662.502 1374.77C660.902 1384.9 660.902 1738.5 662.502 1748.63C666.102 1770.23 683.702 1789.43 706.635 1796.63C713.435 1798.77 727.035 1799.03 898.635 1799.03C1070.23 1799.03 1083.83 1798.77 1090.63 1796.63C1113.7 1789.43 1131.17 1770.37 1134.77 1748.63C1135.43 1744.23 1135.97 1665.83 1135.97 1561.7C1135.97 1457.57 1135.43 1379.17 1134.77 1374.77C1131.03 1352.5 1112.23 1332.5 1089.3 1326.37C1083.3 1324.77 1068.23 1324.37 1005.7 1324.37C963.835 1324.37 928.635 1323.97 927.435 1323.57C925.568 1322.77 925.302 1310.1 925.302 1193.17C925.302 1094.1 925.702 1063.17 926.902 1061.97C928.102 1060.77 984.768 1060.37 1173.83 1060.37L1419.17 1060.37L1435.3 1076.77C1508.77 1151.3 1515.03 1158.9 1525.17 1186.77C1533.83 1210.37 1534.77 1218.1 1534.37 1273.7L1533.97 1323.7L1453.3 1324.37C1398.23 1324.9 1371.3 1325.57 1368.37 1326.63C1346.23 1334.5 1331.97 1349.7 1325.83 1371.7C1323.17 1381.57 1323.17 1741.7 1325.83 1751.83C1331.57 1773.57 1347.3 1789.7 1369.3 1796.63C1376.1 1798.77 1389.83 1799.03 1561.43 1799.03C1762.1 1799.03 1749.03 1799.43 1765.3 1791.97C1777.17 1786.5 1792.37 1768.37 1795.3 1756.1C1795.83 1753.97 1797.03 1752.37 1798.1 1752.37C1799.7 1752.37 1799.97 1723.7 1799.97 1561.7C1799.97 1397.83 1799.7 1371.03 1798.1 1371.03ZM1742.77 1743.17L1738.77 1747.03L1560.63 1746.77L1382.37 1746.37L1379.83 1743.17C1377.43 1740.1 1377.3 1735.3 1377.3 1561.57C1377.3 1384.77 1377.3 1383.03 1379.97 1380.37C1382.63 1377.7 1384.37 1377.7 1561.7 1377.7C1730.63 1377.7 1741.03 1377.83 1742.9 1380.1C1744.1 1381.3 1745.3 1383.3 1745.7 1384.37C1746.1 1385.43 1746.5 1465.7 1746.5 1562.77L1746.63 1739.3L1742.77 1743.17ZM1079.17 1744.23L1075.57 1747.03L897.968 1746.77C725.302 1746.37 720.102 1746.23 717.435 1743.83L714.635 1741.3L714.635 1562.1C714.635 1384.77 714.635 1383.03 717.302 1380.37C719.968 1377.7 721.702 1377.7 898.635 1377.7C1075.57 1377.7 1077.3 1377.7 1079.97 1380.37C1082.63 1383.03 1082.63 1384.77 1082.63 1562.23L1082.63 1741.57L1079.17 1744.23Z" fill="black"/>
<path d="M1691.17 1453.7C1688.1 1446.63 1681.57 1440.63 1674.37 1438.23C1660.9 1433.83 1646.1 1441.7 1641.97 1455.43C1639.03 1465.17 1639.03 1547.43 1641.97 1557.17C1643.83 1563.7 1647.83 1568.5 1654.9 1573.03C1659.57 1575.97 1672.77 1576.1 1678.1 1573.3C1683.57 1570.37 1689.97 1563.17 1691.83 1557.83C1692.77 1554.77 1693.3 1537.83 1693.3 1505.83C1693.17 1466.5 1692.9 1457.57 1691.17 1453.7Z" fill="black"/>
<path d="M1586.77 1458.1C1586.23 1455.03 1585.03 1451.43 1583.97 1450.1C1578.77 1443.3 1574.9 1440.23 1569.03 1438.23C1556.63 1434.1 1543.03 1440.5 1537.3 1453.17C1534.77 1458.77 1534.63 1462.37 1534.63 1569.03C1534.63 1678.77 1534.63 1679.17 1537.43 1684.77C1543.17 1695.97 1553.3 1701.43 1565.3 1699.83C1573.17 1698.77 1580.5 1693.7 1584.23 1686.63L1587.3 1681.03L1587.43 1572.37C1587.57 1512.63 1587.3 1461.17 1586.77 1458.1Z" fill="black"/>
<path d="M1480.24 1453.43C1476.5 1445.43 1470.77 1440.5 1463.04 1438.23C1456.64 1436.37 1455.3 1436.37 1448.77 1438.23C1440.9 1440.5 1432.9 1447.97 1431.04 1454.63C1430.37 1456.77 1429.97 1495.57 1429.97 1541.03L1429.97 1623.7L1432.9 1628.37C1437.3 1635.43 1441.17 1638.5 1449.04 1641.03C1455.57 1643.17 1456.37 1643.17 1463.04 1641.03C1471.44 1638.37 1476.64 1633.7 1480.1 1625.83C1482.5 1620.23 1482.64 1616.37 1482.64 1539.17C1482.5 1464.63 1482.37 1457.97 1480.24 1453.43Z" fill="black"/>
<path d="M1028.1 1453.03C1018.9 1432.77 993.035 1431.57 981.035 1450.77C977.969 1455.7 977.969 1455.83 977.969 1506.5L977.969 1557.17L981.702 1562.77C987.302 1571.3 994.235 1575.3 1003.7 1575.43C1012.1 1575.43 1017.7 1573.03 1023.57 1566.77C1030.37 1559.57 1030.64 1557.3 1030.64 1506.1C1030.64 1462.77 1030.37 1457.83 1028.1 1453.03Z" fill="black"/>
<path d="M923.702 1456.1C921.569 1448.1 914.235 1440.77 905.835 1438.23C899.302 1436.37 897.969 1436.37 891.435 1438.23C882.635 1440.77 875.702 1448.1 873.435 1457.03C871.302 1465.57 871.435 1673.43 873.569 1680.9C877.702 1695.03 891.835 1703.03 906.235 1699.17C913.702 1697.17 921.569 1689.03 923.702 1681.17C925.702 1673.43 925.835 1463.97 923.702 1456.1Z" fill="black"/>
<path d="M818.769 1457.43C817.702 1452.1 812.235 1444.1 807.569 1441.03C797.969 1434.9 785.035 1435.83 776.369 1443.43C766.369 1452.23 766.635 1448.63 766.635 1539.7C766.635 1616.1 766.902 1621.3 769.169 1626.37C772.502 1633.43 777.969 1638.37 785.702 1640.9C800.235 1645.7 816.235 1635.97 818.769 1620.77C820.102 1612.77 819.969 1464.23 818.769 1457.43Z" fill="black"/>
<path d="M1408.5 135.166C1405.57 124.099 1399.03 115.299 1389.3 109.566C1380.77 104.366 1377.57 104.232 1259.3 104.632C1145.83 105.032 1144.63 105.032 1138.5 107.832C1129.97 111.832 1119.83 122.366 1116.9 130.499C1114.77 136.632 1114.63 158.766 1114.63 529.699C1114.63 976.366 1113.3 929.699 1126.63 943.032C1139.7 955.832 1130.77 955.032 1262.1 955.033C1390.63 955.033 1383.83 955.566 1395.57 945.299C1402.77 938.899 1407.3 931.166 1409.17 921.966C1410.23 916.899 1410.63 804.499 1410.5 528.632C1410.5 194.766 1410.23 141.432 1408.5 135.166ZM1355.17 902.233C1351.97 903.433 1170.23 903.166 1168.23 901.966C1166.9 901.032 1166.63 825.699 1166.9 529.566L1167.3 158.366L1259.3 157.966C1309.97 157.832 1352.63 157.966 1354.37 158.366L1357.3 159.032L1357.3 530.232C1357.3 867.432 1357.17 901.433 1355.17 902.233Z" fill="black"/>
<path d="M986.767 135.032C984.101 122.366 972.767 110.499 959.034 106.366C949.167 103.299 761.834 103.432 753.167 106.366C738.367 111.566 727.967 123.832 725.434 139.166C723.301 151.832 723.301 459.966 725.434 472.099C728.234 487.699 737.301 499.032 751.701 504.366C758.767 507.032 761.167 507.032 858.501 506.766L957.967 506.366L965.567 502.632C973.301 498.766 979.967 492.099 984.767 483.032C987.167 478.499 987.301 471.832 987.434 309.032C987.567 215.966 987.301 137.566 986.767 135.032ZM933.567 452.632C932.901 453.299 897.967 453.699 855.967 453.699C796.767 453.699 779.167 453.299 778.367 451.966C777.167 450.099 776.901 162.899 778.101 159.832C778.901 157.966 786.901 157.699 856.101 157.699C921.567 157.699 933.301 157.966 934.234 159.566C935.701 162.099 934.901 451.299 933.567 452.632Z" fill="black"/>
<path d="M986.769 589.699C984.636 579.299 973.036 566.632 961.436 562.099C955.836 559.966 947.702 559.699 862.636 559.299C766.769 558.899 757.836 559.299 747.436 564.366C735.169 570.232 727.969 580.232 725.436 595.166C723.436 606.899 723.302 908.232 725.302 919.832C728.102 935.432 735.836 945.566 750.236 951.832L757.436 955.032L856.769 955.032L956.236 955.032L964.636 951.032C973.569 946.766 979.436 941.166 984.236 931.966L987.302 926.366L987.436 760.366C987.569 669.032 987.302 592.232 986.769 589.699ZM933.969 901.432C933.569 902.632 917.036 903.032 857.436 903.032C815.702 903.032 780.636 902.632 779.436 902.232C777.569 901.432 777.302 887.566 777.302 758.499C777.302 649.166 777.702 615.166 778.902 613.966C780.102 612.766 799.302 612.366 856.902 612.366C931.436 612.366 933.436 612.499 934.369 614.899C935.436 617.699 935.036 898.632 933.969 901.432Z" fill="black"/>
<path d="M659.569 134.232C657.302 126.099 651.035 117.032 644.502 112.365C633.169 104.232 635.302 104.365 529.035 104.365C433.302 104.365 431.969 104.365 424.502 107.165C415.169 110.632 407.035 117.832 401.835 127.299L397.969 134.365L397.969 305.699L397.969 477.032L401.569 483.832C403.569 487.565 408.102 493.299 411.702 496.632C423.835 507.432 419.302 507.032 529.302 507.032C609.035 507.032 627.302 506.632 632.502 505.165C645.035 501.299 656.502 489.165 659.702 476.099C661.969 467.165 661.702 142.099 659.569 134.232ZM606.635 453.032C604.769 454.232 452.902 453.832 451.702 452.632C451.169 452.099 450.769 385.565 450.902 304.899L451.302 158.365L527.969 157.965C570.102 157.832 605.435 157.965 606.369 158.365C607.569 158.765 607.969 189.565 607.969 305.565C607.969 397.565 607.435 452.499 606.635 453.032Z" fill="black"/>
<path d="M659.435 589.699C656.502 578.499 649.435 569.699 639.302 564.499C629.169 559.299 619.302 558.899 523.302 559.299L431.302 559.699L423.435 562.899C414.102 566.632 405.435 574.766 401.035 583.966L397.969 590.366L397.969 757.699L397.969 925.033L401.569 931.833C405.969 940.099 413.302 947.433 421.302 951.299L427.302 954.366L527.969 954.766C638.369 955.166 630.902 955.566 644.369 947.433C650.369 943.699 657.569 932.766 659.702 924.099C662.102 914.899 661.835 598.099 659.435 589.699ZM531.969 902.766C490.502 902.899 455.302 902.766 453.702 902.366L450.635 901.699L450.635 758.632C450.635 649.166 451.035 615.166 452.235 613.966C454.635 611.566 606.102 611.699 607.035 614.099C607.435 614.899 607.702 680.233 607.569 759.033L607.302 902.366L531.969 902.766Z" fill="black"/>
<path d="M367.435 1436.77C362.635 1426.5 355.702 1422.37 343.302 1422.37C335.035 1422.5 333.302 1422.9 328.902 1426.23C326.235 1428.23 322.635 1432.23 321.035 1434.9C317.969 1439.7 317.969 1439.97 317.969 1491.03C317.969 1539.7 318.102 1542.63 320.502 1546.37C326.902 1556.1 333.035 1559.57 343.969 1559.57C353.435 1559.57 358.902 1557.03 363.969 1550.63C370.502 1542.37 370.635 1540.77 370.635 1490.77C370.635 1443.83 370.635 1443.7 367.435 1436.77Z" fill="black"/>
<path d="M263.434 1439.83C261.167 1432.5 253.434 1424.9 246.501 1423.03C243.167 1422.1 237.834 1421.83 233.701 1422.37C227.834 1423.03 225.701 1424.1 220.901 1428.9C216.767 1432.77 214.634 1436.37 213.567 1440.63C212.367 1445.17 211.967 1476.5 211.967 1553.43C211.967 1673.7 211.701 1669.83 221.567 1678.23C227.701 1683.57 234.901 1685.17 244.767 1683.7C252.767 1682.5 261.567 1673.97 263.834 1665.17C265.967 1656.37 265.701 1447.03 263.434 1439.83Z" fill="black"/>
<path d="M158.768 1443.43C157.568 1436.63 152.101 1428.5 146.368 1425.03C143.035 1423.03 139.701 1422.37 132.368 1422.37C123.701 1422.5 122.235 1422.9 117.701 1426.5C114.901 1428.77 111.301 1433.17 109.568 1436.5L106.635 1442.37L106.901 1525.7L107.301 1609.03L111.168 1614.77C115.968 1621.7 125.435 1627.03 133.301 1627.03C142.635 1627.03 153.568 1619.57 157.568 1610.37C158.901 1607.17 159.301 1589.43 159.435 1527.7C159.568 1484.5 159.301 1446.5 158.768 1443.43Z" fill="black"/>
</svg>
