<svg width="1799" height="1561" viewBox="0 0 1799 1561" fill="none" xmlns="http://www.w3.org/2000/svg">
<path d="M316.134 3.13327C310.534 6.0666 304.8 11.3999 299.734 18.3333C297.6 21.2666 293.867 25.7999 291.467 28.3333C289.2 30.8666 285.2 35.7999 282.667 39.1333C280.134 42.4666 274.8 48.7333 271.067 53.1333C267.2 57.3999 252.667 74.7333 238.667 91.6666C194.134 145.4 191.467 148.6 183.2 158.2C178.8 163.4 171.067 172.733 166 179C161.067 185.267 154.134 193.667 150.667 197.667C143.067 206.333 124.134 229 112.8 242.867C108.267 248.333 100.534 257.667 95.3335 263.8C77.0669 285.133 74.0002 288.867 72.0002 291.8C70.8002 293.4 67.8669 297.133 65.3335 299.933C62.6669 302.733 58.2669 307.933 55.3335 311.667C52.4002 315.267 46.4002 322.6 42.0002 327.8C29.6002 342.333 23.6002 349.667 20.6669 353.4C19.2002 355.267 15.3335 359.8 12.0002 363.533C0.400207 376.6 0.0002061 377.533 0.0002061 390.333C0.0002061 403.933 -1.59979 401.4 32.2669 445C32.8002 445.667 35.8669 449.533 38.9335 453.533C47.4669 464.333 51.4669 469.667 56.4002 477C58.9335 480.6 62.1335 484.867 63.6002 486.333C65.8669 488.867 94.5335 526.2 100.8 534.733C102.267 536.867 107.067 543.267 111.467 548.867C123.867 565 125.734 567.533 153.334 603.667C196 659.8 207.2 674.333 210.667 678.733C212.534 681.133 216.534 686.467 219.734 690.6C222.8 694.867 227.867 701.533 231.067 705.533C234.134 709.4 237.867 714.333 239.334 716.333C240.8 718.333 250.4 731 260.667 744.333C270.934 757.8 281.067 771.133 283.2 774.067C285.334 777 288.134 780.467 289.467 781.8C290.8 783.133 292.934 785.8 294.267 787.933C295.6 789.933 299.2 795 302.4 799C305.467 803 308.534 806.867 309.067 807.667C309.6 808.333 315.734 816.333 322.667 825.4C329.6 834.467 338.267 845.8 341.734 850.733C345.2 855.667 348.667 859.8 349.334 860.067C350.134 860.333 350.667 861.267 350.667 862.333C350.667 863.267 351.6 864.867 352.934 865.8C354.667 867.4 363.467 878.6 386.667 909.133C388.534 911.533 391.867 916.067 394 919.133C396.267 922.2 400 926.867 402.4 929.667C404.667 932.467 406.667 935.133 406.667 935.8C406.667 936.333 408.4 938.733 410.534 941C412.667 943.133 416.134 947.4 418.134 950.467C420.267 953.4 427.734 963.267 434.667 972.2C441.6 981.267 449.2 991.133 451.334 994.2C457.334 1002.33 464 1011 470.4 1019.13C473.467 1023.13 476.534 1026.87 477.067 1027.67C480.534 1032.07 507.867 1067.93 510.267 1071.27C511.867 1073.4 514.534 1076.87 516 1078.87C517.467 1080.73 520.267 1084.6 522.267 1087.27C529.6 1097.13 559.2 1135.8 562.4 1139.67C564.134 1141.8 569.334 1148.6 573.867 1154.47C578.267 1160.47 592.267 1178.73 604.667 1195C617.2 1211.4 630.667 1229.13 634.667 1234.47C638.667 1239.8 649.467 1253.93 658.667 1265.8C667.867 1277.67 677.067 1289.93 679.2 1292.87C681.334 1295.93 684.934 1300.47 687.334 1303.27C689.867 1305.93 692.534 1309.53 693.334 1311.27C694.267 1312.87 696.667 1316.07 698.534 1318.33C700.534 1320.47 703.067 1323.67 704.134 1325.13C706.4 1328.6 737.067 1369 744.667 1378.47C750.534 1386.07 755.2 1392.2 759.334 1397.67C770.4 1412.73 790.667 1438.73 792.4 1440.2C793.734 1441.13 794.667 1442.73 794.667 1443.53C794.667 1444.47 796.134 1446.6 798 1448.33C799.867 1450.07 803.734 1455.27 806.8 1459.93C809.867 1464.47 812.8 1468.33 813.467 1468.33C814.134 1468.33 814.667 1469.13 814.667 1470.2C814.667 1471.13 815.6 1472.87 816.934 1473.8C818.667 1475.4 827.467 1486.6 850.667 1517.13C852.534 1519.53 855.867 1524.07 858 1527.13C860.267 1530.2 864 1534.87 866.4 1537.67C868.667 1540.47 870.667 1543.27 870.667 1543.93C870.667 1545.8 880 1554.2 885.734 1557.4C893.067 1561.67 904.934 1561.4 911.867 1557C918.8 1552.73 926.667 1545.8 926.667 1544.07C926.667 1543.27 928.667 1540.47 931.067 1537.67C933.334 1534.87 937.2 1530.2 939.334 1527.13C941.6 1524.07 944.8 1519.53 946.667 1517.13C969.867 1486.6 978.667 1475.4 980.4 1473.8C981.734 1472.87 982.667 1471.27 982.667 1470.33C982.667 1469.27 983.2 1468.33 984 1468.07C984.667 1467.93 988.134 1463.67 991.6 1458.73C995.067 1453.8 1006.4 1438.87 1016.67 1425.53C1026.93 1412.2 1036.53 1399.67 1038 1397.67C1042.13 1392.07 1046.8 1385.93 1052.67 1378.47C1058.27 1371.4 1089.33 1330.73 1094 1324.33C1096.93 1320.33 1106 1308.6 1111.07 1302.33C1112.93 1300.07 1115.87 1296.07 1117.73 1293.27C1119.6 1290.47 1123.07 1285.93 1125.33 1283.27C1128.93 1278.87 1141.07 1263 1162.67 1234.47C1166.67 1229.13 1178.4 1213.8 1188.67 1200.33C1198.93 1186.87 1208.8 1173.93 1210.67 1171.53C1212.53 1169.13 1217.6 1162.47 1221.87 1156.87C1226.27 1151.27 1231.07 1144.87 1232.53 1142.73C1236.13 1137.93 1265.6 1099.13 1272.67 1090.2C1278.53 1082.6 1282.53 1077.4 1287.07 1071.27C1289.47 1067.93 1316.8 1032.07 1320.27 1027.67C1320.8 1026.87 1323.87 1023.13 1326.93 1019.13C1333.33 1011 1340 1002.33 1346 994.2C1348.13 991.133 1355.73 981.267 1362.67 972.2C1369.6 963.267 1377.07 953.4 1379.2 950.467C1381.33 947.4 1384.53 943 1386.53 940.733C1388.4 938.333 1392 933.8 1394.4 930.733C1396.8 927.533 1401.33 921.667 1404.4 917.667C1407.47 913.667 1410.93 909.133 1412 907.533C1415.07 903.133 1438.67 872.2 1442.53 867.533C1447.33 861.667 1451.2 856.733 1456.93 848.733C1463.2 840.2 1486.93 809.267 1487.87 808.333C1488.27 807.933 1490.4 805.267 1492.4 802.2C1494.4 799.267 1497.07 795.667 1498.4 794.2C1499.6 792.733 1502.13 789.533 1503.87 787C1505.6 784.467 1507.87 781.4 1508.8 780.333C1513.07 775.533 1552.53 724.067 1557.33 717.133C1558.4 715.667 1561.07 712.2 1563.33 709.533C1565.47 707 1569.47 701.933 1572 698.333C1584.27 681.4 1614 642.333 1620.67 634.333C1623.73 630.6 1628 625.133 1630.13 622.2C1632.27 619.133 1642.4 605.667 1652.67 592.333C1662.93 578.867 1672.8 565.933 1674.67 563.533C1676.53 561.133 1681.6 554.467 1686 548.867C1690.4 543.133 1694.93 537.133 1696 535.533C1697.07 533.933 1706.4 521.667 1716.67 508.333C1736.8 482.067 1744.93 471.4 1749.6 464.867C1751.33 462.6 1755.2 457.4 1758.4 453.533C1765.6 444.467 1764.67 445.667 1774.67 432.333C1779.33 426.067 1783.73 420.333 1784.4 419.667C1784.93 418.867 1788.4 414.2 1792 409.133C1798.53 400.2 1798.67 399.8 1798.67 390.333C1798.67 379.8 1796.93 376.333 1784.8 363C1781.73 359.667 1778.13 355.267 1776.67 353.4C1773.87 349.667 1768.13 342.867 1755.33 327.8C1750.93 322.6 1744.93 315.267 1742 311.667C1739.07 307.933 1734.67 302.733 1732 299.933C1729.47 297.133 1726.53 293.4 1725.33 291.8C1723.33 288.867 1720.27 285.133 1702 263.8C1696.93 257.667 1689.07 248.333 1684.53 242.867C1673.2 229 1654.27 206.333 1646.67 197.667C1643.2 193.667 1636.27 185.267 1631.33 179C1626.27 172.733 1618.53 163.4 1614.13 158.2C1605.87 148.6 1603.2 145.4 1558.67 91.6666C1544.67 74.7333 1530.13 57.3999 1526.27 53.1333C1522.53 48.7333 1517.2 42.4666 1514.67 39.1333C1512.13 35.7999 1508 30.7333 1505.47 28.0666C1503.07 25.2666 1500 21.6666 1498.93 20.0666C1495.07 14.1999 1486 5.6666 1480.93 2.99994C1476 0.333268 1472 0.333268 898.267 0.466602C343.067 0.599935 320.534 0.733268 316.134 3.13327ZM821.334 61.6666C822.934 62.5999 794.534 91.6666 684.667 201.667C608.4 277.933 545.6 340.333 545.067 340.333C544.267 340.333 536.134 328.067 534.534 324.2C534 323.133 531.2 318.067 528.134 313.267C525.067 308.333 522.667 303.933 522.667 303.667C522.667 303.133 501.334 266.6 497.2 260.333C496.534 259.267 495.467 257.133 494.8 255.667C494.134 254.2 492 250.733 490.134 247.933C488.267 245.133 486.667 242.6 486.667 242.333C486.667 241.933 483.2 235.8 478.934 228.733C474.667 221.533 469.467 212.6 467.467 209C465.334 205.267 461.334 198.467 458.4 193.667C455.6 188.867 452.667 184.067 452 183C451.334 181.933 447.2 174.867 442.8 167.267C438.267 159.667 434.667 153.267 434.667 153C434.667 152.6 429.334 143.533 422.934 132.733C416.534 121.8 410.8 112.067 410.267 111C409.734 109.933 408.134 107.133 406.667 105C405.2 102.733 403.6 100.067 403.067 98.9999C402.667 97.9333 398.8 91.2666 394.667 84.3333C383.467 65.6666 382.534 63.6666 384.4 61.7999C386.267 59.9333 818.267 59.6666 821.334 61.6666ZM1412.93 61.7999C1414.8 63.6666 1413.87 65.6666 1402.67 84.3333C1398.53 91.2666 1394.67 97.9333 1394.27 98.9999C1393.73 100.067 1392.13 102.733 1390.67 105C1389.2 107.133 1387.6 109.933 1387.07 111C1386.53 112.067 1380.8 121.8 1374.4 132.733C1368 143.533 1362.67 152.6 1362.67 153C1362.67 153.267 1359.07 159.667 1354.53 167.267C1350.13 174.867 1346 181.933 1345.33 183C1344.67 184.067 1341.73 188.867 1338.93 193.667C1336 198.467 1332 205.267 1329.87 209C1327.87 212.6 1322.67 221.533 1318.4 228.733C1314.13 235.8 1310.67 241.933 1310.67 242.333C1310.67 242.6 1309.07 245.133 1307.2 247.933C1305.33 250.733 1303.2 254.2 1302.53 255.667C1301.87 257.133 1300.8 259.267 1300.13 260.333C1296 266.6 1274.67 303.133 1274.67 303.667C1274.67 303.933 1272.27 308.333 1269.2 313.267C1266.13 318.067 1263.33 323.133 1262.8 324.2C1261.2 328.067 1253.07 340.333 1252.27 340.333C1251.73 340.333 1188.93 277.933 1112.67 201.667C1002.8 91.6666 974.4 62.5999 976 61.6666C979.067 59.6666 1411.07 59.9333 1412.93 61.7999ZM1041.33 215.133C1133.33 307.133 1181.33 355.933 1181.07 357.4C1180.67 359.533 1160.4 359.667 898.667 359.667C649.067 359.667 616.667 359.4 616.267 357.667C615.867 354.867 895.334 74.9999 898.667 74.9999C900.267 74.9999 954.667 128.467 1041.33 215.133ZM330 91.6666C332.534 95.6666 334.667 99.1333 334.667 99.5333C334.667 99.9333 337.467 104.867 340.8 110.6C344.134 116.333 347.334 121.933 348 123C348.667 124.067 352.934 131.267 357.6 139C362.134 146.733 367.334 155.667 369.067 158.867C370.8 162.2 374.667 168.6 377.467 173.267C380.4 177.933 382.667 182.067 382.667 182.333C382.667 182.733 384.267 185.533 386.267 188.733C391.334 196.333 393.067 199.267 394.267 201.667C394.8 202.733 397.734 208.067 400.934 213.4C404.134 218.733 406.667 223.267 406.667 223.667C406.667 223.933 408.4 226.733 410.534 229.933C412.534 233.133 416.267 239.267 418.667 243.667C421.067 248.067 423.734 252.6 424.534 253.667C425.334 254.733 427.334 258.067 428.934 261C432.267 267.4 434.934 271.933 442.134 283.933C447.867 293.4 451.734 299.933 456.667 309C458.134 311.933 461.067 316.867 463.067 319.933C465.067 323.133 466.667 325.933 466.667 326.467C466.667 326.867 468.4 329.8 470.4 332.867C472.4 335.8 474.534 339.267 475.067 340.333C475.6 341.4 477.467 344.733 479.334 347.667C483.067 353.8 483.6 358.333 480.534 359.533C477.867 360.6 100.8 360.6 98.1335 359.533C94.5335 358.2 95.7335 355.667 103.734 346.733C107.867 341.933 119.2 328.6 128.667 317C145.334 296.733 152.267 288.467 172.667 264.2C177.867 258.2 183.334 251.4 184.934 249.267C186.534 247.133 189.867 243.267 192.267 240.6C194.8 237.8 200.134 231.4 204.267 226.333C208.4 221.133 214.8 213.4 218.534 209C222.267 204.6 228.8 196.733 232.934 191.533C237.2 186.467 243.467 178.867 246.934 174.867C258.4 161.533 302 109.4 304.667 105.8C309.467 99.1333 323.067 84.3333 324.267 84.3333C324.8 84.3333 327.467 87.6666 330 91.6666ZM1482.13 93.2666C1486.4 98.0666 1491.2 103.667 1492.67 105.8C1495.47 109.667 1539.87 162.733 1550.4 174.867C1553.87 178.867 1559.73 185.933 1563.33 190.467C1567.07 195 1574.53 204.067 1580 210.6C1585.47 217 1592.4 225.4 1595.33 229C1598.27 232.733 1602.67 237.8 1605.07 240.6C1607.47 243.267 1610.8 247.133 1612.4 249.267C1614 251.4 1619.6 258.2 1624.67 264.2C1645.07 288.467 1652 296.733 1668.67 317C1678.27 328.6 1689.47 341.933 1693.73 346.733C1701.6 355.667 1702.8 358.2 1699.2 359.533C1696.53 360.6 1319.47 360.6 1316.8 359.533C1312.8 357.933 1314.27 353 1323.07 339.267C1325.07 336.2 1328 331.4 1329.47 328.6C1330.93 325.933 1333.33 321.8 1334.8 319.667C1336.13 317.4 1337.87 314.467 1338.53 313C1339.2 311.533 1343.87 303.4 1348.93 295C1354 286.6 1358.53 278.733 1359.07 277.667C1359.6 276.6 1360.53 274.733 1361.33 273.667C1364.27 269 1378.67 244.2 1378.67 243.667C1378.67 243.267 1380.27 240.467 1382.27 237.267C1387.33 229.667 1389.07 226.733 1390.27 224.333C1390.8 223.267 1393.73 218.067 1396.67 213C1399.73 207.8 1402.67 202.733 1403.2 201.667C1404.27 199.4 1406 196.467 1411.07 188.733C1413.07 185.533 1414.67 182.733 1414.67 182.333C1414.67 181.933 1416.27 179.133 1418.27 175.933C1420.27 172.867 1422.93 168.333 1424.27 165.933C1425.6 163.667 1427.73 159.667 1429.07 157.267C1431.87 152.067 1443.73 132.333 1446.93 127.267C1448.27 125.267 1449.87 122.467 1450.53 120.867C1451.2 119.4 1454.27 114.067 1457.2 109.133C1460.27 104.333 1462.67 99.9333 1462.67 99.5333C1462.67 98.0666 1472 84.3333 1473.07 84.3333C1473.73 84.3333 1477.87 88.3333 1482.13 93.2666ZM516.534 422.467C517.734 423.533 518.667 425.4 518.667 426.333C518.667 427.4 519.467 430.2 520.534 432.6C521.467 435 523.2 439.933 524.267 443.667C529.6 461 539.067 490.867 540.667 495C541.6 497.533 543.334 503.267 544.667 507.667C546 512.067 547.734 518.067 548.667 521C549.6 523.933 553.2 535.267 556.667 546.333C560.134 557.267 563.734 568.467 564.667 571C565.6 573.533 567.334 579.267 568.667 583.667C569.867 588.067 571.467 593.4 572.267 595.667C572.934 597.8 574 601.533 574.534 603.667C575.067 605.933 576.267 609 577.067 610.6C578 612.2 578.667 614.733 578.667 616.2C578.667 617.667 579.467 620.867 580.534 623.267C582.8 628.867 585.2 635.8 586.667 641C587.334 643.133 588.4 646.733 589.2 649C589.867 651.133 592.4 659.267 594.667 667C597.067 674.733 599.734 683.133 600.667 685.667C601.6 688.2 603.334 693.667 604.534 697.667C605.734 701.667 608.4 710.333 610.534 717C612.667 723.533 617.2 737.933 620.667 749C624.134 759.933 628.667 774.067 630.8 780.333C632.934 786.467 634.667 792.6 634.667 793.933C634.667 795.133 635.467 798.2 636.534 800.6C637.6 803 641.2 813.933 644.667 825C648.134 835.933 651.734 847 652.8 849.4C653.867 851.8 654.667 855 654.667 856.467C654.667 858.067 655.467 861.133 656.4 863.4C658.134 867.533 659.867 873 664.667 889C665.867 893.4 667.867 899 668.8 901.4C669.867 903.8 670.667 906.6 670.667 907.667C670.667 908.733 671.467 911.533 672.534 913.933C675.067 920.067 682.667 943.933 682.667 945.8C682.667 946.6 683.467 949.133 684.4 951.4C685.467 953.8 687.334 959.267 688.667 963.667C689.867 968.067 691.867 974.333 692.8 977.667C703.467 1011.93 707.067 1023 708.667 1026.73C709.734 1029.13 710.667 1032.33 710.667 1033.8C710.667 1035.4 711.467 1038.2 712.534 1040.07C713.467 1042.07 715.334 1047.27 716.534 1051.67C720 1064.47 722.934 1073.93 724.667 1079C726.267 1083.4 736.667 1115.93 740.934 1130.33C742.134 1133.93 743.734 1139.13 744.667 1141.67C746.4 1146.47 748.667 1153.93 752.667 1167.67C754 1172.07 755.734 1177.8 756.8 1180.33C758.267 1184.47 767.467 1213.53 773.067 1231.67C774.134 1235.27 775.867 1240.47 776.667 1243C777.6 1245.53 779.334 1251 780.534 1255C783.2 1264.33 794.4 1299.53 796.667 1305.67C800.4 1316.07 802.667 1323.8 802.667 1325.93C802.667 1327.27 803.467 1330.2 804.534 1332.6C805.6 1335 807.467 1340.6 808.667 1345C810 1349.4 811.867 1355 812.8 1357.4C814.934 1362.33 815.334 1367.4 813.467 1366.73C811.867 1366.07 800.4 1352.2 786.934 1334.2C780.4 1325.4 774.134 1317.53 772.934 1316.47C771.6 1315.53 770.667 1314.07 770.667 1313.4C770.667 1312.6 768 1308.6 764.667 1304.47C761.334 1300.33 756.8 1294.33 754.4 1291.27C752 1288.07 748.534 1283.53 746.667 1281.13C744.8 1278.73 735.867 1266.87 726.8 1254.87C717.6 1242.87 709.734 1232.73 709.334 1232.33C708.8 1231.93 706.134 1228.33 703.334 1224.33C700.534 1220.33 697.734 1216.6 697.067 1216.2C696.4 1215.8 694 1212.73 691.6 1209.4C689.2 1206.07 678.934 1192.47 668.667 1179.13C658.4 1165.8 647.067 1150.87 643.6 1145.93C640.134 1141 636.667 1136.73 636 1136.6C635.2 1136.33 634.667 1135.4 634.667 1134.33C634.667 1133.4 633.734 1131.8 632.4 1130.87C630.4 1129.13 599.6 1089.13 589.6 1075.13C587.067 1071.8 583.734 1067.53 581.867 1065.53C580.134 1063.67 578.667 1061.67 578.667 1060.87C578.667 1060.2 576.934 1057.8 574.667 1055.53C572.534 1053.13 569.067 1048.87 567.067 1046.07C565.067 1043.13 557.6 1033.4 550.667 1024.33C543.734 1015.4 534.134 1002.73 529.334 996.333C524.534 989.933 518.134 981.533 514.934 977.533C511.867 973.533 508.8 969.667 508.267 969C507.734 968.2 500.667 959 492.667 948.6C484.534 938.067 476 926.867 473.734 923.933C471.334 920.867 467.067 915.267 464.4 911.4C461.6 907.533 451.2 893.933 441.334 881.133C431.467 868.2 422.134 856.067 420.667 854.067C419.2 851.933 414.4 845.667 410 839.933C405.6 834.2 400.534 827.533 398.667 825.133C396.8 822.733 386.934 809.8 376.667 796.333C366.4 782.867 355.334 768.2 352.134 763.8C349.067 759.267 344.667 753.8 342.667 751.667C340.667 749.4 332.534 739 324.534 728.333C316.667 717.667 309.6 708.333 309.067 707.667C308.534 706.867 305.2 702.6 301.734 698.067C295.734 690.2 290.4 683.267 282.667 673.133C280.8 670.733 271.867 658.867 262.667 646.867C253.6 634.867 243.467 621.667 240.4 617.667C234.134 609.667 234.4 610.067 228.667 602.333C226.4 599.4 222.134 593.667 218.934 589.667C215.867 585.667 212.8 581.667 212.267 581C211.734 580.2 205.6 572.333 198.667 563.267C191.734 554.2 183.067 542.867 179.6 537.933C176.134 533 172.667 528.733 172 528.6C171.2 528.333 170.667 527.4 170.667 526.6C170.667 525.8 168.934 523.267 166.8 521C163.2 517.133 134.4 479.667 125.6 467.267C123.067 463.8 119.734 459.533 117.867 457.533C116.134 455.667 114.667 453.667 114.667 452.867C114.667 452.2 112.4 449.267 109.734 446.333C107.2 443.4 103.6 438.867 101.867 436.333C100.134 433.8 97.4669 430.067 95.8669 428.067C94.2669 426.067 93.3335 423.667 93.7335 422.467C94.5335 420.467 114.534 420.333 304.534 420.333C493.6 420.333 514.667 420.6 516.534 422.467ZM1215.73 423.8C1216 425.4 1214.93 430.467 1213.33 435.133C1211.87 439.8 1209.73 447 1208.53 451C1207.33 455 1205.87 459.4 1205.2 460.6C1204.53 461.933 1203.47 465.133 1202.8 467.933C1202 470.733 1200.53 475.933 1199.47 479.667C1197.6 485.933 1196.53 489.267 1192.67 500.333C1191.73 502.867 1190 508.6 1188.67 513C1187.47 517.4 1185.6 523.133 1184.67 525.667C1180.93 536.067 1178.67 543.8 1178.67 545.933C1178.67 547.267 1177.87 550.2 1176.8 552.6C1174.67 557.533 1158.8 607 1152.67 627.667C1151.47 632.067 1149.6 637.8 1148.67 640.333C1147.73 642.867 1144.13 653.933 1140.67 665C1137.33 675.933 1133.87 686.467 1133.07 688.333C1132.27 690.2 1131.2 693.8 1130.53 696.333C1128.67 704.467 1125.47 715 1120.67 728.333C1117.6 736.6 1114.67 747.267 1114.67 749.533C1114.67 750.733 1114.13 752.333 1113.47 753.133C1112.67 753.8 1111.6 756.733 1110.8 759.667C1110.13 762.6 1108.8 767.133 1107.87 769.667C1107.07 772.2 1105.6 776.467 1104.67 779C1103.73 781.533 1102 787.267 1100.67 791.667C1099.47 796.067 1097.6 801.8 1096.67 804.333C1095.73 806.867 1094.27 811.667 1093.47 815C1090.53 825.933 1088.67 831.933 1085.2 841C1084.27 843.667 1072 882.067 1068.4 894.333C1067.2 897.933 1065.6 903.4 1064.67 906.333C1053.87 940.733 1050.13 952.333 1048.67 956.333C1047.73 958.867 1045.87 964.6 1044.67 969C1043.33 973.4 1041.6 979.133 1040.67 981.667C1039.07 986.2 1037.73 990.867 1032.67 1007.67C1031.33 1012.07 1029.6 1017.8 1028.67 1020.33C1027.73 1022.87 1024.13 1033.93 1020.67 1045C1011.6 1073.8 1011.33 1074.87 1008.67 1083.67C1007.47 1088.07 1005.6 1093.8 1004.67 1096.33C1003.73 1098.87 1002.13 1103.93 1000.93 1107.67C999.734 1111.27 996.267 1122.73 992.934 1133C989.734 1143.27 985.067 1157.93 982.667 1165.67C980.4 1173.4 977.6 1181.67 976.534 1184.07C975.467 1186.47 974.667 1189.53 974.667 1191C974.667 1192.47 973.867 1195.53 972.8 1197.93C971.734 1200.33 969.867 1205.93 968.667 1210.33C967.334 1214.73 965.467 1220.33 964.534 1222.73C963.467 1225.13 962.667 1227.93 962.667 1229C962.667 1230.07 961.867 1232.87 960.8 1235.27C959.734 1237.67 957.867 1243.27 956.667 1247.67C955.334 1252.07 953.467 1257.67 952.534 1260.07C951.467 1262.47 950.667 1265.53 950.667 1266.87C950.667 1268.2 949.734 1271.13 948.667 1273.13C947.6 1275.27 946.667 1278.33 946.667 1279.93C946.667 1281.53 945.867 1284.87 944.8 1287.27C942.667 1292.2 926.8 1341.67 920.667 1362.33C919.467 1366.73 917.6 1372.47 916.667 1375C915.067 1379.27 904 1414.2 902 1421.27C900.8 1425.67 896.267 1425.27 895.2 1420.6C894.4 1417.13 886.8 1393.27 878.667 1369C876.534 1362.33 874.667 1355.93 874.667 1354.6C874.667 1353.4 873.867 1350.47 872.8 1348.07C871.867 1345.67 868.134 1334.6 864.667 1323.67C861.2 1312.6 857.6 1301.53 856.534 1299C855.6 1296.47 854.4 1292.07 853.867 1289.27C853.467 1286.6 852.534 1283.93 851.867 1283.53C851.2 1283.13 850.667 1281.4 850.667 1279.67C850.667 1277.93 849.867 1274.47 848.8 1272.07C847.734 1269.67 845.867 1264.07 844.667 1259.67C843.334 1255.27 841.6 1249.53 840.667 1247C839.734 1244.47 838.267 1240.2 837.467 1237.67C836.534 1235.13 835.334 1231.13 834.8 1229C833.334 1223.53 822.8 1190.2 820.667 1184.33C819.734 1181.8 817.867 1176.07 816.667 1171.67C813.867 1162.33 813.467 1161 802.667 1127C798.134 1112.73 793.6 1099 792.534 1096.6C791.467 1094.2 790.667 1091.27 790.667 1090.2C790.667 1088.2 788.4 1080.33 784.667 1069.67C783.734 1067.13 780.134 1055.93 776.667 1045C773.2 1033.93 768.667 1019.53 766.534 1013C762 999.133 759.867 992.2 756.667 981C755.334 976.6 753.6 970.867 752.667 968.333C751.734 965.8 748.667 956.467 746 947.667C743.334 938.867 740.667 930.467 740 929C739.467 927.533 737.067 920.067 734.667 912.333C729.6 895.8 727.6 889.533 725.334 882.333C724.4 879.4 723.067 875.133 722.534 873C722 870.733 720 864.733 718.134 859.667C716.267 854.467 714.667 849.533 714.667 848.6C714.667 847.533 713.867 844.867 712.934 842.6C711.067 838.467 709.467 833.133 704.667 817C703.467 812.6 701.6 806.867 700.667 804.333C699.734 801.8 698 796.333 696.8 792.333C695.734 788.333 692.934 779.533 690.8 773C688.667 766.333 685.067 754.733 682.667 747C680.4 739.267 677.734 730.867 676.667 728.333C674.934 723.533 672.8 716.733 668.667 702.333C667.334 697.933 665.6 692.2 664.667 689.667C663.734 687.133 660.134 675.933 656.667 665C653.2 653.933 649.6 642.867 648.667 640.333C645.067 630.333 642.667 622.2 642.667 620.067C642.667 618.733 641.867 615.8 640.8 613.4C639.734 611 636.134 599.933 632.667 589C629.2 577.933 625.6 566.867 624.667 564.333C623.6 561.8 622.4 557.533 621.867 555C621.467 552.467 620.534 549.533 620 548.333C619.467 547.267 618 543 616.8 539C614.134 529.667 607.867 509.667 600.8 487.667C597.6 478.067 593.2 464.067 590.667 456.333C588.267 448.6 585.2 438.867 583.734 434.733C581.2 426.733 580.8 422.733 582.267 421.267C582.667 420.733 725.334 420.467 899.2 420.6L1215.33 421L1215.73 423.8ZM1703.6 422.467C1704 423.667 1703.07 426.067 1701.47 428.067C1699.87 430.067 1697.2 433.8 1695.47 436.333C1693.73 438.867 1690.13 443.4 1687.6 446.333C1684.93 449.267 1682.67 452.2 1682.67 452.867C1682.67 453.667 1681.2 455.667 1679.47 457.533C1677.6 459.533 1674.27 463.8 1671.73 467.267C1662.93 479.667 1634.13 517.133 1630.53 521C1628.4 523.267 1626.67 525.8 1626.67 526.6C1626.67 527.4 1626.13 528.333 1625.33 528.6C1624.67 528.733 1621.2 533 1617.73 537.933C1614.27 542.867 1605.6 554.2 1598.67 563.267C1591.73 572.333 1585.6 580.2 1585.07 581C1584.53 581.667 1581.47 585.667 1578.4 589.667C1575.2 593.667 1570.93 599.4 1568.67 602.333C1562.93 610.067 1563.2 609.667 1556.93 617.667C1553.87 621.667 1543.73 634.867 1534.67 646.867C1525.47 658.867 1516.53 670.733 1514.67 673.133C1506.93 683.267 1501.6 690.2 1495.6 698.067C1492.13 702.6 1488.8 706.867 1488.27 707.667C1487.73 708.333 1480.67 717.667 1472.8 728.333C1464.8 739 1456.67 749.4 1454.67 751.667C1452.67 753.8 1448.27 759.4 1445.2 763.8C1442 768.333 1430.93 783 1420.67 796.333C1410.4 809.8 1400.53 822.733 1398.67 825.133C1396.8 827.533 1391.73 834.2 1387.33 839.933C1382.93 845.667 1378.13 851.933 1376.67 854.067C1375.2 856.067 1365.87 868.2 1356 881.133C1346.13 893.933 1335.73 907.533 1332.93 911.4C1330.27 915.267 1326 920.867 1323.6 923.933C1321.33 926.867 1312.8 938.067 1304.67 948.6C1296.67 959 1289.6 968.2 1289.07 969C1288.53 969.667 1285.47 973.533 1282.4 977.533C1279.2 981.533 1272.8 989.933 1268 996.333C1263.2 1002.73 1253.6 1015.4 1246.67 1024.33C1239.73 1033.4 1232.27 1043.13 1230.27 1046.07C1228.27 1048.87 1224.8 1053.13 1222.67 1055.53C1220.4 1057.8 1218.67 1060.2 1218.67 1060.87C1218.67 1061.67 1217.2 1063.67 1215.47 1065.53C1213.6 1067.53 1210.27 1071.8 1207.73 1075.13C1197.73 1089.13 1166.93 1129.13 1164.93 1130.87C1163.6 1131.8 1162.67 1133.4 1162.67 1134.33C1162.67 1135.4 1162.13 1136.33 1161.33 1136.6C1160.67 1136.73 1157.2 1141 1153.73 1145.93C1150.27 1150.87 1138.93 1165.8 1128.67 1179.13C1118.4 1192.47 1108.13 1206.07 1105.73 1209.4C1103.33 1212.73 1100.93 1215.8 1100.27 1216.2C1099.6 1216.6 1096.8 1220.33 1094 1224.33C1091.2 1228.33 1088.53 1231.93 1088 1232.33C1087.6 1232.73 1079.73 1242.87 1070.53 1254.87C1061.47 1266.87 1052.53 1278.73 1050.67 1281.13C1048.8 1283.53 1045.33 1288.07 1042.93 1291.27C1040.53 1294.33 1036 1300.33 1032.67 1304.47C1029.33 1308.6 1026.67 1312.6 1026.67 1313.4C1026.67 1314.07 1025.73 1315.53 1024.4 1316.47C1023.2 1317.53 1016.93 1325.4 1010.4 1334.2C996.934 1352.2 985.467 1366.07 983.867 1366.73C982 1367.4 982.4 1362.33 984.534 1357.4C985.467 1355 987.334 1349.4 988.667 1345C989.867 1340.6 991.734 1335 992.8 1332.6C993.867 1330.2 994.667 1327.27 994.667 1325.93C994.667 1323.8 996.934 1316.07 1000.67 1305.67C1002.93 1299.53 1014.13 1264.33 1016.8 1255C1018 1251 1019.73 1245.53 1020.67 1243C1021.47 1240.47 1023.2 1235.27 1024.27 1231.67C1029.87 1213.53 1039.07 1184.47 1040.53 1180.33C1041.6 1177.8 1043.33 1172.07 1044.67 1167.67C1048.67 1153.93 1050.93 1146.47 1052.67 1141.67C1053.6 1139.13 1055.2 1133.93 1056.4 1130.33C1060.67 1115.93 1071.07 1083.4 1072.67 1079C1074.4 1073.93 1077.33 1064.47 1080.8 1051.67C1082 1047.27 1083.87 1042.07 1084.8 1040.07C1085.87 1038.2 1086.67 1035.4 1086.67 1033.8C1086.67 1032.33 1087.6 1029.13 1088.67 1026.73C1090.27 1023 1093.87 1011.93 1104.53 977.667C1105.47 974.333 1107.47 968.067 1108.67 963.667C1110 959.267 1111.87 953.8 1112.93 951.4C1113.87 949.133 1114.67 946.6 1114.67 945.8C1114.67 943.933 1122.27 920.067 1124.8 913.933C1125.87 911.533 1126.67 908.733 1126.67 907.667C1126.67 906.6 1127.47 903.8 1128.53 901.4C1129.47 899 1131.2 893.933 1132.27 890.333C1138 871.4 1139.2 867.267 1140.93 863.4C1141.87 861.133 1142.67 858.067 1142.67 856.467C1142.67 855 1143.47 851.8 1144.53 849.4C1146.27 845.267 1155.87 815.8 1160.93 799C1162.13 795 1164.67 786.6 1166.67 780.333C1168.67 774.067 1173.2 759.933 1176.67 749C1180.13 737.933 1184.67 723.533 1186.8 717C1188.93 710.333 1191.6 701.667 1192.8 697.667C1194 693.667 1195.73 688.2 1196.67 685.667C1197.6 683.133 1200.27 674.733 1202.67 667C1204.93 659.267 1207.47 651.133 1208.13 649C1208.93 646.733 1210 643.133 1210.67 641C1212.13 635.8 1214.53 628.867 1216.8 623.267C1217.87 620.867 1218.67 617.667 1218.67 616.2C1218.67 614.733 1219.33 612.2 1220.27 610.6C1221.07 609 1222.27 605.933 1222.8 603.667C1223.33 601.533 1224.4 597.8 1225.07 595.667C1225.87 593.4 1227.47 588.067 1228.67 583.667C1230 579.267 1231.73 573.533 1232.67 571C1233.6 568.467 1237.2 557.267 1240.67 546.333C1244.13 535.267 1247.73 523.933 1248.67 521C1249.6 518.067 1251.33 512.067 1252.67 507.667C1254 503.267 1255.73 497.533 1256.67 495C1258.27 491 1266.27 465.533 1272.93 443.667C1274.13 439.933 1275.87 435 1276.8 432.6C1277.87 430.2 1278.67 427.4 1278.67 426.333C1278.67 425.4 1279.6 423.533 1280.8 422.467C1282.67 420.6 1303.73 420.333 1492.8 420.333C1682.8 420.333 1702.8 420.467 1703.6 422.467Z" fill="black"/>
</svg>
