<svg width="1461" height="1802" viewBox="0 0 1461 1802" fill="none" xmlns="http://www.w3.org/2000/svg">
<path d="M743.2 1.19958C744.533 3.19958 740.267 3.99958 720.4 5.33291C709.867 5.99958 698.8 7.19958 695.6 7.86625C692.533 8.53291 684.267 9.99958 677.333 11.1996C670.4 12.3996 661.333 13.9996 657.333 14.7996C653.333 15.4662 646.933 16.6662 643.067 17.3329C639.333 17.8662 634.267 19.0662 631.733 19.7329C625.467 21.7329 614 24.7996 604.4 27.1996C587.867 31.3329 579.333 33.8662 576.667 35.1996C575.2 35.8662 569.467 38.1329 564 40.1329C558.533 42.1329 548.933 45.5996 542.667 47.9996C536.4 50.2662 529.733 52.6662 527.867 53.3329C526 53.8663 523.333 54.9329 521.867 55.7329C520.533 56.5329 511.867 60.6663 502.667 64.9329C468.4 81.1996 465.2 82.9329 440.667 97.7329C422.667 108.533 410.667 116.4 398.4 125.6C392.8 129.866 387.733 133.333 387.333 133.333C386.133 133.333 370.533 145.333 361.733 153.066C340.933 171.066 333.733 177.066 331.2 178.4C328.533 179.866 324.667 176.4 283.467 135.333C254.267 106.266 237.067 89.9996 233.867 88.6663C224.933 84.9329 214.667 86.3996 206.8 92.2663C198.133 98.7996 195.733 115.333 202 125.866C203.867 129.066 206.533 132.666 208 134C209.467 135.333 210.667 137.066 210.667 137.866C210.667 139.6 199.867 153.333 187.333 167.6C172.4 184.533 164.8 193.6 163.467 195.866C162.8 197.066 158.8 202.533 154.8 208C150.667 213.466 145.067 221.333 142.267 225.333C139.467 229.333 133.867 237.466 129.733 243.333C123.067 252.933 110.667 272.8 110.667 274.133C110.667 274.4 108.133 278.933 104.933 284.266C101.733 289.6 98.7999 294.933 98.2665 296C97.7332 297.066 96.1332 299.733 94.7999 302C91.8665 306.533 80.6665 328.8 75.3332 340.666C73.3332 345.066 69.5998 353.2 67.0665 358.666C55.9998 382.8 53.0665 390.133 48.1332 405.333C46.6665 410.133 43.3332 420 40.6665 427.333C37.9998 434.666 35.3332 442.533 34.7998 444.8C34.1332 447.2 33.1998 449.733 32.6665 450.666C31.7332 452.133 29.3332 461.866 26.7998 474C25.7332 479.2 24.2665 485.2 20.6665 499.333C15.3332 520.533 12.7998 533.733 8.66651 563.333C7.46651 572.133 5.59985 584.666 4.66651 591.333C3.59985 597.866 2.13318 619.6 1.19985 639.333C-0.26682 670.666 -0.133487 680.933 1.86651 717.333C4.66651 770.266 7.99985 797.2 16.1332 834.666C16.9332 838 17.9998 843.333 18.6665 846.666C19.1998 850 20.3998 854.4 21.1998 856.4C21.9998 858.533 22.6665 862 22.6665 864.266C22.6665 866.4 23.4665 870.133 24.5332 872.4C26.1332 876.4 27.9998 882.8 30.7998 894.666C32.6665 902.533 35.5998 912 40.6665 926C43.3332 933.333 45.9998 941.333 46.6665 943.866C47.3332 946.266 48.3998 948.933 49.1998 949.733C49.9998 950.533 50.6665 952.266 50.6665 953.466C50.6665 954.666 52.5332 959.733 54.6665 964.666C56.9332 969.6 58.6665 974.133 58.6665 974.8C58.6665 975.466 60.5332 979.866 62.6665 984.4C64.7998 989.066 66.6665 993.333 66.6665 993.866C66.6665 995.333 92.9332 1048.13 97.3332 1055.33C99.4665 1058.93 101.733 1062.93 102.267 1064C104.267 1068.53 119.6 1093.6 127.867 1105.73C132.667 1112.93 137.333 1119.87 138 1121.07C138.8 1122.4 141.6 1126.4 144.267 1130.13C146.933 1133.73 151.067 1139.47 153.6 1142.93C159.467 1151.07 174.133 1169.87 176.4 1172.13C177.333 1173.2 178.8 1174.93 179.467 1176.13C182 1180.53 210.533 1211.87 227.333 1228.67C251.067 1252.4 279.6 1278.13 294 1288.93C300.667 1294 310.533 1301.6 316.133 1306.13C329.6 1316.93 385.467 1353.87 397.333 1359.87C404.133 1363.2 415.333 1369.2 436 1380.27C443.733 1384.27 453.333 1389.07 457.333 1390.67C461.333 1392.4 468.4 1395.47 473.067 1397.47C477.6 1399.6 481.867 1401.33 482.533 1401.33C483.2 1401.33 488.533 1403.47 494.267 1406.13C503.6 1410.53 524.667 1418.27 535.333 1421.33C537.6 1421.87 541.467 1423.2 544 1424.13C546.533 1424.93 550.8 1426.4 553.333 1427.33C555.867 1428.27 560.133 1429.73 562.667 1430.67C565.2 1431.6 569.733 1432.8 572.667 1433.47C575.6 1434 581.867 1435.47 586.667 1436.67C591.467 1437.87 598.933 1439.6 603.333 1440.53C607.733 1441.47 613.733 1442.93 616.667 1443.73C627.333 1446.67 639.6 1449.2 652.667 1451.2C660 1452.27 670.533 1453.87 676 1454.67C681.467 1455.6 688.8 1456.53 692.267 1456.93C701.2 1458 701.733 1458.93 700 1472.93C696.133 1503.6 694.667 1514.93 693.2 1526C692.4 1532.53 691.2 1542.8 690.667 1548.67C689.2 1562.67 686.8 1581.6 685.333 1590.67C684.667 1594.67 683.467 1604.13 682.667 1611.73C681.867 1619.33 680.533 1627.73 679.6 1630.4L678 1635.33L620 1636.13C562.667 1636.93 554.8 1637.47 542.533 1642C539.333 1643.2 534.8 1644.67 532.4 1645.33C530 1645.87 524.4 1648.8 519.867 1651.87C515.333 1654.8 511.333 1657.33 510.8 1657.33C508.533 1657.33 484.933 1682.13 479.2 1690.67C477.333 1693.2 472.933 1699.2 469.333 1704C465.733 1708.8 461.6 1714.13 460.4 1716C459.067 1717.87 454.4 1724 450 1729.73C428.133 1758 424.133 1764.53 423.2 1772.8C422.133 1782.53 427.6 1792.67 436.667 1797.6L443.333 1801.33H787.067C1122.27 1801.33 1130.93 1801.33 1135.73 1798.8C1145.33 1793.87 1150.67 1785.2 1150.67 1774.67C1150.67 1770.93 1149.73 1766 1148.53 1763.73C1147.33 1761.47 1134.8 1744.27 1120.8 1725.47C1106.67 1706.53 1094.53 1690.27 1093.87 1689.07C1093.2 1687.87 1087.6 1681.47 1081.47 1674.8C1071.73 1664.13 1058.8 1653.87 1048 1648.27C1044.13 1646.13 1023.87 1639.47 1017.33 1638C1014.8 1637.33 986.267 1636.53 954 1636.13L895.467 1635.33L894.533 1630.67C892.4 1620.13 888.133 1588.67 886.8 1574C886.267 1568.13 885.067 1557.87 884.133 1551.33C881.333 1530.8 875.6 1484.13 874 1467.87C873.067 1459.2 874 1458 882.667 1456.93C886 1456.53 893.2 1455.6 898.667 1454.67C904.133 1453.87 914.667 1452.27 922 1451.2C929.333 1450 938.667 1448.27 942.667 1447.33C954.4 1444.4 984.267 1437.6 989.733 1436.53C992.4 1436.13 995.067 1435.2 995.467 1434.53C995.867 1433.87 997.867 1433.33 1000 1433.33C1002.13 1433.33 1005.87 1432.53 1008.27 1431.47C1010.67 1430.4 1016.27 1428.53 1020.67 1427.33C1025.07 1426 1030.8 1424.27 1033.33 1423.33C1035.87 1422.4 1041.33 1420.67 1045.33 1419.33C1049.33 1418.13 1057.07 1415.33 1062.4 1413.2C1067.6 1411.07 1076.67 1407.47 1082.4 1405.2C1088 1402.93 1094.53 1400.27 1096.67 1399.33C1098.93 1398.4 1104 1396.27 1108 1394.67C1116.27 1391.33 1167.87 1365.2 1174 1361.2C1176.27 1359.87 1178.93 1358.27 1180 1357.73C1181.07 1357.33 1185.87 1354.4 1190.67 1351.33C1195.47 1348.27 1204.4 1342.8 1210.67 1339.07C1216.93 1335.2 1227.6 1328.13 1234.4 1323.07C1241.2 1318.13 1252.13 1310.13 1258.8 1305.33C1271.33 1296.4 1292.93 1278.67 1308 1265.2C1323.87 1251.07 1323.6 1251.07 1333.6 1258.53C1345.87 1268 1357.33 1267.6 1368.4 1257.33L1375.2 1251.07L1375.33 1240.53C1375.33 1232.27 1374.8 1229.2 1372.67 1226C1371.33 1223.73 1350.67 1202.67 1327.07 1179.07C1300.67 1152.67 1284 1135.07 1284 1133.47C1284 1132.13 1287.47 1127.07 1291.73 1122.27C1306.13 1106 1318 1091.47 1328 1077.73C1348.8 1049.2 1353.6 1042.27 1356.53 1036.93C1358.13 1033.87 1361.07 1028.8 1363.07 1025.6C1365.07 1022.53 1368 1017.73 1369.47 1014.93C1370.93 1012.27 1373.47 1007.87 1374.93 1005.33C1376.4 1002.8 1379.07 998 1380.93 994.666C1382.67 991.333 1384.67 987.733 1385.33 986.666C1387.33 983.2 1405.87 943.733 1408.8 936.666C1409.6 934.4 1411.07 931.2 1411.87 929.333C1412.67 927.466 1413.87 924.133 1414.53 922C1415.2 919.733 1417.07 914.666 1418.67 910.666C1420.27 906.666 1422 901.866 1422.67 900C1423.33 898.133 1425.07 893.333 1426.67 889.333C1428.27 885.333 1430 879.866 1430.67 877.333C1431.2 874.8 1433.07 867.866 1434.67 862C1436.27 856.133 1438.13 849.2 1438.67 846.666C1439.2 844.133 1440.27 840.133 1441.07 838C1442.8 832.533 1446.13 817.6 1448.67 803.333C1449.87 796.666 1451.6 787.066 1452.67 782C1455.07 770.266 1458.4 738.133 1459.73 715.333C1461.07 690.666 1459.33 621.333 1456.8 601.333C1455.73 592.133 1454.53 582 1454.27 578.666C1453.87 575.333 1452.4 566.4 1450.8 558.666C1446.13 536.533 1444 526.4 1442.8 520C1441.73 514 1438.67 502.933 1436.13 495.333C1435.47 493.066 1434 488 1432.8 484C1427.73 465.466 1425.6 459.066 1416.4 435.333C1410.93 421.333 1405.47 407.6 1404.27 404.666C1399.87 394 1374.27 344.4 1367.87 334C1346.4 299.466 1340.8 290.666 1336 284.666C1330.93 278.4 1324.13 269.466 1313.33 255.2C1310.8 251.733 1306.67 246.666 1304.27 243.866C1291.73 229.466 1272.8 229.866 1262.27 244.933C1258.93 249.6 1258.4 251.6 1258.4 259.2C1258.4 269.333 1258.67 270 1284.67 304C1293.33 315.333 1304 330.4 1308.27 337.333C1312.53 344.266 1318.8 354.133 1322 359.333C1329.2 370.666 1358.67 428.666 1358.67 431.6C1358.67 432.666 1359.47 435.2 1360.53 437.066C1361.6 439.066 1363.33 443.2 1364.53 446.266C1365.73 449.466 1367.6 454.533 1368.8 457.6C1370 460.8 1371.47 464.4 1372.13 465.6C1373.73 468.8 1378.67 483.6 1378.67 485.466C1378.67 486.266 1379.47 488.8 1380.53 491.066C1382.13 495.2 1384.13 501.733 1386.67 512C1387.2 514.533 1388.4 518.4 1389.07 520.666C1389.87 522.8 1391.47 529.2 1392.53 534.666C1393.6 540.133 1395.47 548.933 1396.67 554.133C1397.73 559.466 1398.67 565.066 1398.67 566.533C1398.67 568.133 1399.47 573.2 1400.53 577.733C1405.6 600.266 1407.33 626 1407.33 680.666C1407.2 725.466 1406.8 736.4 1404.8 749.333C1403.47 757.733 1402.13 766.8 1401.73 769.333C1400.93 774.666 1397.47 778.4 1365.33 807.333C1354 817.466 1342.27 828.133 1339.33 830.666C1336.4 833.333 1330.4 838.8 1326 842.8C1321.6 846.8 1313.33 854.4 1307.73 859.6C1292.67 873.733 1286.93 872.533 1288.53 855.6C1288.93 851.066 1289.87 828.666 1290.53 806C1291.2 783.2 1292.53 757.2 1293.2 748C1295.47 721.066 1295.07 684.933 1292.4 676.133C1283.33 645.2 1266.67 628.8 1231.07 615.466C1205.47 605.866 1203.6 605.2 1198.93 603.2C1196.53 602.133 1193.6 601.333 1192.27 601.2C1191.07 601.2 1186.67 599.6 1182.67 597.6C1174.53 593.6 1174.53 593.733 1158 556.666C1150.27 539.466 1142.8 533.333 1129.73 533.333C1117.2 533.466 1108.27 540.4 1105.2 552.533C1102.93 561.6 1104.27 566.133 1118.67 596.4C1120.93 601.066 1122.67 605.6 1122.67 606.266C1122.67 607.066 1123.6 608.4 1124.67 609.333C1125.73 610.266 1126.67 611.866 1126.67 612.8C1126.67 613.866 1128.4 618.4 1130.53 622.933C1132.67 627.6 1135.33 634.8 1136.4 639.066C1138.27 646 1138.27 647.466 1136.27 654.266C1134.53 659.866 1132.53 662.933 1127.87 667.2C1120.4 673.866 1112.93 676.133 1087.33 679.333C1077.07 680.533 1065.07 682.266 1060.67 682.933C1043.73 685.733 1045.47 686.133 1035.87 677.066C1031.07 672.4 1024 665.866 1020.13 662.533L1013.07 656.266L1013.87 624.533C1017.87 463.733 1017.87 461.866 1016 455.2C1013.47 446.266 1004.93 438 997.067 436.933C985.067 435.333 974.933 439.6 969.333 448.533C965.067 455.6 964.133 472.133 962.667 573.2C961.867 623.333 961.067 664.8 960.933 665.2C960.933 665.6 961.333 668.933 961.867 672.666C963.2 681.466 967.6 687.733 979.2 696.933C984.4 701.066 993.467 709.333 999.467 715.333C1009.47 725.333 1010.27 726.533 1010.93 732.666C1011.47 736.4 1011.47 742.266 1011.07 745.733C1010.13 754 1002.93 762 984.4 776.133C977.2 781.466 968.667 788.133 965.333 790.8C952.4 801.333 940.533 803.866 924.8 799.466C921.067 798.4 914.667 796.533 910.667 795.466C906.667 794.266 898.133 792.8 891.867 792.133C878.8 790.666 869.6 792.533 858.533 799.066C842.933 808.266 839.733 813.466 817.067 866C812.667 876.266 808.533 885.2 807.867 885.866C807.2 886.666 806.667 888 806.667 888.933C806.667 892 794.267 916.4 790.8 920.4C784.4 927.466 780 929.333 768.667 929.333C762.933 929.333 755.2 928.4 751.467 927.466C747.733 926.4 740.8 924.666 736.133 923.6C725.2 921.2 723.733 921.6 697.333 933.733C691.867 936.4 680.8 941.466 672.667 945.333C664.667 949.066 655.6 953.333 652.667 954.666C639.2 960.8 626.133 966.933 611.733 973.866C603.067 978 595.733 981.333 595.333 981.333C595.067 981.333 587.067 985.066 577.733 989.6C560.8 997.733 560.533 997.866 549.333 997.733C542.533 997.6 535.733 996.8 532.133 995.466C528.933 994.266 525.067 993.333 523.467 993.333C522 993.333 518.933 992.4 516.8 991.333C514.8 990.266 512.4 989.333 511.467 989.333C508.267 989.333 500 980.933 497.333 975.066C494.8 969.333 494.667 966.266 494.667 926C494.667 883.866 494.667 882.8 498 872.533C500.667 864 511.333 839.466 516.133 830.666C519.867 823.733 577.333 706.133 592 675.333C599.067 660.266 602.267 653.866 609.867 638.666C616.533 625.6 618.267 620.533 620.667 607.333C622.8 595.733 622.8 594.8 620.267 582C616.933 565.866 615.467 561.466 609.467 552C603.2 542.133 580.933 520.133 546 489.2C523.867 469.733 508.533 454.4 500.933 444.266C492.4 433.066 484.267 417.333 481.333 406.666C479.733 400.666 477.2 379.6 476.933 370.666C476.8 359.2 480.933 341.333 486.8 328.266C488.933 323.733 490.667 319.6 490.667 319.2C490.667 316.8 505.2 298 512.933 290.533C528 275.733 544.4 266.266 566.667 259.333C570.667 258 576.4 256.266 579.333 255.333C582.267 254.4 588.533 252.666 593.333 251.333C598.133 250.133 604 248.266 606.4 247.2C608.8 246.133 611.733 245.333 613.067 245.333C614.267 245.333 618 244.533 621.333 243.466C628.667 241.066 636.533 238.933 664 231.466C680.933 227.066 690.533 225.333 699.467 225.333C710.267 225.333 729.067 229.066 740 233.333C744 234.933 748.4 236.533 749.6 236.933C755.6 238.8 794.8 259.466 800.8 264C809.733 270.8 814.667 278.666 818.667 292.666C824.267 312.533 832.933 327.6 847.6 343.066C851.733 347.333 882.533 369.333 884.533 369.333C884.8 369.333 888.933 371.866 893.6 374.933C906.133 383.333 906.533 383.6 916 388.266C924.4 392.533 925.2 392.666 941.467 392.666C958 392.666 958.4 392.533 967.2 388.133C978.667 382.133 984 377.6 989.6 369.066C995.733 359.733 998.133 352.266 999.867 338.666C1002.67 315.866 1002.8 308.933 1000.67 302.133C999.6 298.533 998.667 293.866 998.667 291.866C998.667 289.733 997.867 286.133 996.8 283.733C995.733 281.333 993.6 276 992 272C990.4 268 986.667 261.6 983.867 257.733C981.067 253.866 978.667 250.266 978.667 249.733C978.533 248.666 977.067 246.8 966.4 234.4C961.867 229.2 943.467 207.6 928.133 189.466C924.8 185.466 919.733 179.6 917.067 176.4C908.8 166.666 908.533 165.866 913.6 161.333C916 159.066 918.4 157.333 918.933 157.333C919.333 157.333 923.333 154.933 927.733 152.133C939.6 144.266 961.067 133.733 970 131.6C974.4 130.4 980.667 128.8 984 127.866C987.333 127.066 993.867 125.866 998.667 125.333C1007.33 124.266 1015.87 122.8 1034.67 119.2C1046.93 116.8 1060.53 116.4 1062.93 118.266C1063.87 119.066 1070.93 122.8 1078.67 126.8C1086.4 130.666 1096.67 136.4 1101.47 139.466C1106.27 142.666 1112.67 146.4 1115.47 148C1123.2 152.266 1125.33 153.466 1133.33 159.466C1137.33 162.4 1144.53 167.466 1149.07 170.533C1153.73 173.733 1162.27 180.133 1168.13 184.8C1173.87 189.466 1179.07 193.333 1179.6 193.333C1180.13 193.333 1182 194.8 1183.73 196.533C1198.13 211.866 1222.53 206 1228.4 185.866C1230.27 179.6 1230.13 178.533 1227.87 171.866C1226.13 166.933 1223.6 162.933 1219.47 159.333C1212.8 153.2 1204.67 146.533 1201.47 144.8C1200.27 144.133 1196.27 141.066 1192.53 138.133C1178.4 127.066 1166.4 118 1164.93 117.333C1164 116.933 1160.93 115.066 1157.87 113.066C1154.8 111.2 1150.4 108.4 1147.87 107.066C1145.33 105.733 1138.67 101.466 1132.8 97.5996C1122.67 90.6663 1058.27 57.3329 1055.2 57.3329C1054.4 57.3329 1049.6 55.5996 1044.53 53.4662C1011.47 39.4662 1003.07 36.5329 969.333 27.0662C965.333 25.9996 959.6 24.2662 956.667 23.1996C953.6 22.1329 949.867 21.3329 948.267 21.3329C946.533 21.3329 944.133 20.7996 942.8 19.9996C941.467 19.3329 936 18.1329 930.533 17.4662C918.8 15.7329 907.6 13.5996 902 11.9996C896 10.1329 871.6 6.93291 852.4 5.33291C840 4.39958 834.933 3.46625 833.867 1.99958C832.533 0.266247 825.867 -0.000419468 787.467 -0.000419468C761.333 -0.000419468 742.8 0.532914 743.2 1.19958ZM847.333 57.0663C856.133 57.7329 866.933 58.9329 871.333 59.7329C875.733 60.5329 885.333 62.1329 892.667 63.3329C908.4 65.8663 923.467 68.7996 932.667 71.3329C936.4 72.3996 943.067 74.2663 947.733 75.4663C952.267 76.6663 956 78.2663 956 78.9329C956 80.2663 945.6 85.1996 942.667 85.3329C939.6 85.3329 910.667 100.4 901.2 106.933C896.4 110.133 891.733 113.333 890.667 113.866C888.267 114.933 885.333 116.8 877.733 121.733C870.667 126.266 869.467 126.266 862.267 121.333C858.933 119.066 855.6 117.333 854.667 117.333C853.733 117.333 851.467 116.533 849.6 115.466C841.733 111.466 835.733 109.333 832 109.333C829.867 109.333 826.533 108.666 824.4 107.866C820.8 106.4 785.2 103.866 763.333 103.466C750.533 103.333 744.667 105.733 738.267 113.733C734.4 118.8 734 120 734 128.666C734 136.933 734.4 138.8 737.6 142.933C745.467 153.2 752.667 154.933 795.333 157.2C815.867 158.4 824.267 160.266 834.933 166.4C842.133 170.533 854.4 182.4 862.667 193.333C865.2 196.666 869.467 201.733 872.267 204.666C874.933 207.6 878.533 211.866 880.267 214.133C882 216.4 888.267 223.866 894.267 230.8C929.467 271.333 938.4 282.533 943.733 292.666C947.067 298.933 950.667 312.933 950.667 319.333C950.667 323.866 947.6 337.466 946 340C944.4 342.533 937.333 341.333 931.733 337.466C920.667 329.866 901.2 317.333 900.533 317.333C898.8 317.333 888.133 309.066 882.933 303.866C875.733 296.533 873.467 292.4 867.333 274C861.333 255.866 853.2 242.133 841.6 230.266C836.667 225.333 832.267 221.333 831.733 221.333C831.2 221.333 827.067 218.8 822.4 215.6C817.733 212.533 811.333 208.666 808 207.066C804.667 205.6 794.533 200.666 785.333 196.266C762.267 185.066 745.6 178.933 735.067 177.333C730 176.666 723.867 175.466 721.333 174.666C714.267 172.666 684.533 173.066 676 175.333C672 176.4 667.067 177.333 665.2 177.333C663.2 177.333 658.667 178.266 655.2 179.333C634.667 185.466 610.267 192.4 599.333 195.466C594.933 196.533 588.667 198.266 585.333 199.333C582 200.266 575.467 202.133 570.667 203.333C560.533 206 547.067 210.266 543.333 211.866C541.867 212.533 537.067 214.4 532.667 216.133C525.733 218.8 519.333 221.866 507.333 228.533C485.733 240.533 457.733 270 444.4 294.666C439.067 304.533 430.667 325.6 430.667 329.2C430.667 330.8 430 333.466 429.067 335.066C423.867 344.933 423.867 397.733 429.067 414C429.867 416.133 431.467 421.6 432.8 426C434 430.4 436.8 437.733 438.933 442.4C440.933 446.933 442.667 451.066 442.667 451.466C442.667 452.8 454.533 470.533 461.467 479.6C468.8 489.2 476 496.666 486.133 505.333C489.733 508.4 496.933 514.933 502 519.866C507.2 524.8 520.667 537.2 532 547.466C561.2 574.133 565.867 579.333 568.533 588.266C570.533 595.2 570.533 596.133 568.133 602.8C566.8 606.8 558.8 624.133 550.4 641.333C542 658.533 531.333 680.4 526.667 690C522.133 699.466 511.6 721.066 503.333 738C460.8 824.8 454.667 837.333 454.667 838.266C454.667 838.8 453.467 841.6 452.133 844.533C450.667 847.6 447.867 856 445.733 863.333L442.133 876.666L442 927.333C442 976.133 442.133 978.266 444.933 986C455.733 1015.73 472.267 1031.87 501.733 1041.2C526.667 1049.2 547.467 1052 564 1049.6C573.867 1048.13 578.667 1046.53 590 1041.2C594.4 1039.07 598.4 1037.33 598.933 1037.33C599.333 1037.33 607.467 1033.73 616.933 1029.2C626.267 1024.8 637.6 1019.33 642 1017.33C649.6 1013.73 687.867 995.866 699.333 990.666C702.267 989.333 709.467 986 715.333 983.333C731.867 975.6 730.933 975.866 742.267 978.933C750.4 981.2 756.4 981.866 770 981.866C786.667 981.866 787.733 981.733 798 977.466C803.867 974.933 809.6 972.133 810.8 971.2C811.867 970.133 813.6 969.333 814.533 969.333C815.333 969.333 820.667 964.666 826.4 958.933C836.933 948.266 843.467 937.2 852.667 914.666C854.667 909.866 857.6 902.933 859.333 899.333C862.4 892.666 864.8 887.466 871.333 872.666C873.2 868.266 875.6 862.8 876.533 860.666C877.6 858.4 879.333 854.133 880.667 851.066C882 848 883.867 845.2 885.067 844.666C887.333 843.866 893.6 844.8 903.333 847.333C923.333 852.8 926.8 853.333 942.8 853.333C955.467 853.333 960.133 852.8 962.133 851.333C963.467 850.266 965.6 849.333 966.8 849.333C972 849.333 982 843.6 996.533 832.666C1002.27 828.266 1009.47 822.933 1012.53 820.8C1015.6 818.666 1018.27 816.533 1018.67 816.133C1019.07 815.6 1023.33 812.133 1028.27 808.133C1044.13 795.733 1052.13 785.066 1060.53 764.933C1061.73 762.133 1062.67 757.866 1062.67 755.333C1062.67 750.666 1066 736.266 1067.47 734.8C1067.87 734.4 1072.27 733.6 1077.07 733.2C1094.8 731.6 1112.8 729.066 1120.27 727.2C1124.53 726.133 1129.2 725.333 1130.67 725.333C1132.27 725.333 1138.93 722.533 1145.47 719.2C1166.27 708.266 1182.8 687.466 1188 665.6C1188.93 661.6 1190.53 658.133 1191.6 657.733C1192.67 657.333 1195.87 658 1198.8 659.2C1201.6 660.4 1206.27 662.133 1209.07 663.2C1211.73 664.266 1216.93 666.266 1220.4 667.6C1228.53 670.666 1236.67 677.466 1240 684.133C1242.4 688.666 1242.67 692 1242.67 714.266C1242.67 728 1242 744.666 1241.33 751.333C1240 762.533 1237.2 832.266 1236.93 859.333C1236.8 876.666 1240.13 890 1246.8 898.8C1251.6 904.933 1258.67 911.733 1262.67 914C1276 921.333 1277.6 921.733 1293.33 921.866C1307.33 922 1309.33 921.733 1316 918.533C1324 914.666 1337.07 904.4 1350.67 891.333C1363.07 879.333 1373.6 870.666 1375.6 870.666C1377.87 870.666 1378.13 869.466 1372.53 884.8C1370 892 1367.33 899.466 1366.67 901.333C1366.13 903.2 1364.13 908.133 1362.13 912.533C1360.27 916.8 1358.67 920.933 1358.67 921.733C1358.67 925.866 1318.67 1000.93 1312.67 1008C1311.73 1009.07 1310.8 1010.53 1310.53 1011.33C1310.27 1012 1306.53 1017.73 1302.4 1024C1298.13 1030.27 1293.6 1036.8 1292.4 1038.67C1291.2 1040.53 1288.53 1043.73 1286.53 1046C1284.67 1048.13 1282.27 1051.33 1281.47 1052.93C1280.67 1054.67 1272.27 1064.8 1263.07 1075.6C1240 1102.53 1228 1115.2 1210.53 1130.67C1205.07 1135.47 1196.53 1143.2 1191.33 1148C1186.27 1152.8 1179.07 1158.8 1175.33 1161.33C1171.73 1163.73 1165.73 1168.27 1162 1171.2C1149.47 1181.47 1124.67 1198.53 1111.33 1206.13C1109.87 1206.93 1103.87 1210.53 1098 1214.13C1087.07 1220.93 1042.27 1243.47 1032.67 1247.07C1029.73 1248.13 1022.53 1250.93 1016.67 1253.33C1010.8 1255.73 1003.87 1258.4 1001.33 1259.33C998.8 1260.4 992 1262.93 986.133 1265.2C980.4 1267.47 974.267 1269.33 972.4 1269.33C970.667 1269.33 967.6 1270.13 965.6 1271.2C963.6 1272.13 959.867 1273.33 957.333 1273.73C954.8 1274.27 948.533 1275.87 943.333 1277.33C933.867 1280.13 924 1282.4 904.667 1286.13C880 1290.93 871.867 1292.13 857.2 1293.2C848.667 1293.87 838.133 1295.07 833.867 1295.87C823.733 1297.73 744.4 1297.87 739.067 1296C736.8 1295.2 727.6 1294 718.533 1293.33C702.933 1292.27 686.8 1290 673.333 1286.93C670 1286.13 662.267 1284.53 656 1283.33C644.933 1281.2 638.933 1279.73 624 1275.6C620 1274.4 613.067 1272.4 608.667 1271.2C597.467 1268.13 577.467 1261.47 572.667 1259.33C568.533 1257.47 551.6 1250.67 542 1247.07C527.867 1241.6 478.933 1216.13 462 1205.33C455.333 1201.07 440.533 1191.73 438 1190.27C436.667 1189.33 429.467 1184.13 422.267 1178.67C382.533 1148.4 379.733 1146.67 370.667 1146.67C358.933 1146.67 347.467 1155.73 345.867 1166.27C344.533 1175.2 346.267 1182.93 350.8 1188.53C354.8 1193.2 367.733 1203.73 393.867 1223.07C400.533 1228 406.933 1232.53 408 1233.07C410 1234 434.533 1249.87 441.6 1254.8C443.6 1256.27 445.467 1257.33 445.867 1257.33C446.267 1257.33 449.733 1259.2 453.6 1261.47C457.467 1263.73 468.133 1269.47 477.333 1274.27C486.4 1278.93 494.533 1283.33 495.333 1283.87C496 1284.4 499.333 1285.87 502.667 1287.2C507.867 1289.33 515.6 1292.53 538 1302.13C549.867 1307.2 560.667 1311.07 575.333 1315.33C579.733 1316.67 584.4 1318.13 585.6 1318.8C586.933 1319.47 590.133 1320.53 592.933 1321.2C595.733 1321.87 603.067 1324 609.333 1325.73C615.6 1327.6 625.2 1330.13 630.667 1331.33C636.133 1332.53 644 1334.27 648 1335.33C660.933 1338.4 671.067 1340.13 684 1341.47C690.933 1342.13 699.067 1343.2 702 1343.87C704.933 1344.67 711.6 1345.47 716.667 1345.87C721.867 1346.27 732 1347.2 739.333 1348C757.6 1349.73 824 1349.6 834.667 1347.87C839.467 1347.07 851.2 1345.87 860.667 1345.33C878 1344.13 888.133 1342.8 903.6 1339.2C908.133 1338.13 913.867 1337.33 916.267 1337.33C918.667 1337.33 926.4 1335.73 933.333 1334C940.267 1332.13 949.333 1329.73 953.333 1328.8C957.333 1327.73 964.267 1326 968.667 1324.67C973.067 1323.33 978.8 1321.87 981.333 1321.33C986.533 1320.27 997.867 1316.67 1002 1314.67C1003.47 1314 1008.27 1312.27 1012.67 1310.8C1017.07 1309.33 1024 1306.8 1028 1305.33C1032 1303.73 1036.93 1302 1038.8 1301.33C1040.8 1300.8 1047.73 1297.73 1054.13 1294.67C1060.67 1291.6 1067.87 1288.27 1070 1287.33C1085.87 1280.4 1102.53 1271.87 1113.6 1265.2C1120.8 1260.8 1126.93 1257.33 1127.2 1257.33C1128.67 1257.33 1151.87 1243.2 1160 1237.33C1164.8 1234 1173.33 1227.87 1179.07 1223.87C1192.93 1214.13 1201.87 1207.47 1212.13 1198.8C1222.27 1190.4 1235.73 1178.67 1237.87 1176.53C1238.67 1175.73 1240.8 1174.4 1242.53 1173.47C1245.47 1171.87 1246.67 1172.8 1265.47 1191.47C1276.4 1202.4 1285.33 1212.27 1285.33 1213.47C1285.33 1214.67 1282.13 1218.4 1278.4 1221.6C1274.53 1224.67 1269.2 1229.2 1266.67 1231.6C1264.13 1233.87 1260.27 1237.2 1258 1238.8C1255.87 1240.53 1249.33 1246 1243.6 1250.8C1237.87 1255.73 1224.67 1265.6 1214.27 1272.8C1203.87 1280 1192 1288.4 1188 1291.33C1181.33 1296.4 1177.07 1299.07 1160.67 1308C1157.73 1309.6 1153.6 1312 1151.33 1313.33C1149.2 1314.8 1145.6 1316.8 1143.33 1317.87C1138.8 1320.13 1126 1327.33 1121.87 1330C1120.27 1330.93 1115.2 1333.47 1110.53 1335.33C1105.87 1337.33 1096.67 1341.6 1090 1344.67C1073.07 1352.8 1053.2 1361.33 1051.2 1361.33C1050.27 1361.33 1047.87 1362.13 1045.73 1363.2C1043.73 1364.27 1038.13 1366.27 1033.33 1367.73C1028.53 1369.33 1021.33 1371.73 1017.33 1373.33C1013.33 1374.93 1008.27 1376.67 1006 1377.33C1003.87 1377.87 1000.53 1378.93 998.667 1379.73C996.8 1380.53 990.8 1382.13 985.333 1383.33C979.867 1384.53 973.2 1386.27 970.667 1387.07C968.133 1387.87 963.6 1388.93 960.667 1389.33C957.733 1389.87 952.4 1391.07 948.667 1392C945.067 1392.8 938.667 1394.4 934.667 1395.33C930.667 1396.4 920.8 1398.13 912.667 1399.33C904.667 1400.53 892.667 1402.27 886 1403.33C826.133 1412.53 734 1412.27 679.333 1402.8C674.933 1402 665.6 1400.4 658.667 1399.2C651.733 1398 642.667 1396.27 638.667 1395.33C634.667 1394.4 627.733 1392.93 623.333 1392C614.133 1390.27 602.933 1387.6 595.333 1385.33C592.4 1384.53 586.667 1382.93 582.4 1382C578.267 1381.07 574.133 1379.87 573.333 1379.33C572.4 1378.8 569.867 1377.87 567.467 1377.2C565.2 1376.67 557.333 1374 550 1371.33C542.667 1368.67 535.467 1366.13 534 1365.87C532.533 1365.47 529.6 1364.27 527.333 1363.33C515.733 1358.27 513.067 1357.33 511.333 1357.33C509.467 1357.33 502.4 1354.13 468.133 1337.87C458.4 1333.2 450.133 1329.33 450 1329.33C449.733 1329.33 444.933 1326.67 439.467 1323.33C433.867 1320 428.933 1317.33 428.667 1317.33C427.6 1317.33 394 1296.93 383.333 1289.87C366.133 1278.27 347.067 1264.8 343.733 1261.87C342 1260.4 339.333 1258.27 337.867 1257.2C334.8 1255.2 316.4 1240.4 313.867 1238C313.067 1237.33 307.733 1232.53 301.867 1227.33C279.6 1207.73 230.4 1156.93 218.933 1141.6C216.267 1138.13 212.4 1133.2 210.133 1130.4C202 1120.8 181.867 1092.93 174 1080.27C165.067 1066 164.267 1064.8 161.333 1059.33C159.733 1056.4 156.667 1051.47 154.533 1048.27C152.4 1045.07 150.667 1042.27 150.667 1041.87C150.667 1041.47 147.733 1036.27 144.133 1030.27C140.533 1024.27 135.067 1013.87 132 1007.33C128.933 1000.67 122.933 988.133 118.667 979.333C110.933 963.066 103.467 945.466 102.267 940.666C101.467 937.733 98.9332 930.133 97.1999 926C95.1999 921.066 91.8665 911.333 90.7999 907.333C90.2665 905.066 89.0665 902.133 88.2665 900.666C86.3998 897.333 83.0665 886.266 81.8665 879.6C81.4665 876.933 80.5332 874.266 79.8665 873.866C79.1998 873.466 78.6665 871.466 78.6665 869.333C78.6665 867.2 77.9998 863.866 77.1998 861.733C76.2665 859.733 75.1998 855.6 74.5332 852.666C73.3332 846.4 71.0665 837.2 69.0665 830.8C68.2665 828.4 67.1998 822.666 66.6665 818.133C65.1998 807.6 63.0665 792.933 60.6665 778.666C51.0665 721.333 51.0665 635.6 60.6665 575.2C61.7332 568.666 62.6665 560.8 62.6665 557.866C62.6665 552.8 65.0665 540.8 68.7998 527.2C69.8665 523.466 70.6665 518.933 70.6665 517.066C70.6665 515.2 71.5998 511.066 72.6665 508C73.7332 504.933 74.6665 500.4 74.6665 497.866C74.6665 495.466 75.1998 492.133 75.8665 490.4C76.5332 488.666 80.2665 477.466 84.1332 465.333C95.8665 428 102.4 408.8 104.133 406C104.667 405.2 109.333 394.4 114.667 382C126.533 354 131.6 342.933 134.667 338.666C135.867 336.8 139.2 331.066 142 326C144.8 320.8 149.2 313.066 151.6 308.666C154.133 304.266 157.067 298.8 158.133 296.666C167.333 278.533 203.333 228.133 224.933 203.2C230.667 196.533 238 188 241.2 184.266C244.4 180.4 248 177.333 249.2 177.333C250.4 177.333 260.267 186.266 271.2 197.2C294.267 220.4 293.6 217.333 279.067 233.466C268.667 245.066 254.267 262.4 250.133 268.133C248.533 270.266 244.4 276.4 240.667 281.6C237.067 286.933 231.067 295.066 227.6 299.866C224.133 304.666 219.333 311.733 216.933 315.733C214.533 319.6 212.133 323.866 211.333 325.066C210.667 326.4 207.6 331.6 204.667 336.666C201.733 341.866 198.667 347.2 197.733 348.666C195.733 352 175.733 392.4 170.4 404C164.8 416.133 163.333 419.466 159.867 428.666C158.267 433.066 155.867 439.6 154.4 443.333C152.933 446.933 151.333 451.733 150.667 454C150 456.133 148.267 461.333 146.667 465.333C145.067 469.333 143.2 475.066 142.667 478C142 480.933 140.533 486.666 139.2 490.666C138 494.666 136.267 501.333 135.2 505.333C134.267 509.333 132.4 516.266 131.333 520.666C129.2 528.533 128.267 532.533 124.667 552C123.733 557.466 122.133 565.6 121.333 570C119.2 581.2 116.4 609.6 114.533 638.666C113.467 656.666 113.467 673.2 114.533 700C116.4 749.466 118.8 772.933 124.8 800C125.867 804.8 127.867 814.933 129.333 822.666C130.8 830.4 132.533 838.133 133.2 840C133.867 841.866 135.333 846.666 136.4 850.666C142 870.533 143.2 874.4 144.8 879.066C145.867 881.733 146.667 885.2 146.667 886.666C146.667 888.133 147.467 891.2 148.533 893.6C149.6 896 152.267 902.8 154.667 908.666C156.933 914.533 159.733 921.066 160.667 923.333C161.6 925.466 164.267 932.4 166.667 938.666C171.733 952.133 198.133 1005.07 205.067 1015.87C207.733 1020 210.533 1024.4 211.333 1025.73C217.733 1036.67 234.933 1062.67 241.733 1071.47C246.267 1077.47 254.667 1088.4 260.4 1095.87C266.133 1103.33 273.333 1111.2 276.267 1113.33C281.067 1116.8 282.933 1117.33 290.533 1117.33C305.6 1117.33 314.133 1109.47 315.467 1094.53C316.4 1083.73 315.333 1081.73 294 1053.87C278.933 1034.13 269.2 1020.53 267.067 1016C266.533 1014.93 265.2 1012.53 263.867 1010.67C254.667 997.066 246 982.8 240.933 972.666C232 954.666 225.333 942.133 223.867 940.8C223.2 940 222.667 938.4 222.667 937.2C222.667 936 221.733 934.266 220.667 933.333C219.6 932.4 218.667 930.8 218.667 929.733C218.667 928.666 217.867 925.866 216.8 923.6C215.867 921.2 214 916.666 212.667 913.333C211.467 910 209.6 905.333 208.533 902.933C207.467 900.533 206.667 898 206.667 897.333C206.667 896.533 204.933 892.266 202.8 887.733C199.333 879.866 192.667 859.733 191.067 852C190.667 850.133 189.6 846.8 188.533 844.4C187.467 842.133 186.667 839.2 186.667 837.733C186.667 836.4 185.867 832.666 184.8 829.333C182 820.666 179.867 811.066 178.8 802.666C178.133 798.666 176.133 787.466 174.267 778C169.733 755.2 168.267 740.933 166.533 699.466C165.467 674 165.467 659.066 166.533 642.133C168.267 614.533 171.2 586.8 173.067 578.666C173.867 575.333 175.467 566.933 176.667 560C179.733 541.6 182.667 527.866 184.267 524C185.067 522.133 186.267 518.266 186.8 515.333C187.333 512.4 188.8 506.666 190 502.666C191.333 498.666 193.067 492.266 194 488.666C194.933 484.933 197.867 476.533 200.533 470C203.333 463.333 207.067 453.333 208.933 447.6C210.8 442 212.8 436.933 213.467 436.533C214.133 436.133 214.667 434.8 214.667 433.466C214.667 430.266 243.6 372.666 251.2 360.666C254.533 355.466 261.067 344.8 266 336.933C270.8 328.933 275.6 321.466 276.8 320.4C277.867 319.2 279.867 316.666 281.067 314.8C282.267 312.933 285.867 308.266 288.933 304.533C292.133 300.8 294.667 297.066 294.667 296.4C294.667 295.733 296 294 297.467 292.533C299.067 291.2 301.867 287.733 303.6 284.933C305.333 282.133 311.067 275.333 316.4 269.733C321.733 264.266 327.867 257.6 330 254.933C336 247.6 357.867 225.866 369.867 215.333C375.733 210.133 382.267 204.133 384.533 201.866C391.333 195.066 435.733 162.533 450.667 153.333C458.4 148.666 468 142.533 472.133 139.733C479.067 135.2 512.933 117.333 514.8 117.333C515.2 117.333 520.533 114.666 526.667 111.333C532.8 108 538.4 105.333 539.067 105.333C539.733 105.333 542.4 104.4 545.067 103.2C555.2 98.9329 558.133 97.7329 562.667 96.1329C565.2 95.1996 572.133 92.6663 578 90.5329C587.467 86.9329 598.8 83.3329 622 76.5329C625.733 75.4663 631.2 73.9996 634.4 73.3329C637.6 72.6663 640.933 71.5996 641.733 71.0663C642.667 70.5329 646 69.7329 649.333 69.1996C656.267 68.1329 668.667 65.8663 682 63.3329C699.333 59.9996 710.933 58.6663 731.2 57.1996C742.133 56.5329 751.467 55.5996 751.867 55.1996C752.933 54.1329 827.867 55.5996 847.333 57.0663ZM819.333 1464.4C820.4 1465.87 821.467 1470.93 822 1475.73C822.4 1480.67 823.6 1490.67 824.667 1498C827.867 1520.13 829.467 1533.33 830.8 1546.67C831.467 1553.6 832.533 1561.07 833.333 1563.2C834 1565.33 834.667 1571.2 834.667 1576.13C834.667 1581.07 835.333 1586.8 836 1588.8C837.467 1592.53 840.133 1616.93 840.533 1628.67L840.667 1635.33H787.333H734L734.4 1623.33C734.667 1616.67 735.467 1607.73 736.133 1603.33C736.8 1598.93 737.867 1589.07 738.667 1581.33C739.333 1573.6 740.533 1565.2 741.333 1562.67C742 1560.13 742.667 1554.4 742.667 1549.87C742.667 1545.33 743.2 1540 744 1537.87C744.667 1535.73 745.867 1528 746.667 1520.67C747.333 1513.33 748.533 1502.8 749.333 1497.33C750 1491.87 751.333 1482.4 752.133 1476.27C752.933 1470.27 754.4 1464.53 755.2 1463.6C756.4 1462.4 765.2 1462 787.2 1462C815.2 1462 817.733 1462.13 819.333 1464.4ZM1015.33 1690.93C1017.6 1692.27 1020.27 1693.33 1021.33 1693.33C1025.47 1693.33 1039.47 1705.2 1047.33 1715.2C1051.73 1720.8 1057.33 1728 1059.87 1731.07C1066.53 1739.47 1070.8 1746.67 1070 1748C1069.07 1749.47 505.067 1749.87 503.6 1748.53C503.2 1748 505.467 1743.87 508.667 1739.2C535.467 1700.93 547.067 1691.6 570.667 1689.33C576.133 1688.8 677.6 1688.4 796 1688.53C998.267 1688.67 1011.6 1688.8 1015.33 1690.93Z" fill="black"/>
<path d="M1067.33 301.2C1052.27 305.067 1044.27 320.667 1049.73 335.733C1052.8 344 1056.67 346.933 1076.67 355.333C1078.93 356.267 1082.53 357.733 1084.67 358.8C1098.27 364.667 1108.93 368 1114.67 368C1121.87 368 1130 363.6 1134.53 357.2C1138.13 352.267 1138.67 350.533 1138.67 342.8C1138.53 326 1132.53 320.8 1097.33 307.333C1094 306.133 1089.47 304.267 1087.2 303.333C1081.6 300.933 1072.27 300 1067.33 301.2Z" fill="black"/>
</svg>
