<?xml version="1.0" standalone="no"?>
<!DOCTYPE svg PUBLIC "-//W3C//DTD SVG 20010904//EN"
 "http://www.w3.org/TR/2001/REC-SVG-20010904/DTD/svg10.dtd">
<svg version="1.0" xmlns="http://www.w3.org/2000/svg"
 width="633.000000pt" height="780.000000pt" viewBox="0 0 633.000000 780.000000"
 preserveAspectRatio="xMidYMid meet">
<metadata>
Created by potrace 1.10, written by Peter Selinger 2001-2011
</metadata>
<g transform="translate(0.000000,780.000000) scale(0.100000,-0.100000)"
fill="#000000" stroke="none">
<path d="M3650 5610 c-25 -5 -73 -9 -106 -9 -34 -1 -79 -7 -100 -14 -22 -8
-68 -17 -104 -21 -35 -3 -69 -11 -74 -16 -6 -6 -24 -10 -40 -10 -17 -1 -42 -7
-56 -15 -14 -8 -36 -14 -48 -15 -13 0 -38 -6 -55 -14 -18 -8 -70 -29 -117 -47
-47 -18 -92 -38 -101 -46 -8 -7 -22 -13 -30 -13 -8 -1 -32 -12 -54 -25 -22
-14 -47 -28 -55 -32 -8 -4 -45 -26 -83 -50 -37 -24 -69 -43 -72 -43 -18 0
-287 -221 -367 -303 -46 -46 -30 -97 30 -97 10 0 54 35 98 78 134 131 389 309
524 367 25 10 52 25 61 32 8 7 21 13 27 13 7 0 41 14 75 30 35 17 73 30 84 30
10 0 28 7 39 15 10 8 26 15 34 15 8 0 37 8 65 19 91 34 119 41 128 32 14 -14
-7 -42 -62 -86 -122 -95 -211 -304 -211 -493 0 -91 25 -237 46 -269 8 -12 14
-27 14 -32 0 -20 75 -138 123 -194 113 -132 277 -220 440 -238 43 -5 82 -11
87 -14 15 -9 180 16 245 37 67 22 152 62 176 84 8 8 19 14 23 14 7 0 81 65
128 113 82 85 162 269 181 419 26 205 -65 452 -211 576 -96 81 -95 80 -62 87
16 4 35 3 42 -2 15 -9 190 -71 233 -82 17 -4 55 -20 86 -34 31 -15 60 -27 65
-27 5 0 43 -18 84 -40 41 -22 82 -43 90 -47 104 -48 331 -214 439 -320 62 -61
79 -73 107 -73 33 0 34 1 34 44 0 41 -4 48 -58 97 -48 45 -122 106 -232 192
-26 21 -164 113 -180 120 -8 4 -28 16 -45 27 -16 11 -37 22 -45 26 -8 3 -22
10 -30 15 -8 5 -22 12 -30 15 -8 3 -22 10 -30 15 -8 5 -22 12 -30 15 -8 3 -28
12 -43 20 -16 7 -35 14 -42 14 -7 0 -26 6 -42 14 -59 29 -104 46 -126 46 -12
1 -33 7 -47 15 -14 8 -38 15 -55 15 -16 0 -41 7 -55 15 -14 8 -44 14 -67 15
-23 0 -54 5 -70 11 -60 24 -484 45 -573 29z m334 -117 c175 -56 296 -155 384
-313 95 -171 102 -374 20 -551 -106 -226 -309 -364 -557 -377 -76 -4 -190 17
-243 44 -14 8 -31 14 -37 14 -6 0 -30 12 -54 28 -23 15 -47 29 -54 32 -23 10
-104 93 -144 147 -167 225 -159 540 20 764 39 49 103 109 117 109 5 1 25 14
44 30 19 17 39 30 45 30 6 0 28 9 50 20 22 11 47 20 57 20 9 0 20 5 23 10 11
18 270 12 329 -7z"/>
<path d="M3725 5271 c-147 -25 -285 -183 -309 -353 -8 -56 14 -97 52 -98 40 0
61 37 62 105 0 69 17 102 82 166 51 49 91 68 171 79 32 5 65 14 73 21 16 13
18 47 5 68 -10 16 -79 22 -136 12z"/>
</g>
</svg>
