<svg width="1792" height="826" viewBox="0 0 1792 826" fill="none" xmlns="http://www.w3.org/2000/svg">
<path d="M836 0.930577C798.267 4.3048 759.867 8.48883 746.667 10.7833C707.333 17.6667 634.267 33.998 620.8 39.1268C619.2 39.6666 614.4 41.1513 610 42.501C605.6 43.7157 599.867 45.6053 597.333 46.5501C594.8 47.4948 580.4 52.3537 565.333 57.3476C550.267 62.3414 537.467 66.9304 536.667 67.4702C536 68.0101 534.133 68.8199 532.667 69.2248C516.8 73.6788 449.333 103.642 408 124.697C388.267 134.685 350.933 155.065 340 161.813C337.467 163.298 334.4 165.053 333.333 165.593C326.8 168.562 261.2 209.592 254.267 214.856C251.733 217.016 249.2 218.635 248.8 218.635C248.133 218.635 225.067 234.292 201.333 250.893C190 258.721 173.733 270.733 142.667 294.083C137.2 298.267 132.4 301.911 132 302.316C131.6 302.721 126.267 306.905 120 311.764C113.733 316.488 98.2667 329.04 85.4667 339.433C72.8 349.825 60.4 359.813 58.1333 361.702C55.7333 363.592 41.7333 375.604 26.9333 388.426C8.53333 404.353 0 412.721 0 414.61C0 418.119 16 437.015 19.0667 437.15C20.4 437.285 26.4 432.831 32.4 427.432C38.4 422.168 46.5333 415.015 50.5333 411.641C54.4 408.267 58.4 404.892 59.2 404.218C71.6 393.015 89.7333 378.034 128.4 347.396C202.133 288.954 260.667 247.924 332.667 204.464C345.2 196.905 356.267 190.427 357.333 189.887C358.4 189.347 361.333 187.728 363.733 186.243C366.133 184.758 373.867 180.439 381.067 176.66C388.133 172.746 394.667 169.102 395.467 168.562C397.067 167.212 455.733 137.654 456.533 137.654C456.933 137.654 463.067 134.955 470.267 131.58C477.467 128.206 485.2 124.562 487.333 123.482C489.6 122.538 498.267 118.893 506.667 115.384C515.067 112.01 523.733 108.231 525.733 107.151C527.867 106.071 530.667 105.262 532 105.262C533.2 105.262 535.067 104.452 535.867 103.372C536.667 102.292 539.067 101.212 541.067 100.808C543.067 100.403 549.733 98.2431 556 95.8137C562.267 93.3843 577.2 88.2554 589.333 84.2064C601.467 80.2923 613.2 76.2432 615.333 75.4334C617.6 74.6236 621.467 73.4089 624 72.869C626.533 72.1941 632 70.7095 636 69.4948C647.867 65.9856 678.267 58.4273 692.533 55.323C701.6 53.2985 706.133 52.8936 707.067 53.8384C708 54.7832 707.467 55.593 705.2 56.6727C695.6 60.7218 664.133 82.9917 644.8 99.053C632.667 109.176 604.533 138.194 592.8 152.501C583.067 164.378 573.467 177.605 564 192.316C555.333 205.543 543.467 228.758 530.667 257.102C527.067 264.93 521.067 282.611 516.667 297.862C508.267 327.555 508 328.77 508 331.469C508 332.819 507.2 337.948 506.133 342.807C501.067 365.347 498.4 402.598 499.467 435.935C500.933 479.53 511.067 528.659 527.467 571.579C531.6 582.242 550.667 622.192 555.067 629.616C556 631.1 558.533 635.284 560.667 639.063C565.6 647.701 584.4 674.02 594.267 686.303C603.2 697.37 633.2 728.008 644.667 737.726C691.733 777.407 743.333 804.265 802 819.652C827.467 826.265 822.4 825.995 900 825.995C977.6 825.995 972.4 826.4 998 819.652C1020.53 813.713 1041.33 806.56 1060 798.057C1077.73 789.959 1100.93 777.542 1107.6 772.548C1109.87 770.793 1112.13 769.308 1112.53 769.308C1113.87 769.308 1136.67 752.842 1146.67 744.609C1172.13 723.689 1204.67 689.677 1219.47 668.487C1227.6 657.014 1244 631.91 1244 631.1C1244 630.56 1245.6 627.726 1247.6 624.487C1251.87 617.738 1261.6 597.763 1266.13 586.426C1268 581.972 1270 577.113 1270.53 575.628C1271.2 574.143 1272.67 570.364 1273.87 567.125C1275.07 564.021 1276.8 559.162 1277.87 556.328C1283.2 542.426 1288.67 521.776 1292.8 500.72C1302.67 449.702 1302.67 387.077 1292.8 336.058C1290.4 323.641 1286.93 308.39 1285.33 302.991C1276.8 275.322 1263.2 240.365 1255.73 227.003C1254.27 224.304 1250.93 218.095 1248.4 213.237C1241.73 200.55 1221.2 170.047 1209.47 155.2C1197.6 140.218 1166 108.096 1151.87 96.4885C1134.67 82.3168 1107.6 63.0163 1101.73 60.5868C1097.47 58.9672 1097.87 56.6727 1102.53 56.6727C1107.6 56.6727 1154.27 67.7402 1164 71.2494C1165.87 72.0592 1170.67 73.5438 1174.67 74.7586C1189.73 79.3475 1242.8 97.1634 1248.67 99.7278C1250.13 100.403 1253.73 101.752 1256.67 102.967C1270 108.096 1313.2 126.182 1322 130.231C1347.2 142.108 1354.67 145.752 1371.33 153.985C1392.27 164.378 1421.33 180.034 1442 192.047C1444.93 193.666 1451.47 197.445 1456.67 200.415C1468.93 207.433 1468.53 207.298 1483.6 216.476C1515.6 236.046 1554 261.286 1581.33 280.856C1587.6 285.31 1595.07 290.574 1598 292.598C1623.73 310.144 1708.4 375.874 1734.8 398.684C1737.33 400.978 1742.13 405.027 1745.33 407.592C1748.53 410.156 1755.47 416.095 1760.8 420.684C1766.13 425.408 1771.33 429.187 1772.4 429.187C1774 429.187 1778 424.868 1790.4 410.021C1791.73 408.267 1792 406.782 1791.2 405.027C1789.87 402.328 1765.2 380.598 1742.67 362.377C1739.87 360.083 1730.53 352.525 1721.87 345.506C1713.07 338.353 1699.6 327.69 1691.73 321.617C1684 315.678 1676.8 310.144 1675.73 309.2C1657.47 293.813 1584.27 241.985 1538 211.617C1518.4 198.66 1472.4 170.856 1454 160.599C1450.4 158.574 1443.47 154.66 1438.67 151.961C1423.07 143.053 1370 116.059 1354 108.771C1349.6 106.746 1342.13 103.237 1337.33 100.943C1332.53 98.648 1326.93 96.0836 1324.67 95.0039C1313.2 90.01 1306.53 87.1757 1298.67 84.2064C1293.87 82.3168 1285.87 79.0776 1280.67 76.9181C1256.4 66.9304 1249.33 64.3659 1220.67 54.7832C1203.87 49.1145 1186.67 43.5807 1182.67 42.366C1178.67 41.1513 1172.93 39.3967 1170 38.317C1162.67 36.0225 1120.67 25.6299 1101.33 21.5808C1056.13 11.8631 1026.27 7.13915 985.333 3.22505C969.6 1.60542 946.133 0.930577 902.667 0.660639C869.333 0.52567 839.333 0.52567 836 0.930577ZM935.2 39.1268C968.533 43.0409 987.6 47.3599 1020.67 58.9672C1045.2 67.6052 1056.67 72.869 1080.67 86.6358C1116.53 107.151 1156.8 141.973 1183.47 175.58C1194.4 189.482 1209.87 211.617 1212.4 217.286C1212.93 218.365 1214.53 221.065 1216 223.359C1220 229.703 1234 257.641 1237.33 265.874C1247.2 290.709 1248.53 294.623 1253.73 313.114C1272.4 379.788 1272.4 457.395 1253.73 523.665C1246.67 548.634 1237.73 571.984 1226.27 594.524C1224.13 598.978 1221.33 604.376 1220.27 606.671C1219.07 608.83 1212.53 619.358 1205.6 630.021C1170.27 684.683 1122.13 728.818 1066.13 757.836C1055.87 763.235 1044 769.038 1040 770.658C1036 772.278 1031.47 774.167 1030 774.842C1016.13 781.051 982.133 790.094 950.667 795.897C932.933 799.137 865.6 799.137 850.667 795.762C845.2 794.548 839.333 793.603 837.6 793.603C833.333 793.603 800.267 785.235 784.667 780.106C768.667 774.977 759.733 771.063 734.8 758.511C694 737.996 652.8 704.658 620.933 666.327C609.6 652.83 592 628.671 592 626.781C592 626.376 590.533 624.082 588.8 621.787C585.733 617.468 577.333 602.217 570.533 588.45C556.533 560.107 545.2 524.745 538.133 487.898C529.867 443.763 529.867 392.88 538.267 348.88C543.6 320.807 552.8 288.819 561.067 269.249C582 220.39 607.2 182.734 643.867 145.752C687.2 102.157 731.867 74.4886 791.2 54.7832C801.333 51.4089 810.667 48.5746 811.733 48.5746C812.8 48.5746 816.8 47.7648 820.533 46.685C828.133 44.5255 847.467 41.1513 862.667 39.3967C877.067 37.6421 920.933 37.5071 935.2 39.1268Z" fill="black"/>
<path d="M888 205.27C850.4 210.399 828.534 215.798 800.4 226.46C784.4 232.669 765.6 244.681 751.467 257.773C737.867 270.46 720.8 299.343 714.667 320.263C713.067 325.662 710.934 332.411 709.867 335.38C708.8 338.484 708 342.128 708 343.613C708 345.098 707.2 349.012 706.134 352.386C704.134 358.865 701.334 374.386 697.867 397.736C695.334 414.607 696 417.036 702.534 417.036C704.4 417.036 710.267 417.846 715.6 418.926C720.8 419.87 725.6 420.41 726.267 419.87C727.067 419.466 728.667 412.987 729.867 405.564C731.067 398.14 733.067 386.938 734.134 380.595C743.6 324.852 756 297.184 780.534 276.534C798.8 261.282 831.734 247.92 863.6 242.926C867.334 242.251 871.067 241.577 871.6 241.172C872.267 240.767 878.667 239.822 886 238.877C893.334 238.067 901.6 236.853 904.267 236.043L909.2 234.693L908.4 221.601C908 214.448 907.067 207.429 906.4 206.08C905.067 203.515 902 203.38 888 205.27Z" fill="black"/>
</svg>
