<svg width="1704" height="1655" viewBox="0 0 1704 1655" fill="none" xmlns="http://www.w3.org/2000/svg">
<path d="M753.4 3.20035C749.934 4.80035 746.467 7.86701 744.067 11.467L740.334 17.2003L739.667 112.534L739 208L623.667 208.8C546.067 209.334 506.6 210 503 210.934C487.667 215.2 475.4 222.4 464.867 233.6C455.8 243.067 450.734 251.467 446.734 263.867L443.667 273.2V406C443.667 510.267 443.267 539.2 442.067 540.8C440.334 542.934 437.134 544.267 420.334 550.667C401.934 557.734 386.867 563.6 377.667 567.334C368.6 571.067 354.2 576.667 335 584C329.934 585.867 321.534 589.2 316.334 591.334C307.267 595.067 296.734 599.2 270.334 609.334C244.867 619.2 233.667 623.467 231 624.667C229.534 625.334 225 627.2 221 628.667C201.667 636.267 197.4 639.734 194.334 651.334C192.067 659.334 192.067 715.6 194.2 746.667C196.6 783.067 200.867 818.267 205.8 844.8C206.867 850.4 207.667 856.267 207.667 858C207.667 860.8 210.067 872.4 213.667 887.334C214.6 891.334 216.334 898.8 217.534 904C223.667 931.734 237.667 984.8 242.334 997.334C243.134 999.467 247.667 1013.33 252.467 1028C257.267 1042.67 262.734 1058.53 264.467 1063.33C270.334 1078.4 271.934 1082.53 273.8 1086.67C274.734 1088.8 277.134 1094.8 279.134 1100C283.4 1111.33 295.8 1140.8 301.267 1152.67C312.467 1176.53 316.467 1185.2 322.867 1198C335 1222.27 349.267 1248.93 356.6 1261.07C360.467 1267.47 363.667 1273.07 363.667 1273.33C363.667 1274 372.467 1288.53 379.8 1300C382.6 1304.4 388.2 1313.07 392.2 1319.33C401 1332.93 405.534 1339.6 417.4 1356.13C422.467 1363.07 426.334 1369.47 425.934 1370.53C424.2 1374.8 389.4 1387.6 365.4 1392.53C348.6 1396 316.734 1399.33 300.334 1399.33C259.934 1399.33 214.2 1390.27 183 1376C129.667 1351.6 90.6004 1341.47 42.7337 1339.73C19.4004 1338.8 13.4004 1340.27 6.46704 1348.13C-3.66629 1359.6 -1.39963 1375.6 11.667 1384.13C16.7337 1387.47 18.3337 1387.73 39.4004 1388.8C73.5337 1390.4 100.734 1395.2 122.334 1403.47C126.334 1404.93 131.134 1406.67 133 1407.2C134.867 1407.87 143 1411.33 151.267 1415.2C175.4 1426.13 205.267 1436.27 226.334 1440.67C248.067 1445.2 259.8 1446.27 291.8 1446.93C318.734 1447.47 329.667 1447.2 343.8 1445.47C364.734 1442.93 387.534 1438.13 400.334 1433.87C402.6 1433.07 406.2 1431.87 408.334 1431.33C416.734 1428.93 434.334 1422 450.067 1414.8C459.134 1410.67 467.267 1407.33 468.334 1407.33C469.4 1407.33 472.2 1406.53 474.6 1405.47C477 1404.4 481.134 1402.67 483.667 1401.6C490.067 1398.93 509.267 1394.27 524.734 1391.87C531.8 1390.67 550.6 1389.47 566.467 1389.07C624.734 1387.6 657 1394.27 712.334 1419.47C730.734 1427.73 759.934 1437.07 780.334 1441.2C804.467 1445.87 813.934 1446.67 851.667 1446.67C889.267 1446.67 898.467 1446 922.334 1441.2C948.067 1436.13 976.2 1426.4 1012.33 1410.13C1033 1400.8 1063.93 1392.93 1090.6 1390C1107.27 1388.27 1146.73 1388.27 1163.4 1390C1185.27 1392.4 1208.87 1397.6 1223.67 1403.33C1227.67 1404.93 1232.87 1406.67 1235 1407.2C1237.27 1407.87 1245.93 1411.47 1254.33 1415.33C1268.87 1422 1286.2 1428.8 1295 1431.33C1297.27 1432 1303.27 1433.73 1308.33 1435.33C1313.53 1436.93 1320.47 1438.67 1323.93 1439.33C1327.53 1440 1330.73 1440.8 1331.27 1441.07C1331.93 1441.47 1339.53 1442.8 1348.33 1444.13C1370.47 1447.6 1436.47 1447.73 1456.33 1444.4C1477.4 1440.8 1497.8 1436.13 1504.73 1433.2C1507.13 1432.13 1509.8 1431.33 1510.73 1431.33C1512.73 1431.33 1535.4 1422.8 1544.73 1418.53C1548.47 1416.8 1555.13 1413.73 1559.27 1411.87C1563.53 1409.87 1568.47 1407.87 1570.33 1407.2C1572.2 1406.67 1577 1404.93 1581 1403.33C1588.87 1400.4 1592.73 1399.33 1609.93 1395.33C1626.07 1391.6 1640.33 1389.87 1664.6 1388.8C1685 1387.73 1686.6 1387.47 1691.67 1384.13C1704.73 1375.6 1707 1359.6 1696.87 1348.13C1689.93 1340.13 1684.07 1338.8 1659.93 1339.73C1614.47 1341.47 1582.2 1349.2 1532.33 1370.27C1506.6 1381.2 1506.2 1381.33 1485.13 1387.33C1450.73 1397.07 1405.8 1400.4 1367 1396C1345.67 1393.6 1331.4 1390.67 1307 1383.33C1293.67 1379.47 1277 1371.87 1277 1369.87C1277 1368.93 1279.4 1365.07 1282.33 1361.2C1285.27 1357.33 1287.67 1353.6 1287.67 1352.8C1287.67 1352.13 1288.2 1351.33 1288.87 1351.07C1290.73 1350.4 1328.2 1293.47 1336.07 1279.33C1337.93 1276 1342.87 1267.33 1347.27 1260C1351.53 1252.67 1357.4 1242.13 1360.33 1236.67C1363.13 1231.2 1367.53 1223.07 1369.8 1218.67C1376.2 1206.93 1389.67 1179.2 1400.6 1155.33C1402.47 1151.33 1405.13 1145.6 1406.47 1142.67C1410.73 1133.2 1417.8 1116.27 1422.87 1103.33C1425.53 1096.4 1428.6 1088.8 1429.53 1086.67C1430.47 1084.4 1432.33 1080.13 1433.53 1076.93C1434.73 1073.87 1436.47 1069.07 1437.53 1066.27C1441.93 1055.2 1451.4 1026.8 1461.53 995.334C1468.47 974 1476.07 945.467 1483.53 913.334C1485.8 903.734 1488.33 893.334 1489.13 890C1491.53 880.934 1493.8 868.534 1499 836.667C1502.33 816.934 1507.53 770.267 1509 746C1511 715.867 1510.87 658.4 1508.87 650.934C1505.8 639.067 1500.87 635.467 1475 625.6C1472.07 624.534 1465.13 621.734 1459.67 619.6C1454.2 617.334 1445.53 613.867 1440.33 612C1415.53 602.534 1406.73 599.067 1403 597.467C1398.6 595.467 1394.2 593.734 1376.33 586.934C1369.8 584.267 1355.93 578.934 1345.67 574.934C1299.8 556.934 1282.33 550.134 1273 546.667C1267.53 544.667 1262.2 542 1261.4 540.934C1260.07 539.334 1259.67 510.267 1259.67 406V273.2L1256.6 263.867C1247.93 237.6 1227.8 218.534 1200.33 210.934C1196.73 210 1157.27 209.334 1079.67 208.8L964.334 208L963.667 112.534L963 17.2003L959.4 11.7337C957.267 8.53368 953.534 5.20035 950.067 3.46701C944.2 0.667013 943.267 0.667013 851.534 0.667013C763.534 0.667013 758.734 0.800347 753.4 3.20035ZM914.867 52.1337C915.267 53.3337 915.667 88.267 915.667 129.867C915.667 186.934 915.267 205.867 914.067 207.067C911.8 209.334 791.534 209.334 789.267 207.067C788.067 205.867 787.667 186.934 787.667 129.867C787.667 88.267 788.067 53.3337 788.467 52.1337C789.134 50.267 796.067 50.0003 851.667 50.0003C907.267 50.0003 914.2 50.267 914.867 52.1337ZM1197.67 262.667C1202.47 265.6 1205.27 268.667 1207.93 273.867L1211.67 280.934V400.134C1211.67 508.134 1211.4 519.467 1209.53 520.267C1207.53 521.067 1203.8 519.734 1183 511.334C1173.93 507.6 1162.87 503.334 1137 493.334C1109.67 482.8 1099.93 479.067 1091 475.334C1085.93 473.2 1074.47 468.667 1065.67 465.334C1041.67 456.134 1041.13 455.867 1030.33 451.6C1020.47 447.6 1005.27 441.6 987 434.667C981.934 432.8 973.134 429.334 967.667 427.067C962.2 424.934 955.267 422.134 952.334 421.067C949.4 419.867 945.8 418.534 944.334 417.867C939.534 415.867 928.467 411.6 919 408C892.334 397.734 885.267 395.067 881.667 393.467C879.534 392.4 872.867 389.6 867.134 387.334C854.467 382.267 847.134 382.267 835.667 387.6C831.667 389.467 825.667 392.134 822.334 393.334C819 394.667 814.6 396.4 812.334 397.334C810.2 398.267 799.4 402.534 788.334 406.667C777.4 410.8 765.4 415.467 761.667 416.934C758.067 418.4 750.867 421.334 745.667 423.334C732.2 428.667 720.734 433.2 706.334 438.667C689.267 445.2 683.667 447.334 679 449.467C675.267 451.067 666.467 454.534 641.667 464C636.6 465.867 627.8 469.334 622.334 471.6C616.867 473.734 610.2 476.4 607.667 477.334C605.134 478.267 598.467 480.934 593 483.2C587.534 485.334 575.8 490 567 493.334C543 502.534 542.467 502.8 531.667 507.067C506.6 517.2 496.734 520.8 494.6 520.4C492.467 520 492.334 512 491.934 400.534L491.667 281.2L495.267 274C497.4 270 500.6 265.734 502.467 264.267C511.534 257.734 492.734 258.134 853.8 258.4L1191.27 258.667L1197.67 262.667ZM827.4 527.6L827.667 609.867L823.8 612.534C821.667 614.134 819.267 615.334 818.467 615.334C817.667 615.334 815.134 616.134 812.734 617.2C810.334 618.267 803.8 620.934 798.334 623.067C789.134 626.8 781.8 629.6 747 642.934C740.467 645.467 732.867 648.267 730.334 649.334C724.6 651.467 705.4 659.2 701.667 660.8C700.2 661.467 692.467 664.4 684.334 667.334C676.334 670.267 668.467 673.2 667 673.867C665.534 674.534 661.667 676 658.334 677.334C655 678.534 650.6 680.4 648.334 681.334C646.2 682.267 639.267 684.934 633 687.334C621.134 691.867 612.2 695.2 592.334 702.8C585.8 705.467 578.2 708.267 575.667 709.334C573.134 710.267 566.467 712.8 561 715.067C555.534 717.2 546.2 720.934 540.334 723.067C519.534 730.934 497.667 739.6 493.4 741.467C491.134 742.534 488.467 743.334 487.4 743.334C486.334 743.334 485 743.867 484.334 744.4C483.534 744.934 479.667 746.8 475.667 748.267C471.667 749.867 464.2 752.667 459 754.667C432.467 764.8 416.334 771.067 412.334 772.8C410.867 773.467 401.534 776.934 391.667 780.667C365 790.8 365.134 790.8 354.334 795.067C344.867 798.934 324.867 806.667 301.667 815.467C291.934 819.2 284.734 822 265.267 829.867C256.6 833.467 253.267 832.667 252.467 826.934C250.334 812.8 247.534 790.934 245.667 775.334C241.134 734.667 239.4 677.734 242.6 673.734C243.534 672.667 248.867 670 254.334 668C259.8 666 269.4 662.267 275.667 659.734C281.934 657.2 289.4 654.134 292.334 653.067C295.267 651.867 299.534 650.267 301.667 649.2C303.934 648.267 309.934 645.867 315 644C334.6 636.534 356.867 627.867 363 625.334C365.267 624.4 369.4 622.667 372.334 621.467C375.267 620.4 383.134 617.467 389.667 614.8C396.334 612.267 405.934 608.667 411 606.667C416.2 604.8 424.867 601.334 430.334 599.067C435.8 596.934 442.734 594.134 445.667 593.067C448.6 591.867 452.867 590.267 455 589.334C457.267 588.4 463.267 586.134 468.334 584.267C477.4 581.067 502.734 571.067 521.667 563.334C526.867 561.2 536.734 557.334 543.667 554.667C550.6 552 560.2 548.4 565 546.534C569.8 544.667 576.067 542.134 579 541.067C581.934 539.867 586.2 538.134 588.334 537.2C592.067 535.6 600.867 532.134 625.667 522.667C630.867 520.8 639.534 517.334 645 515.067C650.467 512.934 657.134 510.267 659.667 509.334C662.2 508.4 668.867 505.734 674.334 503.6C679.8 501.334 688.2 498 693 496.267C718.467 486.4 727.934 482.8 736.334 479.334C745.4 475.6 759.8 470 779 462.667C790.334 458.4 804.2 452.8 815 448.267C819.4 446.4 823.934 444.934 825 445.067C826.734 445.334 827 455.734 827.4 527.6ZM887.934 448.134C892.6 450 898.467 452.4 901 453.334C926.467 463.2 947.667 471.334 952.334 473.334C954.6 474.267 958.734 475.867 961.667 477.067C964.6 478.134 971.534 480.934 977 483.067C982.467 485.334 991.267 488.8 996.334 490.667C1001.53 492.667 1011.13 496.267 1017.67 498.8C1024.33 501.334 1031.4 504.267 1033.4 505.334C1035.53 506.4 1038.07 507.334 1039.27 507.334C1040.33 507.334 1042.87 508.267 1044.73 509.334C1048.2 511.067 1052.87 512.934 1088.33 526.667C1097.13 530 1105.53 533.2 1107 533.867C1108.47 534.534 1112.07 535.867 1115 537.067C1117.93 538.134 1124.87 540.934 1130.33 543.067C1135.8 545.334 1144.6 548.8 1149.67 550.667C1169.27 558.134 1183.4 563.6 1192.33 567.334C1197.53 569.467 1211.27 574.934 1223 579.467C1234.73 584 1248.6 589.334 1253.67 591.334C1263.8 595.467 1288.07 604.934 1303 610.667C1325.67 619.334 1337 623.734 1345.67 627.334C1350.87 629.467 1358.87 632.667 1363.67 634.4C1388.47 644 1398.6 647.867 1407.67 651.6C1413.13 653.734 1420.07 656.534 1423 657.6C1425.93 658.8 1429.53 660.134 1431 660.8C1432.47 661.467 1439.4 664.134 1446.33 666.667C1453.13 669.334 1459.67 672.134 1460.6 672.934C1461.93 674 1462.33 679.467 1462.33 693.867C1462.33 731.6 1458.33 779.334 1450.87 826.934C1449.8 833.734 1448.33 833.734 1432.33 827.334C1423.53 823.734 1409.13 818.134 1381.67 807.734C1366.73 802.134 1360.2 799.467 1355 797.334C1350.87 795.467 1347.27 794.134 1329.67 787.467C1306.47 778.667 1286.6 771.067 1277.67 767.334C1272.6 765.2 1263 761.467 1256.33 758.934C1217.13 744 1206.73 740 1200.33 737.334C1198.2 736.4 1193.93 734.667 1191 733.6C1170.07 725.734 1151.67 718.667 1148.33 717.334C1141.53 714.534 1110.73 702.534 1093.67 696C1075 688.934 1060.2 683.067 1054.33 680.667C1051 679.334 1039.4 674.934 1028.33 670.667C1017.4 666.534 1003.8 661.334 998.334 659.067C992.867 656.934 986.2 654.267 983.667 653.2C981.134 652.267 971.8 648.667 963 645.334C954.2 641.867 942.2 637.334 936.334 635.067C930.467 632.934 921.134 629.2 915.667 627.067C910.2 624.8 903.534 622.267 901 621.334C889.934 617.2 881.4 613.6 878.734 611.867L875.667 610V528.134C875.667 483.2 876.067 446 876.6 445.6C877.934 444.134 878.867 444.4 887.934 448.134ZM827.4 1030.8C827.667 1334.67 827.4 1395.2 825.934 1396.53C824.6 1397.6 820.067 1397.47 808.867 1396.13C781 1392.67 757.8 1386.4 736.334 1376.53C717.267 1367.87 691.134 1357.47 683 1355.33C680.867 1354.67 677.267 1353.6 675 1352.8C664.334 1349.2 641.267 1344.13 623.667 1341.73C606.867 1339.47 543 1339.33 527.667 1341.73C512.067 1344 496.2 1347.2 489.134 1349.47C476.467 1353.47 475.8 1353.07 463 1335.87C456.734 1327.2 444.734 1310 436.467 1297.47C417.134 1268.13 403.267 1244.8 383.4 1208C375.934 1194.13 350.734 1142.8 346.734 1133.47C344.867 1128.93 342.067 1122.27 340.334 1118.67C338.734 1114.93 335.134 1106.53 332.334 1100C329.667 1093.33 326.6 1086.13 325.667 1084C321.934 1075.2 313.8 1054.4 312.2 1049.33C311.267 1046.4 308.334 1038 305.667 1030.67C291.534 991.2 281.8 959.2 269.667 912C265 893.467 263.4 885.867 264.2 884C265 881.867 265.534 881.6 281.667 875.467C303.267 867.334 324.6 859.067 334.334 855.067C339.8 852.934 346.467 850.267 349 849.334C351.534 848.267 357.534 846 362.334 844.134C367.134 842.4 375.267 839.334 380.334 837.467C385.534 835.467 390.867 833.467 392.334 832.8C393.8 832.134 397.4 830.8 400.334 829.6C403.267 828.534 408.734 826.4 412.334 824.934C416.067 823.467 428.067 818.934 439 814.667C450.067 810.534 463.534 805.334 469 803.067C474.467 800.934 481.134 798.267 483.667 797.2C491.534 794.267 519.667 783.467 533 778.4C539.934 775.734 546.2 773.067 546.867 772.4C547.667 771.867 549.267 771.334 550.467 771.334C551.8 771.334 554.467 770.534 556.6 769.467C558.6 768.4 563 766.534 566.334 765.334C569.667 764 573.534 762.534 575 761.867C576.467 761.2 581.934 759.2 587 757.2C600.067 752.4 612.067 747.867 623.667 743.067C629.134 740.934 635.8 738.267 638.334 737.2C649.267 733.067 675.8 722.934 685.667 719.2C691.534 716.934 700.867 713.334 706.334 711.067C711.8 708.934 718.467 706.267 721 705.334C723.534 704.4 728.734 702.4 732.6 700.8C736.334 699.334 743.8 696.4 749.267 694.534C754.6 692.667 760.867 690.267 763 689.334C765.267 688.4 769.667 686.667 773 685.334C776.334 684.134 780.867 682.267 783 681.334C785.267 680.4 789.4 678.667 792.334 677.6C795.267 676.4 803.134 673.334 809.667 670.8C816.334 668.134 822.867 666.267 824.334 666.4C827 666.667 827 667.734 827.4 1030.8ZM900.6 673.334C909.267 676.667 918.467 680.267 921 681.2C923.534 682.267 930.2 684.934 935.667 687.067C941.134 689.334 950.467 692.934 956.334 695.2C972.467 701.334 996.867 710.8 1017 718.667C1026.87 722.667 1039.27 727.334 1044.33 729.2C1049.53 731.2 1054.87 733.2 1056.33 733.867C1057.8 734.534 1061.4 735.867 1064.33 737.067C1074.73 740.934 1081.67 743.734 1085.67 745.467C1087.93 746.4 1099.53 750.8 1111.67 755.334C1123.8 759.867 1135.53 764.267 1137.67 765.2C1142.47 767.334 1148.07 769.6 1166.33 776.534C1196.07 787.867 1234.73 802.934 1239 804.8C1240.47 805.467 1245.93 807.467 1251 809.467C1264.07 814.267 1276.07 818.8 1287.67 823.6C1293.13 825.734 1299.8 828.4 1302.33 829.334C1304.87 830.4 1312.47 833.2 1319 835.867C1325.67 838.4 1335.27 842 1340.33 844C1345.53 845.867 1351.8 848.267 1354.33 849.334C1356.87 850.267 1363.53 852.934 1369 855.067C1378.73 859.067 1400.07 867.334 1421.67 875.467C1437.8 881.6 1438.33 881.867 1439.13 884C1439.93 886 1437.8 896.667 1433.67 912C1432.73 915.6 1430.87 922.534 1429.67 927.334C1418.2 972 1390.33 1056.27 1377.8 1084C1376.73 1086.13 1371 1099.73 1365 1114C1358.87 1128.27 1346.87 1154.4 1338.07 1172C1323 1202.53 1319.4 1209.33 1310.07 1226C1307.8 1230 1304.47 1236 1302.6 1239.33C1286.87 1267.47 1259.53 1309.73 1240.33 1335.87C1227.53 1353.07 1226.87 1353.47 1214.2 1349.47C1207.13 1347.2 1191.27 1344 1175.67 1341.73C1160.2 1339.33 1093.53 1339.47 1078.33 1341.73C1045.13 1346.8 1021.27 1353.6 987.667 1367.73C977 1372.13 967.667 1376.27 967 1376.8C963.8 1379.2 937.934 1387.47 921 1391.47C903.934 1395.47 879.667 1398.27 877.4 1396.53C875.934 1395.2 875.667 1334.27 875.667 1031.33C875.667 831.467 876.067 667.334 876.6 666.8C878.2 665.2 883.534 666.667 900.6 673.334Z" fill="black"/>
<path d="M19.4013 1547.2C1.80132 1550.93 -5.66535 1572.27 5.80132 1586C12.2013 1593.6 15.5347 1594.53 40.3347 1595.47C61.268 1596.4 81.9347 1598.93 95.0013 1602.13C115.401 1607.33 128.068 1611.6 148.068 1620.53C167.535 1629.07 190.735 1637.87 203.001 1641.33C207.401 1642.53 212.868 1644.13 215.001 1644.67C235.268 1650.53 267.001 1654 300.335 1654C358.335 1653.87 392.335 1646.53 450.735 1621.2C479.535 1608.67 497.801 1602.93 522.335 1598.67C542.068 1595.2 597.801 1594.4 618.735 1597.33C648.735 1601.47 669.135 1607.2 695.001 1618.67C703.268 1622.4 724.068 1630.93 730.335 1633.33C732.868 1634.27 737.401 1635.87 740.335 1637.07C758.201 1643.6 783.801 1649.33 807.668 1652C852.468 1657.2 916.201 1652.4 947.001 1641.73C949.268 1641.07 953.135 1639.87 955.668 1639.33C958.201 1638.8 963.668 1636.93 967.668 1635.33C971.668 1633.73 976.468 1632 978.335 1631.47C980.201 1630.8 989.535 1626.93 999.001 1622.67C1035.67 1606.53 1051.8 1601.73 1083.4 1597.33C1103.53 1594.67 1150.47 1594.67 1170.6 1597.33C1200.33 1601.47 1221.53 1607.6 1250.87 1620.53C1269.53 1628.8 1292.73 1637.6 1305.67 1641.33C1310.07 1642.53 1315.53 1644.13 1317.67 1644.67C1337.93 1650.53 1369.67 1654 1403 1654C1462.47 1654 1496.73 1646.4 1557.67 1619.6C1594.33 1603.47 1622.33 1597.07 1663 1595.6C1688.87 1594.53 1691.93 1593.47 1699 1583.6C1706.6 1572.67 1703.67 1558.93 1691.8 1550.67L1686.07 1546.67L1662.6 1546.93C1634.73 1547.2 1616.73 1549.73 1587 1557.6C1572.87 1561.33 1548.47 1569.87 1536.33 1575.33C1505.8 1589.07 1487.27 1594.93 1454.6 1600.93C1441.13 1603.47 1434.2 1603.87 1403 1603.87C1365.67 1603.87 1358.73 1603.2 1330.33 1596.67C1319.67 1594.27 1300.73 1588.4 1290.33 1584.27C1285.67 1582.53 1284.33 1581.87 1269.67 1575.33C1257.4 1569.73 1233 1561.2 1219 1557.6C1183.67 1548.27 1171 1546.8 1127.67 1546.8C1097.93 1546.8 1086.47 1547.33 1075 1549.2C1044.07 1554.13 1011.4 1563.33 988.735 1573.87C956.601 1588.53 939.268 1594.4 911.001 1600.4C894.335 1603.87 892.201 1604 851.668 1603.87C816.735 1603.87 807.668 1603.47 797.668 1601.47C780.468 1598.13 765.801 1594.4 754.335 1590.4C744.735 1587.2 741.268 1585.87 729.668 1580.53C706.201 1569.87 665.535 1555.33 659.135 1555.33C657.801 1555.33 653.535 1554.53 649.801 1553.47C632.068 1548.4 613.001 1546.67 575.668 1546.67C538.335 1546.67 519.268 1548.4 501.535 1553.47C497.801 1554.53 493.535 1555.33 491.935 1555.33C490.335 1555.33 487.801 1555.87 486.068 1556.53C484.335 1557.2 477.935 1559.33 471.668 1561.33C465.401 1563.2 456.201 1566.27 451.001 1568.27C442.468 1571.47 437.801 1573.47 417.401 1582.8C402.201 1589.87 377.935 1596.93 353.668 1601.47C342.335 1603.6 334.068 1604 299.001 1604C261.801 1603.87 256.201 1603.6 243.668 1601.07C218.068 1595.73 198.468 1589.73 183.135 1582.8C179.401 1581.07 172.468 1577.87 167.668 1575.73C159.801 1572.13 143.801 1566 129.668 1561.47C115.935 1556.93 95.268 1552.13 77.668 1549.47C62.2013 1547.07 26.6013 1545.73 19.4013 1547.2Z" fill="black"/>
</svg>
