<svg width="1609" height="1689" viewBox="0 0 1609 1689" fill="none" xmlns="http://www.w3.org/2000/svg">
<path d="M793.334 3.26661C785.867 7.13327 782.267 10.7333 779.2 17.5333C776.8 23.1333 776.667 26.8666 776.667 103.533V183.667L780.4 190.333C782.4 193.933 786.4 198.6 789.334 200.6C794 203.8 795.867 204.2 804.667 204.2C813.467 204.2 815.334 203.8 820 200.6C822.934 198.6 826.934 193.933 828.934 190.333L832.667 183.667V103.533C832.667 26.8666 832.534 23.1333 830.134 17.5333C823.734 2.99994 806.534 -3.66673 793.334 3.26661Z" fill="black"/>
<path d="M242.667 231.4C228.667 239.267 223.6 257.133 231.467 270.2C234.8 275.667 341.6 382.467 347.2 385.933C350.667 388.067 354 388.867 360.133 388.867C371.733 388.867 379.867 383.933 385.067 373.8C389.2 365.4 389.6 360.733 386.533 351.8C384.667 346.333 377.333 338.467 328.267 289.533C296.4 257.533 270.133 232.467 267.2 230.867C260.133 227.267 249.6 227.533 242.667 231.4Z" fill="black"/>
<path d="M1341.87 231C1339.07 232.467 1311.73 258.867 1280.93 289.667C1232.4 338.2 1224.67 346.6 1222.8 351.933C1221.6 355.4 1220.67 360.067 1220.67 362.333C1220.67 369.267 1226.93 379.933 1233.6 384.6C1238.93 388.2 1240.93 388.733 1248.67 388.867C1256.27 388.867 1258.53 388.333 1262.8 385.4C1268.27 381.933 1370.53 280.2 1376.27 272.733C1386.27 259.8 1381.6 239.8 1366.67 231.4C1359.87 227.533 1348.67 227.4 1341.87 231Z" fill="black"/>
<path d="M779.333 301.267C776.8 301.4 766.933 302.333 757.333 303.133C737.467 304.733 713.733 308.333 695.333 312.467C688.4 313.933 680.267 315.8 677.2 316.333C674.267 317 670.4 318.067 668.533 318.733C666.8 319.533 661.733 321.133 657.333 322.467C652.933 323.667 641.2 327.8 631.333 331.4C621.467 335 610.933 338.867 608 339.933C600 342.867 557.333 364.333 546.667 371C494.133 403.133 447.2 444.067 408.933 491.4C397.2 505.933 376.933 535.267 370.4 547C369.067 549.533 366.4 554.067 364.533 557C359.467 565 346.133 592.2 338.133 610.867C326.267 638.6 312.533 684.2 308.8 707.667C308.267 711.267 307.067 717.933 306.267 722.333C298.667 761.133 297.333 832.467 303.467 871C309.867 911.4 314.267 929.8 326.267 967C355.333 1056.87 419.733 1147.53 495.333 1204.47C523.733 1225.93 534.667 1236.07 547.333 1253C554.267 1262.33 566.667 1285.93 568.8 1293.93C569.333 1296.33 571.467 1304.07 573.467 1311L577.067 1323.67L577.467 1425C578 1539.4 578.667 1549.4 587.467 1575C594.267 1595 610.267 1620.33 626.4 1636.73C636 1646.47 652.533 1660.33 654.533 1660.33C654.933 1660.33 657.733 1662.07 660.933 1664.07C670.8 1670.47 690.133 1678.47 704 1682.07C726.933 1688.07 731.6 1688.33 805.333 1688.33C847.733 1688.33 878.267 1687.67 881.867 1686.87C884.933 1686.2 890.933 1685 895.2 1684.33C925.067 1679.53 957.733 1662.07 981.6 1638.07C1006.13 1613.27 1022.4 1582.6 1028.93 1548.33C1029.73 1543.93 1030.67 1499.4 1031.2 1435C1032.27 1321.13 1031.87 1326.2 1039.33 1302.33C1050.27 1267.13 1071.2 1238.07 1104.27 1212.2C1137.87 1185.8 1157.07 1168.47 1178.4 1145C1201.6 1119.4 1228 1083.4 1243.73 1055.67C1249.07 1046.2 1266.27 1010.73 1271.33 999C1279.6 979.533 1288.53 951.933 1294.13 928.333C1295.6 922.067 1297.73 913.667 1298.67 909.667C1300.8 901 1303.87 881.933 1306.67 859.4C1309.47 837.4 1309.47 776.733 1306.67 753.667C1304.27 733.4 1301.07 715.267 1298.53 706.2C1297.47 702.467 1296.67 698.333 1296.67 697C1296.67 695.667 1295.73 691.533 1294.67 687.8C1293.6 684.067 1290.53 673.8 1288 665C1269.47 602.067 1236.4 540.867 1190.93 485.667C1178.53 470.733 1147.33 439 1130.67 424.467C1114.13 410.067 1079.87 384.2 1072 380.333C1071.33 379.933 1067.33 377.533 1063.33 374.867C1047.87 364.733 1008 344.333 989.333 337C975.867 331.667 947.467 321.667 942 320.333C939.467 319.667 934 318.2 930 317C890.267 305.4 816.533 297.667 779.333 301.267ZM851.333 359.667C910.133 365.8 972 385.933 1019.87 414.2C1025.6 417.533 1030.4 420.333 1030.67 420.333C1030.93 420.333 1036.8 424.067 1043.6 428.6C1158.53 504.6 1231.33 619.533 1250.27 755C1253.07 775 1252.67 841.933 1249.6 863.667C1248.27 873.133 1246.67 883.4 1246 886.333C1240.13 915 1240.53 913 1234.53 933C1221.6 976.6 1207.07 1008.33 1181.6 1048.87C1175.73 1058.2 1162.8 1076.2 1154.13 1087C1140.93 1103.67 1103.47 1140.87 1086.67 1154.2C1054.93 1179.4 1048.93 1184.6 1041.2 1192.6C1006.53 1228.87 988.533 1264.47 978.267 1316.33L975.867 1329H804.533H633.333L632.4 1322.33C623.333 1257.4 594 1208.07 540.667 1168.33C500.267 1138.07 465.867 1103.27 438.933 1065.27C433.2 1057.4 428.667 1050.73 428.667 1050.33C428.667 1050.07 426.4 1046.33 423.6 1042.07C406.667 1016.47 388.133 976.467 377.467 942.333C369.867 918.067 368.8 913.8 363.467 889C355.6 852.067 353.6 785.933 359.333 746.733C369.467 677.133 391.067 618.467 427.2 562.333C441.867 539.533 465.467 510.2 485.333 490.333C583.067 392.2 714.8 345.133 851.333 359.667ZM973.733 1387.27C976.267 1389.8 976 1521 973.467 1536.33C969.467 1560.6 959.067 1580.73 941.467 1598.47C923.6 1616.2 908.133 1624.33 881.6 1629.67C869.6 1632.07 862.933 1632.33 804.667 1632.33C746.4 1632.33 739.733 1632.07 727.733 1629.67C707.6 1625.67 696.133 1620.87 682 1610.6C671.2 1602.73 665.2 1596.87 656.667 1585.4C644.667 1569.4 639.6 1557.27 636 1536.33C633.467 1521.27 633.067 1389.8 635.6 1387.27C637.867 1385 971.467 1385 973.733 1387.27Z" fill="black"/>
<path d="M16.1337 780.333C5.20033 785.8 0.666992 793.267 0.666992 805.667C0.666992 818.867 6.13366 827 18.4003 831.667C23.3337 833.533 33.3337 833.667 104.8 833.4L185.467 833L191.067 829.267C206.667 819 208.934 797.933 195.734 785.4C187.467 777.533 189.467 777.667 101.734 777.667C24.667 777.8 21.067 777.933 16.1337 780.333Z" fill="black"/>
<path d="M1421.33 780.2C1400.93 789.4 1399.33 816.733 1418.27 829.267L1423.87 833L1505.07 833.4L1586.27 833.8L1593.47 830.467C1603.6 825.8 1608.67 817.8 1608.67 806.067C1608.67 792.867 1603.2 784.467 1591.47 779.533C1587.87 777.933 1572.8 777.667 1506.8 777.667C1432.13 777.667 1426.27 777.933 1421.33 780.2Z" fill="black"/>
<path d="M350.4 1223.93C345.734 1225.53 334.4 1236.2 289.867 1280.73C259.734 1310.87 233.467 1337.8 231.6 1340.73C228.667 1345 228.134 1347.53 228.134 1354.87C228.134 1365 231.2 1371.4 238.4 1376.87C246.934 1383.13 254.934 1384.33 264.934 1380.87C270.267 1379.13 278.934 1371 326.8 1323.27C385.2 1264.87 388.667 1260.87 388.667 1249.67C388.667 1243 383.2 1232.2 377.867 1228.2C369.067 1221.53 360.667 1220.2 350.4 1223.93Z" fill="black"/>
<path d="M1239.87 1223.4C1229.2 1227.53 1220.67 1239.13 1220.67 1249.67C1220.67 1260.47 1224.13 1264.6 1282.53 1323C1330.27 1370.73 1339.2 1379.13 1344.4 1381C1354.4 1384.33 1362.4 1383.13 1370.93 1376.87C1378.13 1371.4 1381.2 1365 1381.2 1354.87C1381.2 1347.53 1380.67 1345 1377.73 1340.73C1375.87 1337.8 1349.6 1310.73 1319.47 1280.6C1272 1233.27 1263.73 1225.67 1258.4 1223.8C1251.2 1221.27 1245.6 1221.27 1239.87 1223.4Z" fill="black"/>
</svg>
