<svg width="1794" height="1745" viewBox="0 0 1794 1745" fill="none" xmlns="http://www.w3.org/2000/svg">
<path d="M892 1.79984C891.467 2.46651 889.733 3.79984 888.267 4.46651C886.667 5.13318 883.6 6.86651 881.333 8.33318C879.2 9.79984 876 11.5332 874.4 12.1998C872.8 12.9998 869.2 14.9998 866.4 16.7332C861.6 19.7998 856.8 22.4665 838.667 32.3332C834.267 34.7332 829.733 37.3998 828.667 38.1998C827.6 38.9998 824.933 40.5998 822.667 41.7998C813.6 46.7332 802.667 52.8665 796.4 56.4665C792.8 58.5998 789.6 60.3332 789.2 60.3332C788.933 60.3332 786.133 61.9332 782.933 63.9332C779.867 65.9332 776.133 68.3332 774.533 69.1332C760 76.9998 753.067 80.8665 752 81.6665C751.333 82.1998 746.533 84.8665 741.333 87.6665C736.267 90.3332 731.067 93.5332 729.867 94.4665C728.8 95.5332 727.333 96.3332 726.933 96.3332C726.4 96.3332 723.733 97.7998 720.933 99.3998C718.267 101.133 711.467 105 706 107.933C700.533 110.867 693.867 114.6 691.333 116.067C688.8 117.667 685.2 119.667 683.333 120.733C676 124.733 641.2 144.467 639.333 145.667C638.267 146.467 636.133 147.533 634.667 148.2C633.2 148.867 629.867 150.867 627.333 152.467C624.8 154.2 620 157 616.667 158.733C613.333 160.333 609.733 162.333 608.667 163C603.733 166.2 585.867 176.333 585.2 176.333C584.933 176.333 578.667 179.933 571.333 184.333C564 188.733 557.733 192.333 557.2 192.333C556.667 192.333 551.867 195 546.4 198.333C541.067 201.667 536.267 204.333 536 204.333C535.6 204.333 529.333 207.933 521.867 212.333C514.533 216.733 508.133 220.333 507.867 220.333C507.6 220.333 502.8 223 497.2 226.333C491.733 229.667 486.933 232.333 486.533 232.333C486.267 232.333 479.6 236.067 471.733 240.733C454.8 250.6 448.667 254.2 436 261C430.933 263.8 423.067 268.333 418.667 271C414.267 273.667 409.733 276.2 408.667 276.733C407.6 277.267 404.267 279.133 401.333 280.733C398.4 282.467 390.267 287 383.333 290.867C376.4 294.867 369.067 299.133 367.2 300.467C365.2 301.8 362.267 303.533 360.533 304.333C358.8 305 356.4 306.2 355.333 306.867C348 311.4 332.4 320.333 331.867 320.333C331.333 320.333 325.2 323.8 318.133 328.067C311.067 332.333 302.667 337.133 299.333 338.867C296 340.467 291.6 343 289.333 344.467C287.2 345.8 284.4 347.4 283.333 347.933C280.667 349.267 259.733 361.133 254.533 364.2C252.267 365.667 247.733 368.2 244.533 369.933C238.667 373.133 211.067 388.733 207.333 391C200.933 395 184.4 404.333 183.867 404.333C183.467 404.333 177.467 407.8 170.267 412.067C163.2 416.333 156.4 420.333 155.333 420.733C154.267 421.267 150.933 423.133 148 424.733C141.6 428.467 130.933 434.333 120 440.333C115.6 442.733 109.6 446.333 106.667 448.2C103.733 450.2 98.6668 453.133 95.3334 454.733C92.0001 456.467 88.4001 458.333 87.3334 459C81.7334 462.467 64.4001 472.333 63.8668 472.333C63.6001 472.333 60.8001 473.933 57.6001 475.933C54.5334 477.933 50.8001 480.2 49.3334 481C47.8668 481.8 41.8668 485.133 36.0001 488.333C30.1334 491.4 24.8001 494.467 24.0001 495C23.3334 495.533 18.5334 498.2 13.3334 501C1.06676 507.667 -1.06657 509.533 0.933429 511.933C1.73343 512.867 6.4001 515.933 11.2001 518.733C16.0001 521.4 21.0668 524.2 22.2668 525C23.4668 525.667 27.0668 527.8 30.2668 529.533C44.9334 537.533 51.3334 541.133 59.2001 545.933C63.8668 548.867 69.0668 551.8 70.5334 552.467C72.1334 553.133 75.2001 554.867 77.3334 556.2C79.6001 557.667 84.0001 560.2 87.3334 561.8C90.6668 563.533 95.8668 566.6 98.8001 568.6C101.867 570.6 104.8 572.333 105.2 572.333C105.6 572.333 110 574.733 114.933 577.8C119.733 580.733 128 585.533 133.2 588.2C138.4 590.867 145.067 594.6 148 596.467C157.467 602.333 158.667 603 161.333 604.333C162.8 605.133 165.867 606.867 168 608.2C170.267 609.667 174.667 612.2 178 613.8C181.333 615.4 189.467 620.067 196 624.067C202.667 628.067 209.2 631.8 210.667 632.467C212.133 633.133 215.2 634.867 217.333 636.2C219.6 637.667 223.733 640.067 226.667 641.667C239.733 648.867 247.2 653.133 255.2 657.933C259.867 660.867 265.067 663.8 266.533 664.467C268.133 665.133 271.2 666.867 273.333 668.2C275.6 669.667 280 672.2 283.333 673.8C286.667 675.4 290.267 677.533 291.333 678.333C292.4 679.267 296.933 681.933 301.333 684.333C305.733 686.733 309.867 689 310.4 689.267C311.6 689.933 306.267 696.333 304.4 696.333C303.867 696.333 297.467 699.8 290.4 704.067C283.2 708.333 276.4 712.2 275.333 712.733C274.267 713.267 270.4 715.533 266.667 717.667C263.067 719.933 258.267 722.6 256 723.667C253.867 724.867 251.067 726.2 250 727C244.133 730.6 226.8 740.6 218.667 745C213.6 747.8 207.6 751.267 205.333 752.6C203.2 753.933 200.4 755.4 199.333 755.933C196.933 757 178.267 767.8 175.333 769.667C174.267 770.467 172.4 771.4 171.333 771.933C170.267 772.467 164.933 775.4 159.6 778.6C154.133 781.8 149.467 784.333 149.067 784.333C148.667 784.333 142.533 787.933 135.2 792.333C128 796.733 121.733 800.333 121.2 800.333C120.667 800.333 115.867 803 110.4 806.333C105.067 809.667 100.267 812.333 100 812.333C99.7334 812.333 94.8001 815.133 89.0668 818.467C79.0668 824.333 72.2668 828.2 59.6001 835.133C56.4001 836.867 52.8001 839 51.6001 839.667C50.4001 840.467 44.5334 843.667 38.6668 846.867C32.8001 850.067 27.0668 853.4 26.0001 854.333C24.9334 855.267 19.2001 858.467 13.3334 861.533C-1.06657 869.133 -1.9999 870.2 2.13343 873.533C3.86676 875 5.73343 876.2 6.26676 876.333C6.8001 876.333 13.3334 879.933 20.8001 884.333C28.1334 888.733 34.4001 892.333 34.6668 892.333C34.9334 892.333 41.2001 895.933 48.6668 900.333C56.1334 904.733 62.5334 908.333 62.8001 908.333C63.3334 908.333 84.6668 920.733 92.6668 925.667C93.7334 926.333 97.3334 928.333 100.667 930.067C104 931.933 108.8 934.6 111.333 936.2C113.867 937.667 116.933 939.4 118 939.933C119.067 940.467 127.467 945.267 136.533 950.6C145.467 955.933 153.2 960.333 153.467 960.333C153.733 960.333 156.8 962.067 160.4 964.2C167.733 968.467 177.6 974.067 185.333 978.2C188.267 979.8 193.2 982.733 196.267 984.733C199.467 986.733 202.267 988.333 202.533 988.333C202.8 988.333 212.533 993.8 224.267 1000.6C253.867 1017.8 255.733 1018.87 258 1019.93C259.067 1020.33 262.133 1022.07 264.667 1023.67C267.2 1025.27 273.6 1028.87 278.667 1031.67C283.867 1034.33 288.933 1037.53 290.133 1038.47C291.2 1039.53 292.533 1040.33 293.067 1040.33C293.467 1040.33 297.467 1042.47 302 1045.13C313.333 1051.8 313.067 1052.33 294.667 1062.07C291.733 1063.67 284.933 1067.53 279.733 1070.6C274.4 1073.8 269.733 1076.33 269.467 1076.33C269.2 1076.33 262.8 1079.93 255.467 1084.33C248 1088.73 241.6 1092.33 241.333 1092.33C240.933 1092.33 238.4 1093.67 235.6 1095.4C232.933 1097.13 226.533 1100.87 221.333 1103.67C216.267 1106.33 211.067 1109.53 209.867 1110.47C208.8 1111.53 207.467 1112.33 206.933 1112.33C206.4 1112.33 198.267 1116.87 188.667 1122.33C179.067 1127.8 170.933 1132.33 170.667 1132.33C170.267 1132.33 165.6 1135 160.267 1138.2C151.333 1143.53 138.667 1150.73 122.667 1159.67C119.067 1161.67 112.133 1165.53 107.333 1168.33C102.533 1171.27 95.0668 1175.53 90.6668 1177.93C75.4668 1186.33 68.4001 1190.33 56.2668 1197.53C49.4668 1201.53 40.4001 1206.6 36.0001 1208.87C31.6001 1211.13 25.4668 1214.73 22.4001 1216.73C19.2001 1218.73 16.4001 1220.33 15.8668 1220.33C15.3334 1220.33 11.4668 1222.47 7.2001 1225.13C-1.9999 1230.73 -1.86657 1232.47 8.26676 1237.53C11.7334 1239.4 17.0668 1242.33 20.0001 1244.33C22.9334 1246.2 29.2001 1249.8 34.0001 1252.2C38.8001 1254.73 46.5334 1259.13 51.2001 1262.07C55.8668 1264.87 61.0668 1267.8 62.5334 1268.47C64.1334 1269.13 67.2001 1270.87 69.3334 1272.33C71.6001 1273.8 74.2668 1275.4 75.3334 1275.93C76.4001 1276.47 85.2001 1281.4 94.6668 1286.87C104.267 1292.33 113.867 1297.8 116 1299C118.267 1300.2 122.533 1302.73 125.6 1304.73C128.8 1306.73 131.6 1308.33 132 1308.33C132.267 1308.33 137.2 1311 142.8 1314.33C148.267 1317.67 153.2 1320.33 153.467 1320.33C153.867 1320.33 160 1323.93 167.333 1328.33C174.667 1332.73 180.933 1336.33 181.2 1336.33C181.6 1336.33 188 1339.93 195.333 1344.33C202.667 1348.73 209.067 1352.33 209.333 1352.33C209.6 1352.33 216 1355.93 223.333 1360.33C230.667 1364.73 236.933 1368.33 237.2 1368.33C237.733 1368.33 256.933 1379.27 260.667 1381.67C261.733 1382.47 263.867 1383.67 265.333 1384.33C266.8 1385.13 271.067 1387.53 274.667 1389.8C278.4 1391.93 283.2 1394.73 285.333 1395.8C287.6 1396.87 291.2 1398.87 293.333 1400.33C295.6 1401.8 299.2 1403.8 301.333 1404.87C306.533 1407.53 314.667 1412.2 321.6 1416.73C324.8 1418.73 327.6 1420.33 328 1420.33C328.533 1420.33 338.267 1425.93 351.333 1433.67C352.4 1434.33 356 1436.2 359.333 1437.93C362.667 1439.53 367.733 1442.47 370.667 1444.47C373.6 1446.33 378.667 1449.4 382 1451.27C385.333 1453.13 391.6 1456.6 396 1459.13C400.4 1461.67 406.8 1465.13 410.267 1467C413.733 1468.87 420.667 1472.87 425.6 1475.8C430.533 1478.87 437.733 1483 441.333 1485C445.067 1487 450.667 1490.2 454 1492.07C457.333 1493.8 466.267 1499 474 1503.53C481.733 1508.07 488.933 1512.2 490 1512.73C491.067 1513.27 493.867 1514.73 496 1516.07C498.267 1517.4 503.333 1520.33 507.333 1522.6C511.333 1524.73 519.467 1529.4 525.333 1533C531.2 1536.47 537.2 1539.8 538.667 1540.47C540.133 1541.13 543.2 1542.87 545.333 1544.2C547.6 1545.67 552 1548.2 555.333 1549.8C558.667 1551.53 563.467 1554.33 566 1556.07C568.533 1557.8 571.867 1559.8 573.333 1560.47C574.8 1561.13 576.933 1562.2 578 1563C581.733 1565.53 600.8 1576.33 601.333 1576.33C601.733 1576.33 607.867 1579.8 614.933 1584.07C622.133 1588.33 628.933 1592.2 630 1592.73C631.067 1593.27 633.867 1594.87 636 1596.2C638.267 1597.67 642.667 1600.2 646 1601.8C649.333 1603.53 657.333 1608.07 664 1612.07C670.533 1616.07 677.067 1619.8 678.667 1620.47C680.133 1621.13 683.2 1622.87 685.333 1624.2C687.6 1625.67 691.733 1628.07 694.667 1629.67C707.733 1636.87 715.2 1641.13 723.2 1645.93C727.867 1648.87 733.067 1651.8 734.533 1652.47C736.133 1653.13 739.2 1654.87 741.333 1656.33C743.6 1657.8 746.533 1659.53 748.133 1660.2C749.6 1660.87 754.933 1663.93 759.867 1666.87C764.667 1669.93 768.933 1672.33 769.333 1672.33C769.733 1672.33 773.733 1674.6 778.267 1677.4C782.933 1680.2 791.467 1685.13 797.333 1688.33C803.2 1691.53 809.6 1695.13 811.467 1696.47C813.467 1697.8 816.4 1699.53 818.133 1700.33C819.867 1701.13 822.533 1702.47 824 1703.4C825.467 1704.33 831.867 1707.93 838 1711.53C844.267 1715.13 854.8 1721.13 861.333 1725C868 1728.73 874.267 1732.33 875.333 1732.87C876.4 1733.27 879.2 1734.87 881.333 1736.33C883.6 1737.8 886.667 1739.53 888.267 1740.2C889.733 1740.87 891.467 1742.2 892 1742.87C893.067 1744.73 900.267 1744.73 901.333 1742.87C901.867 1742.2 903.6 1740.87 905.067 1740.2C906.667 1739.53 909.867 1737.8 912 1736.33C914.267 1734.87 916.933 1733.27 918 1732.87C919.067 1732.33 925.467 1728.73 932 1725C938.667 1721.13 949.067 1715.13 955.333 1711.53C961.467 1707.93 967.867 1704.33 969.333 1703.4C970.8 1702.47 973.467 1701.13 975.2 1700.33C976.933 1699.53 979.867 1697.8 981.867 1696.47C983.733 1695.13 990.133 1691.53 996 1688.33C1001.87 1685.13 1010.4 1680.2 1015.07 1677.4C1019.6 1674.6 1023.6 1672.33 1024 1672.33C1024.4 1672.33 1028.67 1669.93 1033.47 1666.87C1038.4 1663.93 1043.73 1660.87 1045.2 1660.2C1046.8 1659.53 1049.87 1657.8 1052 1656.33C1054.27 1654.87 1057.2 1653.13 1058.8 1652.47C1060.27 1651.8 1065.47 1648.87 1070.13 1645.93C1078.13 1641.13 1085.6 1636.87 1098.67 1629.67C1101.6 1628.07 1105.87 1625.67 1108 1624.2C1110.27 1622.87 1113.2 1621.13 1114.67 1620.47C1116.27 1619.8 1122.8 1616.07 1129.33 1612.07C1136 1608.07 1144 1603.53 1147.33 1601.8C1150.67 1600.2 1155.2 1597.67 1157.33 1596.2C1159.6 1594.87 1162.27 1593.27 1163.33 1592.73C1164.4 1592.2 1171.2 1588.33 1178.4 1584.07C1185.47 1579.8 1191.6 1576.33 1192 1576.33C1192.53 1576.33 1211.6 1565.53 1215.33 1563C1216.4 1562.2 1218.53 1561.13 1220 1560.47C1221.47 1559.8 1224.8 1557.8 1227.33 1556.07C1229.87 1554.33 1234.67 1551.53 1238 1549.8C1241.33 1548.2 1245.87 1545.67 1248 1544.2C1250.27 1542.87 1253.2 1541.13 1254.67 1540.47C1256.13 1539.8 1262.13 1536.47 1268 1533C1273.87 1529.4 1282 1524.73 1286 1522.6C1290 1520.33 1295.2 1517.4 1297.33 1516.07C1299.6 1514.73 1302.27 1513.27 1303.33 1512.73C1304.4 1512.2 1311.6 1508.07 1319.33 1503.53C1327.07 1499 1336.13 1493.8 1339.73 1491.8C1343.2 1489.93 1348.8 1486.73 1352.4 1484.87C1355.87 1483 1362.8 1478.87 1367.73 1475.8C1372.67 1472.87 1379.6 1468.87 1383.07 1467C1386.53 1465.13 1392.93 1461.67 1397.33 1459.13C1401.73 1456.6 1408 1453.13 1411.33 1451.27C1414.67 1449.4 1419.73 1446.33 1422.67 1444.47C1425.6 1442.47 1430.67 1439.53 1434 1437.93C1437.33 1436.2 1440.93 1434.33 1442 1433.67C1455.07 1425.93 1464.8 1420.33 1465.33 1420.33C1465.73 1420.33 1468.53 1418.73 1471.73 1416.73C1478.67 1412.2 1486.8 1407.53 1492 1404.87C1494.27 1403.8 1497.87 1401.8 1500 1400.33C1502.27 1398.87 1505.87 1396.87 1508 1395.8C1510.27 1394.73 1515.07 1391.93 1518.67 1389.8C1522.4 1387.53 1526.53 1385.13 1528 1384.33C1529.47 1383.67 1531.6 1382.47 1532.67 1381.67C1536.4 1379.27 1555.6 1368.33 1556.13 1368.33C1556.4 1368.33 1562.67 1364.73 1570 1360.33C1577.33 1355.93 1583.73 1352.33 1584 1352.33C1584.27 1352.33 1590.67 1348.73 1598 1344.33C1605.33 1339.93 1611.73 1336.33 1612.13 1336.33C1612.4 1336.33 1618.67 1332.73 1626 1328.33C1633.33 1323.93 1639.6 1320.33 1640 1320.33C1640.4 1320.33 1642.93 1319 1645.73 1317.27C1648.4 1315.53 1654.93 1311.8 1660 1309C1665.2 1306.33 1670.27 1303.13 1671.47 1302.2C1672.53 1301.13 1674 1300.33 1674.53 1300.33C1675.2 1300.33 1680.53 1297.4 1686.53 1293.8C1697.2 1287.27 1702.27 1284.47 1713.87 1278.07C1717.2 1276.33 1721.87 1273.67 1724 1272.2C1726.27 1270.87 1729.2 1269.13 1730.8 1268.47C1732.27 1267.8 1737.47 1264.87 1742.13 1262.07C1746.8 1259.13 1754.53 1254.73 1759.33 1252.2C1764.13 1249.8 1770.4 1246.2 1773.33 1244.33C1776.27 1242.33 1781.6 1239.4 1785.07 1237.53C1795.2 1232.47 1795.33 1230.73 1786.13 1225.13C1781.87 1222.47 1778 1220.33 1777.47 1220.33C1776.93 1220.33 1774.13 1218.73 1770.93 1216.73C1767.87 1214.73 1761.73 1211.13 1757.33 1208.87C1752.93 1206.6 1743.73 1201.53 1737.07 1197.53C1714.13 1184.2 1704.27 1178.6 1697.47 1175C1693.73 1173.13 1688.27 1170.07 1685.33 1168.2C1682.4 1166.33 1676.4 1162.73 1672 1160.33C1650.4 1148.47 1639.73 1142.33 1636.67 1140.33C1634.8 1139 1628 1135.13 1621.33 1131.67C1614.8 1128.2 1608.8 1124.87 1608 1124.33C1606.53 1123.27 1599.33 1119.13 1590.67 1114.33C1587.73 1112.87 1582.8 1109.93 1579.73 1107.93C1576.53 1105.93 1573.73 1104.33 1573.33 1104.33C1573.07 1104.33 1568.13 1101.67 1562.53 1098.33C1557.07 1095 1552.27 1092.33 1551.87 1092.33C1551.6 1092.33 1545.33 1088.73 1537.87 1084.33C1530.53 1079.93 1524.13 1076.33 1523.87 1076.33C1523.6 1076.33 1518.93 1073.8 1513.6 1070.6C1508.4 1067.53 1501.6 1063.67 1498.67 1062.07C1486.13 1055.4 1484 1053.93 1483.6 1052.07C1483.2 1050.07 1494.8 1042.47 1516.4 1030.73C1520.53 1028.47 1526.13 1025.27 1528.67 1023.67C1531.2 1022.07 1534.27 1020.33 1535.33 1019.93C1536.4 1019.4 1539.73 1017.53 1542.67 1015.8C1564.53 1003.13 1590.4 988.333 1590.93 988.333C1591.2 988.333 1593.87 986.733 1597.07 984.733C1600.13 982.733 1603.87 980.333 1605.47 979.533C1616.27 973.667 1626.4 967.933 1632.4 964.467C1636.27 962.2 1639.6 960.333 1639.87 960.333C1640.4 960.333 1671.2 942.467 1676.67 939C1677.73 938.333 1681.33 936.333 1684.67 934.6C1688 932.733 1692.8 930.067 1695.33 928.467C1697.87 927 1700.93 925.267 1702 924.733C1703.07 924.2 1709.87 920.333 1716.93 916.067C1724 911.8 1730.13 908.333 1730.53 908.333C1730.8 908.333 1737.2 904.733 1744.67 900.333C1752.13 895.933 1758.4 892.333 1758.67 892.333C1758.93 892.333 1765.2 888.733 1772.53 884.333C1780 879.933 1786.53 876.333 1787.07 876.333C1788.53 876.2 1794 871.4 1794 870.067C1794 869.533 1788.4 866.067 1781.73 862.467C1774.93 858.867 1768.4 855.267 1767.33 854.333C1766.27 853.533 1760.53 850.067 1754.67 846.867C1748.8 843.667 1742.93 840.467 1741.73 839.667C1740.53 839 1736.93 836.867 1733.73 835.133C1721.07 828.2 1714.27 824.333 1704.27 818.467C1698.53 815.133 1693.6 812.333 1693.33 812.333C1693.07 812.333 1688.27 809.667 1682.93 806.333C1677.47 803 1672.67 800.333 1672.13 800.333C1671.6 800.333 1665.33 796.733 1658.13 792.333C1650.8 787.933 1644.67 784.333 1644.27 784.333C1643.87 784.333 1639.2 781.8 1633.73 778.6C1628.4 775.4 1623.07 772.333 1622 771.8C1620.93 771.267 1618.8 770.2 1617.33 769.267C1615.87 768.333 1610.53 765.267 1605.33 762.333C1600.27 759.4 1594.8 756.333 1593.33 755.4C1591.87 754.467 1589.87 753.4 1588.8 752.867C1586.93 751.933 1557.87 735.4 1546.67 728.867C1543.73 727.133 1539.6 724.867 1537.33 723.667C1535.2 722.6 1530.4 719.933 1526.67 717.667C1523.07 715.533 1519.07 713.267 1518 712.733C1516.93 712.2 1510.13 708.333 1502.93 704.067C1495.87 699.8 1489.47 696.333 1488.93 696.333C1487.07 696.333 1481.73 689.933 1482.93 689.267C1483.47 689 1487.6 686.733 1492 684.333C1496.4 681.933 1500.93 679.267 1502 678.333C1503.07 677.533 1506.67 675.4 1510 673.8C1513.33 672.2 1517.87 669.667 1520 668.2C1522.27 666.867 1525.2 665.133 1526.8 664.467C1528.27 663.8 1533.47 660.867 1538.13 657.933C1546.13 653.133 1553.6 648.867 1566.67 641.667C1569.6 640.067 1573.87 637.667 1576 636.2C1578.27 634.867 1581.2 633.133 1582.67 632.467C1584.13 631.8 1590.8 628.067 1597.33 624.067C1604 620.067 1612 615.4 1615.33 613.8C1618.67 612.2 1623.2 609.667 1625.33 608.2C1627.6 606.867 1630.53 605.133 1632 604.333C1634.67 603 1635.87 602.333 1645.33 596.467C1648.27 594.6 1654.93 590.867 1660.13 588.2C1665.33 585.533 1673.6 580.733 1678.4 577.8C1683.33 574.733 1687.73 572.333 1688.13 572.333C1688.53 572.333 1691.47 570.6 1694.53 568.6C1697.47 566.6 1702.67 563.533 1706 561.8C1709.33 560.2 1713.87 557.667 1716 556.2C1718.27 554.867 1721.2 553.133 1722.8 552.467C1724.27 551.8 1729.47 548.867 1734.13 545.933C1742 541.133 1748.4 537.533 1763.07 529.533C1766.27 527.8 1769.87 525.667 1771.07 525C1772.27 524.2 1777.33 521.4 1782.13 518.733C1786.93 515.933 1791.6 512.867 1792.4 511.933C1794.4 509.533 1792.27 507.667 1780 501C1774.93 498.2 1770.13 495.533 1769.33 495C1768.67 494.467 1763.2 491.4 1757.33 488.333C1751.47 485.133 1745.47 481.8 1744 481C1742.53 480.2 1738.8 477.933 1735.73 475.933C1732.53 473.933 1729.73 472.333 1729.47 472.333C1728.93 472.333 1711.6 462.467 1706 459C1704.93 458.333 1701.33 456.467 1698 454.733C1694.67 453.133 1689.6 450.2 1686.67 448.2C1683.73 446.333 1677.73 442.733 1673.33 440.333C1662.4 434.333 1651.73 428.467 1645.33 424.733C1642.4 423.133 1639.07 421.267 1638 420.733C1636.93 420.2 1630.13 416.333 1622.93 412.067C1615.87 407.8 1609.73 404.333 1609.47 404.333C1608.93 404.333 1590.93 394.067 1586 391C1584.93 390.333 1578.93 386.867 1572.67 383.4C1566.4 379.933 1560.27 376.467 1559.07 375.667C1557.87 375 1553.87 372.733 1550.4 370.867C1546.93 368.867 1541.87 366.067 1539.33 364.6C1533.33 361 1512.67 349.267 1510 347.933C1508.93 347.4 1506.27 345.8 1504 344.467C1501.87 343 1497.33 340.467 1494 338.867C1490.67 337.133 1482.27 332.333 1475.2 328.067C1468.13 323.8 1462 320.333 1461.47 320.333C1460.93 320.333 1445.33 311.4 1438 306.867C1436.93 306.2 1434.53 305 1432.8 304.333C1431.07 303.533 1428.13 301.8 1426.13 300.467C1424.27 299.133 1416.93 294.867 1410 290.867C1403.07 287 1394.93 282.467 1392 280.733C1389.07 279.133 1385.73 277.267 1384.67 276.733C1383.6 276.2 1378.8 273.533 1374.13 270.6C1369.47 267.8 1364.27 264.867 1362.8 264.2C1361.2 263.4 1358.8 262.2 1357.33 261.267C1355.87 260.333 1350.4 257.267 1345.33 254.467C1340.13 251.667 1329.6 245.4 1321.6 240.733C1313.73 236.2 1307.07 232.333 1306.8 232.333C1306.4 232.333 1301.6 229.667 1296.13 226.333C1290.53 223 1285.73 220.333 1285.47 220.333C1285.2 220.333 1278.8 216.733 1271.47 212.333C1264 207.933 1257.73 204.333 1257.33 204.333C1257.07 204.333 1252.27 201.667 1246.93 198.333C1241.47 195 1236.67 192.333 1236.13 192.333C1235.6 192.333 1229.33 188.733 1222 184.333C1214.67 179.933 1208.4 176.333 1208.13 176.333C1207.47 176.333 1189.6 166.2 1184.67 163C1183.6 162.333 1180 160.333 1176.67 158.733C1173.33 157 1168.53 154.2 1166 152.467C1163.47 150.867 1160.13 148.867 1158.67 148.2C1157.2 147.533 1155.07 146.467 1154 145.667C1152.93 145 1143.6 139.667 1133.33 133.8C1123.07 128.067 1112.53 122.067 1110 120.6C1107.47 119.133 1103.2 116.733 1100.67 115.267C1098.13 113.8 1089.47 109 1081.47 104.467C1073.47 100.067 1066.53 96.3332 1066.27 96.3332C1065.87 96.3332 1064.53 95.5332 1063.47 94.4665C1062.27 93.3998 1057.2 90.4665 1052.13 87.7998C1047.07 85.1332 1042.27 82.4665 1041.47 81.7998C1040.27 80.8665 1034.4 77.5332 1018.8 69.1332C1017.2 68.3332 1013.47 65.9332 1010.4 63.9332C1007.2 61.9332 1004.4 60.3332 1004.13 60.3332C1003.73 60.3332 1000.53 58.5998 996.933 56.4665C990.667 52.8665 979.733 46.7332 970.667 41.7998C968.533 40.5998 965.733 38.9998 964.667 38.1998C963.6 37.3998 959.067 34.7332 954.667 32.3332C936.533 22.4665 931.733 19.7998 926.933 16.7332C924.133 14.9998 920.533 12.9998 918.933 12.1998C917.333 11.5332 914.267 9.79984 912 8.33318C909.867 6.86651 906.667 5.13318 905.067 4.46651C903.6 3.79984 901.867 2.46651 901.333 1.79984C900.933 0.999844 898.8 0.333177 896.667 0.333177C894.533 0.333177 892.4 0.999844 892 1.79984ZM912.533 83.6665C920.933 88.4665 927.867 92.3332 928 92.3332C928.267 92.3332 937.6 97.6665 948.933 104.067C960.133 110.6 970.267 116.333 971.333 116.733C972.4 117.267 975.2 118.867 977.333 120.2C979.6 121.667 984 124.2 987.2 125.8C990.4 127.4 998.133 131.8 1004.53 135.667C1015.07 141.933 1028.53 149.533 1038.67 155C1040.93 156.2 1045.2 158.733 1048.27 160.733C1051.47 162.733 1054.27 164.333 1054.53 164.333C1054.8 164.333 1059.87 167.133 1065.6 170.467C1071.33 173.933 1080.53 179.133 1086 182.067C1091.47 185 1098.13 188.6 1100.67 190.333C1106.4 193.933 1123.2 203.533 1126 204.867C1127.07 205.267 1129.87 206.733 1132 208.067C1134.27 209.4 1140.13 212.733 1145.2 215.533C1150.13 218.333 1158.27 223 1163.07 225.933C1167.87 228.867 1173.07 231.8 1174.53 232.467C1176.13 233.133 1179.2 234.733 1181.33 236.067C1183.6 237.4 1189.47 240.733 1194.53 243.533C1199.47 246.333 1207.33 250.733 1211.87 253.533C1216.27 256.333 1224.27 260.867 1229.33 263.667C1234.53 266.467 1241.07 270.2 1244 271.933C1246.93 273.533 1250.27 275.4 1251.33 275.8C1252.4 276.333 1257.6 279.267 1262.67 282.333C1267.87 285.4 1275.33 289.667 1279.33 291.933C1296.93 301.533 1302.13 304.467 1315.33 312.2C1323.07 316.733 1330.27 320.867 1331.33 321.533C1332.4 322.2 1337.6 325 1342.67 327.8C1347.87 330.467 1357.87 336.2 1364.93 340.467C1372.13 344.867 1378.13 348.333 1378.53 348.333C1378.8 348.333 1383.73 351 1389.2 354.333C1394.8 357.667 1399.73 360.333 1400 360.333C1400.4 360.333 1406.67 363.933 1414.13 368.333C1421.47 372.733 1427.73 376.333 1428 376.333C1428.53 376.333 1448 387.533 1451.33 389.667C1452.4 390.467 1454.53 391.533 1456.13 392.2C1457.6 392.867 1462.8 395.8 1467.47 398.6C1472.13 401.533 1476.93 404.2 1478 404.733C1479.07 405.267 1481.87 406.733 1484 408.067C1486.27 409.4 1491.87 412.733 1496.67 415.267C1501.47 417.933 1509.87 422.733 1515.33 425.933C1520.8 429.133 1526.27 432.2 1527.33 432.733C1528.4 433.267 1531.2 434.733 1533.33 436.067C1535.6 437.4 1542.13 441.133 1548 444.333C1553.87 447.533 1559.87 450.867 1561.33 451.667C1562.8 452.467 1566.4 454.6 1569.33 456.467C1572.27 458.333 1578.27 461.933 1582.67 464.333C1587.07 466.867 1593.07 470.2 1596 471.933C1598.93 473.533 1602.53 475.533 1604.13 476.2C1605.6 476.867 1610.8 479.8 1615.6 482.733C1620.4 485.667 1628.53 490.333 1633.47 493.133C1638.53 495.933 1644.53 499.267 1646.67 500.6C1648.93 501.933 1651.87 503.533 1653.33 504.333C1664.53 509.667 1663.07 512.467 1644 522.333C1640.4 524.2 1635.6 527 1633.33 528.333C1631.2 529.8 1628.4 531.4 1627.33 531.933C1626.27 532.467 1619.47 536.333 1612.27 540.6C1605.07 544.867 1598.93 548.333 1598.53 548.333C1598.27 548.333 1592 551.933 1584.53 556.333C1577.2 560.733 1570.93 564.333 1570.67 564.333C1570.4 564.333 1564.13 567.933 1556.8 572.333C1549.33 576.733 1543.07 580.333 1542.8 580.333C1542.4 580.333 1536.13 583.933 1528.67 588.333C1521.2 592.733 1514.67 596.333 1514.27 596.333C1513.73 596.333 1510.93 597.933 1508 599.933C1505.07 601.933 1500.27 604.867 1497.33 606.467C1488.8 611 1479.33 616.333 1468.67 622.733C1463.2 625.933 1454.8 630.733 1450 633.4C1445.2 635.933 1439.6 639.267 1437.33 640.6C1435.2 641.933 1432.4 643.4 1431.33 643.933C1430.27 644.467 1422 649.267 1412.93 654.6C1404 659.933 1396.27 664.333 1396 664.333C1395.73 664.333 1390.8 667 1385.2 670.333C1379.73 673.667 1374.93 676.333 1374.53 676.333C1374.27 676.333 1368 679.933 1360.67 684.333C1353.33 688.733 1346.93 692.333 1346.67 692.333C1346.27 692.333 1340 695.933 1332.53 700.333C1325.2 704.733 1318.8 708.333 1318.53 708.333C1318.27 708.333 1315.47 709.933 1312.27 711.933C1309.2 713.933 1304.93 716.467 1302.67 717.667C1292.27 723.267 1279.2 730.6 1271.33 735.4C1266.53 738.333 1259.07 742.6 1254.67 745C1250.27 747.267 1244.13 750.733 1241.07 752.733C1237.87 754.733 1235.07 756.333 1234.67 756.333C1234.27 756.333 1226.67 760.733 1217.6 766.067C1208.67 771.4 1198.67 777.133 1195.33 778.867C1192 780.467 1187.6 783 1185.33 784.467C1183.2 785.8 1180.4 787.4 1179.33 787.933C1178.27 788.467 1171.07 792.467 1163.33 797C1155.6 801.533 1145.2 807.667 1140 810.467C1134.93 813.267 1129.47 816.333 1128 817.267C1126.53 818.2 1124.4 819.267 1123.33 819.8C1122.27 820.333 1118.93 822.333 1116 824.2C1113.07 826.067 1108.27 828.867 1105.33 830.467C1098 834.333 1088 840.067 1080.8 844.333C1077.33 846.2 1073.73 848.2 1072.67 848.733C1071.6 849.267 1068.93 850.867 1066.67 852.2C1064.53 853.667 1060 856.333 1056.67 858.067C1053.33 859.933 1048.53 862.6 1046 864.2C1043.47 865.667 1040.4 867.4 1039.33 867.933C1038.27 868.467 1032.93 871.4 1027.6 874.6C1022.13 877.8 1017.47 880.333 1016.93 880.333C1016.53 880.333 1015.2 881.133 1014.13 882.2C1012.93 883.133 1007.87 886.333 1002.67 889C997.6 891.8 991.067 895.533 988.4 897.267C985.6 899 983.067 900.333 982.667 900.333C982.4 900.333 975.6 904.067 967.733 908.733C952.133 917.933 945.733 921.533 933.333 928.333C928.933 930.733 922.933 934.333 920 936.2C917.067 938.067 911.867 941 908.4 942.6C904.933 944.333 901.733 946.333 901.333 947C900.267 948.733 893.067 948.733 892 947C891.6 946.333 888.4 944.333 884.933 942.6C881.467 941 876.267 938.067 873.333 936.2C870.4 934.333 863.867 930.467 858.667 927.667C853.6 924.867 847.067 921.133 844.4 919.4C841.6 917.667 839.067 916.333 838.8 916.333C838.533 916.333 832.133 912.733 824.8 908.333C817.333 903.933 810.933 900.333 810.667 900.333C810.267 900.333 807.733 899 804.933 897.267C802.267 895.533 795.867 891.8 790.667 889C785.6 886.333 780.4 883.267 779.333 882.333C778.267 881.533 772.533 878.067 766.667 874.867C760.8 871.667 754.933 868.467 753.733 867.667C752.533 867 748.267 864.6 744.4 862.467C732.667 856.067 732.133 855.667 726.667 852.2C723.733 850.333 720.4 848.333 719.333 847.933C718.267 847.4 714.933 845.533 712 843.933C701.6 837.933 693.2 833.267 688 830.467C685.067 828.867 680.267 826.067 677.333 824.2C674.4 822.333 671.067 820.467 670 819.933C668.933 819.4 667.067 818.467 666 817.667C662.667 815.533 643.2 804.333 642.667 804.333C642.4 804.333 636.4 800.867 629.067 796.6C621.867 792.333 615.067 788.467 614 787.933C612.933 787.4 610.267 785.8 608 784.467C605.867 783 601.333 780.467 598 778.867C594.667 777.133 584.8 771.533 576 766.333C567.2 761.133 559.067 756.333 558 755.933C556.933 755.4 554.267 753.8 552 752.467C549.867 751 545.333 748.467 542 746.867C538.667 745.133 530.933 740.733 524.667 737C514.4 730.733 501.067 723.267 490.667 717.667C488.533 716.467 484.133 713.933 481.067 711.933C477.867 709.933 475.067 708.333 474.8 708.333C474.533 708.333 468.133 704.733 460.8 700.333C453.333 695.933 447.067 692.333 446.667 692.333C446.4 692.333 440 688.733 432.667 684.333C425.333 679.933 418.933 676.333 418.667 676.333C418.267 676.333 415.467 674.733 412.267 672.733C409.2 670.733 404.267 667.8 401.333 666.2C393.333 662.067 391.867 661.133 377.333 652.6C370 648.333 363.067 644.467 362 643.933C360.933 643.4 358.267 641.933 356 640.6C353.867 639.267 348.133 635.933 343.333 633.4C338.533 630.733 327.2 624.2 318 618.867C308.8 613.4 298.933 607.8 296 606.333C293.067 604.867 288.4 602.067 285.467 599.933C282.667 597.933 279.867 596.333 279.2 596.333C278.667 596.333 272.133 592.733 264.667 588.333C257.2 583.933 250.933 580.333 250.533 580.333C250.267 580.333 244 576.733 236.533 572.333C229.2 567.933 222.933 564.333 222.667 564.333C222.4 564.333 216.133 560.733 208.8 556.333C201.333 551.933 195.067 548.333 194.8 548.333C194.4 548.333 188.267 544.867 181.067 540.6C173.867 536.333 167.067 532.467 166 531.933C164.933 531.4 161.867 529.667 159.333 528.2C156.8 526.6 152 523.933 148.667 522.067C132.533 513.267 130.4 511 134.667 507.667C136.133 506.467 138.533 505 140 504.333C141.467 503.533 144.533 501.933 146.667 500.6C148.933 499.267 154.8 495.933 159.867 493.133C164.8 490.333 172.933 485.667 177.733 482.733C182.533 479.8 187.733 476.867 189.2 476.2C190.8 475.533 194.4 473.533 197.333 471.933C200.267 470.2 206.267 466.867 210.667 464.333C215.067 461.933 221.067 458.333 224 456.467C226.933 454.6 230.533 452.467 232 451.667C233.467 450.867 239.467 447.533 245.333 444.333C251.2 441.133 257.867 437.4 260 436.067C262.267 434.733 264.933 433.267 266 432.733C267.067 432.2 272.533 429.133 278 425.933C283.467 422.733 291.867 417.933 296.667 415.267C301.467 412.733 307.2 409.4 309.333 408.067C311.6 406.733 314.267 405.267 315.333 404.733C316.4 404.2 321.2 401.533 325.867 398.6C330.533 395.8 335.733 392.867 337.2 392.2C338.8 391.533 340.933 390.467 342 389.667C345.333 387.533 364.8 376.333 365.333 376.333C365.6 376.333 371.867 372.733 379.2 368.333C386.667 363.933 392.933 360.333 393.333 360.333C393.6 360.333 398.533 357.667 404.133 354.333C409.6 351 414.533 348.333 414.8 348.333C415.2 348.333 421.2 344.867 428.4 340.467C435.467 336.2 445.6 330.467 450.667 327.8C455.867 325 460.933 322.2 462 321.533C463.067 320.867 470.267 316.733 478 312.2C491.333 304.467 495.733 301.933 513.733 292.067C517.867 289.8 525.6 285.4 530.667 282.333C535.867 279.267 540.933 276.333 542 275.8C543.067 275.4 546.4 273.533 549.333 271.933C552.267 270.2 558.933 266.467 564 263.667C569.2 260.867 577.067 256.333 581.467 253.533C586 250.733 593.867 246.333 598.8 243.533C603.867 240.733 609.867 237.4 612 236.067C614.267 234.733 617.2 233.133 618.8 232.467C620.267 231.8 625.467 228.867 630.133 225.933C638 221.133 644.4 217.533 659.067 209.533C662.267 207.8 665.867 205.667 667.067 205C668.267 204.2 674.133 201 680 197.8C685.867 194.6 691.6 191.267 692.667 190.333C693.733 189.4 699.733 186.067 706 182.733C712.267 179.4 722 173.933 727.733 170.467C733.467 167.133 738.533 164.333 738.8 164.333C739.067 164.333 741.867 162.733 745.067 160.733C748.133 158.733 752.533 156.2 754.667 155C763.067 150.467 776.4 143 787.333 136.467C793.6 132.733 801.733 128.2 805.333 126.333C809.067 124.467 813.867 121.667 816 120.333C818.267 118.867 820.933 117.267 822 116.733C824.4 115.667 864.533 92.8665 867.333 90.9998C868.4 90.1998 870.533 89.1332 872 88.4665C873.467 87.7998 879.467 84.4665 885.333 81.1332C891.2 77.7998 896.267 74.9998 896.667 74.9998C897.067 74.9998 904.267 78.8665 912.533 83.6665ZM1423.6 734.067C1427.87 736.467 1437.2 741.667 1444.27 745.8C1451.47 749.933 1460.4 755 1464 757.133C1467.73 759.133 1473.07 762.2 1476 763.933C1478.93 765.533 1482.27 767.4 1483.33 767.933C1485.07 768.6 1508.4 782.2 1514 785.667C1515.07 786.333 1519.87 789 1524.67 791.4C1529.47 793.933 1539.33 799.667 1546.67 803.933C1554 808.2 1560.93 812.2 1562 812.733C1563.07 813.267 1565.87 814.733 1568 816.067C1570.27 817.4 1576.27 820.867 1581.33 823.667C1586.53 826.467 1595.07 831.267 1600.27 834.467C1605.6 837.667 1610.27 840.333 1610.53 840.333C1610.8 840.333 1615.73 843 1621.2 846.333C1626.8 849.667 1631.73 852.333 1632 852.333C1633.47 852.333 1662 869.8 1662 870.733C1662 871.933 1652.27 878.333 1641.47 884.333C1637.2 886.6 1630.93 890.2 1627.47 892.2C1624.13 894.2 1620.4 896.2 1619.33 896.733C1618.27 897.267 1615.6 898.867 1613.33 900.333C1611.2 901.8 1607.33 903.8 1604.93 905L1600.4 907L1593.47 899.933C1584.8 891.4 1574.13 887.533 1565.33 889.8C1562.4 890.6 1558.67 891.533 1556.93 891.933C1555.2 892.333 1550.93 895.4 1547.47 898.867C1537.33 908.867 1534.4 922.333 1540 933.267C1541.07 935.267 1542 937.667 1542 938.6C1542 940.6 1533.6 946.333 1521.33 953C1516.27 955.667 1510.27 959 1508 960.333C1505.87 961.667 1501.07 964.467 1497.33 966.333C1493.73 968.333 1488.8 971.4 1486.4 973.133C1484.13 974.867 1481.33 976.333 1480.4 976.333C1479.33 976.333 1477.87 977 1477.2 977.667C1475.73 979.133 1466.93 984.333 1460 987.8C1457.87 988.867 1454.27 990.867 1452 992.333C1449.87 993.8 1446.8 995.533 1445.33 996.2C1443.87 996.867 1440.53 998.867 1438 1000.6C1435.47 1002.33 1430.67 1005.13 1427.33 1006.87C1424 1008.47 1419.6 1011 1417.33 1012.33C1415.2 1013.8 1411.6 1015.8 1409.33 1016.87C1404.13 1019.4 1391.07 1027 1389.33 1028.33C1388.67 1028.87 1384.4 1031.4 1380 1033.8C1375.6 1036.2 1370.27 1039.27 1368 1040.6C1365.87 1041.93 1363.07 1043.4 1362 1043.93C1360.93 1044.47 1355.87 1047.27 1350.67 1050.33C1345.6 1053.27 1340.4 1056.2 1339.33 1056.73C1338.27 1057.27 1335.6 1058.87 1333.33 1060.2C1331.2 1061.67 1327.2 1063.93 1324.67 1065.4C1303.47 1077 1294.13 1082.33 1291.2 1084.47C1289.2 1085.8 1286.27 1087.53 1284.53 1088.33C1282.8 1089 1280.4 1090.2 1279.33 1091C1275.33 1093.53 1256.4 1104.33 1255.87 1104.33C1255.47 1104.33 1249.47 1107.8 1242.27 1112.07C1235.2 1116.33 1228.4 1120.33 1227.33 1120.73C1226.27 1121.27 1222.4 1123.4 1218.67 1125.53C1208.27 1131.67 1208 1131.4 1208 1118.6C1208 1109 1207.6 1107 1204.4 1102.2C1196.27 1089.53 1182 1083.4 1168.93 1087.13C1160.13 1089.53 1154.93 1093.4 1149.87 1101C1145.6 1107.13 1145.33 1108.47 1145.33 1118.33C1145.33 1128.07 1145.73 1129.53 1149.33 1134.6C1153.6 1140.47 1164 1148.33 1167.47 1148.33C1173.6 1148.33 1170.93 1153.53 1162.4 1158.07C1158.93 1159.8 1153.87 1162.6 1151.33 1164.2C1148.8 1165.67 1145.47 1167.53 1144 1168.33C1142.53 1169.13 1139.6 1170.87 1137.33 1172.33C1135.2 1173.8 1132.4 1175.4 1131.33 1175.93C1130.27 1176.47 1125.2 1179.27 1120 1182.2C1114.93 1185.27 1108.53 1188.73 1106 1190.07L1101.33 1192.6L1093.47 1188.47C1081.2 1181.93 1069.6 1183.13 1057.33 1191.93C1051.6 1195.93 1047.07 1205.67 1046.4 1215.67C1045.73 1223.8 1045.6 1223.93 1039.2 1228.07C1035.73 1230.47 1029.07 1234.33 1024.4 1236.73C1019.73 1239.13 1013.47 1242.73 1010.4 1244.73C1007.2 1246.73 1004.4 1248.33 1004 1248.33C1003.73 1248.33 996.933 1252.2 989.067 1256.87C981.067 1261.53 972.267 1266.6 969.333 1268.2C966.4 1269.8 961.067 1272.87 957.333 1275C953.733 1277.27 949.733 1279.4 948.667 1279.93C947.6 1280.47 940.8 1284.33 933.6 1288.6C926.4 1292.87 920.267 1296.33 920 1296.33C919.733 1296.33 914.933 1299 909.467 1302.33C903.867 1305.67 898.133 1308.33 896.667 1308.33C895.2 1308.33 889.467 1305.67 883.867 1302.33C878.4 1299 873.6 1296.33 873.333 1296.33C873.067 1296.33 866.933 1292.87 859.733 1288.6C852.533 1284.33 845.733 1280.47 844.667 1279.93C843.6 1279.4 841.733 1278.47 840.667 1277.8C835.467 1274.47 818 1264.33 817.467 1264.33C817.2 1264.33 810.8 1260.73 803.467 1256.33C796 1251.93 789.6 1248.33 789.333 1248.33C788.933 1248.33 786.133 1246.73 782.933 1244.73C779.867 1242.73 773.733 1239.27 769.333 1236.87C764.933 1234.6 757.467 1230.33 752.667 1227.4C747.867 1224.47 737.867 1218.73 730.4 1214.6C720.267 1208.87 716.133 1205.67 713.867 1201.93C706.4 1189.93 697.467 1184.33 685.6 1184.33C677.733 1184.33 670.667 1181.4 656 1172.2C650.667 1168.73 639.067 1162.07 630 1157.27C614.667 1149.13 609.333 1145.67 608.933 1143.8C608.667 1142.6 610.267 1139.53 612.267 1136.73C622.533 1123.27 621.067 1107.13 608.533 1094.87C601.733 1088.2 597.6 1086.73 585.2 1086.6C573.6 1086.47 559.2 1097.4 557.2 1107.93C556.133 1113.53 553.6 1113.67 544.667 1108.33C540.933 1106.07 537.6 1104.33 537.333 1104.33C536.933 1104.33 520.267 1094.87 514 1091C508.933 1088.07 485.867 1074.87 478.667 1070.87C474.267 1068.47 469.067 1065.53 467.067 1064.47C458.533 1059.27 430.133 1043 424.4 1039.8C420.8 1037.93 415.2 1034.73 411.733 1032.87C408.133 1030.87 403.733 1028.2 401.733 1026.87C399.867 1025.4 398 1024.33 397.6 1024.33C396.933 1024.33 380.133 1014.87 374 1011C372.933 1010.33 369.333 1008.47 366 1006.73C362.667 1005.13 357.867 1002.33 355.333 1000.6C352.8 998.867 349.467 996.867 348 996.2C346.533 995.533 343.6 993.8 341.333 992.333C336.8 989.533 333.733 987.8 323.6 982.467C319.733 980.333 316.267 978.2 315.867 977.533C315.467 976.867 314.267 976.333 313.2 976.333C312 976.333 309.2 974.867 306.933 973.133C304.533 971.4 299.733 968.333 296 966.333C292.4 964.467 287.6 961.667 285.333 960.333C283.2 959 278.667 956.467 275.333 954.867C272 953.133 262 947.4 253.067 942.067C244 936.733 236.267 932.333 235.867 932.333C235.467 932.333 233.2 930.867 230.667 929C226.933 926.067 226.133 924.467 225.333 917.933C224.267 909.267 219.733 900.467 214.133 896.467C209.6 893.267 199.2 889.533 194.133 889.4C190 889.267 181.467 891.8 176.533 894.733C173.067 896.6 172.533 896.467 162.8 890.467C157.2 887.133 152.267 884.333 152 884.333C150.4 884.333 131.333 871.933 131.333 871C131.333 869.8 146.933 860.067 162.667 851.533C167.867 848.867 173.867 845.4 176 844.067C178.267 842.733 180.933 841.267 182 840.733C183.067 840.333 188.267 837.4 193.333 834.333C198.533 831.267 206.933 826.467 212 823.667C217.2 820.867 223.2 817.4 225.333 816.067C227.6 814.733 230.267 813.267 231.333 812.733C232.4 812.2 239.6 808.2 247.333 803.667C255.067 799.133 264.933 793.533 269.333 791C273.733 788.6 280 785.133 283.333 783.267C286.667 781.4 293.6 777.4 298.667 774.333C303.867 771.267 308.933 768.333 310 767.8C311.067 767.4 314.4 765.533 317.333 763.933C320.267 762.2 326.933 758.467 332 755.667C337.2 752.867 344.933 748.2 349.467 745.4C354 742.6 358.533 740.333 359.6 740.333C360.667 740.333 363.2 742.2 365.467 744.467C367.6 746.733 371.733 750.333 374.533 752.467C379.2 755.933 380.8 756.333 390.533 756.333C399.867 756.333 402 755.933 406.267 753C412 749.133 414.533 749 420 752.467C422.267 753.8 424.933 755.4 426 755.933C427.067 756.333 434.933 760.733 443.333 765.4C451.733 770.2 459.867 774.733 461.333 775.533C462.8 776.467 466.533 778.733 469.6 780.733C472.8 782.733 475.733 784.333 476.267 784.333C476.933 784.333 479.2 785.8 481.333 787.533C485.067 790.6 485.2 790.867 482.667 791.667C474.533 794.467 471.6 796.067 466.933 800.067C448.533 816.733 455.6 845.8 479.867 853.4L488.667 856.2L497.2 853.533C512.8 848.6 520.667 837.8 520.667 821C520.667 815.533 520.933 811 521.467 811C522.133 811 536.4 818.6 545.333 823.8C548.267 825.533 553.333 828.333 556.667 829.933C560 831.667 565.067 834.6 568 836.467C570.933 838.333 576.8 841.933 581.2 844.2C585.467 846.6 592 850.333 595.6 852.467C599.2 854.6 602.4 856.333 602.667 856.333C602.933 856.333 608.8 859.667 615.6 863.8C622.267 867.933 629.067 871.8 630.667 872.467C632.133 873.133 635.2 874.867 637.333 876.2C639.6 877.667 644.933 880.733 649.333 883C653.733 885.4 661.6 889.8 666.667 893C671.867 896.067 679.067 900.2 682.667 902.2C686.4 904.2 691.2 907 693.333 908.333C695.6 909.667 700 912.2 703.333 913.8C706.667 915.533 711.467 918.333 714 920.067C716.533 921.8 719.867 923.8 721.333 924.467C722.8 925.133 725.867 926.733 728 928.067C732 930.467 747.067 939 754.667 943C756.933 944.2 761.067 946.6 764 948.467C766.933 950.333 770.267 952.333 771.333 952.733C772.4 953.267 775.2 954.867 777.333 956.2C779.6 957.667 783.733 960.067 786.667 961.667C797.467 967.667 805.6 972.2 815.333 977.933C820.8 981.133 826.267 984.2 827.333 984.733C828.4 985.267 831.2 986.867 833.333 988.2C835.6 989.667 840.4 992.467 844 994.333C854.8 1000.07 854.933 1000.47 852.133 1008.87C849.467 1016.6 849.733 1026.2 852.533 1032.33C856.4 1040.47 858.4 1043.27 861.333 1044.33C863.067 1045 864.8 1046.07 865.2 1046.87C865.733 1047.67 869.333 1049.27 873.333 1050.47C882.8 1053.53 892.533 1051.53 901.2 1044.87C908.133 1039.53 911.2 1033.8 913.2 1022.47C914.667 1014.6 914.8 1014.47 922.933 1009.53C927.333 1006.73 935.2 1002.33 940.267 999.533C945.2 996.733 951.2 993.4 953.333 992.067C955.6 990.733 958.267 989.267 959.333 988.733C960.4 988.2 967.333 984.333 974.667 979.933C982 975.667 991.867 969.933 996.667 967.267C1001.47 964.733 1007.2 961.533 1009.33 960.2C1011.6 958.867 1016.4 956.2 1020 954.333C1023.73 952.333 1028.53 949.267 1030.93 947.533C1033.2 945.8 1036 944.333 1037.2 944.333C1038.27 944.333 1039.47 943.8 1040 943.133C1040.4 942.467 1046 939 1052.4 935.4C1058.8 931.933 1065.07 928.467 1066.27 927.667C1067.47 927 1071.73 924.6 1075.6 922.467C1079.47 920.333 1084.27 917.533 1086.13 916.2C1088.13 914.867 1091.07 913.133 1092.8 912.333C1094.53 911.667 1096.93 910.467 1098 909.667C1101.6 907.267 1120.93 896.333 1121.33 896.333C1121.73 896.333 1127.47 893 1134.27 888.867C1140.93 884.733 1147.73 880.867 1149.33 880.2C1150.8 879.4 1153.2 878.2 1154.67 877.267C1156.13 876.333 1164.13 871.8 1172.4 867C1180.67 862.2 1189.07 857.4 1191.07 856.2C1193.07 855.133 1198.8 851.8 1204 849C1209.07 846.2 1219.2 840.467 1226.4 836.2C1243.2 826.2 1243.2 826.2 1245.33 835.4C1247.2 844.2 1263.47 855 1274.67 855C1282.13 855 1291.87 850.6 1298.13 844.333C1303.33 839.133 1304.4 837 1305.87 829.933C1307.73 820.067 1306.4 813.267 1300.53 805.4C1298.4 802.333 1296.67 799.133 1296.67 798.2C1296.67 796.2 1301.6 792.867 1316 785C1321.2 782.333 1326.27 779.133 1327.47 778.2C1328.53 777.133 1329.87 776.333 1330.27 776.333C1330.8 776.333 1335.73 773.667 1341.2 770.333C1346.8 767 1351.87 764.333 1352.4 764.333C1352.93 764.333 1356 762.467 1359.33 760.333C1364.53 756.867 1366.53 756.333 1374.4 756.333C1380.53 756.333 1384.53 755.667 1387.07 754.067C1391.73 751.133 1400.67 742.733 1400.67 741.267C1400.67 739.4 1406 733.133 1409.07 731.4C1413.33 729 1415.07 729.4 1423.6 734.067ZM382.8 1091.4C384.933 1092.33 389.067 1094.6 392 1096.47C394.933 1098.33 398.267 1100.33 399.333 1100.73C400.4 1101.27 403.733 1103.13 406.667 1104.73C409.6 1106.47 415.6 1109.8 420 1112.33C424.4 1114.73 433.867 1120.33 441.067 1124.6C448.4 1128.87 454.4 1132.33 454.667 1132.33C454.933 1132.33 459.733 1135 465.2 1138.33C470.8 1141.67 475.733 1144.33 476 1144.33C476.4 1144.33 482.533 1147.8 489.6 1152.07C496.8 1156.33 506.267 1161.93 510.667 1164.33C515.067 1166.87 521.067 1170.2 524 1171.93C526.933 1173.53 530.267 1175.4 531.333 1175.93C532.4 1176.33 539.067 1180.2 546 1184.33C552.933 1188.47 559.6 1192.33 560.667 1192.73C561.733 1193.27 564.8 1195 567.333 1196.47C569.867 1198.07 574.667 1200.73 577.867 1202.47C581.067 1204.2 584.4 1206.2 585.2 1206.87C586 1207.4 589.333 1209.4 592.667 1211.27C596 1213.13 605.733 1218.6 614.267 1223.4C622.8 1228.33 630.267 1232.33 630.667 1232.33C631.2 1232.33 633.467 1233.8 635.733 1235.53C638.133 1237.27 643.867 1240.73 648.667 1243.4C653.467 1245.93 660.533 1249.93 664.4 1252.2C668.267 1254.47 671.733 1256.33 672 1256.33C672.4 1256.33 679.067 1260.2 686.933 1264.87C694.933 1269.53 704.4 1275 708 1277.13C711.733 1279.13 717.067 1282.2 720 1283.93C722.933 1285.53 726.267 1287.4 727.333 1287.93C728.4 1288.33 735.2 1292.33 742.4 1296.6C753.6 1303.27 762.8 1308.47 775.867 1315.53C777.467 1316.33 781.2 1318.73 784.267 1320.73C787.467 1322.73 790.267 1324.33 790.667 1324.33C790.933 1324.33 797.333 1327.93 804.8 1332.33C812.133 1336.73 818.4 1340.33 818.667 1340.33C818.933 1340.33 829.733 1346.47 842.933 1354.07C856 1361.67 867.6 1368.2 868.667 1368.73C869.733 1369.27 873.733 1371.4 877.333 1373.67C881.067 1375.8 886.8 1379.13 890.4 1381L896.667 1384.33L903.067 1381C906.533 1379.13 912.4 1375.8 916 1373.67C919.733 1371.4 923.6 1369.27 924.667 1368.73C925.733 1368.2 937.333 1361.67 950.4 1354.07C963.6 1346.47 974.4 1340.33 974.667 1340.33C974.933 1340.33 981.2 1336.73 988.533 1332.33C996 1327.93 1002.4 1324.33 1002.67 1324.33C1003.07 1324.33 1005.87 1322.73 1009.07 1320.73C1012.13 1318.73 1015.87 1316.33 1017.47 1315.53C1030.53 1308.47 1039.73 1303.27 1050.93 1296.6C1058.13 1292.33 1064.93 1288.33 1066 1287.93C1067.07 1287.4 1070.4 1285.53 1073.33 1283.93C1076.27 1282.2 1081.73 1279.13 1085.33 1277.13C1089.07 1275 1098.4 1269.53 1106.4 1264.87C1114.27 1260.2 1120.93 1256.33 1121.33 1256.33C1121.6 1256.33 1125.07 1254.47 1128.93 1252.2C1132.8 1249.93 1139.87 1245.93 1144.67 1243.4C1149.47 1240.73 1155.2 1237.27 1157.6 1235.53C1159.87 1233.8 1162.13 1232.33 1162.67 1232.33C1163.07 1232.33 1170.53 1228.33 1179.07 1223.4C1187.6 1218.6 1197.33 1213.13 1200.67 1211.27C1204 1209.4 1207.33 1207.4 1208.13 1206.87C1208.93 1206.2 1212.27 1204.2 1215.47 1202.47C1218.67 1200.73 1223.47 1198.07 1226 1196.47C1228.53 1195 1231.6 1193.27 1232.67 1192.73C1233.73 1192.33 1240.4 1188.47 1247.33 1184.33C1254.27 1180.2 1260.93 1176.33 1262 1175.93C1263.07 1175.4 1266.4 1173.53 1269.33 1171.93C1272.27 1170.2 1278.27 1166.87 1282.67 1164.33C1287.07 1161.93 1296.53 1156.33 1303.73 1152.07C1310.8 1147.8 1316.93 1144.33 1317.33 1144.33C1317.6 1144.33 1322.53 1141.67 1328.13 1138.33C1333.6 1135 1338.4 1132.33 1338.67 1132.33C1338.93 1132.33 1344.93 1128.87 1352.27 1124.6C1359.47 1120.33 1368.93 1114.73 1373.33 1112.33C1377.73 1109.8 1383.73 1106.47 1386.67 1104.73C1389.6 1103.13 1392.93 1101.27 1394 1100.73C1395.07 1100.33 1398.4 1098.33 1401.33 1096.47C1409.2 1091.4 1413.73 1089.67 1416.4 1090.6C1417.6 1091.13 1423.47 1094.33 1429.33 1097.67C1435.2 1101 1440.93 1104.2 1442 1104.73C1443.07 1105.27 1444.93 1106.2 1446 1107C1449.73 1109.4 1468.93 1120.33 1469.47 1120.33C1469.73 1120.33 1474 1122.73 1478.8 1125.8C1483.73 1128.73 1489.07 1131.8 1490.53 1132.47C1492.13 1133.13 1495.2 1134.73 1497.33 1136.07C1499.6 1137.4 1505.2 1140.73 1510 1143.27C1514.8 1145.93 1523.33 1150.73 1528.93 1154.2C1534.67 1157.53 1543.33 1162.47 1548.27 1165.27C1553.33 1167.93 1559.2 1171.13 1561.33 1172.47C1563.6 1173.8 1570.4 1177.67 1576.67 1181.27C1582.93 1184.73 1589.07 1188.2 1590.27 1189C1591.47 1189.67 1595.47 1191.93 1599.07 1193.93C1608.93 1199.27 1642.67 1218.6 1647.33 1221.67C1648.4 1222.33 1651.87 1224.2 1655.07 1225.8C1664.13 1230.6 1662.93 1232.73 1645.33 1242.33C1634.93 1248.07 1626.53 1252.87 1616.67 1258.73C1611.2 1261.93 1602.8 1266.73 1598 1269.4C1593.2 1271.93 1587.6 1275.27 1585.33 1276.6C1583.2 1277.93 1580.4 1279.4 1579.33 1279.93C1578.27 1280.33 1570.13 1285.13 1561.33 1290.33C1552.53 1295.53 1542.67 1301.13 1539.33 1302.87C1536 1304.47 1531.6 1307 1529.33 1308.47C1527.2 1309.8 1524.4 1311.4 1523.33 1311.93C1522.27 1312.33 1517.2 1315.27 1512 1318.33C1502.93 1323.8 1494.8 1328.47 1484 1334.2C1481.07 1335.8 1476.13 1338.73 1473.07 1340.73C1469.87 1342.73 1467.07 1344.33 1466.67 1344.33C1466.27 1344.33 1463.47 1345.93 1460.27 1347.93C1457.2 1349.93 1452.27 1352.87 1449.33 1354.47C1439.47 1359.8 1430.67 1364.73 1418 1372.33C1411.07 1376.47 1404.4 1380.2 1403.33 1380.73C1402.27 1381.27 1398.93 1383.13 1396 1384.73C1393.07 1386.47 1386.53 1390.2 1381.33 1393C1376.27 1395.8 1366.67 1401.4 1360.27 1405.27C1353.87 1409.13 1348.27 1412.33 1348 1412.33C1347.73 1412.33 1342.8 1415 1337.2 1418.33C1331.73 1421.67 1326.93 1424.33 1326.53 1424.33C1326.27 1424.33 1320.13 1427.8 1313.07 1432.07C1305.87 1436.33 1295.2 1442.47 1289.33 1445.8C1283.47 1449 1277.47 1452.33 1276 1453.27C1274.53 1454.2 1272.4 1455.27 1271.33 1455.8C1270.27 1456.33 1266.93 1458.33 1264 1460.2C1261.07 1462.07 1255.87 1465.13 1252.4 1467C1248.93 1468.87 1241.47 1473 1235.73 1476.2C1230 1479.4 1222.67 1483.53 1219.33 1485.4C1216 1487.13 1212.4 1489.4 1211.33 1490.2C1209.2 1491.8 1208 1492.47 1197.2 1498.33C1193.6 1500.2 1188.93 1503 1186.67 1504.33C1184.53 1505.67 1179.73 1508.47 1176 1510.47C1164.93 1516.47 1164.27 1516.87 1158.4 1520.73C1155.2 1522.73 1152.4 1524.33 1152 1524.33C1151.47 1524.33 1132.67 1535 1128.67 1537.67C1127.6 1538.47 1125.47 1539.53 1123.87 1540.2C1122.4 1540.87 1117.07 1543.93 1112.13 1546.87C1107.33 1549.93 1103.07 1552.33 1102.8 1552.33C1102.53 1552.33 1096.13 1555.93 1088.8 1560.33C1081.33 1564.73 1074.93 1568.33 1074.67 1568.33C1074.27 1568.33 1071.47 1569.93 1068.27 1571.93C1062.53 1575.53 1053.73 1580.47 1046.67 1584.07C1044.53 1585.13 1040.93 1587.27 1038.93 1588.6C1036.93 1590.07 1031.47 1593.27 1026.93 1595.67C1022.4 1598.07 1012.4 1603.67 1004.67 1608.33C996.933 1612.87 986.8 1618.73 982 1621.4C977.2 1623.93 971.6 1627.27 969.333 1628.6C967.2 1629.93 964.4 1631.4 963.333 1631.93C962.267 1632.47 955.333 1636.33 948 1640.6C933.067 1649.4 931.733 1650.07 923.467 1654.47C920.267 1656.2 916.933 1658.2 916.133 1658.87C912.133 1662.07 899.2 1668.33 896.667 1668.33C894.133 1668.33 881.2 1662.07 877.2 1658.87C876.4 1658.2 873.067 1656.2 869.867 1654.47C861.6 1650.07 860.267 1649.4 845.333 1640.6C838 1636.33 831.067 1632.47 830 1631.93C828.933 1631.4 826.267 1629.93 824 1628.6C821.867 1627.27 816.133 1623.93 811.333 1621.4C806.533 1618.73 796.4 1612.87 788.667 1608.33C780.933 1603.67 770.933 1598.07 766.4 1595.67C761.867 1593.27 756.4 1590.07 754.4 1588.6C752.4 1587.27 748.933 1585.13 746.667 1584.07C739.6 1580.47 730.8 1575.53 725.067 1571.93C721.867 1569.93 719.067 1568.33 718.667 1568.33C718.4 1568.33 712 1564.73 704.533 1560.33C697.2 1555.93 690.8 1552.33 690.533 1552.33C690.267 1552.33 686 1549.93 681.2 1546.87C676.267 1543.93 670.933 1540.87 669.467 1540.2C667.867 1539.53 665.733 1538.47 664.667 1537.67C660.667 1535 641.867 1524.33 641.333 1524.33C640.933 1524.33 638.133 1522.73 634.933 1520.73C631.867 1518.73 628.133 1516.33 626.533 1515.53C609.733 1506.47 605.067 1503.8 603.333 1502.33C602.267 1501.53 598.667 1499.4 595.333 1497.8C587.467 1493.8 584 1491.93 581.867 1490.07C580.8 1489.4 577.333 1487.27 574 1485.4C570.667 1483.53 563.333 1479.4 557.6 1476.2C551.867 1473 544.4 1468.87 540.933 1467C537.467 1465.13 532.267 1462.07 529.333 1460.2C526.4 1458.33 523.067 1456.33 522 1455.8C520.933 1455.27 518.8 1454.2 517.333 1453.27C515.867 1452.33 509.867 1449 504 1445.8C498.133 1442.47 487.467 1436.33 480.267 1432.07C473.2 1427.8 466.933 1424.33 466.667 1424.33C466.267 1424.33 463.467 1422.73 460.267 1420.73C457.2 1418.73 451.067 1415.27 446.667 1413C442.267 1410.6 434.8 1406.33 430 1403.4C425.2 1400.47 417.2 1395.8 412 1393C406.933 1390.2 400.267 1386.47 397.333 1384.73C394.4 1383.13 391.067 1381.27 390 1380.73C388.933 1380.2 382.267 1376.47 375.333 1372.33C362.667 1364.73 353.867 1359.8 344 1354.47C341.067 1352.87 336.133 1349.93 333.067 1347.93C329.867 1345.93 327.067 1344.33 326.667 1344.33C326.267 1344.33 323.467 1342.73 320.267 1340.73C317.2 1338.73 312.267 1335.8 309.333 1334.2C298.533 1328.47 290.4 1323.8 281.333 1318.33C276.267 1315.27 271.067 1312.33 270 1311.93C268.933 1311.4 266.267 1309.8 264 1308.47C261.867 1307 257.333 1304.47 254 1302.87C250.667 1301.13 240.8 1295.53 232 1290.33C223.2 1285.13 215.067 1280.33 214 1279.93C212.933 1279.4 210.267 1277.93 208 1276.6C205.867 1275.27 200.133 1271.93 195.333 1269.4C190.533 1266.73 182.133 1261.93 176.667 1258.73C166.8 1252.87 158.4 1248.07 148 1242.33C130.4 1232.73 129.2 1230.6 138.4 1225.8C141.467 1224.2 144.933 1222.33 146 1221.67C152.533 1217.53 187.467 1197.53 197.333 1192.33C198.8 1191.53 201.2 1190.2 202.667 1189.27C204.133 1188.33 210.4 1184.73 216.667 1181.27C222.933 1177.67 229.867 1173.8 232 1172.47C234.267 1171.13 240 1167.93 245.067 1165.27C250 1162.47 258.667 1157.53 264.4 1154.2C270 1150.73 278.533 1145.93 283.333 1143.27C288.133 1140.73 293.867 1137.4 296 1136.07C298.267 1134.73 301.2 1133.13 302.8 1132.47C304.267 1131.8 309.6 1128.73 314.533 1125.8C319.333 1122.73 323.6 1120.33 323.867 1120.33C324.267 1120.33 328.8 1117.8 334.267 1114.6C339.6 1111.4 344.933 1108.33 346 1107.8C347.067 1107.27 349.2 1106.2 350.667 1105.27C357.067 1101.4 378.267 1089.67 378.8 1089.67C378.933 1089.67 380.8 1090.47 382.8 1091.4Z" fill="black"/>
<path d="M283.867 792.2C277.734 793.8 269.467 800.2 264.8 807C261.067 812.466 260.667 814.066 260.667 823.133C260.667 831.8 261.2 833.933 264.4 839.133C268.934 846.2 275.334 851.266 282.667 853.4C290.667 855.8 291.334 855.8 300 853.666C306.4 852.2 309.2 850.6 314.134 845.666C320.267 839.533 324.667 830.066 324.667 823.133C324.667 813.666 315.867 799.4 307.334 795C301.467 791.933 289.867 790.6 283.867 792.2Z" fill="black"/>
<path d="M1464 792.067C1456.53 793.8 1449.33 798.734 1444.8 805.534C1440.67 811.667 1440.27 813.134 1440.27 822.6C1440.27 831.267 1440.8 833.934 1443.6 839C1447.33 845.934 1454.27 850.867 1464.27 853.934C1470.8 855.934 1471.73 855.934 1480.27 853.267C1492.4 849.534 1499.47 842.467 1502.4 830.867C1504.27 823.534 1504.27 822.067 1502.4 815.8C1499.47 805.8 1496.8 802.067 1489.33 797C1482.27 792.334 1472 790.334 1464 792.067Z" fill="black"/>
<path d="M382 891.134C374.8 893.134 372.4 894.467 367.333 899.934C362.533 905.134 360.933 908.067 359.467 914.734C357.867 922.2 357.867 923.934 359.867 929.8C362.667 938.6 366.133 943.4 373.733 948.6C379.2 952.334 380.8 952.867 389.867 952.867C401.733 953 406.533 950.6 415.2 940.867C419.467 936.067 420.667 933.4 421.333 927.667C423.733 908.734 415.467 895.534 398 890.734C391.333 888.867 390 888.867 382 891.134Z" fill="black"/>
<path d="M579.2 890.867C570.4 893.401 563.467 898.334 559.2 905.267C556.667 909.401 556.133 912.067 556 921.667C556 933.134 556 933.267 561.2 939.534C564 943.001 568.667 947.401 571.6 949.401C576.133 952.334 578.267 952.867 587.333 952.867C596.4 952.867 598.533 952.334 603.067 949.267C610.533 944.334 615.067 937.934 617.467 928.867C618.933 923.134 619.067 920.201 618 917.267C617.333 915.001 616.667 911.801 616.667 910.067C616.667 905.934 604.533 893.001 599.6 891.801C597.6 891.401 593.867 890.467 591.333 889.934C588.133 889.134 584.4 889.401 579.2 890.867Z" fill="black"/>
<path d="M1168.67 891C1159.33 893.533 1155.47 896.2 1149.87 904.067C1145.6 909.933 1145.33 911 1145.33 921C1145.33 930.733 1145.73 932.333 1149.6 938.333C1152.13 942.2 1156.53 946.6 1160.13 948.867C1165.47 952.2 1167.6 952.733 1175.87 952.733C1186.93 952.733 1193.87 949.8 1200.27 942.6C1217.2 923.267 1206.53 894.2 1180.8 889.8C1178 889.267 1172.93 889.8 1168.67 891Z" fill="black"/>
<path d="M1362 891.533C1350 897.267 1343.47 905.267 1341.33 916.6C1339.2 928.2 1346.27 942.6 1357.47 949.133C1362.67 952.2 1365.2 952.733 1373.47 952.733C1382.4 952.733 1383.87 952.333 1390.4 947.933C1408.27 936.2 1409.87 910.2 1393.73 897.4C1390.53 894.867 1385.87 892.2 1383.2 891.267C1377.33 889.267 1366.4 889.4 1362 891.533Z" fill="black"/>
<path d="M1269.47 988.066C1262.93 988.6 1251.6 995.933 1248 1001.93C1241.47 1012.73 1241.87 1027.67 1248.93 1038.6C1252.8 1044.47 1262.93 1050.47 1271.6 1051.93C1277.47 1052.87 1288.93 1049.27 1294.93 1044.6C1304 1037.8 1308.67 1024.33 1305.87 1012.87C1301.73 995.533 1288.53 986.6 1269.47 988.066Z" fill="black"/>
<path d="M472.533 992.2C469.333 994.334 465.6 997.4 464.133 999C450 1016.33 456.8 1041.13 478.266 1049.8C485.6 1052.87 489.333 1052.87 497.866 1050.07C525.2 1041.27 528.933 1006.2 503.866 991.534C499.466 988.867 496.533 988.334 488.533 988.334C479.733 988.334 477.733 988.867 472.533 992.2Z" fill="black"/>
<path d="M668.401 992.334C661.067 996.867 654.534 1007.13 653.201 1015.93C651.201 1029.8 661.467 1045.53 675.334 1050.07C684.001 1052.87 686.001 1052.87 694.934 1050.07C708.534 1045.8 716.667 1034.33 716.667 1019.67C716.667 1009.53 714.001 1003.27 707.067 996.867C698.667 989.134 696.801 988.334 685.334 988.334C675.867 988.334 674.001 988.867 668.401 992.334Z" fill="black"/>
<path d="M1061.33 992.6C1057.73 995 1054.13 998.333 1053.33 999.8C1052.53 1001.4 1051.2 1003.53 1050.4 1004.6C1046.93 1008.73 1045.6 1018.73 1047.33 1027.27C1048.8 1033.93 1050.13 1036.33 1055.33 1041.53C1062.67 1048.87 1073.6 1053.13 1081.47 1051.93C1090.8 1050.33 1099.6 1044.87 1104.67 1037.67C1108.93 1031.13 1109.2 1030.2 1109.07 1019.53C1109.07 1009.13 1108.67 1007.67 1105.2 1002.6C1103.07 999.533 1098.67 995.133 1095.47 992.733C1090.13 988.6 1089.2 988.333 1078.93 988.333C1068.8 988.333 1067.47 988.733 1061.33 992.6Z" fill="black"/>
<path d="M774.266 1087.67C766.8 1089.93 760.133 1095.27 755.733 1102.07C752.666 1107 752.133 1109 752.266 1118.33C752.266 1127.53 752.8 1129.67 755.733 1134.07C757.6 1136.87 762 1141.4 765.466 1143.93C771.466 1148.6 772.133 1148.73 783.2 1148.87C792.933 1148.87 795.466 1148.47 799.6 1145.93C806.533 1141.67 812 1134.2 814.4 1125.67C816.4 1118.6 816.4 1117.8 814 1109.4C810.266 1097.4 803.333 1090.6 791.333 1087.4C783.733 1085.4 781.466 1085.4 774.266 1087.67Z" fill="black"/>
<path d="M971.067 1087.53C968.4 1088.33 965.334 1089.8 964.4 1090.73C963.6 1091.53 962.134 1092.33 961.334 1092.33C959.334 1092.33 955.2 1097.13 951.6 1103.4C949.334 1107.27 948.667 1110.73 948.667 1117.8C948.667 1130.47 952.134 1136.87 963.6 1145.53C964.8 1146.47 969.067 1147.93 972.934 1148.87C988.267 1152.33 1003.6 1144.2 1010.13 1129.27C1017.07 1112.73 1007.33 1093 989.6 1087.8C981.2 1085.4 978 1085.27 971.067 1087.53Z" fill="black"/>
<path d="M869.334 1186.6C856.4 1193.53 850.667 1202.6 850.667 1216.33C850.667 1234.6 863.734 1248.33 881.334 1248.33C890.134 1248.33 895.734 1246.2 902.534 1240.33C910.134 1233.53 912.8 1227.13 912.934 1215.53C912.934 1206.87 912.4 1204.73 909.467 1200.2C904.8 1193.27 900.4 1189.53 893.6 1186.73C886.4 1183.8 874.534 1183.8 869.334 1186.6Z" fill="black"/>
</svg>
