<?xml version="1.0" standalone="no"?>
<!DOCTYPE svg PUBLIC "-//W3C//DTD SVG 20010904//EN"
 "http://www.w3.org/TR/2001/REC-SVG-20010904/DTD/svg10.dtd">
<svg version="1.0" xmlns="http://www.w3.org/2000/svg"
 width="900.000000pt" height="633.000000pt" viewBox="0 0 900.000000 633.000000"
 preserveAspectRatio="xMidYMid meet">
<metadata>
Created by potrace 1.10, written by Peter Selinger 2001-2011
</metadata>
<g transform="translate(0.000000,633.000000) scale(0.100000,-0.100000)"
fill="#000000" stroke="none">
<path d="M4154 4163 c-54 -39 -119 -73 -137 -73 -8 0 -20 -7 -27 -15 -11 -13
-52 -38 -170 -103 -25 -13 -52 -30 -60 -36 -24 -19 -97 -56 -109 -56 -6 0 -33
-15 -60 -34 -27 -19 -71 -47 -98 -61 -26 -15 -61 -35 -78 -45 -16 -10 -64 -36
-105 -58 -41 -21 -115 -64 -165 -94 -49 -30 -97 -57 -105 -61 -8 -5 -24 -13
-35 -20 -79 -47 -113 -65 -135 -72 -14 -4 -27 -11 -30 -15 -11 -16 -208 -127
-249 -140 -24 -8 -45 -20 -48 -27 -7 -17 25 -53 45 -53 12 0 45 -17 183 -96
10 -6 27 -18 37 -27 10 -10 27 -17 36 -17 10 0 55 -22 100 -49 44 -26 100 -56
123 -67 72 -30 68 -70 -9 -94 -24 -8 -52 -19 -63 -26 -11 -7 -30 -15 -43 -19
-13 -4 -49 -24 -81 -45 -33 -22 -76 -49 -97 -60 -22 -12 -52 -30 -69 -40 -38
-25 -94 -50 -109 -50 -19 0 -56 -30 -56 -45 0 -8 41 -34 95 -59 52 -25 95 -50
95 -55 0 -6 9 -11 19 -11 11 0 26 -8 33 -18 7 -11 20 -19 29 -19 9 0 54 -22
100 -50 46 -27 110 -60 141 -73 84 -34 88 -78 8 -97 -14 -3 -32 -11 -40 -18
-8 -7 -26 -16 -40 -20 -14 -4 -56 -27 -95 -51 -38 -23 -82 -47 -97 -53 -16 -6
-28 -15 -28 -20 0 -5 -15 -15 -34 -21 -19 -6 -45 -19 -58 -29 -13 -10 -34 -21
-48 -25 -40 -12 -90 -40 -90 -51 0 -6 15 -18 33 -26 17 -9 67 -33 109 -54 42
-20 79 -43 82 -51 3 -8 12 -14 21 -14 8 0 57 -25 108 -56 50 -30 101 -60 112
-66 11 -6 58 -33 104 -60 46 -26 85 -48 87 -48 2 0 47 -26 101 -58 54 -33 157
-92 228 -132 127 -72 229 -130 412 -236 50 -30 94 -54 96 -54 3 0 45 -27 93
-59 l88 -59 36 27 c38 30 201 129 302 184 87 47 126 69 258 146 63 37 147 85
185 107 39 21 78 43 87 49 9 5 29 17 45 26 48 26 383 219 417 240 17 10 38 22
46 26 8 3 32 17 53 30 64 40 166 93 179 93 7 1 26 11 42 24 l28 24 -28 16
c-16 9 -69 37 -119 61 -49 25 -117 61 -150 81 -112 67 -191 109 -257 138 -60
25 -47 54 42 91 25 11 63 31 85 45 22 14 69 41 105 60 36 18 76 41 90 51 14 9
67 38 118 63 70 36 92 51 92 67 0 11 -8 22 -17 26 -55 18 -141 62 -257 132
-136 81 -222 125 -269 136 -58 15 -44 47 37 86 33 16 81 40 106 54 25 15 65
37 90 51 25 13 63 35 85 49 22 13 81 45 132 70 50 25 94 52 97 61 6 15 -46 54
-73 54 -8 0 -35 13 -60 28 -25 16 -53 31 -61 35 -8 4 -35 20 -60 36 -25 16
-81 48 -125 71 -44 23 -87 47 -95 53 -16 12 -24 17 -106 62 -27 14 -69 39 -94
55 -25 16 -69 40 -98 54 -54 26 -254 143 -303 177 -15 10 -39 21 -53 25 -14 3
-30 12 -37 20 -6 8 -18 14 -25 14 -8 0 -33 14 -56 30 -22 17 -45 30 -49 30 -4
0 -27 13 -51 29 -45 30 -177 104 -216 121 -13 6 -38 21 -56 35 -41 31 -44 31
-92 -2z m96 -123 c21 -16 41 -30 45 -30 3 0 21 -11 38 -24 18 -13 62 -38 100
-55 37 -17 67 -36 67 -41 0 -6 5 -10 12 -10 6 0 48 -21 92 -47 44 -27 90 -53
101 -60 11 -6 40 -22 65 -35 25 -13 106 -59 180 -103 74 -43 158 -91 185 -106
58 -31 153 -85 175 -99 8 -5 37 -21 63 -35 26 -14 71 -41 100 -59 29 -18 63
-36 77 -40 48 -14 91 -41 88 -56 -2 -8 -30 -28 -63 -45 -47 -23 -329 -182
-427 -240 -9 -5 -34 -20 -55 -31 -21 -12 -114 -66 -208 -119 -93 -54 -240
-137 -325 -185 -201 -114 -269 -154 -302 -179 -33 -26 -85 -27 -112 -2 -12 11
-43 31 -71 46 -27 15 -57 34 -66 41 -8 8 -19 14 -22 14 -4 0 -26 12 -50 27
-23 14 -69 40 -102 58 -95 50 -177 97 -210 120 -16 12 -59 36 -95 54 -36 18
-78 41 -95 52 -16 10 -40 23 -52 28 -12 6 -46 25 -75 43 -29 19 -62 39 -73 46
-11 7 -43 24 -72 38 -28 13 -57 31 -63 39 -7 8 -17 15 -23 15 -6 0 -65 31
-131 69 -67 37 -133 71 -147 74 -63 16 -30 79 49 93 20 4 39 10 42 14 8 11
145 90 157 90 5 0 18 9 28 20 10 11 23 20 28 20 6 0 18 6 26 14 9 7 60 37 114
65 54 28 123 67 153 86 30 19 60 35 66 35 6 0 20 7 30 16 17 16 55 38 143 84
22 11 49 26 60 33 72 44 189 107 199 107 6 0 17 9 24 20 7 11 19 20 27 20 15
0 154 80 215 124 19 14 39 25 44 26 4 0 25 -13 46 -30z m982 -1230 c22 -16 45
-30 50 -30 5 0 35 -17 66 -38 88 -60 172 -107 227 -127 28 -11 53 -23 56 -28
14 -20 -5 -44 -51 -66 -50 -24 -78 -22 -100 4 -30 36 -82 -8 -78 -64 3 -32 -1
-37 -42 -59 -41 -22 -117 -66 -400 -229 -52 -31 -107 -64 -122 -74 -44 -31
-68 -21 -68 29 0 20 -29 52 -48 52 -49 0 -69 -76 -31 -117 27 -28 16 -44 -49
-73 -52 -23 -65 -24 -93 -7 -18 10 -23 9 -40 -12 -10 -13 -19 -31 -19 -41 0
-10 -7 -24 -16 -31 -21 -18 -99 -64 -140 -83 -17 -7 -51 -28 -75 -45 -49 -36
-73 -35 -126 5 -17 13 -34 24 -37 24 -14 0 -225 135 -253 162 -17 17 -38 28
-46 25 -18 -7 -116 42 -131 65 -7 12 -6 23 3 41 11 20 10 29 -3 56 -21 40 -51
41 -74 1 -22 -39 -48 -47 -81 -23 -14 10 -51 32 -81 47 -30 16 -100 56 -155
90 -55 34 -109 67 -120 74 -11 7 -29 16 -40 21 -12 5 -27 16 -34 25 -7 9 -21
16 -31 16 -10 0 -23 7 -30 15 -7 8 -19 15 -28 15 -23 0 -52 30 -52 55 0 35
-26 51 -61 38 -55 -21 -128 20 -112 63 2 7 25 20 51 29 26 10 117 60 203 111
86 52 163 94 171 94 7 0 24 -7 36 -16 20 -13 28 -14 53 -3 27 11 33 9 57 -9
15 -12 42 -28 60 -36 34 -16 44 -52 17 -62 -31 -12 -38 -44 -19 -80 14 -26 25
-34 45 -34 24 0 29 6 40 51 7 28 19 54 26 56 7 3 32 -10 56 -29 23 -19 53 -38
67 -41 14 -4 70 -36 125 -72 55 -36 105 -65 112 -65 6 0 24 -11 40 -24 15 -13
62 -40 103 -61 97 -48 110 -60 110 -103 0 -36 31 -82 55 -82 17 0 45 34 50 60
5 24 32 60 46 60 13 0 262 141 334 189 78 53 218 131 235 131 6 0 20 -16 31
-35 26 -44 51 -45 80 -3 22 30 22 32 6 60 -22 39 -21 45 6 54 12 4 38 17 57
30 19 13 44 24 55 24 12 0 34 14 50 30 16 17 37 30 47 30 10 0 37 -13 60 -30z
m-1933 -674 c49 -35 147 -93 311 -183 19 -10 53 -30 75 -44 22 -13 49 -30 60
-36 11 -7 59 -35 106 -62 48 -28 89 -51 92 -51 3 0 26 -13 50 -30 25 -16 48
-30 51 -30 4 0 38 -20 76 -45 38 -25 74 -45 80 -45 6 0 66 33 133 74 67 40
134 80 149 87 24 12 252 145 299 174 9 6 47 27 85 47 38 21 87 49 109 63 22
14 49 30 60 35 33 18 59 34 93 59 39 27 30 30 167 -55 50 -31 146 -86 215
-121 69 -36 129 -68 133 -73 10 -9 -33 -40 -93 -65 -25 -10 -52 -25 -61 -32
-8 -7 -18 -13 -22 -13 -4 0 -47 -24 -97 -52 -50 -29 -112 -65 -138 -79 -26
-15 -63 -36 -82 -48 -19 -11 -49 -28 -66 -35 -17 -8 -66 -37 -110 -64 -43 -26
-86 -52 -94 -56 -8 -4 -24 -12 -35 -19 -11 -7 -56 -32 -100 -57 -44 -24 -136
-77 -204 -117 -67 -40 -125 -73 -127 -73 -3 0 -49 -27 -104 -60 -55 -33 -104
-60 -110 -60 -6 0 -30 13 -53 28 -23 16 -85 53 -137 82 -202 113 -305 172
-407 232 -45 26 -85 48 -88 48 -4 0 -25 13 -48 28 -45 31 -313 182 -323 182
-3 0 -20 11 -37 24 -18 13 -99 59 -182 101 -141 72 -185 99 -174 108 2 3 38
21 79 40 41 20 82 41 90 46 8 6 40 22 70 36 61 29 185 106 209 130 23 23 49
18 100 -19z"/>
<path d="M3046 2695 c-27 -20 -27 -79 0 -106 23 -23 46 -18 67 14 28 43 29 64
6 86 -27 25 -47 26 -73 6z"/>
<path d="M5227 2692 c-24 -26 -21 -65 6 -90 28 -26 45 -27 75 -6 28 19 30 74
4 97 -24 22 -65 21 -85 -1z"/>
<path d="M3218 2523 c-31 -37 -29 -82 6 -105 38 -26 96 8 96 57 0 55 -68 87
-102 48z"/>
<path d="M3582 2517 c-26 -27 -27 -47 -7 -87 29 -57 105 -32 105 34 0 59 -62
92 -98 53z"/>
<path d="M5045 2520 c-28 -31 -24 -79 9 -107 15 -12 31 -23 35 -23 20 0 60 43
66 71 14 62 -68 105 -110 59z"/>
<path d="M4693 2513 c-32 -21 -31 -72 1 -102 30 -28 55 -22 79 18 24 40 21 66
-8 85 -30 20 -43 20 -72 -1z"/>
<path d="M3407 2348 c-9 -7 -19 -25 -22 -40 -5 -21 -1 -33 19 -52 30 -31 57
-33 79 -8 49 54 -19 143 -76 100z"/>
<path d="M3761 2331 c-12 -16 -21 -37 -21 -48 0 -21 45 -73 63 -73 23 1 64 45
70 76 5 26 1 34 -23 53 -40 29 -65 27 -89 -8z"/>
<path d="M4501 2337 c-31 -34 -26 -83 12 -110 l27 -21 28 21 c41 31 50 67 25
101 -27 36 -62 40 -92 9z"/>
<path d="M4861 2334 c-27 -35 -26 -59 3 -89 27 -27 52 -25 85 6 28 26 27 60
-2 87 -31 29 -61 28 -86 -4z"/>
<path d="M3945 2153 c-22 -33 -22 -68 0 -93 30 -34 54 -35 86 -4 37 36 38 75
3 103 -36 29 -68 27 -89 -6z"/>
<path d="M4315 2160 c-27 -30 -25 -88 4 -111 30 -24 42 -24 75 2 34 27 36 77
3 107 -29 28 -58 28 -82 2z"/>
<path d="M4131 1974 c-29 -37 -27 -78 4 -98 33 -21 57 -20 83 4 29 27 28 61
-3 94 -31 33 -58 33 -84 0z"/>
</g>
</svg>
