<svg width="1694" height="1599" viewBox="0 0 1694 1599" fill="none" xmlns="http://www.w3.org/2000/svg">
<path d="M1011.73 2.66681C965.734 10.4001 924 41.4668 899.734 86.0001C892.267 99.6001 887.334 114.667 880.534 144.667C878.267 155.067 875.867 164.533 872.667 176C869.734 186.533 854.667 232.8 852.534 238C851.334 240.533 849.734 244.4 848.667 246.667C847.734 248.8 845.6 254 844 258C838.4 271.733 826.267 296.933 818.667 310.667C816.267 315.067 812.534 321.867 810.267 325.867C790.8 361.333 761.6 402.933 729.467 441.2C713.6 460.134 670.4 504.8 650 523.467C633.067 538.934 585.467 577.734 573.334 586C570.8 587.734 563.467 592.934 557.2 597.6C550.8 602.267 544.667 606 543.467 606C541.6 606 541.334 604.134 541.334 593.334C541.334 554 533.734 528.267 514.667 503.467C497.734 481.334 476 466.667 448.667 459.067L438 456.134L274.4 455.734C116 455.334 110.4 455.334 98.8002 457.867C74.5336 463.2 56.0002 473.067 37.6002 490.534C18.2669 508.934 6.13358 532.8 1.46691 562.134C0.400241 568.267 0.000241437 708.667 0.000241437 1026.8C0.000241437 1510.93 -0.133092 1492.27 5.86691 1511.73C8.13358 1518.93 16.2669 1535.47 21.8669 1544.67C24.0002 1548 31.2002 1556 37.8669 1562.67C56.0002 1580.53 76.5336 1591.2 101.6 1596C117.2 1598.93 423.734 1599.07 439.2 1596.13C492.934 1585.73 534.934 1540.93 539.467 1488.8C540.4 1477.73 541.734 1474 544.667 1474C545.734 1474 562.667 1479.47 582.267 1486C601.867 1492.67 619.867 1498.67 622 1499.33C628 1501.07 670.667 1515.2 676 1517.2C684.134 1520.27 689.867 1522.27 694 1523.33C696.267 1524 700.667 1525.6 704 1526.93C709.734 1529.2 725.734 1529.33 1071.33 1529.73C1432.93 1530.13 1463.6 1529.87 1474.67 1525.73C1476.53 1525.07 1480.4 1524 1483.33 1523.33C1497.87 1520.4 1520.27 1509.2 1536 1497.2C1557.47 1480.93 1579.2 1452.53 1587.47 1430C1593.73 1412.53 1598.67 1387.07 1598.67 1371.47C1598.67 1350.4 1591.6 1320.93 1582.13 1302.13C1576.8 1291.47 1569.07 1279.2 1566.13 1276.8C1562.27 1273.6 1563.87 1270.67 1573.47 1262.67C1603.47 1237.6 1621.2 1205.87 1628.13 1164.67C1631.33 1145.33 1631.33 1138.4 1628 1119.33C1623.87 1095.87 1619.47 1082.13 1610 1065.2C1607.47 1060.4 1605.33 1055.73 1605.33 1054.8C1605.33 1053.87 1611.07 1049.6 1618 1045.47C1632.67 1036.67 1657.47 1013.33 1665.87 1000.27C1675.07 986 1684.27 966 1686.53 955.2C1687.07 952.667 1688 949.734 1688.53 948.8C1690 946.534 1693.33 920.134 1693.33 911.2C1693.33 901.867 1689.73 875.867 1688 872.667C1687.2 871.334 1686.67 868.934 1686.67 867.467C1686.67 866 1685.73 862.534 1684.53 859.734C1672.27 831.734 1664.8 819.467 1650.27 803.867C1639.87 792.667 1622.53 779.2 1611.47 773.6C1603.07 769.334 1603.07 770.534 1611.47 754.667C1620.67 737.2 1624.93 724 1628.67 700.134C1631.2 684.4 1630.93 674.667 1627.33 655.067C1623.87 635.6 1620.27 624.667 1611.87 608.534C1594.27 574.8 1567.33 550.667 1528 533.734C1520.53 530.4 1501.73 526.134 1488.67 524.667C1481.07 523.867 1402 523.334 1275.07 523.334C1164.27 523.334 1073.2 522.8 1072.8 522.267C1072.4 521.6 1075.07 515.2 1078.8 507.867C1084.8 495.867 1095.33 473.6 1104.67 453.467C1109.87 442 1121.07 416.133 1124.93 406C1126.8 401.2 1129.47 394.267 1130.93 390.667C1132.4 386.933 1134 382.533 1134.67 380.667C1135.33 378.8 1137.07 374 1138.67 370C1147.07 348.267 1162.13 295.6 1166.27 274C1166.53 272.133 1167.6 266.8 1168.67 262C1175.33 230.133 1178.13 186 1175.2 155.333C1173.2 132.933 1168.8 111.333 1164.53 101.067C1163.47 98.8001 1162.67 96.1335 1162.67 95.2001C1162.67 91.6001 1147.73 63.4668 1141.07 54.6668C1130.8 41.0668 1125.87 36.0001 1114.67 27.3335C1085.2 4.80014 1049.6 -3.73319 1011.73 2.66681ZM1048 51.2001C1059.07 52.6668 1073.33 58.4001 1082.13 64.8001C1090 70.6668 1102.93 84.4001 1106 90.4001C1107.2 92.8001 1109.47 97.0668 1111.2 100.133C1112.8 103.067 1115.87 110.8 1117.87 117.2C1132.53 162.933 1129.07 229.867 1108.4 302C1099.6 332.8 1085.87 372.533 1076.67 393.333C1075.73 395.467 1071.87 404.8 1068 414C1057.2 439.734 1035.2 485.2 1013.2 527.067C1007.2 538.667 1005.33 543.467 1005.33 547.734C1005.47 555.467 1009.33 563.334 1015.47 568L1020.67 572L1253.33 572.8C1402.27 573.334 1488.13 574 1492 574.934C1509.73 578.934 1521.87 584 1534.67 593.067C1566.4 615.2 1585.07 656.4 1580 692.8C1576.93 714.134 1571.2 728.8 1559.33 745.067C1553.73 752.8 1551.2 755.2 1547.87 755.867C1545.6 756.267 1466.93 756.667 1373.07 756.667C1232.93 756.667 1201.87 756.934 1198.27 758.534C1192.53 760.934 1185.73 768.8 1184 775.2C1180.93 786.534 1187.33 798.534 1199.33 804.134C1200.93 804.8 1275.73 805.6 1384 806L1566 806.667L1574.53 810.4C1586.4 815.467 1599.33 823.334 1607.73 830.934C1614.4 836.8 1625.07 849.467 1627.07 854C1627.6 855.067 1629.33 858.134 1630.93 860.667C1635.73 868.534 1641.2 886 1642.8 898C1647.6 936.667 1630.93 975.334 1599.33 998.8C1592 1004.27 1579.6 1010.53 1569.73 1013.87C1561.47 1016.67 1560.27 1016.67 1387.07 1016.67C1284.53 1016.67 1209.47 1017.2 1205.07 1018C1196.4 1019.33 1192.67 1021.73 1187.33 1029.07C1184.4 1033.07 1183.6 1035.87 1183.6 1041.2C1183.47 1052.27 1188.27 1059.47 1199.33 1064.67C1204.53 1067.2 1210.13 1067.33 1377.73 1067.33H1550.8L1554 1070.8C1572.8 1091.07 1583.73 1126 1580 1153.6C1576.4 1180.53 1567.73 1198.13 1549.33 1216.8C1542.27 1224 1532.8 1231.87 1528 1234.8L1519.33 1240L1360.67 1240.67C1202.93 1241.33 1202 1241.33 1196.67 1244.13C1190.67 1247.33 1184.53 1255.2 1183.33 1261.6C1181.47 1271.87 1189.73 1285.47 1199.73 1288.4C1203.6 1289.6 1244.93 1290 1357.6 1290H1510.27L1514.13 1292.93C1525.2 1301.73 1537.2 1319.73 1543.2 1336.67C1546.27 1345.33 1549.33 1362.67 1549.33 1372C1549.33 1381.33 1546.27 1398.67 1543.2 1407.33C1533.47 1434.8 1509.87 1460.13 1483.73 1470.93C1468.4 1477.33 1465.6 1478 1449.33 1479.33C1439.2 1480.27 1312.53 1480.67 1075.33 1480.4L716.667 1480L701.334 1474.27C692.934 1471.07 684.267 1468 682 1467.33C677.334 1466 599.867 1440.13 594 1438C591.867 1437.2 579.867 1433.07 567.334 1428.8C554.934 1424.67 543.867 1420.8 543.067 1420.27C541.734 1419.33 541.334 1342.8 541.334 1044.27C541.334 838 541.867 668.667 542.4 667.867C542.934 667.067 552.934 659.867 564.667 652C690.8 566.8 788.667 464.267 854.8 348C867.467 325.733 889.467 279.2 897.334 258C898.267 255.467 899.734 251.467 900.667 249.333C902.934 243.867 906 235.6 907.867 230C910.267 223.067 914.534 209.867 916 205.333C917.2 201.333 929.067 153.867 931.867 141.333C935.467 125.733 939.6 115.067 946.534 103.467C968.8 66.1335 1007.87 46.0001 1048 51.2001ZM434.8 506.267C450.8 510.667 466.534 521.067 475.734 533.067C482.4 541.734 484.267 545.6 487.867 557.2L490.667 566.267V1027.2C490.667 1476 490.534 1488.4 488.134 1495.6C483.467 1509.33 478.4 1517.73 470 1526.13C460.267 1535.73 454.934 1539.33 442 1544.27L432.667 1548H270.667C115.067 1548 108.4 1547.87 101.467 1545.47C74.9336 1536.27 54.6669 1512.8 50.6669 1486.67C49.7336 1480.13 49.3336 1339.07 49.6002 1020.67L50.0002 564L52.9336 555.867C56.4002 545.867 57.7336 543.6 65.2002 533.6C77.3336 517.334 94.5336 507.867 118.667 504.134C120.534 503.867 190.667 503.734 274.667 503.867C408.8 504.134 428.267 504.4 434.8 506.267Z" fill="black"/>
<path d="M250.667 1283.2C245.067 1284.27 241.467 1285.33 227.867 1290.27C213.6 1295.47 191.2 1312.93 180.934 1327.07C174.8 1335.47 167.467 1349.2 164.934 1357.33C162 1366.67 158.667 1385.07 158.667 1392.53C158.667 1401.07 162.267 1420.93 165.6 1430.53C176.8 1462.93 206.4 1490.93 239.2 1500.13C258.8 1505.73 285.067 1505.47 301.734 1499.73C307.067 1498 312.534 1496.13 314 1495.73C321.067 1493.47 339.467 1481.07 347.6 1472.93C365.867 1454.8 376.4 1433.87 380.667 1407.6C382.934 1393.2 382.934 1391.87 380.8 1378.93C379.6 1371.47 377.467 1362.27 376.267 1358.67C364.8 1324.13 337.334 1297.6 301.334 1286C291.6 1282.93 261.467 1281.2 250.667 1283.2ZM286.8 1333.47C298.4 1336.93 306.8 1341.87 314.667 1349.87C335.6 1371.33 338.4 1403.87 321.6 1428C312 1441.6 300.267 1449.73 285.2 1453.33C249.334 1461.73 215.867 1439.2 209.334 1402.27C204.134 1373.33 223.867 1342 252.534 1333.87C262.934 1330.93 277.467 1330.67 286.8 1333.47Z" fill="black"/>
</svg>
