<svg width="1799" height="1802" viewBox="0 0 1799 1802" fill="none" xmlns="http://www.w3.org/2000/svg">
<path d="M1528.4 1.59932C1528.53 2.66598 1526 3.73265 1521.33 4.39932C1491.2 9.06598 1457.47 21.466 1431.33 37.7327C1402 55.9993 1370.67 87.866 1353.2 117.333C1329.87 156.533 1319.47 193.466 1319.47 237.333C1319.33 262.133 1320.53 270.399 1327.47 293.333C1347.07 358.399 1404.27 454.799 1482.4 554.533C1484.4 557.066 1489.33 563.466 1493.33 568.799C1497.33 573.999 1505.73 584.533 1511.87 592.133C1539.47 626.133 1545.07 630.666 1558.67 630.666C1572.27 630.666 1577.87 626.133 1605.47 592.133C1611.6 584.533 1621.2 572.533 1626.67 565.333C1632.13 558.266 1642.13 545.199 1648.93 536.533C1675.33 502.133 1709.87 451.733 1731.2 416.266C1737.47 405.733 1742.67 396.933 1742.67 396.533C1742.67 396.266 1744.13 393.466 1746 390.533C1752 381.199 1769.2 346.666 1776 330.666C1785.6 307.866 1792.13 287.066 1796.53 264.933C1803.47 230.666 1793.73 175.466 1773.87 135.333C1738.93 65.1993 1672.4 16.1327 1596 4.39932C1591.33 3.73265 1588.8 2.66598 1589.07 1.59932C1589.2 0.399316 1582.13 -0.000683933 1558.67 -0.000683933C1535.2 -0.000683933 1528.13 0.399316 1528.4 1.59932ZM1586.67 63.9993C1594.4 65.3327 1605.87 67.9993 1612.27 69.866C1662.53 84.5327 1708 127.599 1726.8 177.866C1733.47 195.733 1738.67 222.933 1738.67 239.733C1738.67 254.933 1734.13 274.266 1724.4 299.333C1718.13 315.466 1700 351.733 1690 367.999C1688.4 370.533 1686.67 373.599 1686.27 374.666C1685.73 375.733 1684.27 378.266 1682.93 380.266C1681.73 382.266 1678 388.266 1674.8 393.599C1669.07 402.933 1647.6 435.066 1631.2 458.666C1621.2 473.066 1580.93 526.666 1569.47 540.666C1564.8 546.533 1559.87 551.333 1558.53 551.333C1552.27 551.333 1471.33 440.933 1440.53 390.266C1422.93 361.333 1417.47 351.599 1408.93 333.999C1391.2 297.999 1385.87 284.133 1381.07 261.599C1376.4 239.066 1379.87 206.666 1390 178.666C1402.93 142.933 1432.93 106.933 1466 87.466C1480.93 78.666 1480.4 78.9327 1493.07 74.1327C1524.93 62.1327 1557.33 58.5327 1586.67 63.9993Z" fill="black"/>
<path d="M1538 123.867C1492.8 135.467 1463.6 177.333 1469.47 222.133C1471.87 240.933 1479.73 258.133 1491.87 271.067C1505.2 285.333 1521.33 294.933 1539.73 299.333C1550.93 302.133 1572.4 301.467 1582.8 298.267C1613.2 288.533 1634.4 267.733 1644.8 237.333C1648.4 226.8 1648.4 195.867 1644.8 185.333C1635.73 158.933 1619.2 140 1596.27 129.733C1577.87 121.6 1556 119.333 1538 123.867ZM1569.47 183.867C1582.27 189.6 1588.93 200.667 1587.73 214.4C1586.8 223.6 1583.07 230.4 1576.27 235.067C1564 243.6 1553.33 243.6 1541.07 235.067C1535.07 230.933 1531.47 225.067 1529.6 216.8C1524.8 194.267 1548.67 174.667 1569.47 183.867Z" fill="black"/>
<path d="M1154.67 692.533C1143.87 695.466 1137.33 701.599 1133.73 711.999C1129.33 724.533 1134.4 738.933 1145.87 746.533L1151.33 749.999L1188.93 750.399C1213.73 750.666 1228.4 750.266 1232 749.333C1239.87 747.199 1248.53 738.799 1251.2 730.666C1253.87 722.666 1253.87 720.799 1251.33 712.533C1248.27 702.133 1240.53 695.066 1229.07 692.266C1220.4 689.999 1162.67 690.399 1154.67 692.533Z" fill="black"/>
<path d="M1338 692.267C1325.73 695.467 1315.73 708.533 1315.73 721.2C1315.73 734 1324.8 746.267 1336.4 749.467C1339.6 750.267 1355.87 750.667 1379.2 750.4L1416.93 750L1422.4 746.267C1425.47 744.267 1429.6 740.133 1431.6 737.067C1434.8 732.267 1435.33 730.267 1435.33 721.333C1435.33 712.4 1434.8 710.4 1431.6 705.6C1427.2 698.8 1420 693.867 1412 692.133C1404.27 690.4 1345.07 690.533 1338 692.267Z" fill="black"/>
<path d="M1520.93 692.667C1517.47 693.6 1512.53 696 1510.13 697.867C1504 702.533 1498.67 713.467 1498.67 721.467C1498.67 730.267 1504.4 740.8 1512 746L1518 750H1543.47H1568.8L1574.4 746.267C1577.47 744.267 1581.6 740.133 1583.6 737.067C1586.8 732.267 1587.33 730.267 1587.33 721.467C1587.33 713.6 1586.67 710.267 1584.67 706.667C1580.67 700 1571.87 693.867 1564 692.133C1554.8 690.133 1528.8 690.533 1520.93 692.667Z" fill="black"/>
<path d="M1050.53 741.867C1039.6 744.8 1032.67 752.267 1027.07 767.6C1018.93 789.6 1016.67 813.867 1020.8 832.4C1023.6 844.8 1028.13 851.6 1036.67 855.867C1050 862.8 1065.6 859.2 1074.67 847.067L1079.33 840.8L1079.47 820.133C1079.47 799.067 1079.6 798.133 1085.87 782C1094.8 758.533 1074.53 735.467 1050.53 741.867Z" fill="black"/>
<path d="M296.666 782.799C293.066 783.333 286.4 784.133 282 784.666C256.933 787.199 207.866 802.266 184 814.533C154.266 829.866 133.466 843.733 112 862.533C78.3997 892.133 53.9997 923.733 31.8664 966.666C30.5331 969.066 25.0664 981.466 21.9997 988.666C13.9997 1007.33 5.73307 1040 1.46641 1069.07C-0.40026 1081.73 -0.40026 1131.6 1.46641 1141.87C8.53307 1180.8 19.3331 1213.33 41.1997 1262C46.2664 1273.47 67.8664 1316.27 74.7997 1328.93C83.7331 1345.33 107.2 1386.27 110.533 1391.33C115.333 1398.8 117.066 1401.73 118.266 1404C123.333 1414.27 172.933 1489.73 199.466 1527.33C210.266 1542.67 220.933 1558 223.2 1561.33C228.666 1569.47 290 1651.33 293.866 1655.73C295.6 1657.73 299.733 1662.67 302.933 1666.67C311.066 1676.93 319.733 1681.6 329.333 1680.93C339.866 1680.27 346.133 1676.67 355.066 1666C366.266 1652.8 428.266 1569.73 446.666 1543.33C455.066 1531.2 463.866 1518.67 466.266 1515.47C471.2 1508.67 511.466 1448.13 519.2 1435.73C522.133 1431.07 527.6 1422.53 531.466 1416.67C535.2 1410.8 539.466 1403.87 540.933 1401.33C542.266 1398.8 545.066 1394.13 547.066 1391.07C549.066 1387.87 550.666 1385.07 550.666 1384.67C550.666 1384.27 551.733 1382.27 553.066 1380.27C556.533 1375.33 564 1362.4 570 1351.33C572.666 1346.13 576 1340.13 577.333 1338C586.533 1322.8 613.333 1269.47 621.066 1251.33C625.333 1241.2 634 1219.07 640.533 1201.6C646.266 1186.67 653.066 1159.73 656 1141.33C661.866 1104.93 655.866 1047.07 642.666 1010C641.066 1005.6 639.466 1000.53 639.066 998.666C638.666 996.799 637.466 994.133 636.533 992.666C635.466 991.199 634.666 989.199 634.666 988.133C634.666 984.266 614.533 945.466 605.066 931.333C593.6 913.999 589.2 907.999 577.6 894.933C521.733 831.599 450.8 794.133 366 783.333C349.066 781.199 308.666 780.799 296.666 782.799ZM362 843.333C391.2 847.866 422.133 856.533 440.266 865.599C444.4 867.599 448.133 869.333 448.533 869.333C449.733 869.333 472.4 882.933 482 889.466C519.333 914.799 550.4 950.933 570.533 992.666C579.733 1011.6 580.666 1013.87 584.666 1026.13C592.933 1050.93 598.533 1084.93 598.666 1108.8C598.666 1133.33 589.2 1173.2 576.4 1202.67C575.6 1204.53 571.733 1213.47 568 1222.67C550.4 1264.93 504.666 1348.27 470.4 1400.53C466.133 1407.07 462.666 1412.53 462.666 1412.8C462.666 1413.2 421.2 1475.2 416.266 1482.13C364.4 1555.73 331.466 1600 328.666 1600C326.666 1600 297.466 1561.87 274 1528.67C266.8 1518.4 258 1506.13 254.533 1501.33C241.333 1483.07 200.133 1421.6 182.666 1394.13C173.6 1379.73 138.666 1321.47 138.666 1320.67C138.666 1320.4 136.666 1316.67 134.266 1312.4C123.733 1294.27 104.933 1258 98.1331 1242.67C95.9997 1237.87 92.6664 1230.4 90.6664 1226C87.4664 1218.8 81.5997 1204.67 76.5331 1192C71.1997 1178.67 63.7331 1151.07 60.7997 1134C54.3997 1098 63.5997 1042.53 82.7997 1000.27C84.9331 995.599 86.6664 991.599 86.6664 991.333C86.6664 990.399 102.666 963.866 108.133 955.866C115.866 944.399 128.8 929.599 142.533 916.266C182.533 877.599 237.733 851.066 292.666 843.999C299.333 843.066 305.333 842.133 306 841.999C310.266 840.666 350.4 841.599 362 843.333Z" fill="black"/>
<path d="M305.999 963.466C285.466 968.4 271.199 974.8 257.332 985.333C234.666 1002.67 220.932 1022.4 212.932 1049.73C209.066 1063.2 208.799 1097.47 212.532 1111.33C221.732 1145.07 243.732 1172.27 274.799 1188.27C286.266 1194.13 290.532 1195.6 304.666 1198.67C325.066 1203.07 349.866 1201.47 369.332 1194.27C393.066 1185.6 418.132 1165.2 429.866 1145.2C432.666 1140.53 435.466 1135.73 436.132 1134.67C448.132 1114.8 451.732 1070.8 443.332 1046C433.866 1018.13 416.799 995.733 393.199 980.533C382.666 973.733 364.932 966.533 350.666 963.466C338.532 960.8 317.066 960.8 305.999 963.466ZM345.332 1024.13C356.666 1027.6 363.199 1031.6 371.466 1039.87C383.599 1052 388.799 1066.93 387.732 1086.67C387.199 1095.87 386.266 1099.6 382.799 1106.67C374.932 1122.53 362.399 1133.2 345.066 1138.8C310.132 1149.87 271.999 1123.33 269.732 1086.13C268.532 1067.33 273.466 1052.53 284.932 1040.8C293.466 1032.13 299.599 1028.27 310.399 1024.53C321.866 1020.67 333.866 1020.53 345.332 1024.13Z" fill="black"/>
<path d="M1132.13 872.266C1126 873.333 1123.73 874.666 1118 880.533C1110.8 887.733 1109.33 891.466 1109.33 902.533C1109.47 913.866 1116.4 923.866 1128 929.2C1131.87 930.933 1138.53 931.333 1168 931.333C1207.6 931.333 1211.73 930.666 1219.33 923.2C1232.4 910.533 1232.4 892.133 1219.33 879.466C1216.67 876.8 1212.27 874 1209.6 873.2C1203.2 871.066 1141.87 870.4 1132.13 872.266Z" fill="black"/>
<path d="M1315.73 872.533C1283.07 879.599 1284.53 924.799 1317.73 930.533C1328.8 932.399 1375.2 932.399 1386.53 930.533C1402.27 927.866 1412 916.666 1412 901.333C1412 885.999 1402.13 874.533 1386.67 872.133C1374.8 870.133 1325.2 870.533 1315.73 872.533Z" fill="black"/>
<path d="M1498.8 872.533C1486.4 875.199 1474.67 888.666 1474.67 900.533C1474.67 908.266 1478.93 917.333 1485.47 923.199C1490.67 927.866 1493.2 929.066 1500.4 930.399C1511.07 932.399 1559.33 932.533 1570.13 930.533C1579.87 928.799 1586.93 924.399 1591.6 916.933C1594.67 912.133 1595.2 909.866 1595.2 901.333C1595.2 892.799 1594.67 890.533 1591.6 885.733C1586.93 878.266 1579.87 873.866 1570.13 872.133C1559.87 870.266 1508.13 870.533 1498.8 872.533Z" fill="black"/>
<path d="M1677.6 879.866C1665.47 884.666 1658.67 894.933 1658.67 908C1658.67 922.933 1664 929.2 1684.93 939.466C1695.87 944.8 1702.4 949.066 1708.93 955.066C1721.2 966.266 1724.93 968.8 1732 970.266C1739.87 971.866 1750.27 969.6 1756.67 964.8C1764 959.2 1767.2 951.733 1767.2 940.666C1767.07 929.333 1764.53 924.666 1751.87 912.666C1736.4 898.133 1720.8 888.4 1701.47 881.333C1689.07 876.8 1685.6 876.533 1677.6 879.866Z" fill="black"/>
<path d="M1753.33 1027.47C1742.93 1032 1735.87 1041.07 1731.33 1055.87C1729.47 1061.87 1720.93 1075.33 1714.27 1082.67C1706 1091.73 1702.8 1098.67 1702.67 1107.07C1702.67 1118.67 1710.13 1129.87 1721.2 1134.8C1737.73 1142.13 1752.13 1134.13 1771.47 1107.2C1783.33 1090.4 1793.33 1066.53 1793.33 1054.67C1793.33 1047.07 1788.27 1036.4 1782.67 1032.13C1773.73 1025.6 1762 1023.73 1753.33 1027.47Z" fill="black"/>
<path d="M996.799 1113.87C985.599 1118 978.666 1128.53 978.666 1141.33C978.666 1155.33 986.666 1165.87 1000.27 1170C1010 1172.8 1067.07 1172.93 1076.8 1170C1101.33 1162.67 1106.53 1131.33 1085.6 1116.67L1079.73 1112.67L1040.93 1112.4C1010.13 1112.13 1000.93 1112.4 996.799 1113.87Z" fill="black"/>
<path d="M1182 1112.93C1175.73 1114.67 1170.13 1119.33 1165.47 1127.2C1161.47 1133.6 1161.07 1147.6 1164.53 1154.53C1167.87 1160.8 1175.33 1167.6 1181.07 1169.47C1188 1171.87 1247.73 1172.67 1257.33 1170.67C1272.4 1167.47 1282.67 1155.33 1282.67 1140.8C1282.67 1131.87 1276.8 1121.47 1268.93 1116.27L1263.33 1112.67L1224 1112.4C1202.4 1112.4 1183.47 1112.53 1182 1112.93Z" fill="black"/>
<path d="M1361.73 1114.8C1336.4 1127.33 1341.6 1164.53 1369.33 1170.53C1378.4 1172.53 1434.27 1172.4 1442.4 1170.53C1467.87 1164.27 1473.6 1130.8 1451.73 1116.4L1446.27 1112.67L1406.8 1112.27C1368.8 1112 1367.07 1112 1361.73 1114.8Z" fill="black"/>
<path d="M1548.67 1112.93C1538.4 1115.73 1528 1129.47 1528 1140.53C1528 1152.13 1537.6 1166.13 1547.73 1169.6C1554.93 1171.87 1614.4 1172.67 1624.4 1170.53C1634.4 1168.4 1641.47 1163.2 1645.47 1155.07C1652.13 1141.33 1648 1124.8 1635.87 1116.67L1630 1112.67L1590.67 1112.4C1569.07 1112.4 1550.13 1112.53 1548.67 1112.93Z" fill="black"/>
<path d="M891.466 1160.8C875.999 1165.6 856.799 1194.27 845.332 1230C842.132 1239.87 841.999 1247.73 844.932 1254.27C853.866 1274.13 877.732 1279.47 893.066 1264.93C897.732 1260.4 899.466 1257.07 904.799 1242.13C908.399 1231.73 913.999 1221.07 921.199 1211.33C931.466 1197.33 933.199 1187.47 927.332 1176C923.599 1168.67 917.732 1163.6 909.466 1160.67C902.399 1158.27 899.866 1158.27 891.466 1160.8Z" fill="black"/>
<path d="M884.666 1332C874.533 1336.8 866.666 1348.67 866.666 1359.33C866.666 1361.87 868.266 1367.33 870.266 1371.6C877.999 1388.13 918.533 1421.73 935.333 1425.6C942.266 1427.2 953.866 1425.87 958.399 1422.93C968.266 1416.67 972.533 1408.8 972.666 1397.33C972.666 1383.87 966.799 1375.47 951.999 1367.47C944.399 1363.33 933.199 1354.27 923.733 1344.27C918.799 1339.07 912.399 1333.6 909.466 1332.13C902.666 1328.53 891.866 1328.53 884.666 1332Z" fill="black"/>
<path d="M1052.67 1383.87C1046.67 1386.53 1041.33 1391.6 1037.2 1398.27C1034.8 1402 1034.4 1404.4 1034.93 1412.4C1035.33 1420.67 1036 1422.8 1039.73 1428.13C1042.13 1431.47 1046.67 1435.73 1049.73 1437.47C1055.33 1440.67 1055.6 1440.67 1094.67 1440.67C1137.6 1440.67 1137.6 1440.67 1145.87 1432.53C1160.93 1417.47 1156.27 1392.8 1136.67 1383.87C1131.87 1381.6 1127.47 1381.33 1094.67 1381.33C1061.87 1381.33 1057.47 1381.6 1052.67 1383.87Z" fill="black"/>
<path d="M1234.67 1384.93C1225.33 1389.73 1219.73 1396.8 1218.67 1405.07C1216.8 1421.2 1221.6 1430.93 1234.67 1437.6L1241.87 1441.33H1277.87C1311.33 1441.33 1314.4 1441.07 1320 1438.53C1345.07 1427.2 1344.4 1393.33 1318.93 1383.47C1314.13 1381.73 1307.6 1381.33 1277.6 1381.33H1241.87L1234.67 1384.93Z" fill="black"/>
<path d="M1419.33 1383.73C1412.53 1386.93 1403.33 1397.33 1402.13 1402.8C1399.87 1414.4 1401.73 1422.53 1408.27 1430C1416.53 1439.33 1419.47 1440.4 1440.67 1441.47C1458.4 1442.27 1474.13 1444.8 1483.73 1448.13C1498.93 1453.47 1519.07 1439.47 1520.93 1422.27C1522.27 1410.67 1515.47 1398.53 1504.13 1392.27C1495.07 1387.07 1469.33 1382.53 1445.33 1381.87C1426.93 1381.33 1424.13 1381.47 1419.33 1383.73Z" fill="black"/>
<path d="M1571.87 1465.2C1568.13 1467.47 1564.27 1471.6 1562 1475.47C1558.8 1480.93 1558.13 1483.47 1558.27 1490.8C1558.27 1499.07 1558.8 1500.4 1565.07 1510.93C1572.8 1523.73 1579.6 1538.8 1583.73 1552.8C1586.93 1563.47 1592.93 1570.8 1601.87 1574.8C1620.4 1583.2 1642.67 1568.13 1642.67 1547.2C1642.67 1535.47 1632 1506.8 1619.07 1483.6C1614.93 1476.4 1606.8 1467.07 1602 1464.4C1597.87 1462 1594.53 1461.33 1587.2 1461.33C1579.2 1461.33 1577.07 1461.87 1571.87 1465.2Z" fill="black"/>
<path d="M1589.6 1638.8C1582.8 1642.27 1578.93 1646.67 1571.73 1660C1563.73 1674.67 1561.07 1678.53 1552.27 1688.8C1537.47 1706 1534.93 1716.8 1542.67 1730.4C1548.53 1740.4 1556.67 1745.33 1567.73 1745.33C1581.07 1745.33 1587.6 1741.07 1602.8 1722C1615.2 1706.67 1629.2 1682.13 1632 1671.33C1637.87 1648 1611.6 1628 1589.6 1638.8Z" fill="black"/>
<path d="M1424 1741.2C1389.87 1742.13 1386.93 1742.67 1379.6 1750.4C1375.6 1754.53 1370.67 1766.13 1370.67 1771.33C1370.67 1776.67 1375.73 1788.67 1379.73 1792.27C1381.73 1794.13 1386 1797.07 1389.2 1798.67C1394.8 1801.47 1396 1801.6 1429.87 1800.93C1467.6 1800.4 1471.6 1799.73 1480.4 1792.93C1488 1787.07 1491.2 1779.87 1491.2 1769.07C1491.2 1761.2 1490.67 1759.2 1487.2 1754.4C1485.07 1751.33 1480.93 1747.07 1478 1745.07C1471.47 1740.4 1467.07 1740.13 1424 1741.2Z" fill="black"/>
<path d="M316.666 1744C306.399 1748.8 298.666 1760.67 298.666 1771.73C298.666 1777.73 302.933 1787.33 307.733 1792.4C314.933 1799.87 320.799 1801.33 343.866 1801.33C361.066 1801.33 365.599 1800.8 369.999 1798.8C381.199 1793.73 388.399 1782.93 388.399 1771.33C388.399 1759.6 381.999 1749.73 370.533 1744C365.999 1741.6 362.799 1741.33 343.733 1741.47C325.599 1741.6 321.066 1742 316.666 1744Z" fill="black"/>
<path d="M469.867 1745.2C465.334 1747.87 461.601 1751.47 458.667 1755.87C454.667 1762.27 454.401 1763.33 454.934 1772.4C455.467 1784.8 460.401 1792.67 470.934 1797.87L477.867 1801.33H514.134C547.334 1801.33 550.801 1801.07 556.267 1798.67C580.801 1787.87 580.934 1755.07 556.534 1743.87C551.334 1741.6 547.601 1741.33 513.734 1741.33H476.667L469.867 1745.2Z" fill="black"/>
<path d="M655.599 1743.87C649.599 1746.67 644.799 1751.07 641.066 1757.07C637.466 1762.93 637.199 1779.2 640.799 1784.8C644.932 1791.6 649.866 1796.13 655.866 1798.8C661.199 1801.07 664.932 1801.33 698.266 1801.33C734.132 1801.33 734.799 1801.33 741.066 1798.13C748.799 1794.27 752.399 1790.4 755.866 1782.67C762.399 1768.13 755.332 1750.67 740.132 1743.87C734.799 1741.6 731.199 1741.33 697.466 1741.47C665.332 1741.6 659.999 1741.87 655.599 1743.87Z" fill="black"/>
<path d="M836.267 1745.33C832.133 1747.87 827.867 1751.6 825.733 1755.07C822.4 1760 822 1761.87 822 1771.33C822.133 1785.87 826 1792.13 839.6 1799.07C843.333 1801.07 849.067 1801.33 880.933 1801.33C914.133 1801.33 918.533 1801.07 923.333 1798.8C934.667 1793.6 941.333 1783.47 941.333 1771.6C941.333 1762.8 938.8 1756.4 933.067 1750.67C924.267 1741.73 922.133 1741.33 880.667 1741.33H843.333L836.267 1745.33Z" fill="black"/>
<path d="M1021.73 1744.13C1018.67 1745.47 1014.13 1749.07 1011.6 1752C998.533 1767.33 1003.07 1788.8 1021.47 1798C1027.87 1801.33 1028.27 1801.33 1064.67 1801.33C1101.07 1801.33 1101.47 1801.33 1107.87 1798C1120.8 1791.47 1126.93 1778.8 1124 1764.67C1122.27 1756.13 1116.53 1748.93 1107.87 1744.67C1101.47 1741.33 1101.2 1741.33 1064.4 1741.47C1030.8 1741.6 1026.8 1741.73 1021.73 1744.13Z" fill="black"/>
<path d="M1206 1743.87C1198.53 1747.2 1193.6 1752.27 1190.4 1759.73C1183.73 1774.67 1190.53 1791.73 1206 1798.8C1210.8 1801.07 1215.2 1801.33 1247.73 1801.33C1286.27 1801.33 1288.93 1800.93 1296.93 1794.67C1298.93 1793.2 1302 1789.73 1303.87 1786.93C1306.93 1782.67 1307.33 1780.67 1307.33 1771.33C1307.33 1761.73 1306.93 1760.13 1303.33 1754.67C1300.67 1750.8 1296.93 1747.47 1292.13 1745.07L1285.07 1741.33H1248.13C1215.2 1741.33 1210.8 1741.6 1206 1743.87Z" fill="black"/>
</svg>
