<?xml version="1.0" standalone="no"?>
<!DOCTYPE svg PUBLIC "-//W3C//DTD SVG 20010904//EN"
 "http://www.w3.org/TR/2001/REC-SVG-20010904/DTD/svg10.dtd">
<svg version="1.0" xmlns="http://www.w3.org/2000/svg"
 width="1536.000000pt" height="1536.000000pt" viewBox="0 0 1536.000000 1536.000000"
 preserveAspectRatio="xMidYMid meet">
<metadata>
Created by potrace 1.10, written by Peter Selinger 2001-2011
</metadata>
<g transform="translate(0.000000,1536.000000) scale(0.100000,-0.100000)"
fill="#000000" stroke="none">
<path d="M11463 15348 c1 -8 -18 -16 -53 -21 -226 -35 -479 -128 -675 -250
-220 -137 -455 -376 -586 -597 -175 -294 -253 -571 -253 -900 -1 -186 8 -248
60 -420 147 -488 576 -1211 1162 -1959 15 -19 52 -67 82 -107 30 -39 93 -118
139 -175 207 -255 249 -289 351 -289 102 0 144 34 351 289 46 57 118 147 159
201 41 53 116 151 167 216 198 258 457 636 617 902 47 79 86 145 86 148 0 2
11 23 25 45 45 70 174 329 225 449 72 171 121 327 154 493 52 257 -21 671
-170 972 -262 526 -761 894 -1334 982 -35 5 -54 13 -52 21 1 9 -52 12 -228 12
-176 0 -229 -3 -227 -12z m437 -468 c58 -10 144 -30 192 -44 377 -110 718
-433 859 -810 50 -134 89 -338 89 -464 0 -114 -34 -259 -107 -447 -47 -121
-183 -393 -258 -515 -12 -19 -25 -42 -28 -50 -4 -8 -15 -27 -25 -42 -9 -15
-37 -60 -61 -100 -43 -70 -204 -311 -327 -488 -75 -108 -377 -510 -463 -615
-35 -44 -72 -80 -82 -80 -47 0 -654 828 -885 1208 -132 217 -173 290 -237 422
-133 270 -173 374 -209 543 -35 169 -9 412 67 622 97 268 322 538 570 684 112
66 108 64 203 100 239 90 482 117 702 76z"/>
<path d="M11535 14431 c-339 -87 -558 -401 -514 -737 18 -141 77 -270 168
-367 100 -107 221 -179 359 -212 84 -21 245 -16 323 8 228 73 387 229 465 457
27 79 27 311 0 390 -68 198 -192 340 -364 417 -138 61 -302 78 -437 44z m236
-450 c96 -43 146 -126 137 -229 -7 -69 -35 -120 -86 -155 -92 -64 -172 -64
-264 0 -45 31 -72 75 -86 137 -36 169 143 316 299 247z"/>
<path d="M8660 10166 c-81 -22 -130 -68 -157 -146 -33 -94 5 -202 91 -259 l41
-26 282 -3 c186 -2 296 1 323 8 59 16 124 79 144 140 20 60 20 74 1 136 -23
78 -81 131 -167 152 -65 17 -498 14 -558 -2z"/>
<path d="M10035 10168 c-92 -24 -167 -122 -167 -217 0 -96 68 -188 155 -212
24 -6 146 -9 321 -7 l283 3 41 28 c23 15 54 46 69 69 24 36 28 51 28 118 0 67
-4 82 -28 118 -33 51 -87 88 -147 101 -58 13 -502 12 -555 -1z"/>
<path d="M11407 10165 c-26 -7 -63 -25 -81 -39 -46 -35 -86 -117 -86 -177 0
-66 43 -145 100 -184 l45 -30 191 0 190 0 42 28 c23 15 54 46 69 69 24 36 28
51 28 117 0 59 -5 84 -20 111 -30 50 -96 96 -155 109 -69 15 -264 12 -323 -4z"/>
<path d="M7879 9796 c-82 -22 -134 -78 -176 -193 -61 -165 -78 -347 -47 -486
21 -93 55 -144 119 -176 100 -52 217 -25 285 66 l35 47 1 155 c0 158 1 165 48
286 67 176 -85 349 -265 301z"/>
<path d="M2225 9489 c-27 -4 -77 -10 -110 -14 -188 -19 -556 -132 -735 -224
-223 -115 -379 -219 -540 -360 -252 -222 -435 -459 -601 -781 -10 -18 -51
-111 -74 -165 -60 -140 -122 -385 -154 -603 -14 -95 -14 -469 0 -546 53 -292
134 -536 298 -901 38 -86 200 -407 252 -502 67 -123 243 -430 268 -468 36 -56
49 -78 58 -95 38 -77 410 -643 609 -925 81 -115 161 -230 178 -255 41 -61 501
-675 530 -708 13 -15 44 -52 68 -82 61 -77 126 -112 198 -107 79 5 126 32 193
112 84 99 549 722 687 920 63 91 129 185 147 209 37 51 339 505 397 598 22 35
63 99 92 143 28 44 60 96 71 115 10 19 31 54 46 77 15 24 27 45 27 48 0 3 8
18 18 33 26 37 82 134 127 217 20 39 45 84 55 100 69 114 270 514 328 650 32
76 97 242 146 373 43 112 94 314 116 452 44 273 -1 707 -100 985 -12 33 -24
71 -27 85 -3 14 -12 34 -19 45 -8 11 -14 26 -14 34 0 29 -151 320 -222 426
-86 130 -119 175 -206 273 -419 475 -951 756 -1587 837 -127 16 -430 19 -520
4z m490 -454 c219 -34 451 -99 587 -167 31 -15 59 -28 62 -28 9 0 179 -102
251 -151 280 -190 513 -461 664 -774 69 -142 76 -159 106 -251 62 -186 104
-441 105 -620 0 -184 -71 -483 -167 -704 -6 -14 -35 -81 -63 -150 -132 -317
-475 -942 -732 -1334 -32 -49 -58 -90 -58 -92 0 -3 -311 -468 -348 -520 -389
-552 -636 -884 -657 -884 -15 0 -234 286 -410 535 -54 77 -120 169 -146 205
-99 137 -408 598 -539 804 -68 108 -330 545 -330 551 0 2 -15 30 -33 62 -79
136 -220 408 -271 523 -16 36 -41 92 -56 125 -24 54 -68 160 -106 255 -40 100
-96 307 -118 435 -48 270 21 686 165 1003 16 35 29 65 29 67 0 7 120 206 161
266 58 86 155 197 258 297 300 290 714 489 1126 542 50 7 95 14 100 15 32 10
333 3 420 -10z"/>
<path d="M2295 8134 c-154 -37 -261 -85 -365 -164 -170 -130 -273 -278 -333
-483 -29 -101 -31 -358 -3 -462 69 -253 234 -457 467 -577 86 -44 118 -55 224
-78 153 -33 339 -21 485 33 178 65 366 218 454 368 21 35 42 71 47 79 90 149
117 479 54 665 -71 209 -199 377 -376 491 -79 51 -212 105 -319 128 -91 20
-252 20 -335 0z m295 -455 c85 -26 134 -56 196 -118 91 -91 130 -203 122 -351
-4 -69 -11 -97 -37 -150 -59 -119 -153 -199 -283 -241 -262 -83 -548 116 -565
395 -9 141 28 252 114 340 64 65 110 94 191 122 86 29 176 30 262 3z"/>
<path d="M8491 8818 c-46 -8 -63 -18 -106 -62 -54 -54 -65 -82 -65 -165 1 -85
53 -160 140 -200 29 -13 79 -16 300 -16 297 0 328 5 385 61 98 95 98 233 0
328 -20 20 -53 41 -73 47 -48 16 -508 21 -581 7z"/>
<path d="M9868 8816 c-245 -53 -234 -392 15 -435 83 -14 431 -14 516 0 118 20
191 104 191 219 0 115 -74 201 -190 219 -89 15 -461 12 -532 -3z"/>
<path d="M11241 8816 c-93 -20 -181 -121 -181 -210 0 -58 32 -126 81 -170 39
-35 58 -44 112 -54 80 -15 442 -16 523 -1 73 13 126 46 161 102 23 36 27 53
27 117 0 64 -4 81 -27 117 -35 56 -88 89 -161 102 -77 14 -465 12 -535 -3z"/>
<path d="M12582 8761 c-91 -36 -142 -113 -142 -211 0 -112 40 -159 197 -236
82 -40 131 -72 180 -117 92 -84 120 -103 173 -114 59 -12 137 5 185 41 55 42
79 98 79 181 -1 85 -20 120 -115 210 -116 109 -233 182 -378 235 -93 34 -119
36 -179 11z"/>
<path d="M13150 7654 c-78 -34 -131 -102 -165 -213 -14 -45 -78 -146 -128
-201 -62 -68 -86 -120 -87 -183 0 -87 56 -171 139 -208 124 -55 232 5 377 207
89 126 164 305 164 394 0 57 -38 137 -80 169 -67 49 -155 63 -220 35z"/>
<path d="M7476 7006 c-84 -31 -136 -110 -136 -206 0 -105 60 -184 162 -215 73
-21 501 -22 574 0 184 55 223 290 66 400 l-44 30 -291 2 c-231 2 -300 0 -331
-11z"/>
<path d="M8865 7013 c-47 -13 -89 -48 -124 -107 -30 -48 -33 -153 -7 -205 25
-47 81 -98 124 -112 52 -18 500 -24 572 -9 113 24 190 115 190 224 0 67 -44
145 -103 184 l-42 27 -295 2 c-162 0 -304 -1 -315 -4z"/>
<path d="M10213 6999 c-190 -94 -151 -373 57 -418 68 -15 487 -14 548 0 191
47 234 298 70 406 l-41 28 -296 3 c-285 2 -298 2 -338 -19z"/>
<path d="M11615 7013 c-77 -21 -155 -124 -155 -207 0 -87 72 -192 148 -218 54
-17 500 -23 575 -7 75 16 128 55 158 116 50 103 19 227 -72 288 l-44 30 -295
2 c-162 0 -304 -1 -315 -4z"/>
<path d="M6686 6654 c-116 -36 -260 -251 -346 -519 -24 -74 -25 -133 -3 -182
67 -149 246 -189 361 -80 35 34 48 59 88 171 27 78 69 158 123 231 77 105 90
179 46 265 -28 55 -72 93 -134 115 -53 18 -72 18 -135 -1z"/>
<path d="M6635 5370 c-76 -36 -135 -125 -135 -205 0 -19 12 -60 27 -92 58
-124 362 -376 488 -405 52 -12 139 -2 173 20 74 47 106 106 107 192 0 101 -44
164 -155 224 -57 31 -141 99 -212 174 -37 39 -85 80 -107 91 -51 27 -132 27
-186 1z"/>
<path d="M7895 4981 c-45 -20 -85 -58 -116 -108 -18 -28 -21 -46 -17 -106 3
-62 8 -78 36 -118 18 -25 52 -57 75 -70 42 -24 44 -24 337 -24 322 0 322 0
384 61 113 113 78 298 -69 365 -36 17 -69 19 -315 19 -246 0 -279 -2 -315 -19z"/>
<path d="M9260 4973 c-70 -36 -112 -89 -120 -151 -14 -121 22 -194 120 -244
l54 -28 270 0 c251 0 274 2 316 21 188 85 183 339 -8 413 -36 13 -85 16 -310
16 l-268 0 -54 -27z"/>
<path d="M10645 4982 c-51 -24 -120 -102 -129 -143 -17 -87 -3 -148 46 -204
62 -70 84 -78 243 -86 133 -6 251 -25 323 -50 114 -40 265 65 279 194 10 87
-41 178 -126 225 -68 39 -261 73 -441 78 -138 4 -159 3 -195 -14z"/>
<path d="M11789 4371 c-28 -17 -57 -48 -74 -77 -24 -41 -29 -60 -28 -115 0
-62 4 -72 51 -151 58 -96 109 -209 140 -314 24 -80 69 -135 136 -165 139 -63
306 50 306 207 0 88 -80 303 -177 477 -31 54 -92 124 -128 144 -31 18 -56 23
-111 23 -60 0 -76 -4 -115 -29z"/>
<path d="M11922 3069 c-51 -26 -80 -59 -134 -159 -60 -110 -80 -139 -146 -216
-111 -129 -130 -210 -72 -312 44 -75 105 -112 188 -112 100 0 149 32 263 175
93 115 198 299 219 380 44 175 -153 325 -318 244z"/>
<path d="M10680 2301 c-256 -7 -278 -11 -333 -69 -30 -31 -67 -118 -67 -157 0
-40 38 -130 68 -157 15 -14 47 -36 71 -48 42 -21 51 -22 305 -17 283 4 313 9
379 60 57 44 81 98 81 179 0 59 -4 74 -30 110 -16 23 -47 55 -69 70 -49 35
-82 37 -405 29z"/>
<path d="M2375 2280 c-77 -36 -135 -125 -135 -208 0 -45 32 -117 68 -155 54
-56 98 -67 271 -67 129 0 163 4 196 19 84 38 138 119 138 206 0 88 -48 162
-134 205 -34 18 -58 20 -201 19 -136 -1 -170 -4 -203 -19z"/>
<path d="M3524 2271 c-34 -20 -62 -47 -84 -80 -30 -48 -32 -56 -28 -124 4 -93
41 -152 120 -191 l52 -26 272 0 c249 0 275 2 316 20 184 81 185 327 2 411 -39
17 -67 19 -321 19 l-278 0 -51 -29z"/>
<path d="M4917 2281 c-45 -21 -81 -54 -109 -99 -27 -44 -29 -166 -2 -208 31
-51 68 -85 113 -105 40 -17 68 -19 318 -19 269 0 274 0 321 24 58 29 85 58
111 116 49 109 -4 240 -118 291 -40 17 -67 19 -320 18 -241 -1 -281 -3 -314
-18z"/>
<path d="M6272 2270 c-31 -19 -63 -47 -79 -73 -25 -37 -28 -51 -28 -122 1
-109 30 -156 132 -208 28 -15 71 -17 310 -17 249 0 282 2 318 19 85 39 135
115 135 204 0 66 -19 114 -62 157 -66 67 -82 70 -393 70 l-280 0 -53 -30z"/>
<path d="M7663 2279 c-23 -10 -57 -37 -76 -59 -98 -115 -64 -276 74 -345 48
-25 51 -25 324 -25 273 0 276 0 324 25 97 49 143 144 121 250 -13 64 -56 118
-121 150 -48 25 -50 25 -326 24 -252 -1 -282 -2 -320 -20z"/>
<path d="M9045 2281 c-56 -25 -93 -63 -117 -119 -50 -112 1 -240 117 -293 36
-17 69 -19 313 -19 289 0 309 3 369 50 15 11 38 37 52 58 23 32 26 47 26 117
0 72 -3 84 -30 125 -20 29 -48 54 -84 72 l-53 28 -277 0 c-247 0 -280 -2 -316
-19z"/>
</g>
</svg>
