<svg width="1577" height="1291" viewBox="0 0 1577 1291" fill="none" xmlns="http://www.w3.org/2000/svg">
<path d="M1030.67 0.799998C1027.73 1.06666 1017.87 2.13333 1008.67 3.33333C999.467 4.4 983.334 6.26666 972.667 7.33333C954.534 9.33333 936.8 11.3333 908 14.6667C901.467 15.3333 889.734 16.6667 882 17.3333C842.667 21.2 828.4 22.6667 818 23.8667C811.734 24.5333 797.334 26.1333 786 27.3333C774.667 28.5333 759.067 30.4 751.334 31.4667C743.6 32.5333 734.934 33.3333 732 33.3333C729.067 33.3333 719.734 34.2667 711.334 35.3333C679.2 39.3333 671.6 40.2667 659.334 41.4667C652.4 42 638.534 43.4667 628.667 44.5333C537.067 54.5333 536.8 54.5333 524.934 53.2C508.4 51.6 463.467 46.6667 433.334 43.2C423.867 42.1333 407.867 40.4 398 39.3333C358.667 34.9333 343.6 33.2 333.334 31.8667C327.467 31.0667 317.334 29.8667 310.667 29.3333C304.134 28.6667 290.534 27.2 280.667 26.1333C270.8 25.0667 251.334 22.9333 237.334 21.3333C223.467 19.8667 203.867 17.6 194 16.5333C184.134 15.4667 170.667 14 164 13.3333C157.467 12.8 146.934 11.6 140.667 10.8C134.4 10.1333 120.934 8.53333 110.667 7.33333C100.4 6.26666 85.067 4.4 76.667 3.33333C56.9337 0.799998 53.867 0.799998 43.2003 3.86666C23.067 9.6 8.93366 23.7333 3.20033 43.8667C0.800326 52.4 0.666992 68.5333 0.666992 620C0.666992 1178.8 0.666992 1187.47 3.33366 1196.4C6.53366 1207.87 10.667 1214.93 18.9337 1222.93C30.8003 1234.53 40.0003 1237.6 71.3337 1240.67C82.0003 1241.73 95.7337 1243.2 102 1244C108.267 1244.67 122 1246.27 132.667 1247.33C164.4 1250.8 185.867 1253.33 200.667 1255.33C208.4 1256.53 217.334 1257.33 220.667 1257.33C224 1257.33 230.267 1258 234.667 1258.67C239.067 1259.47 248.134 1260.67 254.667 1261.33C261.334 1262 274.8 1263.47 284.667 1264.53C294.534 1265.6 311.334 1267.47 322 1268.53C343.734 1270.93 358.8 1272.53 384 1275.47C425.067 1280 438 1281.47 448 1282.8C453.867 1283.6 464.8 1284.67 472.134 1285.33C479.6 1286 489.467 1287.2 494.134 1288.13C506.8 1290.53 547.867 1290.13 563.6 1287.47C570.8 1286.27 578.934 1285.33 581.6 1285.33C584.4 1285.33 593.867 1284.53 602.667 1283.33C631.6 1279.73 643.734 1278.4 655.867 1277.2C671.067 1275.87 704.267 1272.4 720 1270.67C726.667 1270 741.067 1268.4 752 1267.33C777.6 1264.8 810 1261.2 862.667 1255.33C900.134 1251.2 907.067 1250.4 918.667 1249.33C925.334 1248.67 939.334 1247.2 950 1246C977.467 1243.07 1018 1238.67 1031.2 1237.47C1037.33 1236.8 1046.93 1236.8 1052.53 1237.47C1058.13 1238.13 1071.73 1239.6 1082.67 1240.67C1093.73 1241.73 1107.47 1243.2 1113.33 1244C1119.2 1244.67 1133.07 1246.13 1144 1247.33C1155.07 1248.53 1171.2 1250.27 1180 1251.33C1188.8 1252.4 1204.4 1254.13 1214.67 1255.33C1224.93 1256.53 1240.8 1258.27 1250 1259.33C1259.2 1260.4 1275.33 1262.27 1286 1263.47C1296.67 1264.53 1312.53 1266.4 1321.33 1267.33C1330.13 1268.4 1341.2 1269.6 1346 1270C1350.8 1270.4 1359.47 1271.33 1365.33 1272C1371.2 1272.67 1384.67 1274.13 1395.33 1275.33C1406 1276.53 1421.87 1278.27 1430.67 1279.33C1439.47 1280.4 1455.33 1282.13 1466 1283.33C1485.2 1285.47 1509.33 1288.13 1528.8 1290.53C1552 1293.2 1568.8 1283.6 1574.53 1264.4C1576.67 1257.2 1576.8 1219.2 1576.4 669.333L1576 82L1573.07 75.7333C1569.2 67.4667 1562.27 60.5333 1554.4 57.2C1548.4 54.6667 1533.2 52.4 1501.33 49.3333C1494 48.5333 1483.2 47.4667 1477.33 46.6667C1471.47 46 1458 44.5333 1447.33 43.3333C1411.33 39.3333 1360.27 33.6 1346.67 31.7333C1340.8 31.0667 1330.67 29.8667 1324 29.3333C1317.47 28.6667 1303.87 27.2 1294 26.1333C1284.13 25.0667 1264.67 22.9333 1250.67 21.3333C1236.8 19.8667 1217.2 17.6 1207.33 16.5333C1197.47 15.4667 1184 14 1177.33 13.3333C1170.8 12.8 1160.27 11.6 1154 10.8C1147.73 10.1333 1134.27 8.53333 1124 7.33333C1113.73 6.26666 1098.4 4.4 1089.87 3.33333C1074.27 1.2 1040.53 -0.133336 1030.67 0.799998ZM75.867 60C81.867 60.6667 95.067 62.1333 105.334 63.3333C115.6 64.4 131.467 66.2667 140.667 67.3333C185.6 72.5333 286 83.6 305.734 85.3333C312.534 86 322.667 87.2 328.4 87.8667C334 88.6667 346.934 90.1333 357.067 91.3333C367.067 92.4 383.334 94.2667 393.067 95.3333C402.667 96.4 418.534 98.1333 428 99.2C437.6 100.267 454 102.133 464.667 103.333C495.867 106.8 504.8 107.867 506.134 108.667C506.8 109.2 507.334 329.6 507.334 670.8V1232H503.067C500.667 1232 494.134 1231.47 488.667 1230.67C483.2 1230 470.267 1228.53 460 1227.33C426.4 1223.47 408.267 1221.47 389.334 1219.33C379.067 1218.13 365.867 1216.67 360 1215.87C354.134 1215.2 343.334 1214.13 336 1213.33C328.667 1212.67 314.534 1211.2 304.667 1210C294.8 1208.93 280.934 1207.47 274 1206.67C267.067 1205.87 255.6 1204.67 248.667 1203.87C241.734 1203.07 231.2 1201.87 225.334 1201.33C219.467 1200.8 209.6 1199.73 203.334 1198.93C197.067 1198.13 183.867 1196.53 174 1195.47C164.134 1194.27 148.267 1192.53 138.667 1191.47C129.2 1190.4 112.667 1188.53 102 1187.33C67.2003 1183.47 60.1337 1182.53 58.4003 1181.07C56.9337 1180 56.667 1071.2 56.667 621.333C56.667 314.133 57.067 62 57.467 60.8C58.4003 58.2667 61.3337 58.1333 75.867 60ZM1089.2 60C1095.2 60.6667 1108.4 62.2667 1118.67 63.3333C1128.93 64.5333 1144.8 66.4 1154 67.3333C1192.27 71.7333 1206.27 73.3333 1224.67 75.3333C1235.33 76.5333 1257.87 78.9333 1274.67 80.8C1291.6 82.6667 1311.07 84.6667 1318 85.3333C1334.53 86.9333 1351.33 88.9333 1368.67 91.3333C1376.4 92.5333 1385.33 93.3333 1388.67 93.3333C1392 93.3333 1400.93 94.1333 1408.67 95.3333C1422.53 97.2 1440.4 99.3333 1478 103.333C1512.4 107.067 1516.8 107.733 1518.67 109.333C1520.4 110.8 1520.67 181.467 1520.4 671.2C1520 1230.13 1520 1231.33 1517.33 1231.87C1515.87 1232.13 1508.67 1231.6 1501.33 1230.8C1494 1229.87 1480.8 1228.4 1472 1227.33C1463.2 1226.27 1447.87 1224.53 1438 1223.47C1402.8 1219.47 1382.53 1217.2 1372 1215.87C1366.13 1215.2 1355.33 1214.13 1348 1213.33C1340.67 1212.67 1326.53 1211.2 1316.67 1210C1306.8 1208.93 1292.67 1207.47 1285.33 1206.67C1253.73 1203.33 1235.07 1201.2 1222 1199.33C1214.27 1198.13 1205.87 1197.33 1203.33 1197.33C1200.8 1197.33 1192.13 1196.53 1184 1195.47C1176 1194.4 1163.33 1192.8 1156 1192C1148.67 1191.2 1137.87 1190 1132 1189.33C1126.13 1188.67 1110.27 1186.93 1096.8 1185.47C1083.33 1184 1071.73 1182.27 1071.07 1181.6C1070.4 1180.93 1070.13 1171.87 1070.27 1161.47L1070.67 1142.4L1078.67 1139.87C1083.07 1138.53 1091.47 1136.13 1097.33 1134.53C1121.73 1127.87 1128.27 1124 1133.47 1112.67C1137.33 1104.53 1137.33 1102 1134 1092.93C1130.27 1082.93 1122.67 1076.4 1111.87 1074.13C1108 1073.2 1104.67 1074 1080 1080.8C1076.4 1081.87 1072.53 1082.4 1071.73 1082C1070.4 1081.6 1070 977.867 1070 570V58.6667H1074.27C1076.67 58.6667 1083.33 59.2 1089.2 60ZM1012.4 578.533L1012.67 1096.4L1007.47 1102C996.667 1113.73 996.667 1129.6 1007.47 1140L1012.8 1145.07L1012.4 1163.47L1012 1181.87L1008.53 1182.8C1006.53 1183.33 997.867 1184.4 989.2 1185.2C980.4 1186 968 1187.2 961.334 1188C954.8 1188.67 940.934 1190.27 930.667 1191.33C920.4 1192.4 904.267 1194.27 894.667 1195.33C885.2 1196.4 868.934 1198.13 858.667 1199.2C811.6 1204.27 800.534 1205.47 790 1206.67C783.734 1207.47 763.734 1209.47 745.334 1211.33C727.067 1213.2 706.667 1215.2 700 1216C693.467 1216.67 679.6 1218.27 669.334 1219.33C659.067 1220.4 642.934 1222.27 633.334 1223.33C623.867 1224.4 609.734 1226 602 1226.8C580.934 1229.2 566.8 1230.27 565.734 1229.73C565.067 1229.47 564.667 997.867 564.667 715.2C564.667 299.067 564.934 201.333 566.4 201.333C567.334 201.333 569.334 202.267 570.934 203.333C572.667 204.533 581.467 206 594.8 207.467C618 209.733 636.267 212.4 650.667 215.467C663.467 218.133 670.4 217.867 677.067 214.533C688.534 208.8 692.667 202 692.667 188.933C692.667 178.267 687.734 169.6 679.2 165.2C670.8 160.933 639.6 155.467 604.934 152C584.934 150 578.667 150.267 572.4 153.333C569.334 154.8 566.4 156 565.734 156C564.267 156 564.4 109.6 565.867 108.667C567.067 108 601.734 104 629.334 101.333C636 100.8 646.4 99.6 652.667 98.8C663.6 97.4667 679.067 95.7333 719.334 91.3333C730 90.1333 746.534 88.4 756 87.3333C789.867 83.6 834.8 78.8 870 75.3333C880.667 74.2667 896.8 72.4 906 71.3333C915.2 70.2667 931.2 68.5333 941.734 67.3333C952.134 66.2667 968.934 64.4 979.067 63.3333C1002.67 60.6667 1006.13 60.4 1009.33 60.5333C1012 60.6667 1012 61.7333 1012.4 578.533Z" fill="black"/>
<path d="M457.334 158.666C455.2 159.2 446.667 161.2 438.534 163.2C420.134 167.466 398 174.666 383.334 181.066C367.6 187.866 361.334 204.4 368.8 219.466C375.2 232.4 390.267 238 404.667 232.666C429.734 223.6 465.6 213.333 472.534 213.333C476.134 213.333 485.734 209.466 490.267 206.266C495.867 202.133 500.667 192 500.667 184.133C500.667 173.6 496 166 485.734 159.6C481.867 157.2 465.067 156.533 457.334 158.666Z" fill="black"/>
<path d="M286.001 241.2C273.601 248.933 243.334 281.733 226.267 306C214.401 322.667 214.667 337.6 227.334 348.267C233.734 353.867 242.401 356 251.334 354.267C259.601 352.533 263.467 349.467 272.934 336.933C284.934 320.933 295.334 309.067 310.534 294C321.867 282.8 324.401 279.467 326.534 273.2C329.601 264 328.801 258.533 322.934 249.867C317.067 241.2 310.134 237.467 300.001 237.467C293.467 237.333 290.934 238.133 286.001 241.2Z" fill="black"/>
<path d="M186.667 402.667C175.467 408.4 171.067 418.933 164 456.667C160 477.467 156.667 501.867 156.667 508.933C156.667 524.4 169.6 537.333 184.934 537.333C197.334 537.333 210.4 525.333 212.134 512.4C214.4 495.6 217.467 477.867 221.734 457.333C227.067 432.267 227.734 421.6 224.4 415.333C221.467 409.733 215.467 404 210.4 401.867C204 399.067 192.934 399.467 186.667 402.667Z" fill="black"/>
<path d="M171.733 593.467C166.133 595.067 158.667 602.667 155.867 609.067C153.467 615.067 153.333 621.333 155.333 642C158.4 675.067 163.733 709.067 166.667 714.667C168.667 718.4 174.133 723.733 179.6 727.067C185.067 730.533 198.667 730.133 205.333 726.267C216.933 719.733 221.2 707.733 218.267 689.467C215.2 670.533 212.667 650.533 210.667 630.667C208.267 607.867 206.667 603.733 197.333 596.667C193.733 593.867 190.933 592.933 184.4 592.533C179.733 592.267 174 592.667 171.733 593.467Z" fill="black"/>
<path d="M211.867 784.8C197.067 790 190 806.667 195.733 822.667C200.533 836.267 204.8 846.667 207.2 850.667C207.867 851.733 209.733 855.333 211.333 858.667C217.6 871.067 226.533 877.333 238 877.333C248.267 877.333 256.133 872.533 262.667 862.267C266.4 856.4 265.867 842.4 261.6 834C256.8 824.4 253.467 816.533 250 806.933C246 796 238.533 787.6 230.4 784.8C222.933 782.267 219.067 782.267 211.867 784.8Z" fill="black"/>
<path d="M258.667 897.2C251.6 898.533 243.867 901.333 237.334 904.933C234.4 906.667 230.534 908.533 228.8 909.333C222.134 912.267 205.467 930.933 200.267 941.333C192.8 956.533 190.934 965.867 191.734 984C192.667 1006.4 198.534 1020.93 212.8 1036.53C229.067 1054.4 251.067 1064 275.067 1064C297.867 1063.87 317.467 1056 332.8 1040.93C354.267 1019.87 363.467 991.2 357.467 964C354 948.8 351.467 942.8 343.2 931.333C332 916 319.6 906.667 300.8 899.867C292.667 896.8 268.4 895.333 258.667 897.2ZM289.334 956C299.6 962.4 305.2 975.333 302.267 986.267C296.134 1009.07 269.067 1015.33 253.6 997.333C242 983.733 247.2 962.267 263.867 954.4C270.667 951.2 282.934 952 289.334 956Z" fill="black"/>
<path d="M1245.33 111.333C1239.6 114.4 1234.13 120 1231.2 125.6C1228.8 130.4 1228.67 135.333 1228.67 261.467V392.267L1232.27 398.933C1243.47 419.333 1272.53 417.733 1282.13 396.133C1284.53 390.8 1284.67 386.933 1284.67 342.8V295.2L1347.07 264C1381.33 246.933 1411.6 231.2 1414.27 229.067C1420.27 224.4 1424.67 215.2 1424.67 207.333C1424.67 199.467 1420.27 190.267 1414.27 185.733C1411.6 183.6 1376.93 165.733 1337.33 146C1270.53 112.667 1264.8 110 1257.33 109.6C1251.87 109.333 1248.13 109.867 1245.33 111.333ZM1309.87 195.333C1321.73 201.067 1331.33 206.533 1331.33 207.333C1331.33 209.2 1287.6 230.933 1286 230C1284.53 229.067 1284.13 186.267 1285.6 184.8C1286.8 183.733 1284.8 182.8 1309.87 195.333Z" fill="black"/>
<path d="M1265.73 472C1254.4 478 1248.67 491.2 1251.87 503.467C1252.8 507.067 1257.47 516.4 1262.13 524.267C1266.8 532.133 1272.53 541.733 1274.67 545.6C1282.4 559.2 1298.8 565.067 1311.2 558.667C1326.27 551.067 1331.33 535.067 1323.73 518.933C1319.33 509.467 1305.6 486.4 1300.27 479.6C1298.13 476.8 1294 473.333 1291.2 472C1284.4 468.533 1272.4 468.533 1265.73 472Z" fill="black"/>
<path d="M1333.87 609.333C1326.8 610.533 1320.53 614.8 1316.13 621.067C1312.53 626.133 1312.13 627.867 1312 636.4C1312 641.733 1313.07 649.6 1314.27 654C1318.27 668.4 1322.67 693.333 1325.33 717.067C1327.07 732.533 1334.93 742.533 1347.47 745.2C1368.13 749.733 1383.87 733.867 1381.33 711.067C1379.07 689.6 1374.93 664.667 1371.2 650C1370.4 647.067 1369.33 642 1368.67 638.667C1364.27 616.8 1351.6 606.133 1333.87 609.333Z" fill="black"/>
<path d="M1338.67 803.867C1328.4 810.267 1325.73 815.067 1322.67 832C1319.2 851.733 1315.2 867.467 1309.07 884.667C1302.53 903.2 1301.73 907.733 1303.33 914.8C1306.27 926.667 1319.47 937.333 1331.33 937.333C1336.8 937.333 1348.13 931.333 1352.13 926.267C1355.73 921.733 1361.2 908.4 1365.47 894C1366.53 890.267 1368.27 884.267 1369.47 880.667C1370.53 876.933 1372 871.2 1372.67 867.733C1373.33 864.133 1374.13 860.933 1374.4 860.4C1375.73 858.267 1379.33 834.4 1379.33 827.867C1379.33 817.467 1373.87 808.8 1364.4 803.867C1357.6 800.4 1344.13 800.4 1338.67 803.867Z" fill="black"/>
<path d="M1258.53 975.733C1256.13 976.933 1248 983.733 1240.53 990.8C1223.2 1006.93 1218.27 1011.07 1199.87 1024.67C1181.87 1038.13 1178.53 1043.2 1179.73 1056.27C1181.07 1071.6 1191.6 1081.2 1207.07 1081.33C1217.2 1081.33 1218.53 1080.67 1239.87 1064.8C1256.4 1052.53 1259.2 1050.13 1277.33 1033.33C1294.53 1017.2 1297.2 1013.33 1297.73 1002.67C1298.53 990 1293.73 981.333 1283.07 975.867C1276.67 972.667 1264.27 972.533 1258.53 975.733Z" fill="black"/>
<path d="M760.933 197.467C758.4 198.133 753.867 201.333 750.8 204.533C743.6 211.733 741.2 219.733 743.333 229.867C745.333 239.867 750.533 245.333 764.933 252.667C782 261.467 792.133 267.867 810.267 281.467C832.267 298.133 838.267 300 850.133 294.8C870.667 285.733 873.467 260.133 855.6 245.6C852.133 242.933 848.8 240 848 239.067C843.6 234 803.867 208.933 788 201.333C778 196.533 768.533 195.067 760.933 197.467Z" fill="black"/>
<path d="M892.801 332.534C885.334 335.2 878.534 342 876.134 348.8C873.067 358 873.067 358.667 878.667 379.334C882.667 394.134 883.734 401.734 884.534 424.667C885.467 450.8 886.134 453.2 894.001 460.934C896.267 463.2 901.201 466 904.934 467.2C911.201 469.2 912.267 469.2 919.467 467.2C928.001 464.8 934.001 459.867 938.267 451.467C940.801 446.667 940.934 444.4 940.267 420.134C939.601 390.534 937.734 378.8 929.601 353.334C923.867 335.867 908.267 326.934 892.801 332.534Z" fill="black"/>
<path d="M871.467 517.467C864.267 519.6 861.201 522.267 852.134 533.867C840.534 548.667 827.867 561.467 812.001 574.133C796.667 586.4 793.467 591.333 793.334 602.8C793.334 613.333 798.667 622 808.667 627.067C814.801 630.267 817.201 630.8 822.801 630.267C831.734 629.333 835.601 627.333 851.067 614.8C874.401 596 901.601 565.333 905.734 553.467C910.134 540.933 905.067 527.2 893.334 520C888.401 516.933 877.467 515.6 871.467 517.467Z" fill="black"/>
<path d="M717.067 635.333C698.267 643.467 657.734 677.467 642.534 697.867C637.067 705.2 636.667 706.133 636.667 714.133C636.667 734.533 653.2 746.8 673.334 741.2C677.334 740 681.867 736.4 692.667 725.467C707.867 710 721.334 698.8 736.267 689.067C747.467 681.6 751.867 676.4 754 667.733C759.467 646.4 736.934 626.667 717.067 635.333Z" fill="black"/>
<path d="M610.534 793.2C597.734 802.533 596.4 806.8 596.4 839.333C596.4 866.933 599.734 893.867 604.934 907.6C612.534 928.267 638 933.2 652.267 916.933C660.267 907.733 660.667 903.067 655.467 875.467C653.2 863.867 652.667 855.6 652.667 835.067C652.667 812.267 652.4 808.667 650.134 804.267C644.934 794 636.934 789.333 624.934 789.333C616.934 789.333 615.067 789.867 610.534 793.2Z" fill="black"/>
<path d="M671.067 971.2C658 976.267 652.134 984.267 652.134 997.333C652.134 1008 653.6 1011.2 666.934 1027.6C684.534 1049.33 714.934 1077.73 726.4 1083.07C739.6 1089.07 754.934 1082.93 762.267 1068.8C766 1061.47 765.2 1049.2 760.667 1042.53C758.8 1040 750.934 1032.4 743.2 1025.73C729.6 1014.13 720.134 1004 704.8 984.933C694.267 971.867 682.267 967.067 671.067 971.2Z" fill="black"/>
<path d="M827.334 1079.47C815.467 1083.6 808.267 1093.6 808.134 1105.87C808.134 1116.4 812.134 1124.27 820.667 1129.73C824.934 1132.53 847.6 1139.33 865.334 1143.2C894.534 1149.47 916.667 1151.87 925.467 1149.47C940.267 1145.47 949.467 1125.33 942.534 1111.6C936.667 1100 928.934 1096 908 1093.33C890.4 1091.2 882.4 1089.6 858 1083.33C853.2 1082 846.667 1080.13 843.467 1079.2C836.134 1076.93 834.8 1076.93 827.334 1079.47Z" fill="black"/>
</svg>
