<svg width="1617" height="1421" viewBox="0 0 1617 1421" fill="none" xmlns="http://www.w3.org/2000/svg">
<path d="M1574 6.46666C1564.8 10.0667 1553.47 14.4667 1548.67 16.3333C1531.73 22.4667 1505.2 32.0667 1500 33.9333C1497.07 34.8667 1493.47 36.2 1492 36.8667C1490.53 37.5333 1486.8 39 1483.73 40.2C1480.53 41.4 1475.73 43.1333 1473.07 44.2C1470.27 45.2667 1457.87 49.8 1445.33 54.3333C1432.93 58.8667 1420.53 63.2667 1418 64.2C1415.47 65.2667 1410.8 67 1407.73 68.2C1404.53 69.4 1399.73 71.2667 1397.07 72.3333C1394.27 73.4 1380.93 78.2 1367.33 83.1333C1344.53 91.2667 1332.53 95.6667 1320.67 100.333C1318.13 101.4 1306.13 105.8 1294 110.2C1266.27 120.2 1247.2 127.267 1238.67 130.6C1235.07 132.067 1230.53 133.667 1228.67 134.333C1221.07 136.867 1180.8 151.667 1174 154.333C1170 155.933 1165.2 157.533 1163.33 157.933C1161.47 158.333 1159.47 159.133 1158.67 159.667C1157.33 160.733 1154.93 161.667 1121.33 173.533C1111.87 176.867 1102.8 180.2 1101.33 180.867C1096.8 182.867 1088.93 185.8 1065.33 194.333C1052.93 198.867 1040.53 203.4 1038 204.333C1027.87 208.067 1006.4 216.067 1002.67 217.4C1000.53 218.2 996.8 219.533 994.4 220.6C992.134 221.533 989.467 222.333 988.4 222.333C987.334 222.333 986 222.867 985.334 223.4C984.534 224.067 976.267 227.4 966.667 230.733C957.2 234.067 944.267 238.733 938 241C931.734 243.267 925.2 245.667 923.334 246.333C921.467 247 916.667 248.733 912.667 250.333C908.667 251.933 895.734 256.733 884 261C872.267 265.267 857.867 270.467 852 272.733C846.134 274.867 835.334 278.867 828 281.667C820.667 284.333 812.534 287.4 810 288.333C807.467 289.4 800 292.067 793.334 294.333C780.934 298.6 773.734 301.4 766.4 304.467C764.134 305.533 761.467 306.333 760.4 306.333C759.334 306.333 758 306.867 757.334 307.533C756.534 308.2 748.267 311.4 738.667 314.733C712.134 323.933 695.067 330.333 691.067 332.467C689.2 333.533 686.667 334.333 685.467 334.333C684.4 334.333 681.467 335.267 679.067 336.2C673.467 338.733 658.134 344.467 636 352.333C626.534 355.667 616.267 359.4 613.334 360.6C610.4 361.667 605.734 363.4 603.067 364.467C600.267 365.533 595.734 367.133 593.067 368.2C590.267 369.267 577.867 373.8 565.334 378.333C552.934 382.867 540.267 387.4 537.334 388.6C534.4 389.667 529.867 391.4 527.334 392.333C520.667 394.733 512.934 397.667 506.667 400.067C503.734 401.267 493.6 405 484 408.333C474.534 411.8 464.4 415.4 461.734 416.467C458.934 417.533 454.267 419.267 451.334 420.333C441.2 424.067 434.667 426.733 430.4 428.467C428.134 429.533 425.734 430.333 425.2 430.333C424.267 430.333 399.334 439.133 386 444.2C373.6 449 369.6 450.467 365.067 452.2C362.267 453.267 357.6 455 354.667 456.067C351.734 457.267 341.6 461 332 464.333C322.534 467.8 312.267 471.4 309.334 472.6C306.4 473.667 301.867 475.4 299.334 476.333C292.667 478.733 284.934 481.667 278.667 484.067C275.734 485.267 265.6 489 256 492.333C246.534 495.8 236.4 499.4 233.734 500.467C230.934 501.533 226.4 503.133 223.734 504.2C218.134 506.2 210 509.267 202.4 512.2C199.6 513.267 187.2 517.8 174.667 522.333C162.267 526.867 149.6 531.4 146.667 532.6C143.734 533.667 139.2 535.4 136.667 536.333C134.134 537.267 129.6 539 126.667 540.067C123.734 541.267 111.2 545.8 98.667 550.333C86.267 554.867 73.7337 559.4 71.067 560.467C68.267 561.533 63.6004 563.267 60.667 564.333C55.067 566.467 47.0671 569.533 39.3337 572.467C36.8004 573.4 30.267 575.667 24.9337 577.533C11.2004 582.333 7.86705 584.333 4.00038 589.933C-1.99962 598.867 0.133718 611.533 8.80038 618.067C10.5337 619.4 18.6671 624.333 26.667 628.867C34.8004 633.533 46.8004 640.467 53.3337 644.333C60.0004 648.2 67.467 652.6 70.0004 653.933C81.067 660.2 160.667 706.2 167.334 710.2C169.867 711.667 172.934 713.4 174 713.933C175.067 714.467 183.2 719.133 192 724.333C200.8 729.533 208.934 734.2 210 734.733C211.067 735.267 213.2 736.467 214.667 737.4C216.134 738.333 224.534 743.133 233.334 748.2C242.134 753.267 255.867 761.267 263.734 765.8C271.734 770.467 278.4 774.333 278.667 774.333C278.8 774.333 286.534 778.733 295.467 784.067C304.534 789.4 312.934 794.2 314 794.733C315.067 795.267 318 796.867 320.4 798.333C322.8 799.8 336.934 808.067 351.734 816.6C366.534 825.133 380.934 833.533 383.6 835.267C386.4 836.867 388.934 838.333 389.2 838.333C389.734 838.333 415.6 853.133 419.334 855.667C420.4 856.467 422.267 857.4 423.334 857.933C424.4 858.467 428.934 861 433.334 863.667C437.734 866.333 445.6 870.867 450.667 873.667C468.534 883.4 467.734 882.2 470.534 903.267C471.734 913.4 474.267 932.733 476.134 946.333C478 959.933 479.734 973.133 480 975.667C481.867 990.867 485.067 1013.93 486.8 1023.8C487.867 1030.2 488.667 1037.4 488.667 1039.8C488.667 1042.33 489.467 1049.13 490.534 1055C492.4 1065 494 1077.13 496.8 1099C497.334 1104.07 499.067 1117.27 500.667 1128.33C502.134 1139.27 503.867 1153.4 504.667 1159.67C505.467 1165.93 506.534 1174.87 507.334 1179.67C508 1184.47 509.467 1195.53 510.667 1204.33C511.734 1213.13 513.6 1226.33 514.667 1233.67C515.6 1241 517.467 1254.2 518.667 1263C519.867 1271.8 521.467 1282.87 522.134 1287.67C522.934 1292.47 524 1300.87 524.667 1306.33C525.867 1316.33 528.667 1337.93 531.334 1357C532 1362.47 533.2 1372.47 533.867 1379.27C535.334 1393.4 537.467 1398.33 544.267 1403C550.4 1407 561.467 1407.67 566.8 1404.07C568.667 1402.87 577.334 1393.4 586 1383.13C594.667 1372.73 609.067 1355.67 618 1345C627.067 1334.33 641.6 1317 650.4 1306.33C659.334 1295.67 666.934 1286.73 667.334 1286.33C667.734 1285.93 672.534 1280.2 678.134 1273.67C683.6 1267 694.667 1253.8 702.667 1244.33C710.667 1234.73 721.734 1221.53 727.2 1215C732.8 1208.33 737.6 1202.73 738 1202.33C738.667 1201.8 761.2 1175 791.2 1139C796.8 1132.33 803.467 1124.6 806.134 1121.8C812 1115.53 807.867 1113.27 844.267 1141.4C858.934 1152.73 882.134 1170.33 895.6 1180.47C908.934 1190.6 920.267 1199.13 920.667 1199.67C921.067 1200.07 926.134 1203.93 932 1208.47C937.867 1212.87 957.067 1227.53 974.667 1241C992.267 1254.47 1021.33 1276.73 1039.2 1290.33C1057.2 1303.93 1075.73 1318.07 1080.53 1321.67C1085.33 1325.4 1103.73 1339.4 1121.33 1352.73C1138.93 1366.2 1154.53 1378.2 1156 1379.4C1157.47 1380.73 1169.47 1389.93 1182.8 1399.93C1210.27 1420.6 1214.53 1422.6 1224 1419.13C1233.47 1415.53 1235.73 1411.4 1242.53 1387C1243.6 1383.27 1245.33 1377 1246.53 1373C1252.4 1352.2 1255.07 1342.33 1261.47 1318.33C1264 1308.47 1266.67 1298.87 1267.2 1297C1267.87 1295.13 1269.47 1289.8 1270.67 1285C1273.33 1275.27 1275.87 1266.2 1278.8 1256.33C1279.87 1252.6 1283.47 1239.4 1286.67 1227C1293.73 1199.93 1296.4 1190.47 1298.8 1181.93C1299.87 1178.47 1301.47 1172.87 1302.53 1169.27C1303.47 1165.8 1305.47 1159.13 1306.67 1154.33C1308 1149.53 1309.73 1143 1310.67 1139.67C1311.6 1136.33 1314.27 1126.47 1316.67 1117.67C1321.33 1100.07 1324 1090.47 1326.8 1080.33C1327.87 1076.6 1329.6 1070.47 1330.67 1066.6C1331.73 1062.87 1333.6 1056.47 1334.67 1052.6C1336.27 1047.13 1347.73 1005.4 1356.67 972.333C1357.2 970.067 1359.07 963.533 1360.67 957.667C1362.27 951.8 1364.13 945.133 1364.67 943C1366.13 937.933 1379.87 886.867 1382.8 876.333C1384 871.933 1385.73 865.667 1386.67 862.333C1389.87 851.533 1395.6 831.133 1398.53 820.333C1406.67 789.933 1411.07 773.667 1414.67 761C1415.6 757.667 1417.33 751.133 1418.67 746.333C1420 741.533 1421.73 735.267 1422.8 732.333C1423.73 729.4 1428.13 712.867 1432.67 695.667C1437.2 678.467 1441.73 661.533 1442.8 657.933C1446.53 645.4 1448.4 638.867 1450.67 630.333C1451.87 625.533 1453.47 620.2 1454.13 618.333C1454.67 616.467 1457.6 605.933 1460.53 595C1468.4 565.267 1471.33 554.333 1473.47 547C1474.53 543.267 1476 538.2 1476.67 535.667C1477.33 533.133 1478.8 527.933 1479.87 524.333C1483.6 511.267 1494.8 470.067 1496.8 461.667C1497.47 458.733 1498.53 454.867 1499.2 453C1499.87 451.133 1501.47 445.8 1502.67 441C1505.33 431.267 1507.87 422.067 1510.8 412.333C1511.87 408.6 1516.27 392.2 1520.67 375.667C1525.07 359.133 1529.47 342.467 1530.67 338.6C1533.73 327.933 1539.2 308.6 1542.53 296.333C1543.73 291.933 1546.53 281.667 1548.67 273.667C1550.93 265.533 1553.73 255.4 1554.8 251C1556 246.6 1557.87 239.933 1558.8 236.333C1562.93 221.933 1564.93 214.733 1566.67 209C1567.6 205.667 1569.33 199.4 1570.53 195C1573.47 184.467 1587.2 133.4 1588.67 128.333C1589.2 126.067 1591.07 119.533 1592.67 113.667C1594.27 107.8 1596.13 101.133 1596.67 99C1606.4 62.7333 1612.93 39.1333 1614.67 34.3333C1615.73 31 1616.67 24.8667 1616.67 20.6C1616.67 14.2 1616 11.9333 1613.07 8.06666C1605.2 -2.20001 1596.8 -2.60001 1574 6.46666ZM1463.33 95.4C1463.33 95.9333 1459.33 99.5333 1454.4 103.267C1449.33 107 1441.2 113.4 1436 117.267C1430.93 121.267 1415.2 133.267 1401.07 143.933C1386.93 154.733 1366.53 170.2 1355.87 178.6C1345.07 186.867 1328.93 199.267 1320.13 206.067C1311.2 212.867 1303.07 219.267 1301.87 220.2C1300.67 221.267 1290.13 229.267 1278.53 238.067C1266.8 246.867 1252.8 257.533 1247.2 261.8C1241.6 266.2 1228.4 276.2 1217.87 284.2C1207.33 292.333 1190.93 304.867 1181.33 312.333C1171.87 319.8 1155.33 332.333 1144.8 340.467C1122.8 357.133 1116.53 361.933 1090.53 381.933C1080.13 389.8 1060.4 405 1046.53 415.533C1032.67 426.2 1007.2 445.667 990 458.867C972.8 472.067 951.734 488.2 943.334 494.6C934.934 501 927.067 507 925.867 508.067C924.8 509 911.867 519 897.2 530.067C837.2 575.933 821.2 588.067 817.334 591C800.134 604.333 785.334 615.8 769.334 627.933C759.067 635.8 737.734 652.067 722 664.2C706.267 676.333 678.934 697.267 661.467 710.6C613.734 747.133 614.267 746.733 582.667 771C566.534 783.4 540.8 803.133 525.334 814.733C510 826.467 495.2 837.8 492.667 839.933C486.8 844.733 484.8 844.6 475.6 839.267C471.467 836.867 467.067 834.467 466 833.933C464.934 833.4 462.267 831.8 460 830.333C457.867 828.867 455.067 827.267 454 826.733C452.934 826.2 444.534 821.4 435.467 816.067C426.534 810.733 418.8 806.333 418.667 806.333C418.4 806.333 410.534 801.8 401.334 796.333C392 790.867 384.267 786.333 384 786.333C383.734 786.333 377.6 782.867 370.4 778.6C363.2 774.333 356.4 770.467 355.334 769.933C354.267 769.4 352.4 768.467 351.334 767.667C348.4 765.8 323.067 751 320.667 749.933C319.6 749.4 316.534 747.667 314 746.2C308.534 743 279.734 726.2 263.334 716.733C257.067 713.133 251.067 709.667 250 709C241.467 704.067 213.734 688.067 210 685.933C207.467 684.6 200 680.2 193.334 676.333C178.8 667.933 153.2 653.133 149.334 651.133C147.867 650.2 144.134 647.933 141.067 645.933C137.867 643.933 135.067 642.333 134.667 642.333C134.4 642.333 128.134 638.867 121.067 634.6C113.867 630.333 107.067 626.467 106 625.933C104.934 625.4 102.8 624.2 101.334 623.267C99.7337 622.333 93.3337 618.6 86.9337 615C80.5337 611.267 75.3337 607.667 75.3337 606.867C75.3337 604.467 77.867 603.133 90.667 598.467C97.3337 596.067 105.6 592.867 109.2 591.4C112.934 589.933 124 585.8 133.867 582.333C154.8 575 166 571 173.067 568.2C183.2 564.333 189.467 561.933 194 560.333C196.534 559.4 201.067 557.667 204 556.6C206.934 555.4 217.2 551.8 226.667 548.333C236.267 545 246.267 541.267 249.067 540.2C254.534 538.2 262 535.267 269.734 532.467C272.4 531.4 277.067 529.667 280 528.6C282.934 527.4 295.6 522.867 308 518.333C320.534 513.8 332.8 509.4 335.334 508.467C337.867 507.4 342.4 505.8 345.334 504.6C348.267 503.533 353.067 501.667 356 500.6C358.934 499.4 369.2 495.667 378.667 492.333C388.267 488.867 398.267 485.267 401.067 484.2C410.267 480.733 417.334 478.067 422.4 476.2C425.067 475.133 429.6 473.533 432.4 472.467C435.067 471.4 445.2 467.667 454.667 464.333C464.267 460.867 474.4 457.267 477.334 456.067C480.267 455 484.8 453.267 487.334 452.333C489.867 451.4 494.534 449.667 497.734 448.467C500.8 447.267 505.867 445.4 509.067 444.2C521.867 439.267 524.8 438.2 541.334 432.333C550.934 429 560.934 425.267 563.734 424.2C566.4 423.133 571.067 421.4 574 420.333C576.934 419.267 581.6 417.533 584.4 416.467C587.067 415.4 599.6 410.867 612 406.333C624.534 401.8 636.934 397.267 639.734 396.2C642.4 395.133 646.934 393.533 649.734 392.467C658.267 389.267 665.2 386.733 670.667 384.6C673.6 383.4 683.867 379.667 693.334 376.333C702.934 372.867 712.934 369.267 715.734 368.2C726.134 364.2 732.134 361.933 736.667 360.333C739.2 359.4 743.734 357.667 746.667 356.6C749.6 355.4 759.867 351.667 769.334 348.333C778.934 344.867 789.067 341.267 792 340.067C797.734 337.933 804.8 335.267 813.067 332.2C815.734 331.133 820.267 329.533 823.067 328.467C825.734 327.4 835.867 323.667 845.334 320.333C854.934 316.867 864.934 313.267 867.734 312.2C870.4 311.133 874.934 309.533 877.734 308.467C880.4 307.4 885.334 305.533 888.667 304.333C901.6 299.4 904.534 298.333 921.334 292.333C940.8 285.4 957.867 279.133 985.734 268.467C988.4 267.4 998.534 263.8 1008 260.333C1017.6 257 1027.6 253.267 1030.4 252.2C1033.07 251.133 1037.87 249.4 1041.07 248.2C1044.13 247 1048.8 245.267 1051.33 244.2C1053.87 243.267 1066.27 238.867 1078.67 234.333C1091.2 229.8 1103.47 225.4 1106 224.467C1108.53 223.4 1113.07 221.8 1116 220.6C1124.27 217.533 1132.27 214.467 1137.73 212.333C1140.4 211.267 1150.53 207.667 1160 204.333C1169.6 201 1179.47 197.4 1182 196.467C1184.53 195.4 1189.33 193.667 1192.67 192.333C1196 191.133 1200.67 189.267 1203.07 188.2C1205.47 187.133 1208.53 186.333 1209.73 186.333C1211.07 186.333 1212.67 185.8 1213.47 185.133C1214.13 184.467 1219.2 182.333 1224.67 180.333C1230.13 178.333 1239.73 175 1246 172.733C1252.27 170.467 1259.73 167.8 1262.67 166.733C1265.6 165.8 1269.2 164.467 1270.67 163.8C1272.13 163.133 1275.73 161.8 1278.67 160.6C1281.6 159.533 1286.4 157.667 1289.33 156.6C1292.27 155.4 1302.53 151.667 1312 148.333C1321.6 145 1331.47 141.4 1334 140.467C1336.53 139.4 1343.73 136.733 1350 134.333C1356.27 132.067 1363.47 129.267 1366 128.333C1368.53 127.267 1378.53 123.667 1388 120.333C1403.6 114.867 1416.8 109.933 1432 104.067C1434.93 103 1439.73 101.133 1442.67 100.067C1445.6 99 1449.87 97.2667 1452 96.3333C1456.4 94.3333 1463.33 93.8 1463.33 95.4ZM1551.33 103.267C1551.33 103.933 1549.2 112.067 1546.53 121.667C1544 131.133 1541.33 141.4 1540.67 144.467C1540 147.4 1538.93 151.267 1538.27 153.133C1537.47 154.867 1535.87 160.2 1534.67 165C1533.33 169.8 1531.6 176.333 1530.67 179.667C1527.07 192.333 1522.67 208.6 1514.53 239C1511.6 249.8 1505.87 270.2 1502.67 281C1501.73 284.333 1500 290.6 1498.8 295C1494 312.467 1485.73 343.4 1484 349.667C1483.07 353.267 1481.33 359.667 1480 363.667C1478.8 367.667 1477.6 372.467 1477.2 374.333C1476.4 377.533 1474.67 383.8 1470.53 397.667C1469.47 401.267 1465.87 414.467 1462.53 427C1459.33 439.4 1455.73 453 1454.53 457C1453.47 461 1451.73 467.533 1450.67 471.267C1448.8 477.933 1447.2 483.667 1442.8 499C1439.07 512.6 1434.8 528.2 1426.53 559C1423.6 569.8 1417.87 590.2 1414.67 601C1413.73 604.333 1412 610.6 1410.8 615C1407.6 626.733 1398.13 661.8 1395.87 670.333C1394.8 674.333 1393.33 679.4 1392.8 681.667C1387.07 702.2 1385.6 707.533 1384.67 711C1377.73 736.467 1368.4 771.133 1366.8 776.733C1364.8 783.133 1363.33 788.6 1358.53 805.667C1357.6 809.267 1355.87 815.267 1354.8 819C1353.87 822.6 1352 829.267 1350.8 833.667C1348.93 840.6 1346.53 849.667 1338.8 877.667C1337.87 881.267 1336 888.2 1334.67 893C1333.47 897.8 1331.6 904.067 1330.67 907C1329.73 909.933 1328 915.933 1326.8 920.333C1324.27 929.4 1310.8 979.267 1307.87 990.333C1306.8 994.333 1305.33 999.4 1304.8 1001.67C1298.93 1022.47 1297.6 1027.53 1296.67 1031C1296 1033.13 1294.4 1039.13 1292.93 1044.33C1291.47 1049.4 1288.27 1060.87 1286 1069.67C1280.53 1090.07 1278.27 1098.73 1275.87 1107C1274.8 1110.6 1273.33 1115.8 1272.67 1118.33C1272 1120.87 1270.53 1125.93 1269.47 1129.67C1266.67 1139.53 1263.2 1152.33 1252 1193.67C1251.07 1197.27 1249.33 1203.67 1248.13 1207.67C1246.8 1211.67 1245.33 1217.4 1244.67 1220.47C1244 1223.4 1242.93 1227.27 1242.27 1229.13C1240.8 1232.6 1240 1235.8 1230.67 1271C1227.33 1283.4 1223.73 1297 1222.53 1301C1221.47 1305 1219.73 1311.53 1218.67 1315.27C1215.6 1326.33 1212.4 1337.13 1210.53 1343.53C1209.47 1346.87 1208.67 1350.47 1208.67 1351.53C1208.67 1352.73 1207.47 1355.67 1206 1358.07L1203.33 1362.47L1189.73 1352.07C1182.27 1346.33 1171.6 1338.2 1166 1333.93C1160.53 1329.67 1144.27 1317.27 1130 1306.33C1096.4 1280.87 1079.6 1268.07 1074.67 1264.07C1072.53 1262.33 1070.13 1260.47 1069.33 1259.93C1068.67 1259.4 1056.67 1250.33 1042.67 1239.67C1028.8 1229.13 1014.4 1218.2 1010.67 1215.27C1007.07 1212.47 992.267 1201.27 978 1190.33C942.667 1163.53 927.467 1151.93 922.667 1148.07C917.334 1143.93 919.067 1145.13 894 1126.2C881.867 1117 861.6 1101.53 848.8 1091.67C836.134 1081.8 821.067 1070.33 815.467 1066.2C809.867 1062.2 799.334 1054.2 792 1048.47C784.667 1042.87 766.667 1029.13 752 1018.07C726.134 998.467 719.2 993.133 713.067 987.4C709.334 984.067 709.467 983.933 726.267 966.467C733.067 959.4 744.134 947.933 750.667 941C828.8 858.733 852.534 833.667 878.8 806.333C885.467 799.4 896.534 787.667 903.467 780.333C921.734 761 941.067 740.6 953.334 727.8C959.2 721.667 966 714.467 968.534 711.8C971.067 709.133 977.867 701.933 983.867 695.667C989.867 689.4 1005.73 672.6 1019.33 658.333C1032.93 644.067 1050 626.067 1057.33 618.333C1064.8 610.6 1077.07 597.667 1084.67 589.667C1092.4 581.533 1104 569.267 1110.67 562.333C1126.53 545.8 1149.33 521.933 1162.8 507.667C1168.67 501.4 1179.47 490.067 1186.8 482.467C1194 474.867 1200.67 467.933 1201.33 467.133C1202.13 466.333 1208.67 459.267 1216 451.667C1223.33 443.933 1234.93 431.667 1241.87 424.333C1248.8 417 1259.87 405.267 1266.53 398.333C1273.33 391.4 1285.07 379 1292.67 371C1300.4 362.867 1317.73 344.6 1331.33 330.467C1344.93 316.2 1356.67 303.933 1357.33 303.133C1363.2 296.733 1389.2 269.4 1445.33 210.333C1452.8 202.6 1465.07 189.667 1472.67 181.667C1480.4 173.533 1491.2 162.2 1496.8 156.333C1502.4 150.467 1513.73 138.467 1522.13 129.667C1546.4 104.2 1548.27 102.333 1549.87 102.333C1550.67 102.333 1551.33 102.733 1551.33 103.267ZM1382.4 213.933C1381.47 214.333 1380.67 215.4 1380.67 216.333C1380.67 217.267 1380.27 218.333 1379.73 218.6C1379.07 218.733 1373.6 224.333 1367.33 231C1361.2 237.533 1349.73 249.667 1342 257.667C1334.27 265.8 1317.47 283.533 1304.67 297C1283.07 319.8 1270.67 332.733 1238.67 366.333C1232 373.267 1220.93 385 1214 392.333C1207.07 399.667 1190.53 417 1177.33 430.867C1164.13 444.733 1152.8 456.733 1152 457.533C1148.8 461 1124.8 486.333 1100 512.2C1085.33 527.533 1072.67 540.733 1072 541.533C1068.13 545.667 1022.27 594.2 1019.33 597.133C1017.47 599 1006.13 611 994 623.8C973.6 645.4 958.534 661.133 932 688.867C926.134 695 920.8 700.733 920 701.533C919.334 702.333 912.134 709.933 904 718.333C896 726.733 883.734 739.667 876.667 747C869.734 754.333 852 773 837.334 788.333C822.667 803.8 805.334 822.067 798.667 829C792.134 835.933 781.334 847.4 774.667 854.333C768 861.267 756.534 873.267 749.2 881C715.734 916.467 688.134 945.267 671.734 962.067C657.2 977 658.267 975 651.334 999.667C648.4 1010.33 641.6 1032.87 638.667 1041.67C637.734 1044.6 636 1050.6 634.667 1055C633.334 1059.4 631.467 1065.4 630.534 1068.33C629.6 1071.27 626.934 1079.67 624.8 1087C622.534 1094.33 618.267 1108.47 615.334 1118.33C612.267 1128.2 608.934 1139.27 607.867 1143C606.8 1146.6 605.334 1151.4 604.667 1153.67C604 1155.8 602.534 1160.6 601.467 1164.33C600.4 1167.93 595.867 1183 591.334 1197.67C586.934 1212.33 581.734 1229.4 579.867 1235.67C578 1241.93 575.6 1249.4 574.667 1252.33C573.734 1255.27 571.6 1262.07 570 1267.27C565.6 1281.53 563.334 1280.33 561.334 1263C560.934 1259.27 559.6 1249.67 558.534 1241.67C557.467 1233.53 555.734 1220.07 554.534 1211.67C553.467 1203.27 551.734 1190.33 550.667 1183C549.6 1175.67 547.867 1162.47 546.667 1153.67C545.467 1144.87 543.6 1131.67 542.534 1124.33C540.267 1108.2 537.6 1087.4 534.667 1065C527.6 1010.47 521.867 967.933 519.2 949.667C518.4 944.467 517.2 935.8 516.667 930.333C516.134 924.867 515.067 916.467 514.267 911.667C509.734 884.2 509.467 880.867 512.134 878.333C513.6 877 526.667 866.867 541.334 855.8C556 844.733 570.8 833.4 574.134 830.6C577.467 827.933 591.867 816.867 606.134 806.067C620.4 795.267 645.6 776.067 662.134 763.4C717.867 720.733 800.934 657 850.534 619C868.667 605 898.4 582.2 916.667 568.333C934.8 554.333 953.2 540.333 957.467 537C961.867 533.667 974.934 523.533 986.667 514.6C998.4 505.8 1022.13 487.667 1039.33 474.333C1056.53 461.133 1083.33 440.733 1098.67 429C1114.13 417.267 1130 405 1134 401.933C1138 398.733 1153.87 386.6 1169.2 374.867C1184.4 363.267 1210.67 343.133 1227.33 330.333C1367.2 223.133 1382.4 211.667 1383.33 212.6C1383.73 213 1383.2 213.667 1382.4 213.933ZM694.8 1027.27C696.134 1028.6 708.4 1038.07 722 1048.2C760.934 1077.53 775.334 1089 775.334 1090.73C775.334 1092.6 765.6 1104.6 737.734 1137C733.067 1142.47 718.134 1160.2 704.667 1176.33C691.2 1192.47 676.534 1209.93 672.134 1215.13C667.6 1220.33 662.8 1226.07 661.334 1227.8C618.534 1278.87 610.8 1287.67 609.6 1286.47C608.667 1285.53 608.8 1283.93 609.867 1281.4C610.934 1278.47 625.334 1231.8 632.667 1207C636.267 1194.87 638.8 1186.47 648.667 1154.33C654.667 1134.87 660.4 1115.93 661.467 1112.33C662.534 1108.6 664.267 1102.6 665.467 1099C666.534 1095.27 668 1090.47 668.667 1088.33C669.334 1086.07 672.267 1076.2 675.334 1066.33C678.267 1056.47 681.734 1045 682.8 1041C687.2 1025.27 689.467 1022.6 694.8 1027.27Z" fill="black"/>
</svg>
