<?xml version="1.0" standalone="no"?>
<!DOCTYPE svg PUBLIC "-//W3C//DTD SVG 20010904//EN"
 "http://www.w3.org/TR/2001/REC-SVG-20010904/DTD/svg10.dtd">
<svg version="1.0" xmlns="http://www.w3.org/2000/svg"
 width="1536.000000pt" height="1536.000000pt" viewBox="0 0 1536.000000 1536.000000"
 preserveAspectRatio="xMidYMid meet">
<metadata>
Created by potrace 1.10, written by Peter Selinger 2001-2011
</metadata>
<g transform="translate(0.000000,1536.000000) scale(0.100000,-0.100000)"
fill="#000000" stroke="none">
<path d="M12480 13879 c-69 -27 -154 -60 -190 -74 -127 -46 -326 -118 -365
-132 -22 -7 -49 -17 -60 -22 -11 -5 -39 -16 -62 -25 -24 -9 -60 -22 -80 -30
-21 -8 -114 -42 -208 -76 -93 -34 -186 -67 -205 -74 -19 -8 -54 -21 -77 -30
-24 -9 -60 -23 -80 -31 -21 -8 -121 -44 -223 -81 -171 -61 -261 -94 -350 -129
-19 -8 -109 -41 -200 -74 -208 -75 -351 -128 -415 -153 -27 -11 -61 -23 -75
-28 -57 -19 -359 -130 -410 -150 -30 -12 -66 -24 -80 -27 -14 -3 -29 -9 -35
-13 -10 -8 -28 -15 -280 -104 -71 -25 -139 -50 -150 -55 -34 -15 -93 -37 -270
-101 -93 -34 -186 -68 -205 -75 -76 -28 -237 -88 -265 -98 -16 -6 -44 -16 -62
-24 -17 -7 -37 -13 -45 -13 -8 0 -18 -4 -23 -8 -6 -5 -68 -30 -140 -55 -71
-25 -168 -60 -215 -77 -47 -17 -96 -35 -110 -40 -14 -5 -50 -18 -80 -30 -30
-12 -127 -48 -215 -80 -88 -32 -196 -71 -240 -88 -44 -16 -125 -46 -180 -67
-55 -20 -116 -43 -135 -50 -19 -8 -75 -28 -125 -45 -93 -32 -147 -53 -202 -76
-17 -8 -37 -14 -45 -14 -8 0 -18 -4 -23 -9 -6 -5 -68 -29 -140 -54 -199 -69
-327 -117 -357 -133 -14 -8 -33 -14 -42 -14 -8 0 -30 -7 -48 -14 -42 -19 -157
-62 -323 -121 -71 -25 -148 -53 -170 -62 -22 -8 -57 -21 -77 -29 -21 -8 -55
-20 -75 -28 -21 -8 -114 -42 -208 -76 -93 -34 -188 -68 -210 -77 -22 -8 -56
-21 -75 -28 -50 -18 -108 -40 -155 -58 -22 -9 -98 -37 -170 -62 -71 -26 -147
-53 -167 -61 -21 -8 -56 -21 -78 -29 -76 -28 -125 -48 -157 -61 -17 -8 -35
-14 -39 -14 -7 0 -194 -66 -294 -104 -93 -36 -123 -47 -157 -60 -21 -8 -56
-21 -78 -29 -22 -9 -98 -37 -170 -62 -71 -26 -148 -53 -170 -62 -22 -8 -56
-21 -75 -28 -50 -18 -108 -40 -155 -58 -22 -9 -98 -37 -170 -62 -71 -26 -147
-53 -167 -61 -21 -8 -55 -20 -75 -28 -42 -15 -103 -38 -160 -60 -21 -8 -114
-42 -208 -76 -93 -34 -188 -68 -210 -77 -22 -8 -56 -21 -75 -28 -19 -7 -53
-20 -75 -28 -22 -9 -116 -43 -210 -77 -93 -34 -187 -68 -207 -76 -21 -8 -56
-21 -78 -29 -42 -16 -102 -39 -160 -61 -19 -7 -68 -24 -108 -38 -103 -36 -128
-51 -157 -93 -45 -67 -29 -162 36 -211 13 -10 74 -47 134 -81 61 -35 151 -87
200 -116 50 -29 106 -62 125 -72 83 -47 680 -392 730 -422 19 -11 42 -24 50
-28 8 -4 69 -39 135 -78 66 -39 127 -74 135 -78 8 -4 24 -13 35 -20 11 -7 74
-43 140 -81 66 -38 169 -98 228 -132 60 -35 110 -64 112 -64 1 0 59 -33 126
-73 68 -40 131 -76 139 -80 8 -4 30 -16 48 -27 18 -11 124 -73 235 -137 111
-64 219 -127 239 -140 21 -12 40 -23 42 -23 4 0 198 -111 226 -130 8 -6 22
-13 30 -17 8 -4 42 -23 75 -43 33 -20 92 -54 130 -75 134 -73 128 -64 149
-222 9 -76 28 -221 42 -323 14 -102 27 -201 29 -220 14 -114 38 -287 51 -361
8 -48 14 -102 14 -120 0 -19 6 -70 14 -114 14 -75 26 -166 47 -330 4 -38 17
-137 29 -220 11 -82 24 -188 30 -235 6 -47 14 -114 20 -150 5 -36 16 -119 25
-185 8 -66 22 -165 30 -220 7 -55 21 -154 30 -220 9 -66 21 -149 26 -185 6
-36 14 -99 19 -140 9 -75 30 -237 50 -380 5 -41 14 -116 19 -167 11 -106 27
-143 78 -178 46 -30 129 -35 169 -8 14 9 79 80 144 157 65 78 173 206 240 286
68 80 177 210 243 290 67 80 124 147 127 150 3 3 39 46 81 95 41 50 124 149
184 220 60 72 143 171 184 220 42 50 78 92 81 95 5 4 174 205 399 475 42 50
92 108 112 129 44 47 13 64 286 -147 110 -85 284 -217 385 -293 100 -76 185
-140 188 -144 3 -3 41 -32 85 -66 44 -33 188 -143 320 -244 132 -101 350 -268
484 -370 135 -102 274 -208 310 -235 36 -28 174 -133 306 -233 132 -101 249
-191 260 -200 11 -10 101 -79 201 -154 206 -155 238 -170 309 -144 71 27 88
58 139 241 8 28 21 75 30 105 44 156 64 230 112 410 19 74 39 146 43 160 5 14
17 54 26 90 20 73 39 141 61 215 8 28 35 127 59 220 53 203 73 274 91 338 8
26 20 68 28 95 7 26 22 76 31 112 10 36 23 85 30 110 7 25 27 99 45 165 35
132 55 204 76 280 8 28 21 74 29 103 8 28 22 76 30 105 12 41 98 354 165 602
4 17 18 66 30 110 12 44 26 94 30 110 11 38 114 421 136 500 9 33 22 80 29
105 24 81 67 234 89 315 61 228 94 350 121 445 7 25 20 74 30 110 10 36 23 83
31 105 7 22 40 146 74 275 34 129 68 256 76 283 28 94 42 143 59 207 9 36 21
76 26 90 4 14 26 93 48 175 59 223 81 305 97 360 8 28 19 66 24 85 5 19 16 58
24 85 28 98 112 407 127 470 5 22 13 51 18 65 5 14 17 54 26 90 20 73 39 142
61 215 8 28 41 151 74 275 33 124 66 249 75 278 23 80 64 225 89 317 9 33 30
110 46 170 17 61 38 137 46 170 9 33 23 83 30 110 31 108 46 162 59 205 7 25
20 72 29 105 22 79 125 462 136 500 4 17 18 66 30 110 12 44 26 94 30 110 73
272 122 449 135 485 8 25 15 71 15 103 0 48 -5 65 -27 94 -59 77 -122 80 -293
12z m-830 -667 c0 -4 -30 -31 -67 -59 -38 -28 -99 -76 -138 -105 -38 -30 -156
-120 -262 -200 -106 -81 -259 -197 -339 -260 -81 -62 -202 -155 -268 -206 -67
-51 -128 -99 -137 -106 -9 -8 -88 -68 -175 -134 -88 -66 -193 -146 -235 -178
-42 -33 -141 -108 -220 -168 -79 -61 -202 -155 -274 -211 -71 -56 -195 -150
-274 -211 -165 -125 -212 -161 -407 -311 -78 -59 -226 -173 -330 -252 -104
-80 -295 -226 -424 -325 -129 -99 -287 -220 -350 -268 -63 -48 -122 -93 -131
-101 -8 -7 -105 -82 -215 -165 -450 -344 -570 -435 -599 -457 -129 -100 -240
-186 -360 -277 -77 -59 -237 -181 -355 -272 -118 -91 -323 -248 -454 -348
-358 -274 -354 -271 -591 -453 -121 -93 -314 -241 -430 -328 -115 -88 -226
-173 -245 -189 -44 -36 -59 -35 -128 5 -31 18 -64 36 -72 40 -8 4 -28 16 -45
27 -16 11 -37 23 -45 27 -8 4 -71 40 -139 80 -67 40 -125 73 -126 73 -2 0 -61
34 -130 75 -70 41 -128 75 -130 75 -2 0 -48 26 -102 58 -54 32 -105 61 -113
65 -8 4 -22 11 -30 17 -22 14 -212 125 -230 133 -8 4 -31 17 -50 28 -41 24
-257 150 -380 221 -47 27 -92 53 -100 58 -64 37 -272 157 -300 173 -19 10 -75
43 -125 72 -109 63 -301 174 -330 189 -11 7 -39 24 -62 39 -24 15 -45 27 -48
27 -2 0 -49 26 -102 58 -54 32 -105 61 -113 65 -8 4 -24 13 -35 20 -12 7 -60
35 -108 62 -48 28 -87 55 -87 61 0 18 19 28 115 63 50 18 112 42 139 53 28 11
111 42 185 68 157 55 241 85 294 106 76 29 123 47 157 59 19 7 53 20 75 28 22
9 99 36 170 62 72 25 147 53 168 61 41 15 97 37 155 58 20 8 55 21 77 29 22 9
117 43 210 77 94 34 186 67 205 74 19 8 53 20 75 29 22 8 58 22 80 30 22 9 99
37 170 62 72 26 147 53 168 61 69 26 122 46 160 60 20 8 54 20 75 28 20 8 96
36 167 61 72 26 148 53 170 62 22 8 56 21 75 28 19 7 54 20 78 29 23 9 61 23
85 32 96 37 118 45 242 89 72 25 147 53 168 61 20 8 55 21 77 29 22 8 57 21
78 29 20 8 114 42 207 76 94 34 187 68 208 76 20 8 54 20 75 28 64 24 116 43
157 59 22 9 99 37 170 62 72 26 147 53 168 61 78 30 123 47 157 59 19 7 53 20
75 28 22 9 99 37 170 62 72 26 148 53 170 62 43 16 96 36 158 59 20 8 54 20
75 28 20 8 96 36 167 61 72 26 147 53 168 61 20 8 54 20 75 28 20 8 57 22 82
31 97 37 119 45 245 90 146 52 274 99 483 179 20 8 96 35 167 61 72 25 147 53
168 61 20 8 56 21 80 30 23 9 58 22 77 30 19 7 112 40 205 74 94 34 186 67
205 74 19 8 53 20 75 29 62 23 122 46 163 62 20 8 96 35 167 60 72 25 146 52
165 59 19 8 55 21 80 31 25 9 60 23 78 31 18 8 41 14 50 14 10 0 22 4 28 9 5
5 43 21 84 36 41 15 113 40 160 57 47 17 103 37 125 45 22 7 49 17 60 22 11 5
38 15 60 24 22 8 58 22 80 30 22 9 99 37 170 62 72 25 146 52 165 59 19 8 73
28 120 46 47 17 101 38 120 45 19 8 94 35 165 60 117 41 216 78 330 122 22 8
58 22 80 30 22 8 54 21 70 28 33 15 85 19 85 7z m660 -59 c0 -5 -16 -66 -36
-138 -19 -71 -39 -148 -44 -171 -5 -22 -13 -51 -18 -65 -6 -13 -18 -53 -27
-89 -10 -36 -23 -85 -30 -110 -27 -95 -60 -217 -121 -445 -22 -81 -65 -234
-89 -315 -7 -25 -20 -72 -29 -105 -36 -131 -98 -363 -111 -410 -7 -27 -20 -75
-30 -105 -9 -30 -18 -66 -21 -80 -6 -24 -19 -71 -50 -175 -8 -27 -35 -126 -60
-220 -24 -93 -51 -195 -60 -225 -8 -30 -21 -79 -29 -107 -14 -50 -26 -93 -59
-208 -28 -102 -60 -219 -122 -450 -22 -81 -65 -234 -89 -315 -7 -25 -20 -72
-29 -105 -24 -88 -95 -351 -112 -415 -8 -30 -19 -68 -23 -85 -43 -154 -54
-194 -61 -220 -52 -191 -122 -451 -134 -493 -15 -48 -26 -89 -62 -217 -7 -27
-20 -72 -28 -100 -7 -27 -21 -77 -30 -110 -14 -52 -32 -120 -90 -330 -7 -27
-21 -79 -31 -115 -9 -36 -23 -83 -30 -105 -7 -22 -20 -67 -29 -100 -19 -68
-120 -442 -142 -525 -8 -30 -19 -68 -23 -85 -44 -156 -54 -194 -61 -220 -5
-16 -17 -61 -28 -100 -11 -38 -35 -124 -52 -190 -41 -153 -58 -218 -76 -280
-8 -27 -19 -66 -24 -85 -5 -19 -16 -57 -24 -85 -21 -74 -47 -170 -131 -480 -7
-27 -20 -75 -29 -105 -10 -30 -21 -73 -26 -96 -5 -22 -13 -51 -18 -65 -11 -26
-17 -50 -87 -314 -25 -93 -52 -195 -61 -225 -8 -30 -21 -79 -29 -107 -23 -83
-47 -164 -61 -212 -8 -25 -14 -52 -14 -60 0 -9 -9 -31 -20 -49 l-20 -33 -102
78 c-56 43 -136 104 -178 136 -41 32 -163 125 -270 207 -252 191 -378 287
-415 317 -16 13 -34 27 -40 31 -5 4 -95 72 -200 152 -104 79 -212 161 -240
183 -27 21 -138 105 -245 187 -265 201 -379 288 -415 317 -40 31 -27 22 -215
164 -91 69 -243 185 -339 259 -95 74 -208 160 -250 191 -42 30 -121 90 -176
133 -55 42 -190 145 -300 228 -194 147 -246 187 -292 230 -28 25 -27 26 99
157 51 53 134 139 183 191 586 617 764 805 961 1010 50 52 133 140 185 195
137 145 282 298 374 394 44 46 95 100 114 120 19 20 70 74 115 121 45 47 164
173 266 280 102 107 230 242 285 300 56 58 148 155 205 215 58 61 145 153 195
205 119 124 290 303 391 410 44 47 125 132 180 189 54 57 104 109 109 115 6 6
55 59 110 116 55 58 142 150 194 205 52 55 135 143 185 195 51 52 139 145 196
205 58 61 188 198 290 304 102 107 190 199 195 205 44 48 239 253 660 696 56
58 148 155 205 215 58 61 139 146 181 190 42 44 127 134 190 200 182 191 196
205 208 205 6 0 11 -3 11 -7z m-1267 -830 c-7 -3 -13 -11 -13 -18 0 -7 -3 -15
-7 -17 -5 -1 -46 -43 -93 -93 -46 -49 -132 -140 -190 -200 -58 -61 -184 -194
-280 -295 -162 -171 -255 -268 -495 -520 -50 -52 -133 -140 -185 -195 -52 -55
-176 -185 -275 -289 -99 -104 -184 -194 -190 -200 -24 -26 -204 -216 -390
-410 -110 -115 -205 -214 -210 -220 -29 -31 -373 -395 -395 -417 -14 -14 -99
-104 -190 -200 -153 -162 -266 -280 -465 -488 -44 -46 -84 -89 -90 -95 -5 -6
-59 -63 -120 -126 -60 -63 -152 -160 -205 -215 -52 -55 -185 -195 -295 -310
-110 -116 -240 -253 -290 -305 -49 -52 -130 -138 -180 -190 -50 -52 -136 -142
-191 -200 -251 -266 -458 -482 -581 -608 -109 -112 -101 -97 -153 -282 -22
-80 -73 -249 -95 -315 -7 -22 -20 -67 -30 -100 -10 -33 -24 -78 -31 -100 -7
-22 -27 -85 -43 -140 -17 -55 -49 -161 -71 -235 -23 -74 -48 -157 -56 -185 -8
-27 -19 -63 -24 -80 -5 -16 -16 -52 -24 -80 -8 -27 -42 -140 -76 -250 -33
-110 -72 -238 -86 -285 -14 -47 -32 -103 -39 -125 -7 -22 -23 -73 -35 -112
-33 -107 -50 -98 -65 32 -3 28 -13 100 -21 160 -8 61 -21 162 -30 225 -8 63
-21 160 -29 215 -8 55 -21 154 -30 220 -9 66 -23 165 -31 220 -17 121 -37 277
-59 445 -53 409 -96 728 -116 865 -6 39 -15 104 -19 145 -4 41 -12 104 -18
140 -34 206 -36 231 -16 250 11 10 109 86 219 169 110 83 221 168 246 189 25
20 133 103 240 184 107 81 296 225 420 320 418 320 1041 798 1413 1083 136
105 359 276 496 380 136 105 274 210 306 235 33 25 131 101 219 168 88 66 266
202 395 302 129 99 330 252 445 340 116 88 235 180 265 203 30 24 149 115 264
203 114 87 311 238 436 334 1049 804 1163 890 1170 883 3 -3 -1 -8 -7 -10z
m-5157 -6100 c10 -10 102 -81 204 -157 292 -220 400 -306 400 -319 0 -14 -73
-104 -282 -347 -35 -41 -147 -174 -248 -295 -101 -121 -211 -252 -244 -291
-34 -39 -70 -82 -81 -95 -321 -383 -379 -449 -388 -440 -7 7 -6 19 2 38 8 22
116 372 171 558 27 91 46 154 120 395 45 146 88 288 96 315 8 28 21 73 30 100
8 28 19 64 24 80 5 17 27 91 50 165 22 74 48 160 56 190 33 118 50 138 90 103z"/>
</g>
</svg>
