<svg width="1785" height="1786" viewBox="0 0 1785 1786" fill="none" xmlns="http://www.w3.org/2000/svg">
<path d="M1016.67 5.3336C1008.53 9.20027 987.467 30.0003 636.4 381.734L264.8 754L260.667 767.334C258.4 774.667 255.6 784 254.4 788C253.2 792 251.467 798 250.4 801.334C249.467 804.667 245.067 820.8 240.667 837.334C236.267 853.867 231.867 870.267 230.8 874C229.733 877.6 227.867 884.267 226.667 888.667C225.467 893.067 223.6 899.334 222.667 902.667C220.267 910.934 217.6 920.934 210.667 947.334C204 972.667 201.2 983.2 198.667 992C196.267 1000.13 193.333 1011.07 190.667 1020.67C189.6 1025.07 188 1030.4 187.333 1032.67C186.667 1034.8 184.533 1042.93 182.667 1050.67C180.8 1058.4 178.667 1066.4 178 1068.67C177.333 1070.8 175.867 1076.27 174.667 1080.67C173.467 1085.07 171.6 1092 170.533 1096C169.333 1100 167.467 1106.67 166.4 1110.67C165.333 1114.67 163.467 1120.93 162.533 1124.67C161.467 1128.27 157.867 1141.47 154.667 1154C148.4 1177.6 145.6 1188.13 142.533 1199.33C141.467 1202.93 139.733 1208.93 138.8 1212.67C137.733 1216.27 135.867 1223.2 134.667 1228C133.333 1232.8 131.6 1239.33 130.667 1242.67C129.733 1246 126.133 1259.47 122.667 1272.67C119.2 1285.87 115.6 1299.33 114.667 1302.67C113.733 1306 112 1312.53 110.667 1317.33C109.333 1322.13 107.6 1328.67 106.667 1332C103.6 1343.07 100.667 1353.87 94.6666 1376.67C88.3999 1400.27 85.4666 1411.2 82.6666 1421.33C81.7333 1424.67 79.9999 1431.2 78.6666 1436C77.3333 1440.8 75.5999 1447.33 74.6666 1450.67C73.7333 1454 70.1333 1467.47 66.6666 1480.67C63.1999 1493.87 59.5999 1507.33 58.6666 1510.67C57.7333 1514 55.9999 1520.53 54.6666 1525.33C53.4666 1530.13 51.5999 1537.33 50.3999 1541.33C49.3333 1545.33 47.5999 1551.6 46.5333 1555.33C45.5999 1558.93 43.8666 1564.93 42.7999 1568.67C41.7333 1572.27 39.0666 1582.8 36.6666 1592C34.3999 1601.2 31.5999 1611.6 30.6666 1615.33C29.5999 1618.93 27.8666 1625.6 26.6666 1630C25.4666 1634.4 23.8666 1640.13 23.0666 1642.67C22.2666 1645.2 21.0666 1649.47 20.5333 1652C19.9999 1654.53 18.5333 1659.6 17.4666 1663.33C15.5999 1669.87 12.7999 1680.27 4.53327 1711.33C1.4666 1723.07 0.399935 1730.27 0.266602 1738.4C0.266602 1750.93 2.2666 1756.8 10.2666 1767.47C19.8666 1780.27 31.3333 1785.33 50.7999 1785.33C61.1999 1785.33 66.6666 1784.4 85.5999 1779.33C116.8 1771.07 123.067 1769.33 130 1767.33C133.333 1766.27 139.6 1764.53 144 1763.33C148.4 1762.13 153.867 1760.53 156 1760C158.267 1759.33 165.733 1757.33 172.667 1755.47C196.933 1749.2 226.667 1741.2 234 1739.2C238 1738.13 244.4 1736.27 248 1735.33C251.733 1734.27 257.733 1732.53 261.333 1731.6C271.067 1728.8 281.333 1726 306.667 1719.33C335.067 1711.87 341.333 1710.13 365.333 1703.33C372.533 1701.33 385.2 1698 392.667 1696C396.8 1694.93 402 1693.47 425.333 1687.33C429.067 1686.27 435.6 1684.53 440 1683.33C450.8 1680.53 461.333 1677.47 468.667 1675.33C476.933 1672.93 486.8 1670.27 513.333 1663.33C537.333 1657.07 547.867 1654.13 558.667 1651.2C576 1646.27 580.267 1645.07 584.667 1643.73C587.2 1642.93 591.467 1641.73 594 1641.2C599.733 1639.87 609.867 1637.2 624 1633.33C629.867 1631.73 637.733 1629.6 641.333 1628.67C645.067 1627.73 651.6 1625.87 656 1624.67C660.4 1623.47 665.867 1621.87 668 1621.33C670.267 1620.8 676.8 1618.93 682.667 1617.33C688.533 1615.73 695.2 1613.87 697.333 1613.33C699.6 1612.8 706.133 1610.93 712 1609.33C733.467 1603.47 752.133 1598.4 755.333 1597.73C757.2 1597.47 761.733 1596.27 765.333 1595.2C769.067 1594.13 775.067 1592.4 778.667 1591.33C791.333 1587.87 800 1585.33 806.667 1583.47C810.4 1582.4 820.8 1579.6 830 1577.33C839.2 1575.07 849.333 1572.27 852.667 1571.33C856 1570.4 862.533 1568.67 867.333 1567.33C872.133 1566.13 878.667 1564.27 882 1563.33C885.333 1562.27 891.867 1560.53 896.667 1559.2C901.467 1558 908 1556.27 911.333 1555.33C925.467 1551.33 933.067 1549.33 950.667 1544.67C960.933 1542.13 970.8 1539.33 972.667 1538.8C974.533 1538.13 979.867 1536.67 984.667 1535.33C1003.07 1530.53 1021.33 1525.47 1028 1523.2C1032.4 1521.73 1098.93 1455.6 1405.47 1149.07C1739.2 815.067 1777.87 775.867 1780.8 769.334C1783.47 763.067 1784 759.867 1784 748C1784 723.467 1822.4 764.267 1422.13 363.867C1022.53 -35.8664 1062.93 2.26694 1038.67 1.7336C1026.27 1.3336 1024.67 1.60027 1016.67 5.3336ZM1089.6 172C1117.33 199.867 1140 223.467 1140 224.534C1140 225.6 1025.47 341.2 885.6 481.2L631.067 736H528.533C447.6 736 426 735.6 426 734.4C426 732.667 1036.53 121.334 1038.13 121.334C1038.67 121.334 1061.73 144.134 1089.6 172ZM1350.8 433.2C1426.13 508.8 1488.4 571.467 1489.07 572.8C1490.13 574.667 1446 619.334 1235.2 830.134L980 1085.33H841.733C706.4 1085.33 703.333 1085.33 702 1082.8C701.067 1081.07 700.667 1035.2 700.667 943.734V807.2L956.133 551.6C1096.53 411.067 1212 296 1212.67 296C1213.33 296 1275.47 357.734 1350.8 433.2ZM1613.6 696.267C1641.73 724.4 1664.67 747.867 1664.67 748.667C1664.67 751.067 1054.8 1360 1052.4 1360C1050.13 1360 1050 1354.27 1050 1257.87V1155.73L1305.2 900.534C1445.47 760.134 1560.8 645.334 1561.47 645.334C1562.13 645.334 1585.6 668.267 1613.6 696.267ZM600.4 837.6C601.6 838.8 602 874.534 602 990C602 1151.07 601.867 1147.33 608.667 1159.33C612.667 1166.67 617.467 1171.6 625.333 1176.67C639.6 1185.73 631.733 1185.33 799.067 1185.33C918.933 1185.33 950 1185.73 950 1186.93C950.533 1272.27 949.733 1444.8 948.8 1445.73C948.133 1446.4 944.267 1447.87 940.4 1448.93C936.533 1450 925.2 1452.93 915.333 1455.6C886.8 1463.07 869.867 1467.6 862 1469.87C858 1471.07 853.2 1472.27 851.333 1472.67C849.467 1473.07 845.067 1474.27 841.333 1475.33C837.733 1476.4 831.333 1478.13 827.333 1479.07C823.333 1480.13 816.4 1482 812 1483.2C807.6 1484.4 797.067 1487.2 788.667 1489.33C756.4 1497.73 752 1498.93 737.333 1503.2C733.733 1504.27 729.2 1505.33 727.333 1505.73C725.467 1506 720.667 1507.2 716.667 1508.4C696.667 1513.87 686.667 1516.53 672.667 1520.27C656.133 1524.4 654.8 1524.8 638.667 1529.33C632.8 1530.93 625.867 1532.8 623.333 1533.33C620.8 1533.87 615.067 1535.33 610.667 1536.67C601.867 1539.2 583.2 1544.13 555.333 1551.47C545.467 1554.13 534.4 1557.07 530.667 1558.13C527.067 1559.2 521.867 1560.67 519.333 1561.2C516.8 1561.87 511.333 1563.33 507.333 1564.4C494 1568 474.933 1573.07 454 1578.53C442.667 1581.47 432.4 1584 431.333 1584.4C426.533 1585.87 414 1589.33 406 1591.47C401.2 1592.67 394.933 1594.4 392.133 1595.33C389.333 1596.27 386 1596.67 384.8 1596.4C383.6 1596.13 379.333 1589.2 375.333 1580.93C339.333 1506.67 279.467 1447.07 205.067 1411.2C197.6 1407.6 191.067 1404 190.8 1403.07C190.133 1401.6 190.667 1399.6 194.8 1384.4C199.067 1368.8 200.667 1362.93 202.4 1356C203.467 1352 205.333 1345.07 206.533 1340.67C207.733 1336.27 210.533 1325.73 212.667 1317.33C217.467 1298.8 220.267 1288.27 222.8 1279.07C223.867 1275.2 225.6 1268.53 226.8 1264.4C228 1260.13 229.467 1254.8 230 1252.67C230.667 1250.4 233.333 1240.53 235.867 1230.67C244.933 1195.73 247.2 1187.2 249.333 1179.33C250.667 1174.93 252.133 1169.2 252.533 1166.67C253.067 1164.13 254.267 1159.87 255.067 1157.33C257.467 1149.6 262.4 1131.07 268.667 1106.67C270.933 1097.47 273.733 1086.67 274.933 1082.67C276 1078.67 277.867 1072 278.933 1068C282.4 1054.93 284.4 1047.47 286.4 1040C290.667 1024.8 292.533 1017.47 296.667 1001.33C299.067 992.134 301.733 981.6 302.8 978C303.733 974.267 305.6 967.734 306.667 963.334C307.867 958.934 309.733 952.134 310.8 948.267C311.867 944.534 313.467 938.134 314.533 934.267C319.467 916.267 320.8 911.067 326.667 888.667C330.133 875.467 333.733 862 334.8 858.8C335.867 855.467 336.667 851.6 336.667 850.134C336.667 848.534 337.867 844.8 339.333 841.6L341.867 836H470.4C568.533 836 599.2 836.4 600.4 837.6ZM173.2 1506.27C216 1528.93 255.867 1568.53 278.667 1611.2C283.733 1620.67 284.667 1623.2 283.2 1624.13C282.133 1624.8 280.533 1625.33 279.6 1625.33C278.667 1625.33 275.067 1626.13 271.6 1627.2C268.133 1628.27 257.867 1631.07 248.667 1633.33C239.467 1635.73 229.333 1638.4 226 1639.33C222.667 1640.27 216.133 1642 211.333 1643.33C206.533 1644.53 199.467 1646.4 195.733 1647.47C191.867 1648.53 185.2 1650.27 181.067 1651.47C176.8 1652.67 171.6 1654.13 169.333 1654.8C149.6 1660.4 122.667 1666.53 121.6 1665.47C120.4 1664.27 122.267 1655.87 131.333 1622.67C133.6 1614.27 136 1605.2 136.533 1602.67C137.2 1600.13 139.067 1593.2 140.667 1587.33C142.267 1581.47 144.133 1574.8 144.667 1572.67C145.2 1570.4 148 1560.27 150.667 1550C153.333 1539.73 157.067 1525.33 158.933 1518C160.8 1510.67 162.533 1504.27 162.933 1503.73C163.867 1502 166 1502.53 173.2 1506.27Z" fill="black"/>
</svg>
