<?xml version="1.0" standalone="no"?>
<!DOCTYPE svg PUBLIC "-//W3C//DTD SVG 20010904//EN"
 "http://www.w3.org/TR/2001/REC-SVG-20010904/DTD/svg10.dtd">
<svg version="1.0" xmlns="http://www.w3.org/2000/svg"
 width="525.000000pt" height="339.000000pt" viewBox="0 0 525.000000 339.000000"
 preserveAspectRatio="xMidYMid meet">
<metadata>
Created by potrace 1.10, written by Peter Selinger 2001-2011
</metadata>
<g transform="translate(0.000000,339.000000) scale(0.100000,-0.100000)"
fill="#000000" stroke="none">
<path d="M2458 2535 c-2 -3 -31 -10 -64 -16 -68 -12 -124 -30 -212 -70 -34
-16 -66 -29 -70 -29 -5 0 -22 -13 -38 -30 -16 -16 -33 -30 -37 -30 -16 0 -113
-81 -147 -122 -19 -23 -42 -49 -50 -58 -26 -28 -110 -158 -110 -171 0 -7 -6
-20 -13 -28 -19 -23 -57 -128 -57 -159 0 -15 -7 -35 -14 -44 -10 -14 -12 -60
-8 -205 2 -104 8 -196 13 -205 5 -9 9 -29 9 -43 0 -15 16 -59 35 -98 19 -39
35 -74 35 -79 0 -10 60 -109 77 -126 7 -7 13 -17 13 -20 0 -4 19 -28 43 -52
24 -25 46 -53 50 -63 3 -9 15 -20 24 -24 10 -4 32 -20 48 -36 17 -16 48 -38
69 -50 115 -64 182 -97 196 -97 9 0 25 -7 36 -15 10 -8 29 -15 41 -15 12 0 48
-7 80 -16 111 -30 380 -14 455 27 10 5 25 9 34 9 9 0 28 6 42 14 15 8 50 25
77 38 78 36 157 92 232 166 69 68 133 144 133 158 0 4 7 15 15 23 19 22 105
191 105 208 0 8 7 24 16 38 8 13 17 50 18 82 2 32 6 66 11 76 4 9 4 28 1 42
-4 14 -2 34 4 45 8 14 7 26 0 41 -8 15 -8 29 -1 51 9 25 8 35 -5 49 -10 11
-12 19 -5 24 16 9 13 50 -3 64 -8 6 -16 20 -19 31 -4 17 -1 19 19 14 19 -5 23
-3 18 10 -3 8 -13 18 -22 21 -10 2 -32 39 -51 80 -19 42 -49 96 -67 120 -19
24 -34 47 -34 51 0 12 -71 96 -134 158 -52 51 -177 146 -193 146 -10 0 -78 33
-93 46 -8 7 -30 15 -49 17 -18 3 -38 10 -44 16 -6 6 -23 11 -38 11 -14 0 -46
7 -69 15 -41 14 -289 23 -302 10z m251 -72 c18 -7 53 -13 76 -13 26 0 48 -6
55 -15 7 -8 24 -15 39 -15 30 0 145 -55 195 -94 19 -14 39 -26 44 -26 5 0 40
-31 78 -68 108 -107 133 -138 158 -202 3 -8 17 -33 31 -55 13 -22 31 -65 41
-95 9 -30 20 -60 25 -66 5 -6 7 -19 3 -28 -3 -9 -1 -29 5 -44 23 -56 29 -163
14 -272 -7 -58 -18 -114 -22 -125 -5 -11 -12 -29 -15 -40 -11 -45 -38 -110
-55 -134 -10 -14 -25 -42 -33 -61 -29 -68 -182 -223 -273 -276 -33 -20 -67
-39 -75 -44 -61 -37 -148 -69 -217 -80 -29 -4 -68 -13 -86 -19 -62 -21 -306 3
-370 35 -16 8 -38 14 -49 14 -11 0 -57 23 -103 50 -46 28 -87 50 -92 50 -11 0
-99 75 -155 132 -42 43 -112 143 -134 191 -8 18 -18 39 -23 47 -30 53 -41 81
-41 100 0 12 -5 30 -10 40 -9 17 -30 122 -32 160 -2 58 14 244 26 285 23 83
55 164 81 206 14 21 25 44 25 50 0 33 204 249 236 249 7 0 28 13 46 29 40 34
146 91 171 91 10 0 28 5 40 11 75 41 323 61 396 32z"/>
<path d="M1947 2083 c-2 -5 -1 -37 3 -72 5 -35 5 -74 0 -85 -10 -27 -6 -598 4
-614 4 -7 3 -18 -2 -25 -5 -7 -9 -57 -8 -112 2 -95 3 -100 24 -103 12 -2 41
10 64 26 24 16 59 40 80 53 20 13 79 54 131 92 53 37 100 67 105 67 6 0 29 15
51 34 23 19 50 37 60 41 11 3 22 12 25 20 3 8 12 15 20 15 9 0 20 9 26 20 6
11 16 20 21 20 6 0 24 11 41 25 16 14 35 25 42 25 18 0 28 -66 14 -95 -7 -15
-7 -29 0 -41 7 -12 6 -25 -1 -41 -7 -15 -7 -30 0 -45 7 -17 6 -29 -4 -45 -13
-19 -13 -25 1 -44 9 -14 13 -33 9 -50 -7 -38 4 -79 22 -79 9 0 34 12 58 27 23
15 50 32 59 38 43 25 134 91 141 102 4 7 13 13 19 13 5 0 27 14 48 30 21 17
44 30 52 30 8 0 23 9 33 20 15 17 127 98 173 125 37 22 79 51 115 79 51 40 49
66 -6 94 -24 12 -54 33 -67 47 -13 14 -28 25 -33 25 -5 0 -34 20 -66 45 -31
25 -60 45 -64 45 -8 0 -194 126 -207 141 -3 3 -34 23 -70 44 -36 21 -76 48
-90 60 -36 31 -77 55 -94 55 -18 0 -31 -184 -23 -335 5 -86 3 -105 -8 -105
-21 0 -65 22 -65 32 0 5 -11 13 -25 18 -14 5 -25 14 -25 20 0 5 -5 10 -11 10
-6 0 -36 20 -68 45 -31 25 -60 45 -64 45 -15 0 -193 123 -219 151 -15 16 -32
29 -38 29 -13 0 -117 67 -126 81 -6 11 -51 12 -57 2z m129 -124 c22 -17 83
-60 136 -96 54 -35 103 -72 110 -82 7 -10 34 -29 60 -44 25 -14 69 -42 97 -61
28 -20 55 -36 61 -36 12 0 70 -56 70 -68 0 -12 -57 -52 -74 -52 -8 0 -19 -6
-23 -12 -11 -17 -101 -78 -114 -78 -10 0 -57 -36 -100 -75 -9 -8 -18 -15 -22
-15 -6 0 -71 -44 -186 -125 -35 -25 -67 -45 -72 -45 -5 0 -9 10 -10 23 -1 30
-1 780 0 790 2 16 30 6 67 -24z m710 -6 c27 -21 57 -42 66 -48 40 -24 140 -95
230 -162 54 -40 104 -73 113 -73 17 0 125 -78 125 -90 0 -8 -55 -52 -80 -63
-8 -4 -28 -16 -45 -27 -16 -11 -37 -23 -45 -27 -22 -10 -94 -66 -103 -80 -4
-7 -14 -13 -21 -13 -7 0 -30 -13 -51 -30 -21 -16 -42 -30 -47 -30 -5 0 -14 -5
-21 -10 -70 -59 -175 -130 -187 -127 -10 2 -14 13 -13 32 3 46 3 284 0 548 -2
271 -5 264 79 200z"/>
</g>
</svg>
