<svg width="1799" height="1802" viewBox="0 0 1799 1802" fill="none" xmlns="http://www.w3.org/2000/svg">
<path d="M839.067 1.59959C839.2 2.79959 835.733 3.59959 826.667 4.39959C787.333 7.46625 720.667 17.5996 695.333 24.1329C692.4 24.9329 686.4 26.3996 682 27.4663C673.2 29.7329 662.533 32.5329 653.333 35.3329C650 36.2663 643.733 38.1329 639.333 39.3329C629.2 42.2663 594.933 53.5996 585.333 57.3329C581.333 58.7996 575.867 60.9329 573.333 61.8662C565.2 64.9329 531.867 78.6662 529.6 79.9996C528.4 80.6662 515.067 87.3329 500 94.6662C484.933 102 470.267 109.333 467.333 111.066C421.333 137.066 394.133 154.666 360.667 179.866C345.067 191.466 315.333 215.333 309.867 220.666C309.067 221.333 303.733 226.133 297.867 231.2C278.267 248.4 231.2 296.4 216.667 314C213.733 317.6 207.733 324.8 203.333 330C176.133 362 133.867 423.333 116.933 455.333C115.333 458.266 113.333 461.6 112.533 462.666C110.667 464.933 79.7332 526 76.7999 533.333C75.7332 535.866 71.4665 546.133 67.3332 556C63.1999 565.866 59.3332 575.466 58.6665 577.333C57.9999 579.2 56.2665 584 54.6665 588C51.4665 596.266 39.7332 631.466 36.5332 642.666C26.5332 676.933 24.3999 684.8 17.4665 716.666C11.7332 742.933 4.5332 794.533 1.3332 832C-0.40013 853.6 -0.40013 949.2 1.3332 970.666C4.9332 1013.73 14.7999 1078.8 21.4665 1104.67C22.2665 1107.6 23.7332 1113.6 24.7999 1118C27.0665 1126.8 29.8665 1137.47 32.6665 1146.67C33.5999 1150 35.4665 1156.27 36.6665 1160.67C39.5999 1170.8 50.9332 1205.07 54.6665 1214.67C56.1332 1218.67 58.2665 1224.13 59.1999 1226.67C62.1332 1234.4 75.9999 1268 77.3332 1270.4C77.9999 1271.6 84.5332 1284.93 91.9999 1300C106 1328.53 106.533 1329.73 119.067 1351.33C138 1384 155.2 1410.13 177.067 1439.33C188.667 1454.67 212.267 1484.13 218 1490.13C218.667 1490.93 223.467 1496.27 228.533 1502.13C245.733 1521.73 293.733 1568.8 311.333 1583.33C314.933 1586.27 322.133 1592.27 327.333 1596.67C342.8 1609.87 378 1636 399.333 1650.13C421.733 1665.2 440.267 1676.53 453.2 1683.47C456.4 1685.2 459.733 1687.2 460.533 1687.87C462.533 1689.6 523.733 1720.13 534 1724.67C538.4 1726.53 550.267 1731.47 560.4 1735.47C570.533 1739.47 579.733 1743.2 581.067 1743.87C583.733 1745.2 585.467 1745.73 612.667 1754.8C623.733 1758.4 636 1762.27 640 1763.47C662.4 1770 670.533 1772.27 682 1775.2C686.4 1776.27 692.4 1777.73 695.333 1778.53C725.467 1786.27 785.2 1795.07 836.667 1799.33C929.6 1807.07 1052.4 1794.4 1144 1767.33C1147.33 1766.4 1153.6 1764.53 1158 1763.33C1168.13 1760.4 1202.4 1749.07 1212 1745.33C1216 1743.87 1221.47 1741.73 1224 1740.8C1231.73 1737.87 1265.33 1724 1267.73 1722.67C1268.93 1722 1281.73 1715.73 1296 1708.67C1324 1694.93 1328.4 1692.67 1348.67 1680.93C1381.33 1662 1407.47 1644.8 1436.67 1622.93C1452 1611.33 1481.47 1587.73 1487.47 1582C1488.27 1581.33 1493.6 1576.53 1499.47 1571.47C1519.07 1554.27 1566.13 1506.27 1580.67 1488.67C1583.6 1485.07 1589.6 1477.87 1594 1472.67C1621.2 1440.67 1663.47 1379.33 1680.4 1347.33C1682 1344.4 1684 1341.07 1684.8 1340C1686.93 1337.47 1717.2 1277.2 1721.33 1267.73C1722.93 1263.87 1726.93 1254 1730.13 1246C1733.33 1237.87 1736.53 1230.13 1737.2 1228.67C1737.87 1227.2 1739.33 1223.33 1740.67 1220C1741.87 1216.67 1743.6 1212.53 1744.27 1210.67C1746 1206.13 1758.13 1169.07 1760.8 1160C1767.33 1137.6 1769.6 1129.47 1772.53 1118C1773.6 1113.6 1775.07 1107.6 1775.87 1104.67C1783.6 1074.53 1792.4 1014.8 1796.67 963.333C1804.4 870.4 1791.73 747.6 1764.67 656C1763.73 652.666 1761.87 646.4 1760.67 642C1757.73 631.866 1746.4 597.6 1742.67 588C1741.2 584 1739.07 578.533 1738.13 576C1735.33 568.666 1721.33 534.8 1720 532.266C1719.33 531.066 1712.8 517.733 1705.33 502.666C1691.2 473.866 1690.53 472.533 1678.27 451.333C1659.33 418.666 1642.13 392.533 1620.27 363.333C1608.67 348 1585.07 318.533 1579.33 312.533C1578.67 311.733 1573.87 306.4 1568.8 300.533C1551.6 280.933 1503.6 233.866 1486 219.333C1482.4 216.4 1475.2 210.4 1470 206C1438 178.8 1376.67 136.533 1344.67 119.6C1341.73 118 1338.4 116 1337.33 115.2C1334.8 113.2 1274.53 82.7996 1265.07 78.6662C1226 62.1329 1187.87 48.1329 1157.33 39.1996C1134.93 32.6663 1126.8 30.3996 1115.33 27.4663C1110.93 26.3996 1104.93 24.9329 1102 24.1329C1074.4 17.0663 1009.47 7.19959 971.333 4.39959C961.733 3.59959 958.133 2.79959 958.267 1.59959C958.533 0.399587 946 -0.000413451 898.667 -0.000413451C851.333 -0.000413451 838.8 0.399587 839.067 1.59959ZM962.667 59.8662C1007.07 63.9996 1042.27 69.1996 1078.67 76.9329C1101.6 81.8662 1102.53 82.1329 1114 85.3329C1119.87 86.9329 1126.53 88.7996 1128.67 89.3329C1150.27 95.1996 1191.33 109.066 1206 115.333C1208.27 116.266 1219.6 121.066 1231.33 126C1263.47 139.6 1308.4 162.4 1329.33 175.866C1333.33 178.533 1338.53 181.6 1340.8 182.933C1370.53 199.2 1424.53 239.6 1464.67 275.866C1491.33 300 1500 308.666 1524.13 335.333C1577.6 394.4 1617.73 453.466 1654.67 526.666C1664.67 546.4 1668.4 554.8 1686.8 599.333C1690.27 607.866 1703.87 648.266 1708.67 664.666C1713.33 681.066 1714.13 683.866 1719.87 706C1721.47 712.4 1725.73 733.733 1728.53 749.333C1738.4 804.8 1742 846 1742 901.333C1742 972.266 1736.67 1018.4 1718.67 1101.33C1717.73 1105.6 1714.67 1116.93 1710 1133.33C1702.53 1159.87 1691.07 1193.87 1684.67 1208.67C1683.73 1210.8 1678.93 1222.27 1674 1234C1660.4 1266.13 1637.6 1311.07 1624.13 1332C1621.47 1336 1618.4 1341.2 1617.07 1343.47C1606.8 1362.4 1580 1400.27 1554 1432.67C1541.73 1448 1509.33 1484.27 1495.47 1498.13C1480.53 1512.93 1446.13 1543.73 1429.33 1557.2C1420.93 1563.87 1412.93 1570.27 1411.6 1571.47C1395.6 1584.67 1346.53 1617.2 1318.8 1633.07C1277.87 1656.27 1259.47 1665.07 1200.67 1689.47C1192.13 1692.93 1151.73 1706.53 1135.33 1711.33C1118.93 1716 1116.13 1716.8 1094 1722.53C1087.6 1724.13 1066.53 1728.4 1050.67 1731.2C1040.27 1733.07 1030 1734.67 1002.27 1738.67C996.667 1739.47 985.2 1740.67 976.933 1741.33C968.8 1742 953.067 1743.2 942 1744.13C919.333 1745.87 860.933 1745.2 834.667 1742.8C782.267 1738 757.067 1734 698.667 1721.33C696.133 1720.8 689.2 1718.93 683.333 1717.33C677.467 1715.73 670.667 1713.87 668.267 1713.33C665.733 1712.67 662.133 1711.6 660.267 1710.93C658.267 1710.13 650.4 1707.73 642.667 1705.33C623.6 1699.6 601.733 1691.87 591.333 1687.33C589.2 1686.4 580.8 1682.8 572.667 1679.47C536.4 1664.53 491.6 1642 468 1626.8C464 1624.13 458.8 1621.07 456.533 1619.73C437.6 1609.47 399.733 1582.67 367.333 1556.67C352 1544.4 315.733 1512 301.867 1498.13C287.067 1483.2 256.267 1448.8 242.8 1432C236.133 1423.6 229.733 1415.6 228.533 1414.27C215.333 1398.27 182.8 1349.2 166.933 1321.47C143.733 1280.53 134.933 1262.13 110.533 1203.33C107.067 1194.8 93.4665 1154.4 88.6665 1138C83.9999 1121.6 83.1999 1118.8 77.4665 1096.67C75.8665 1090.27 71.5999 1068.93 68.7999 1053.33C58.9332 997.866 55.3332 956.666 55.3332 901.333C55.3332 830.4 60.6665 784.266 78.6665 701.333C79.5999 697.066 82.6665 685.733 87.3332 669.333C94.7999 642.8 106.267 608.8 112.667 594C113.6 591.733 118.4 580.4 123.333 568.666C137.2 536 159.733 491.6 173.2 470.666C175.867 466.666 178.933 461.466 180.267 459.2C190.533 440.266 217.333 402.4 243.333 370C255.6 354.666 288 318.4 301.867 304.533C316.8 289.733 351.2 258.933 368 245.466C376.4 238.8 384.4 232.4 385.733 231.2C402.533 217.333 452.4 184.4 482.667 167.333C519.733 146.266 539.6 136.8 596.667 113.2C605.2 109.733 645.6 96.1329 662 91.3329C678.4 86.6662 681.2 85.8662 703.333 80.1329C733.867 72.3996 792.533 63.4662 840.667 59.4662C867.067 57.1996 936.4 57.4662 962.667 59.8662Z" fill="black"/>
<path d="M295.466 444.266C295.066 445.199 294.533 522.799 294.133 616.666C293.733 710.532 293.066 810.666 292.666 839.332C292.133 880.799 289.466 1272.53 289.333 1340.8C289.333 1359.2 290 1360.4 297.466 1355.33C302.133 1352.27 331.066 1333.47 356.933 1316.8C382.666 1300.13 392.4 1293.87 410 1282.4C419.6 1276.27 433.733 1267.07 441.733 1261.87C449.6 1256.8 461.6 1249.07 468.4 1244.67C475.2 1240.27 486.4 1232.93 493.333 1228.53C500.266 1224 512.266 1216.27 520 1211.33C539.066 1199.07 556.933 1187.33 571.333 1177.87C578 1173.6 584 1169.73 584.666 1169.33C585.466 1168.93 590.266 1165.87 595.333 1162.53C600.533 1159.07 615.2 1149.6 628 1141.33C640.8 1133.07 658 1122 666 1116.67C674.133 1111.47 687.333 1102.93 695.333 1097.73C727.466 1076.93 733.333 1073.2 750.666 1062C786 1038.93 800 1029.87 808.133 1024.67C812.666 1021.73 817.733 1018.4 819.466 1017.33C821.2 1016.27 829.6 1010.8 838 1005.33C865.6 987.466 872.533 982.932 884 975.866C890.266 971.999 897.2 967.466 899.333 965.866C903.466 962.799 927.2 947.332 945.6 935.732C951.333 932.266 956.933 929.332 958 929.332C959.866 929.332 960 942.399 959.333 1061.6C958.933 1134.4 958.4 1231.2 958 1276.8C957.333 1343.33 957.6 1359.87 958.933 1361.07C960.266 1362 964.133 1360.13 974.266 1353.6C981.733 1348.67 995.2 1339.87 1004.27 1334.13C1013.33 1328.27 1026.8 1319.47 1034.4 1314.4C1042 1309.47 1048.4 1305.33 1048.67 1305.33C1048.93 1305.33 1055.33 1301.2 1062.93 1296.27C1070.53 1291.2 1084 1282.4 1093.07 1276.53C1102 1270.8 1115.87 1261.73 1123.73 1256.67C1131.73 1251.47 1142.27 1244.67 1147.47 1241.47C1152.53 1238.13 1164.13 1230.67 1173.33 1224.67C1189.6 1214.13 1198.13 1208.53 1221.33 1193.6C1227.6 1189.6 1238.4 1182.53 1245.33 1178C1252.27 1173.47 1265.33 1165.07 1274.27 1159.2C1283.2 1153.47 1295.2 1145.6 1300.8 1142C1306.4 1138.27 1311.87 1134.67 1313.07 1134C1316.4 1132 1325.87 1125.87 1338.67 1117.6C1344.93 1113.6 1357.07 1105.73 1365.73 1100.13C1374.27 1094.53 1387.87 1085.73 1395.73 1080.67C1403.6 1075.47 1415.2 1068 1421.33 1064.13C1427.6 1060.13 1440.13 1051.87 1449.33 1046C1458.53 1040 1470.27 1032.4 1475.33 1029.07C1493.33 1017.47 1511.47 1005.73 1523.33 997.866C1530 993.599 1536 989.732 1536.67 989.332C1537.47 988.932 1542.27 985.866 1547.33 982.532C1556.8 976.399 1597.73 949.866 1610 941.999C1613.73 939.599 1624.53 932.666 1634 926.532C1643.6 920.266 1652.93 914.132 1655.07 912.932C1660.8 909.199 1659.73 906.932 1649.07 900.666C1647.73 899.999 1628.93 887.332 1607.07 872.666C1585.2 857.999 1566.27 845.466 1565.07 844.666C1563.73 843.999 1545.73 831.999 1525.07 818.132C1479.87 787.866 1484.4 790.932 1437.33 759.599C1416.4 745.732 1397.6 733.199 1395.6 731.732C1393.47 730.266 1375.73 718.399 1356.27 705.466C1336.67 692.399 1317.2 679.466 1312.93 676.532C1308.67 673.732 1303.73 670.399 1302 669.332C1300.27 668.266 1283.07 656.799 1263.73 643.866C1244.4 630.932 1225.07 617.999 1220.67 615.066C1201.07 602.132 1134.93 558.132 1131.47 555.599C1129.33 554.132 1110.4 541.599 1089.47 527.599C1068.53 513.732 1049.6 501.199 1047.47 499.599C1027.2 485.466 967.2 446.266 965.466 446.132C963.466 445.999 963.2 459.466 962.533 602.666C961.066 875.466 960.933 878.666 959.2 880.132C958.133 881.066 920.666 856.799 829.2 795.866C758.533 748.799 698.933 709.066 696.666 707.599C694.533 705.999 616.133 653.866 522.666 591.599C429.2 529.332 350.933 477.066 348.666 475.599C333.066 464.532 299.2 442.666 297.733 442.666C296.8 442.666 295.733 443.466 295.466 444.266ZM624.666 726.666C795.866 840.666 887.733 902.666 887.6 903.999C887.333 905.999 883.866 908.399 850 930.532C813.866 954.132 810 956.666 808.666 957.332C808 957.732 804.933 959.599 802 961.466C784.266 973.066 759.333 989.199 751.333 994.399C746.266 997.732 737.2 1003.47 731.333 1007.33C725.466 1011.2 710.133 1021.07 697.333 1029.33C684.533 1037.6 668.266 1048.13 661.333 1052.67C654.4 1057.2 643.866 1064 638 1067.73C611.733 1084.67 574.533 1108.8 552 1123.47C544.4 1128.53 537.466 1132.93 536.666 1133.33C536 1133.73 530 1137.6 523.333 1141.87C499.466 1157.47 477.733 1171.6 465.6 1179.47C458.8 1183.73 449.066 1190 444 1193.33C422.666 1207.2 403.866 1219.47 401.733 1220.67C398.266 1222.8 377.2 1236.4 362.533 1246.13C355.6 1250.8 349.2 1254.67 348.266 1254.67C346.266 1254.67 346.133 1067.87 348 916.666C348.666 861.599 349.6 756.399 350 682.666C350.533 608.932 351.066 547.866 351.466 546.932C352.133 544.799 315.733 520.932 624.666 726.666ZM1291.73 729.866C1437.07 826.666 1556 906.799 1556 907.732C1556 909.466 1553.6 911.199 1532 925.332C1524.27 930.266 1511.47 938.666 1503.6 943.866C1495.6 949.066 1488.93 953.332 1488.67 953.332C1488.4 953.332 1481.6 957.732 1473.47 962.932C1465.47 968.266 1449.87 978.399 1439.07 985.466C1428.27 992.532 1413.07 1002.53 1405.33 1007.47C1397.6 1012.53 1390.8 1016.93 1390.27 1017.2C1389.73 1017.33 1382.67 1021.87 1374.67 1027.2C1366.67 1032.4 1352.67 1041.47 1343.73 1047.2C1334.67 1053.07 1321.6 1061.47 1314.67 1066C1307.73 1070.53 1293.33 1079.87 1282.67 1086.67C1263.33 1099.07 1249.73 1108 1222 1126C1214 1131.2 1203.2 1138.27 1198 1141.6C1192.93 1144.93 1184.13 1150.53 1178.67 1154.13C1173.2 1157.73 1167.73 1161.2 1166.4 1162C1165.2 1162.67 1160.53 1165.73 1156.13 1168.67C1140.8 1178.67 1115.2 1195.33 1101.87 1203.87C1079.6 1218.13 1058.93 1231.6 1037.6 1245.47C1026.4 1252.8 1016.67 1258.4 1016 1258C1014.13 1256.8 1014.4 1110 1016.67 900.666C1017.73 802.399 1018.67 683.599 1018.67 636.532C1018.67 589.599 1019.07 550.666 1019.6 550.266C1020.67 549.066 988.8 527.999 1291.73 729.866Z" fill="black"/>
</svg>
