<svg width="1510" height="1641" viewBox="0 0 1510 1641" fill="none" xmlns="http://www.w3.org/2000/svg">
<path d="M706 1.13331C703.867 1.39998 696 2.19998 688.667 2.99998C662.4 5.79998 636.267 12.7333 608.4 24.4666C550.267 49 498.4 98.0667 470.4 155.133C452 192.6 444.133 221.533 441.467 262.2C438.533 305 447.2 344.6 473.733 411C479.2 424.6 485.733 440.2 488.4 445.667C490.933 451.133 494.4 459 496.133 463C502 477 550.667 572.467 553.467 575.667C556.933 579.4 554.667 580.733 533.733 587.8C521.067 592.2 520 592.333 515.733 590.467C511.6 588.6 489.733 581.667 458.667 572.333C439.333 566.467 420.267 560.333 414.667 558.333C412.133 557.4 403.733 554.6 396 552.333C381.333 547.8 360.267 541.4 351.333 538.467C348.4 537.4 342.4 535.667 338 534.333C333.6 533 327.867 531.267 325.333 530.333C320.4 528.467 291.067 519.267 268 512.333C250.933 507.133 241.6 504.067 232 500.2C228 498.733 222.267 496.867 219.333 496.333C216.4 495.8 210.4 494.067 206 492.6C201.6 491.133 192.667 488.333 186 486.333C169.2 481.267 153.467 476.333 148 474.333C145.467 473.4 140 471.667 136 470.467C132 469.267 120.267 465.667 110 462.467C99.7333 459.133 85.0667 454.6 77.3333 452.333C69.6 450.067 61.8667 447.533 60 446.733C56.2667 445.133 46.9333 442.467 35.4667 439.533C28.5333 437.8 26.8 437.8 20.8 439.533C12.2667 442.067 4.93333 449 2.13333 457.267C0.266667 462.867 0 511.267 0 967.4C0 1352.87 0.4 1472.6 1.6 1476.87C4.13333 1485.93 11.7333 1493.67 20.6667 1496.2C24.5333 1497.4 50.8 1505.13 64.6667 1509.13C72.5333 1511.53 83.0667 1514.6 88.6667 1516.33C100.133 1519.8 108.4 1522.33 133.333 1529.67C148.4 1534.07 165.733 1539.27 172 1541.13C178.267 1543 186.4 1545.53 190 1546.6C193.733 1547.67 198.533 1549.13 200.667 1549.8C202.933 1550.6 207.733 1552.07 211.333 1553C216.667 1554.47 258.933 1567 276.667 1572.33C289.333 1576.07 299.867 1579.27 303.333 1580.33C305.6 1581 310.4 1582.47 314 1583.53C322.933 1586.07 340.533 1591.27 355.333 1595.67C362 1597.67 369.2 1599.8 371.333 1600.47C373.6 1601 378.533 1602.47 382.267 1603.67C386.133 1604.87 392.133 1606.6 395.6 1607.67C399.2 1608.73 410.133 1611.93 420 1615C429.867 1617.93 441.333 1621.27 445.333 1622.47C466 1628.47 480.4 1633 490.667 1636.47C503.2 1640.73 510.133 1641.27 516.4 1638.47C521.2 1636.47 528.667 1633.93 540.667 1630.33C545.067 1629.13 550.267 1627.4 552.267 1626.73C554.133 1626.07 557.733 1625 560.267 1624.33C564 1623.4 576.133 1619.93 604 1611.67C619.2 1607.27 627.6 1604.73 642 1600.33C644.267 1599.67 649.067 1598.2 652.667 1597.13C656.4 1596.07 664.4 1593.67 670.667 1591.93C694.533 1584.87 706.267 1581.4 712.667 1579.53C716.4 1578.47 721.2 1577 723.333 1576.33C727.067 1575.13 730.8 1574.07 748.667 1568.73C752.4 1567.67 758 1565.93 761.333 1565C770.8 1562.2 800.267 1553.53 804.667 1552.33C816.933 1548.73 822.4 1547.13 826 1545.93C830.133 1544.47 851.333 1538.2 864 1534.47C868 1533.27 882.4 1529 896 1524.87C909.6 1520.87 922.8 1517 925.333 1516.33C927.867 1515.8 931.867 1514.6 934 1513.8C943.467 1510.2 979.867 1500.07 985.467 1499.4C991.067 1498.73 1008.8 1503 1033.33 1511C1035.2 1511.53 1040.27 1513.13 1044.67 1514.33C1049.07 1515.67 1055.07 1517.53 1058 1518.47C1076.4 1524.33 1139.6 1542.87 1145.33 1544.2C1147.87 1544.87 1151.47 1545.93 1153.33 1546.6C1156.93 1548.07 1160.67 1549.27 1190 1557.67C1220.93 1566.6 1227.07 1568.47 1232.67 1570.33C1235.6 1571.27 1241.6 1573 1246 1574.33C1250.4 1575.67 1259.07 1578.47 1265.33 1580.47C1271.6 1582.6 1280.53 1585.13 1285.33 1586.33C1294.13 1588.6 1342.4 1602.73 1353.33 1606.33C1360 1608.47 1408.53 1622.87 1412.67 1623.93C1416 1624.73 1440.13 1631.93 1447.33 1634.33C1461.47 1638.87 1465.07 1639.67 1470 1639.53C1481.87 1639.27 1493.47 1629.13 1495.87 1617.13C1496.67 1613.13 1497.87 1551.67 1498.67 1466.33C1499.33 1387.13 1500.27 1313.93 1500.67 1303.67C1501.07 1293.4 1501.73 1245.67 1502 1197.67C1502.4 1149.67 1503.33 1073.67 1504.13 1029C1504.8 984.2 1506 892.067 1506.67 824.2C1507.33 756.333 1508.27 683 1508.8 661.133C1509.87 615.133 1509.2 609.933 1501.33 601.8C1498.53 598.867 1493.47 595.667 1489.87 594.333C1486.27 593.133 1481.2 591.267 1478.67 590.333C1476.13 589.4 1470.4 587.533 1466 586.333C1461.6 585 1455.87 583.267 1453.33 582.333C1450.8 581.267 1442.4 578.733 1434.67 576.333C1426.93 574.067 1418 571.267 1414.67 570.333C1391.33 563 1381.33 559.8 1377.33 558.333C1374.8 557.4 1366.4 554.6 1358.67 552.333C1324.93 542.2 1305.73 535.933 1302.4 534.2C1300.53 533.133 1297.33 532.333 1295.47 532.333C1293.6 532.333 1290.13 531.533 1287.73 530.467C1283.2 528.6 1267.87 523.667 1244 516.333C1236.27 514.067 1227.33 511.267 1224 510.333C1200.67 503 1190.67 499.8 1186.67 498.333C1184.13 497.4 1175.73 494.733 1168 492.333C1160.27 490.067 1151.6 487.4 1148.67 486.467C1145.73 485.4 1137.07 482.733 1129.33 480.333C1121.6 477.933 1110.27 474.333 1104 472.333C1085.2 466.333 1054.8 456.867 1040 452.333C1032.27 450.067 1023.87 447.4 1021.33 446.467C995.6 437 990 436.2 979.067 440.2C962.4 446.333 954.667 448.6 952.8 447.933C951.2 447.267 952.267 443.933 958.267 430.067C975.067 391.267 990 346.067 996.267 315C998.667 303.133 998.533 251.133 996.133 237C992.133 213.4 986.267 193.267 976.4 169.667C972.4 160.333 962.4 141 958.533 135.267C956.4 132.2 954.667 129.267 954.667 128.867C954.667 128.467 950 122.067 944.4 114.6C896.533 51.1333 831.867 13.4 752.667 2.99998C740.667 1.53331 712.133 0.333313 706 1.13331ZM747.067 59C778.267 63.5333 812.133 75.1333 832.667 88.3333C834.933 89.8 837.6 91.4 838.667 91.9333C843.333 94.0667 866.933 112.867 875.467 121.133C904.4 149.4 925.867 186.333 936 225C940.933 244.333 942 253 942 276.333C941.867 295.267 941.333 301.933 939.067 311.667C936.267 323.4 935.733 325.533 931.467 340.333C927.2 355.533 909.733 401.667 902.133 418.067C900.4 421.8 896.133 430.867 892.8 438.067C889.467 445.267 886.667 451.4 886.667 451.8C886.667 452.867 851.067 523.4 844.533 535C841.867 539.8 837.6 547.533 835.067 552.333C832.4 557.133 828.667 563.933 826.667 567.667C824.667 571.267 821.6 576.733 820 579.667C818.4 582.6 816 586.733 814.533 589C813.2 591.133 811.6 593.933 811.067 595C809.067 599.533 785.733 639.267 766.133 671.667C743.2 709.8 744.267 707.933 736.533 720.333C723.6 741 721.333 744.333 720.267 744.333C718.4 744.333 715.6 740.6 707.867 727.933C703.867 721.533 699.6 714.6 698.4 712.6C697.2 710.6 695.333 707.667 694.4 706.067C693.467 704.467 681.467 684.6 667.867 662.067C654.267 639.533 642.667 620.067 642.267 619C641.733 617.933 639.467 613.933 637.333 610.333C635.067 606.6 630.533 598.6 627.2 592.333C623.733 586.067 619.6 578.733 617.867 576.067C616.133 573.267 614.667 570.733 614.667 570.333C614.667 569.933 613.2 567.4 611.467 564.6C609.867 561.933 605.333 553.933 601.6 547C597.867 540.067 591.467 528.067 587.467 520.333C576.267 499.4 551.2 448.333 542 427.667C537.333 417.4 523.6 384.6 522.667 381.667C522 379.8 520.267 375 518.667 371C510.267 349.267 501.2 316.6 498.533 298.333C497.6 291.8 497.333 280.2 497.867 268.333C500.133 213.4 523.067 162.2 563.067 122.6C572.933 112.733 598.4 92.3333 600.533 92.3333C600.933 92.3333 603.867 90.6 607.067 88.3333C613.467 84.0667 630.667 75.9333 644.667 70.7333C657.333 65.9333 674.8 61.6666 691.333 59.1333C702.8 57.5333 735.733 57.4 747.067 59ZM72 509.667C78.9333 511.8 91.6 515.667 100 518.333C108.4 521 117.2 523.667 119.333 524.333C121.6 524.867 125.2 526.067 127.333 526.867C129.6 527.667 137.067 530.067 144 532.333C150.933 534.467 162.4 538.067 169.333 540.333C176.267 542.467 182.667 544.333 183.467 544.333C184.4 544.333 186.267 545.667 187.6 547.4C189.867 550.333 190 555.133 189.6 640.733L189.333 731L184.267 733.133C181.6 734.333 170 738.2 158.667 741.933C147.333 745.533 120.933 754.2 100.133 761.133C79.3333 768.067 61.0667 773.667 59.4667 773.4L56.6667 773L56.2667 641C56.1333 568.333 56.2667 508.2 56.6667 507.267C57.4667 505.133 57.4667 505.133 72 509.667ZM1038.8 510.867C1047.87 513.8 1061.6 517.933 1069.33 520.333C1077.07 522.6 1085.47 525.267 1088 526.333C1092.8 528.067 1108.53 533 1132.67 540.467C1167.87 551.267 1185.07 556.733 1189.33 558.333C1191.87 559.267 1199.47 561.667 1206 563.667C1212.67 565.667 1220.4 568.067 1223.33 569.133C1226.27 570.067 1236.67 573.267 1246.4 576.333C1256 579.267 1264.13 581.933 1264.27 582.067C1264.53 582.2 1264.93 630.333 1265.33 689.133L1266 795.933L1270 802.333C1274.8 810.067 1283.73 815.133 1302 820.333C1304.27 821 1312.93 823.933 1321.33 826.733C1329.73 829.667 1348.4 835.8 1362.67 840.333C1376.93 844.867 1390.53 849.267 1392.67 850.2C1394.93 851.133 1408.27 855.667 1422.4 860.333C1438.27 865.4 1448.53 869.533 1449.2 870.867C1450.4 873.267 1446.8 1107.13 1445.47 1108.6C1444.27 1109.93 1438.93 1108.47 1398 1094.33C1377.47 1087.27 1358.93 1081 1356.67 1080.33C1354.53 1079.67 1335.87 1073.4 1315.33 1066.33C1294.8 1059.27 1276.27 1053 1274 1052.33C1271.87 1051.67 1253.47 1045.4 1233.33 1038.6C1136.4 1005.53 1112.4 997.4 1108.67 996.333C1106.53 995.667 1090.53 990.2 1073.33 984.333C1056.13 978.333 1037.6 972.067 1032.13 970.2C1026.67 968.467 1021.47 966.333 1020.4 965.533C1018.93 964.2 1018.67 924.867 1018.67 735.667C1018.67 610.2 1019.07 507 1019.6 506.6C1020.93 505.267 1021.07 505.267 1038.8 510.867ZM962.4 735.933L962.667 964.2L959.733 965.8C958.133 966.733 954.933 967.933 952.667 968.467C950.533 969 940.533 971.933 930.667 974.867C920.8 977.933 909.333 981.267 905.333 982.467C901.333 983.667 895.6 985.4 892.667 986.333C889.733 987.267 881.067 989.933 873.333 992.333C865.6 994.6 856.933 997.4 854 998.333C851.067 999.267 843.6 1001.53 837.333 1003.4C831.067 1005.27 816.667 1009.53 805.333 1013C794 1016.33 782.933 1019.67 780.667 1020.33C778.533 1020.87 774.933 1022.07 772.667 1022.87C770.533 1023.53 762.667 1026.07 755.333 1028.2C748 1030.47 730.933 1035.67 717.333 1039.8C703.733 1043.8 690.933 1047.67 688.667 1048.33C667.333 1054.6 591.467 1077.67 588 1078.87C586.133 1079.53 581.333 1081 577.333 1082.2C573.333 1083.4 564.4 1086.2 557.6 1088.33C550.8 1090.47 544.267 1091.8 543.2 1091.4C540.933 1090.6 540.933 1097.67 542.667 938.333C544.133 795.133 546.533 648.867 547.467 644.733C547.867 642.733 549.333 641.4 551.733 640.867C553.733 640.467 560.4 638.333 566.667 636.2C582.4 630.867 584.533 631 588.133 637.933C589.733 641.133 603.067 663.667 617.867 688.067C632.533 712.6 646.133 735.133 648 738.333C651.067 743.4 659.067 756.333 670 773.4C672.267 776.867 678.8 787.133 684.533 796.333C690.4 805.533 696.933 814.867 699.067 817.267C704.267 822.867 713.2 827 720 827C726.133 827 735.733 822.867 739.733 818.6C742.533 815.533 753.467 799.667 755.067 796.333C755.6 795.267 759.067 789.8 762.667 784.333C766.267 778.867 771.733 770.2 774.933 765.133C778.133 760.067 781.6 754.6 782.667 752.867C784.533 750.067 809.6 709.133 815.067 699.933C825.2 683 852.933 635.933 858.8 625.667C862.8 618.733 866.667 611.8 867.6 610.333C868.533 608.867 869.6 606.733 870.133 605.667C870.667 604.6 873.6 599.133 876.667 593.667C879.733 588.2 885.333 577.8 889.2 570.467C893.067 563.267 897.2 555.533 898.533 553.133C899.867 550.867 904 542.867 907.867 535.533C913.867 524.067 915.733 521.667 919.867 519.8C928.4 515.933 956.533 507.133 959.333 507.4C962 507.667 962 508.733 962.4 735.933ZM265.333 570.467C273.733 573.133 286.4 577 293.333 579.267C300.267 581.4 307.867 583.667 310 584.2C312.267 584.867 315.467 585.933 317.333 586.733C320.533 588.067 336.267 593 379.333 606.333C390.4 609.667 401.733 613.267 404.667 614.2C409.733 615.933 424.533 620.6 468.267 634.333C478.933 637.667 488.4 641.133 489.2 642.067C490.133 643.267 490 684.2 488.533 776.333C487.467 849.267 486.267 947.8 485.6 995.267C484.933 1051.8 484.133 1082.07 483.2 1083C482.267 1083.93 475.733 1081.67 462 1075.93C438.933 1066.07 393.333 1047 370 1037.4C361.2 1033.8 352.533 1030.2 350.667 1029.4C348.8 1028.6 345.333 1027.13 342.933 1026.2C340.667 1025.13 336.667 1023.53 334.267 1022.47C319.067 1015.93 297.467 1007 296.8 1007C296.4 1007 292.933 1005.53 289.067 1003.8C285.2 1002.07 271.067 996.067 257.733 990.467C244.267 984.867 222.4 975.8 209.067 970.2C195.6 964.6 181.467 958.6 177.6 956.867C173.733 955.133 170.267 953.667 169.867 953.667C169.467 953.667 163.333 951.267 156.267 948.333C149.2 945.267 141.867 942.2 140 941.533C138.133 940.733 134.933 939.267 132.933 938.2C130.8 937.133 128.667 936.333 128 936.333C127.333 936.333 123.067 934.6 118.4 932.467C113.733 930.333 102.267 925.533 92.8 921.667C83.3333 917.933 74.6667 914.333 73.4667 913.667C72.2667 913.133 68.6667 911.533 65.3333 910.2C62 908.867 58.5333 907 57.7333 905.8C55.3333 903 55.3333 839.133 57.6 836.067C58.5333 834.867 68.6667 830.867 80 827.133C91.3333 823.4 102.533 819.8 104.667 819C106.933 818.2 120.667 813.667 135.333 808.867C160.4 800.733 171.2 797 180.667 793.667C182.933 792.867 195.467 788.733 208.533 784.333C229.2 777.533 233.067 775.8 237.6 771.4C246.8 762.333 246.667 764.467 246.667 660.333C246.667 609.267 247.067 567 247.6 566.6C248.8 565.267 248.533 565.267 265.333 570.467ZM1337.33 604.867C1342.8 606.6 1353.6 609.933 1361.33 612.333C1369.07 614.6 1377.47 617.267 1380 618.333C1385.2 620.2 1389.07 621.4 1418 630.333C1429.07 633.667 1441.07 637.533 1444.67 638.733L1451.33 641L1450.8 724.333C1450.67 770.2 1450 808.067 1449.47 808.6C1448.67 809.533 1400.53 794.467 1389.33 789.8C1387.47 789.133 1372.67 784.2 1356.4 779C1340.13 773.667 1325.73 768.6 1324.4 767.667C1322.13 765.933 1322 760.867 1321.6 688.067C1321.33 645.267 1321.6 608.333 1322 605.933C1322.93 600.733 1324.13 600.6 1337.33 604.867ZM88.6667 980.867C106.4 988.067 110.133 989.667 120.4 994.2C122.667 995.267 133.733 999.8 144.667 1004.33C155.733 1008.87 177.333 1017.93 192.667 1024.33C208.133 1030.87 229.733 1039.8 240.667 1044.33C251.733 1049 264.4 1054.33 269.067 1056.47C273.6 1058.6 278 1060.33 278.667 1060.33C279.467 1060.33 281.067 1060.87 282.4 1061.67C283.6 1062.33 290.667 1065.4 298 1068.33C305.333 1071.4 312.8 1074.47 314.667 1075.27C316.533 1075.93 320 1077.4 322.4 1078.47C324.8 1079.4 328.667 1081.13 331.067 1082.2C333.333 1083.13 344 1087.67 354.667 1092.07C381.467 1103.27 433.6 1125.13 459.867 1136.07C471.867 1141.13 482.133 1146.07 482.667 1147.13C483.733 1149 482.667 1259.53 480 1449.67C479.333 1502.07 478.667 1550.87 478.667 1558.07C478.667 1568.47 478.267 1571.27 476.667 1571.8C475.467 1572.33 468.8 1570.73 461.6 1568.6C454.533 1566.33 442.133 1562.6 434 1560.33C420 1556.33 398.933 1550.07 387.333 1546.47C380 1544.07 370.667 1541.4 346.667 1534.33C317.733 1525.93 304.533 1522.07 292.667 1518.33C289.733 1517.4 283.733 1515.67 279.333 1514.33C274.933 1513 270.133 1511.53 268.533 1511C267.067 1510.33 261.067 1508.6 255.2 1507C249.467 1505.4 243.867 1503.4 243.067 1502.73C241.733 1501.67 241.333 1479.27 241.333 1399.13C241.333 1334.33 240.8 1294.87 239.867 1291C238.267 1284.07 233.333 1275.93 228.933 1273C226 1271.13 191.867 1259 182 1256.33C179.867 1255.67 173.867 1253.67 168.667 1251.93C163.6 1250.07 147.333 1244.6 132.667 1239.8C106 1231.13 100.667 1229.4 92 1226.33C89.4667 1225.4 81.3333 1222.73 74 1220.33C66.6667 1217.93 59.6 1215.13 58.4 1213.93C56.1333 1212.07 56 1204.47 56 1090.87C56 995.267 56.4 969.8 57.6 969.4C58.5333 969 61.7333 969.8 64.6667 971.133C67.6 972.333 78.4 976.733 88.6667 980.867ZM962.4 1233.13C962.533 1347.4 962.4 1442.33 962 1443.93C961.467 1446.07 959.2 1447.4 951.733 1449.53C946.4 1451.13 936.267 1454.2 929.333 1456.33C909.333 1462.33 895.6 1466.47 873.333 1473C851.2 1479.53 843.2 1481.8 832.667 1485.13C829.067 1486.2 823.867 1487.67 821.333 1488.2C818.8 1488.87 815.2 1489.93 813.333 1490.73C811.467 1491.4 799.2 1495.13 786 1499C759.067 1506.73 741.867 1511.8 734 1514.33C731.067 1515.27 725.067 1517.13 720.667 1518.33C716.267 1519.67 710.267 1521.53 707.333 1522.47C704.4 1523.4 698.667 1525 694.667 1526.2C690.667 1527.27 681.067 1530.07 673.333 1532.33C665.6 1534.6 656 1537.4 652 1538.6C648 1539.67 642.267 1541.4 639.333 1542.33C636.4 1543.27 630.4 1545.13 626 1546.33C621.6 1547.67 615.6 1549.53 612.667 1550.47C609.733 1551.53 597.733 1555 586 1558.33C574.267 1561.67 558.8 1566.33 551.733 1568.6C544.533 1570.73 537.733 1572.33 536.533 1571.8C534.667 1571.13 534.533 1567.53 535.2 1538.6C535.733 1520.87 536.667 1453.53 537.333 1389C539.6 1185.4 540.133 1153.8 541.867 1152.47C543.067 1151.53 558.8 1146.33 579.333 1140.33C592.4 1136.47 598.533 1134.6 614.667 1129.67C624.533 1126.73 638.667 1122.47 646 1120.33C653.333 1118.07 661.2 1115.67 663.333 1114.87C665.6 1114.07 670.4 1112.6 674 1111.53C677.733 1110.47 682.533 1109 684.667 1108.33C686.933 1107.67 691.733 1106.2 695.333 1105.13C699.067 1104.07 712.267 1100.07 724.667 1096.33C737.2 1092.47 749.2 1088.87 751.333 1088.33C768.4 1083.27 770.267 1082.73 781.733 1078.87C784 1078.07 787.867 1076.87 790 1076.33C821.867 1067 841.067 1061.4 848.667 1058.87C853.067 1057.53 860 1055.4 864 1054.2C868 1053 873.467 1051.27 876 1050.33C878.533 1049.4 885.2 1047.27 890.667 1045.67C927.467 1035.13 947.867 1028.87 954.667 1026.33C957.2 1025.4 960 1024.73 960.667 1024.87C961.6 1025.13 962.133 1095.93 962.4 1233.13ZM1034 1030.33C1039.2 1032.07 1055.07 1037.53 1069.33 1042.33C1083.6 1047.27 1097.2 1051.8 1099.33 1052.33C1101.6 1053 1106.67 1054.73 1110.67 1056.33C1114.67 1057.93 1119.87 1059.67 1122 1060.33C1124.27 1060.87 1140.13 1066.33 1157.33 1072.2C1174.53 1078.2 1190.53 1083.67 1192.67 1084.33C1194.93 1085 1213.47 1091.27 1234 1098.33C1254.53 1105.4 1273.2 1111.67 1275.33 1112.33C1277.6 1113 1296.13 1119.27 1316.67 1126.33C1337.2 1133.4 1355.87 1139.67 1358 1140.33C1360.27 1141 1376.13 1146.33 1393.33 1152.33C1410.53 1158.33 1426.53 1163.67 1428.67 1164.33C1438.93 1167.4 1445.2 1170.07 1445.87 1171.8C1447.33 1175.67 1444.93 1245.8 1443.33 1247.53C1442.4 1248.47 1425.6 1254.47 1405.87 1260.87C1386.13 1267.4 1365.87 1274.2 1360.67 1275.93C1355.6 1277.8 1349.6 1279.67 1347.33 1280.33C1343.47 1281.4 1338.93 1282.87 1329.33 1286.33C1326.8 1287.27 1312.4 1292.07 1297.33 1297C1280.8 1302.33 1268.27 1307.13 1265.6 1309.27C1263.07 1311.13 1259.6 1315.8 1257.87 1319.53L1254.67 1326.33V1421.27V1516.33H1250.8C1248.67 1516.33 1245.2 1515.67 1243.07 1514.87C1241.07 1514.07 1237.6 1512.87 1235.33 1512.2C1233.2 1511.67 1228.4 1510.2 1224.67 1509.13C1221.07 1508.07 1210.53 1505 1201.33 1502.33C1181.33 1496.47 1172.67 1493.93 1167.33 1492.33C1162.27 1490.73 1151.2 1487.4 1143.07 1485C1139.47 1483.93 1124.4 1479.53 1109.47 1475.13C1082 1467 1063.73 1461.53 1054 1458.47C1051.07 1457.4 1045.07 1455.67 1040.67 1454.33C1036.27 1453 1029.73 1450.87 1026 1449.8L1019.33 1447.53L1018.93 1238.33C1018.8 1123.13 1018.93 1028.2 1019.33 1027.13C1019.73 1026.07 1020.93 1025.8 1022.4 1026.33C1023.6 1026.87 1028.93 1028.6 1034 1030.33ZM70 1278.47C73.7333 1279.67 78.6667 1281.53 81.0667 1282.47C83.4667 1283.53 86.2667 1284.33 87.3333 1284.33C88.4 1284.33 91.2 1285.13 93.6 1286.2C96 1287.27 112.4 1292.73 130 1298.33C147.6 1303.93 164 1309.4 166.4 1310.47C168.8 1311.53 171.733 1312.33 173.067 1312.33C174.267 1312.33 177.333 1313.53 179.733 1315L184 1317.67V1401.13V1484.6L179.067 1483.93C174 1483.27 132.8 1471.27 104.667 1462.47C101.733 1461.53 95.7333 1459.67 91.3333 1458.33C86.9333 1457 80.9333 1455.27 78 1454.33C75.0667 1453.27 69.7333 1451.8 66.2667 1450.87C62.6667 1450.07 58.9333 1448.47 57.8667 1447.4C56.2667 1445.8 56 1432.33 56 1361.8C56 1315.8 56.4 1277.67 56.9333 1277.27C58.4 1275.8 62.9333 1276.2 70 1278.47ZM1442.8 1403.67C1442.53 1455.8 1441.87 1514.87 1441.47 1535L1440.67 1571.67L1436.67 1571.53C1433.33 1571.27 1409.07 1564.33 1354 1547.53C1350.4 1546.47 1345.2 1545 1342.67 1544.33C1340.13 1543.8 1336.27 1542.6 1334 1541.8C1331.87 1541 1326 1539.13 1320.93 1537.53C1314.13 1535.4 1311.87 1534.07 1311.33 1531.93C1310.93 1530.33 1310.8 1489.4 1310.93 1441L1311.33 1353L1316 1350.87C1320.8 1348.6 1326.93 1346.33 1334 1344.2C1339.33 1342.73 1404.93 1320.87 1410 1319C1412.27 1318.07 1415.87 1317 1418 1316.33C1423.47 1314.87 1430.53 1312.33 1435.33 1310.2C1444 1306.47 1443.33 1299.53 1442.8 1403.67Z" fill="black"/>
<path d="M698.667 140.333C655.867 147.267 617.467 174.2 596.267 212.333C590.267 223 584.4 239.8 581.334 254.867C570.934 306.067 594 362.867 637.734 394.067C662.8 411.933 688.934 420.333 719.467 420.333C759.334 420.333 790.934 407.267 819.734 378.733C837.2 361.4 848.8 341.4 856.134 315.667C859.467 304.067 861.067 270.867 858.8 256.867C854.534 229.4 841.334 203.4 820.667 181.933C808.934 169.667 795.067 159.667 777.067 150.867C772.534 148.6 763.2 145.533 753.334 142.867C741.867 139.933 710.534 138.467 698.667 140.333ZM744 198.867C769.334 206.2 791.2 227.267 800 252.733C803.467 262.867 804.934 284.467 802.934 295.267C797.867 322.2 780.134 344.867 754.667 357C750.267 359.133 747.6 360.067 736.4 363C727.867 365.133 708.267 364.6 698.534 361.8C667.067 352.867 644.934 329.533 637.2 297.267C634.134 284.467 634 276.333 636.8 263.8C642 240.467 654.667 221.933 674.134 209C694 195.8 720.267 191.933 744 198.867Z" fill="black"/>
<path d="M1089.87 788.333C1081.6 791.933 1075.07 800.467 1074 809C1072.13 823.533 1074.27 827.533 1096 848.867C1104.8 857.667 1112 865.667 1112 866.6C1112 867.667 1105.07 875.4 1096.53 883.933C1077.47 903.133 1075.07 906.333 1073.87 913.267C1072.27 923.267 1074.27 930.6 1080.4 937.267C1086.93 944.333 1092.67 947 1101.6 947C1111.2 947 1116.13 943.8 1134.67 925.133C1143.87 915.933 1152.27 908.333 1153.33 908.333C1154.4 908.333 1163.2 916.067 1172.93 925.667C1182.93 935.533 1192.67 943.8 1195.47 945C1213.87 952.733 1234.8 938.6 1234.67 918.333C1234.53 910.2 1229.47 902.6 1211.87 884.733C1197.07 869.8 1194.67 866.867 1195.87 864.733C1196.53 863.4 1204.13 855.4 1212.67 847C1228.93 831 1234.67 822.467 1234.67 814.067C1234.67 799.8 1220.93 785.667 1206.93 785.667C1196.53 785.667 1192.8 788.067 1174.13 806.6C1164.27 816.333 1155.2 824.333 1153.87 824.333C1152.67 824.333 1143.47 816.333 1133.47 806.6C1119.47 793 1114 788.6 1109.87 787.267C1102.4 785.133 1096.4 785.4 1089.87 788.333Z" fill="black"/>
<path d="M313.334 1188.47C306.8 1190.47 301.734 1194.47 297.734 1200.87C294.8 1205.4 294.134 1207.93 294.134 1215.27C294.134 1223.4 294.534 1224.87 299.067 1231.27C301.734 1235.13 310.267 1244.6 318 1252.33C325.734 1259.93 332 1267.27 332 1268.33C332 1269.4 325.067 1277.27 316.534 1285.67C296.4 1305.67 294.134 1309.13 294.134 1320.33C294.134 1337.4 304.8 1348.33 321.334 1348.33C332.4 1348.33 337.334 1345.13 357.334 1325C365.734 1316.6 373.2 1309.67 374 1309.67C374.8 1309.67 381.334 1315.8 388.667 1323.13C396 1330.6 405.467 1339.27 409.867 1342.47C417.2 1348.07 418.134 1348.33 426.534 1348.33C434 1348.33 436.267 1347.67 441.6 1344.33C449.467 1339.4 454.667 1330.07 454.667 1321C454.667 1311.4 449.867 1303.93 432.134 1286.33C423.2 1277.53 416 1269.53 416 1268.47C416 1267.4 423.467 1258.87 432.534 1249.67C441.6 1240.47 450.267 1230.47 451.867 1227.4C461.734 1207.67 444.8 1184.73 422.667 1187.93C414.4 1189 412.4 1190.47 392.534 1209.93C382.934 1219.27 374.534 1227 373.867 1227C373.2 1227 365.2 1219.4 356 1210.2C346.8 1201 337.067 1192.33 334.4 1190.87C328.134 1187.67 319.467 1186.6 313.334 1188.47Z" fill="black"/>
<path d="M737.733 1211C690.8 1219.27 655.733 1258.33 651.2 1307.93C649.067 1330.33 657.333 1358.73 671.067 1377C686.933 1398.07 705.867 1411.13 730.133 1417.8C745.2 1421.93 769.733 1421.93 784.667 1417.8C805.467 1411.8 820.133 1403 834.533 1387.53C854.4 1366.2 862.667 1344.87 862.667 1314.6C862.667 1289.53 856.933 1271.8 842.4 1252.07C825.2 1228.6 800 1213.93 770.133 1209.8C756.933 1207.93 754.267 1208.07 737.733 1211ZM778 1270.2C811.867 1285.67 817.067 1331.93 787.467 1354.6C774.533 1364.47 754.667 1367.27 739.2 1361.4C728.933 1357.4 716.133 1345.53 712 1336.07C708.133 1327.27 706.933 1311 709.333 1301.93C713.733 1285.8 726.133 1273.13 743.333 1267.4C752.133 1264.6 768.533 1265.8 778 1270.2Z" fill="black"/>
</svg>
