<?xml version="1.0" standalone="no"?>
<!DOCTYPE svg PUBLIC "-//W3C//DTD SVG 20010904//EN"
 "http://www.w3.org/TR/2001/REC-SVG-20010904/DTD/svg10.dtd">
<svg version="1.0" xmlns="http://www.w3.org/2000/svg"
 width="1536.000000pt" height="1536.000000pt" viewBox="0 0 1536.000000 1536.000000"
 preserveAspectRatio="xMidYMid meet">
<metadata>
Created by potrace 1.10, written by Peter Selinger 2001-2011
</metadata>
<g transform="translate(0.000000,1536.000000) scale(0.100000,-0.100000)"
fill="#000000" stroke="none">
<path d="M11815 15345 c-6 -8 -39 -19 -75 -25 -131 -20 -363 -108 -475 -180
-16 -11 -37 -23 -45 -27 -71 -32 -285 -231 -369 -343 -146 -196 -239 -401
-271 -600 -5 -30 -14 -75 -19 -100 -13 -58 -13 -320 0 -385 6 -27 14 -75 19
-105 8 -52 23 -110 51 -190 13 -39 25 -68 64 -153 l26 -59 -43 -46 c-51 -54
-2315 -2318 -2346 -2345 -19 -18 -22 -18 -54 -1 -18 9 -78 46 -133 83 -87 57
-223 131 -242 131 -3 0 -33 13 -67 28 -34 16 -88 37 -121 47 -33 10 -74 24
-92 32 -17 7 -39 13 -50 13 -10 0 -47 6 -83 14 -314 69 -705 46 -990 -59 -199
-73 -307 -126 -451 -222 -70 -45 -132 -83 -139 -83 -14 0 -1880 1865 -1880
1879 0 6 15 43 34 83 50 106 62 142 81 246 37 194 -5 451 -100 613 -19 33 -35
62 -35 65 0 3 -26 40 -59 82 -223 294 -608 437 -966 358 -112 -24 -166 -42
-233 -78 -97 -51 -98 -52 -183 -118 -67 -53 -109 -96 -187 -195 -5 -6 -25 -42
-46 -80 -21 -39 -42 -74 -46 -80 -4 -5 -22 -56 -40 -113 -62 -198 -59 -434 6
-590 8 -18 14 -41 14 -52 0 -10 12 -41 28 -67 15 -26 36 -65 47 -86 32 -61
143 -194 188 -226 23 -16 53 -41 66 -55 14 -14 61 -45 105 -68 45 -22 88 -45
96 -49 23 -11 180 -57 222 -64 76 -12 304 -6 350 10 23 8 53 15 65 15 24 0 64
15 158 61 34 16 68 29 77 29 8 0 435 -419 947 -931 794 -794 932 -935 927
-954 -3 -12 -39 -72 -79 -132 -65 -96 -137 -228 -137 -251 0 -5 -14 -35 -31
-68 -53 -104 -92 -232 -126 -424 -24 -132 -24 -485 0 -625 36 -214 61 -296
144 -475 77 -166 86 -182 171 -309 34 -51 62 -99 62 -106 0 -15 -3086 -3105
-3101 -3105 -8 0 -54 31 -114 77 -40 32 -93 70 -110 80 -56 34 -226 114 -270
127 -264 81 -333 91 -555 82 -85 -3 -173 -10 -195 -15 -22 -6 -61 -15 -87 -20
-66 -14 -213 -65 -275 -96 -29 -14 -55 -25 -58 -25 -30 0 -279 -185 -363 -269
-60 -61 -167 -193 -205 -253 -31 -50 -107 -198 -107 -209 0 -6 -6 -25 -14 -42
-31 -69 -66 -191 -85 -293 -14 -77 -14 -399 0 -478 35 -196 110 -392 215 -558
95 -150 257 -314 415 -420 102 -67 251 -148 274 -148 5 0 37 -11 72 -25 34
-14 83 -30 108 -35 25 -6 64 -14 88 -19 231 -50 583 -21 785 65 18 8 37 14 43
14 6 0 50 19 98 43 259 129 452 307 618 572 51 80 128 258 143 330 5 22 13 53
19 68 6 16 11 41 11 57 0 16 7 55 15 87 18 68 20 336 4 398 -6 22 -14 65 -18
95 -9 63 -35 159 -50 189 -6 11 -11 26 -11 35 0 8 -18 52 -39 98 -32 66 -37
87 -29 103 16 29 3125 3135 3139 3135 7 0 20 -6 28 -14 90 -78 340 -215 476
-261 39 -13 95 -34 125 -45 30 -12 78 -25 105 -30 83 -13 169 -32 193 -41 l22
-9 0 -1238 c0 -950 -3 -1241 -12 -1250 -7 -7 -23 -12 -38 -12 -14 -1 -36 -7
-50 -15 -14 -8 -35 -14 -48 -15 -36 0 -143 -38 -202 -72 -8 -4 -22 -11 -30
-14 -53 -20 -112 -52 -155 -83 -27 -20 -75 -53 -105 -73 -72 -48 -240 -222
-309 -320 -89 -123 -164 -278 -206 -423 -10 -33 -23 -78 -30 -100 -7 -22 -19
-106 -25 -186 -21 -238 2 -437 71 -619 11 -30 24 -66 29 -80 14 -44 90 -182
148 -270 72 -108 260 -297 371 -374 91 -62 316 -176 348 -176 10 0 23 -4 29
-9 11 -11 105 -36 219 -59 110 -23 380 -23 490 0 104 21 207 48 220 58 6 4 23
10 39 14 49 12 253 115 313 159 32 23 69 50 83 58 46 30 225 213 282 289 57
77 164 270 193 351 19 52 43 137 55 199 5 25 14 63 19 85 17 64 13 393 -4 483
-17 86 -40 175 -62 242 -26 77 -113 253 -151 305 -20 28 -54 75 -74 105 -58
86 -212 230 -336 314 -62 42 -115 76 -118 76 -2 0 -46 20 -97 44 -104 49 -145
65 -202 77 -85 17 -138 36 -151 54 -12 16 -14 226 -14 1235 0 1350 -5 1260 65
1260 18 0 46 5 61 10 15 6 52 15 83 20 55 8 219 60 253 80 10 6 23 10 28 10
27 0 268 127 361 190 57 39 106 70 110 70 10 0 1879 -1869 1879 -1879 0 -4
-12 -30 -26 -57 -39 -72 -82 -211 -95 -300 -13 -92 -4 -314 15 -359 7 -16 16
-47 20 -69 4 -21 11 -46 15 -55 104 -213 167 -299 302 -411 112 -93 237 -154
414 -202 72 -19 342 -16 417 5 31 8 66 20 77 26 11 6 30 11 43 11 13 0 59 20
102 45 44 25 83 45 87 45 15 0 164 132 212 188 79 91 187 277 187 322 0 12 6
33 14 48 14 28 40 209 40 277 -1 54 -29 229 -47 290 -41 137 -137 289 -254
403 -100 97 -249 190 -348 218 -181 52 -203 55 -348 51 -180 -5 -310 -35 -413
-96 -19 -12 -44 -21 -55 -21 -14 0 -330 310 -956 935 l-934 935 22 38 c12 20
33 51 46 69 12 17 23 34 23 36 0 3 16 29 36 58 31 46 79 142 131 259 9 19 20
43 25 52 4 10 18 48 29 85 12 38 27 88 35 112 8 25 14 58 14 73 0 16 4 38 10
48 20 36 42 301 36 425 -7 146 -20 273 -36 340 -26 113 -65 244 -85 290 -23
52 -71 158 -93 208 -12 26 -58 102 -102 169 -44 67 -80 130 -80 140 0 12 445
464 1174 1193 933 934 1178 1173 1193 1168 18 -7 74 -43 83 -54 39 -46 333
-204 430 -232 103 -28 165 -45 215 -58 71 -18 365 -24 440 -9 33 7 83 15 110
19 28 4 55 10 62 14 6 4 31 11 55 16 86 18 291 109 355 157 17 13 34 24 38 24
17 0 170 129 246 206 80 83 167 190 182 224 4 8 16 29 27 45 63 99 158 337
176 443 3 20 12 69 20 109 34 177 6 475 -63 658 -8 22 -22 58 -30 80 -8 22
-19 47 -24 55 -5 8 -12 22 -14 30 -37 103 -174 300 -289 415 -119 118 -357
285 -407 285 -9 0 -22 6 -28 14 -6 8 -22 16 -34 19 -12 3 -47 15 -77 27 -78
30 -145 49 -220 60 -36 6 -70 17 -76 25 -16 22 -384 22 -399 0z m355 -500 c25
-3 83 -18 130 -32 73 -22 118 -43 267 -122 15 -7 77 -64 138 -126 62 -61 119
-123 126 -138 80 -149 100 -194 122 -267 42 -141 52 -276 30 -440 -11 -79 -61
-242 -81 -262 -7 -7 -12 -16 -12 -20 0 -12 -59 -106 -105 -167 -55 -74 -205
-203 -282 -243 -35 -18 -83 -43 -106 -55 -23 -12 -52 -22 -63 -22 -12 -1 -37
-7 -56 -15 -19 -8 -85 -22 -148 -30 -103 -15 -123 -15 -227 -1 -62 9 -129 23
-148 31 -19 8 -42 14 -51 14 -9 0 -60 21 -113 47 -192 94 -360 262 -454 454
-26 53 -47 104 -47 113 0 9 -6 32 -14 51 -8 19 -22 86 -31 148 -14 104 -14
124 1 227 8 63 22 129 30 148 8 19 14 44 15 56 0 11 10 40 22 63 12 23 37 71
55 106 40 77 169 227 243 282 61 46 155 105 167 105 4 0 13 5 19 11 21 21 207
78 258 79 28 1 59 6 70 11 19 8 152 5 245 -6z m-8878 -1229 c223 -47 391 -271
375 -501 -8 -119 -28 -175 -95 -268 -31 -43 -112 -112 -169 -144 -56 -32 -145
-53 -221 -53 -325 0 -568 323 -472 629 11 35 41 95 66 133 115 172 307 248
516 204z m3978 -2941 c149 -16 264 -43 365 -85 51 -21 159 -71 175 -81 159
-93 231 -149 350 -270 98 -100 111 -116 185 -229 64 -98 122 -211 136 -265 4
-16 17 -55 28 -85 51 -130 65 -232 65 -450 0 -212 -5 -253 -55 -415 -79 -257
-206 -466 -389 -638 -78 -73 -207 -176 -240 -191 -8 -3 -28 -15 -45 -25 -39
-25 -169 -91 -179 -91 -4 0 -22 -6 -39 -14 -141 -62 -402 -104 -578 -93 -134
9 -238 22 -279 35 -19 6 -64 20 -100 31 -224 69 -431 195 -597 363 -140 141
-188 207 -276 378 -179 346 -209 724 -89 1120 9 30 22 66 29 80 7 14 13 30 13
36 0 23 129 248 179 312 59 76 201 218 271 272 72 54 215 150 225 150 3 0 29
12 58 26 142 69 288 111 452 129 155 16 185 16 335 0z m3882 -4914 c91 -23
196 -87 257 -158 88 -103 130 -252 110 -386 -28 -195 -177 -356 -374 -408 -87
-23 -141 -24 -213 -3 -186 53 -294 152 -363 329 -26 67 -28 244 -3 301 47 109
104 186 177 241 67 50 88 60 173 83 89 24 141 24 236 1z m-9418 -1007 c187
-60 317 -140 444 -273 55 -58 152 -196 152 -217 0 -6 6 -17 13 -23 8 -6 22
-37 32 -68 9 -32 24 -76 31 -98 8 -22 20 -90 28 -150 13 -97 13 -124 0 -224
-8 -62 -21 -129 -29 -150 -7 -20 -16 -49 -20 -66 -7 -31 -46 -113 -84 -175
-11 -19 -25 -45 -30 -56 -5 -12 -13 -23 -18 -25 -4 -2 -32 -31 -60 -64 -53
-62 -161 -156 -204 -179 -255 -135 -388 -166 -624 -146 -101 9 -228 40 -285
71 -8 4 -48 24 -88 45 -98 51 -209 143 -289 240 -49 60 -146 231 -163 289 -7
22 -18 56 -26 75 -36 98 -35 439 2 512 8 15 14 35 14 44 0 30 100 216 154 289
76 101 191 205 276 249 25 13 64 34 86 47 21 12 84 35 138 51 55 15 102 30
104 33 3 3 80 5 171 5 163 0 168 -1 275 -36z m5486 -459 c63 -9 131 -22 150
-30 19 -7 49 -16 65 -20 56 -12 192 -87 268 -146 128 -102 213 -204 279 -339
58 -120 75 -173 95 -310 14 -94 15 -127 5 -213 -6 -56 -18 -127 -27 -157 -9
-30 -20 -72 -25 -92 -9 -34 -30 -77 -89 -182 -49 -87 -224 -269 -286 -297 -11
-5 -33 -18 -50 -29 -44 -28 -124 -66 -170 -80 -22 -7 -56 -18 -75 -26 -69 -25
-284 -36 -405 -20 -216 29 -452 166 -605 351 -95 114 -136 197 -193 380 -15
48 -31 177 -30 240 2 65 21 221 31 245 5 14 18 52 28 85 11 33 42 99 70 147
50 84 157 228 172 228 4 1 30 21 57 46 70 64 266 174 310 174 8 0 32 7 52 15
31 12 176 38 243 44 9 0 67 -6 130 -14z"/>
</g>
</svg>
