<svg width="1799" height="1801" viewBox="0 0 1799 1801" fill="none" xmlns="http://www.w3.org/2000/svg">
<path d="M1575.33 2.0001C1574.53 3.06677 1570.13 4.53343 1565.33 5.33344C1547.87 8.0001 1516.93 19.7334 1502 29.3334C1499.87 30.8001 1497.07 32.4001 1496 32.9334C1486.53 37.2001 1458 63.7334 1446.8 78.6668C1427.33 104.8 1414.93 132.133 1410.67 158.667C1410 162.667 1408.8 168.667 1408.13 172C1406.4 179.733 1406.4 214.667 1408.13 223.333C1408.93 226.933 1410 233.333 1410.67 237.333C1411.73 244.267 1413.73 252 1417.47 262.667C1419.2 267.867 1420.8 271.733 1426 283.067L1429.47 290.933L1423.73 297.067C1416.93 304.267 1115.07 606.133 1110.93 609.733C1108.4 612.133 1108 612.133 1103.73 609.867C1101.33 608.667 1093.33 603.733 1086 598.8C1074.4 591.2 1056.27 581.333 1053.73 581.333C1053.33 581.333 1049.33 579.6 1044.8 577.6C1040.27 575.467 1033.07 572.667 1028.67 571.333C1024.27 570 1018.8 568.133 1016.4 567.067C1014.13 566.133 1011.2 565.333 1009.73 565.333C1008.4 565.333 1003.47 564.533 998.666 563.467C956.8 554.267 904.666 557.333 866.666 571.333C840.133 581.067 825.733 588.133 806.533 600.933C797.2 606.933 788.933 612 788 612C786.133 612 537.333 363.333 537.333 361.467C537.333 360.667 539.333 355.733 541.866 350.4C548.533 336.267 550.133 331.467 552.666 317.6C557.6 291.733 552 257.467 539.333 235.867C536.8 231.467 534.666 227.6 534.666 227.2C534.666 226.8 531.2 221.867 526.8 216.267C497.066 177.067 445.733 158 398 168.533C383.066 171.733 375.866 174.133 366.933 178.933C354 185.733 353.866 185.867 342.533 194.667C333.6 201.733 328 207.467 317.6 220.667C316.933 221.467 314.266 226.267 311.466 231.333C308.666 236.533 305.866 241.2 305.333 242C304.8 242.667 302.4 249.467 300 257.067C291.733 283.467 292.133 314.933 300.8 335.733C301.866 338.133 302.666 341.2 302.666 342.667C302.666 344 304.266 348.133 306.4 351.6C308.4 355.067 311.2 360.267 312.666 363.067C316.933 371.2 331.733 388.933 337.733 393.2C340.8 395.333 344.8 398.667 346.533 400.533C348.4 402.4 354.666 406.533 360.533 409.6C366.533 412.533 372.266 415.6 373.333 416.133C376.4 417.6 397.333 423.733 402.933 424.667C413.066 426.267 443.466 425.467 449.6 423.333C452.666 422.267 456.666 421.333 458.266 421.333C461.466 421.333 466.8 419.333 479.333 413.2C483.866 411.067 488.4 409.333 489.6 409.333C490.666 409.333 547.6 465.2 615.866 533.467C721.733 639.333 740.133 658.133 739.466 660.667C739.066 662.267 734.266 670.267 728.933 678.267C720.266 691.067 710.666 708.667 710.666 711.733C710.666 712.4 708.8 716.4 706.533 720.8C699.466 734.667 694.266 751.733 689.733 777.333C686.533 794.933 686.533 842 689.733 860.667C694.533 889.2 697.866 900.133 708.933 924C719.2 946.133 720.4 948.267 731.733 965.2C736.266 972 740 978.4 740 979.333C740 981.333 328.533 1393.33 326.533 1393.33C325.466 1393.33 319.333 1389.2 311.333 1383.07C306 1378.8 298.933 1373.73 296.666 1372.4C289.2 1367.87 266.533 1357.2 260.666 1355.47C225.466 1344.67 216.266 1343.33 186.666 1344.53C175.333 1344.93 163.6 1345.87 160.666 1346.53C157.733 1347.33 152.533 1348.53 149.066 1349.2C140.266 1351.07 120.666 1357.87 112.4 1362C108.533 1363.87 105.066 1365.33 104.666 1365.33C100.666 1365.33 67.4664 1390 56.2664 1401.2C48.2664 1409.33 33.9997 1426.93 28.9331 1434.93C24.7997 1441.6 14.6664 1461.33 14.6664 1462.8C14.6664 1463.6 13.8664 1466.13 12.7997 1468.4C8.66641 1477.6 3.99974 1493.87 1.46641 1507.47C-0.40026 1517.73 -0.40026 1560.67 1.46641 1571.2C6.13307 1597.33 16.1331 1623.47 30.1331 1645.6C42.7997 1665.6 64.3997 1687.47 85.4664 1701.6C99.0664 1710.53 118.933 1721.33 122 1721.33C122.666 1721.33 126.933 1722.8 131.6 1724.67C136.133 1726.53 142.666 1728.67 146 1729.33C149.333 1730.13 154.533 1731.2 157.733 1731.87C188.533 1738.53 235.466 1734.67 262.4 1723.2C264.8 1722.13 267.333 1721.33 268.133 1721.33C268.933 1721.33 274.8 1718.8 281.2 1715.6C315.733 1698.4 341.466 1674.67 363.6 1639.33C370.4 1628.67 380.666 1604.93 382.666 1595.33C383.333 1592.4 384.4 1588.27 385.2 1586.27C386 1584.13 386.666 1580.8 386.666 1578.67C386.666 1576.53 387.6 1571.33 388.666 1567.07C391.066 1558 391.333 1522.27 389.2 1514C388.4 1511.07 387.333 1505.33 386.8 1501.33C385.6 1492.93 382.133 1480.13 380.133 1476.13C379.333 1474.67 378.666 1472.67 378.666 1471.47C378.666 1470.4 376.266 1464.53 373.466 1458.4C369.2 1449.6 368.533 1446.8 369.6 1444.67C371.733 1440.8 786.266 1026.67 788.133 1026.67C789.066 1026.67 790.8 1027.47 791.866 1028.53C803.866 1038.93 837.2 1057.2 855.333 1063.33C860.533 1065.07 868 1067.87 872 1069.33C876 1070.93 882.4 1072.67 886 1073.33C897.066 1075.07 908.533 1077.6 911.733 1078.8L914.666 1080V1245.07C914.666 1371.73 914.266 1410.53 913.066 1411.73C912.133 1412.67 910 1413.33 908 1413.33C906.133 1413.47 903.2 1414.27 901.333 1415.33C899.466 1416.4 896.666 1417.2 894.933 1417.33C890.133 1417.33 875.866 1422.4 868 1426.93C866.933 1427.47 865.066 1428.4 864 1428.8C856.933 1431.47 849.066 1435.73 843.333 1439.87C839.733 1442.53 833.333 1446.93 829.333 1449.6C819.733 1456 797.333 1479.2 788.133 1492.27C776.266 1508.67 766.266 1529.33 760.666 1548.67C759.333 1553.07 757.6 1559.07 756.666 1562C755.733 1564.93 754.133 1576.13 753.333 1586.8C750.533 1618.53 753.6 1645.07 762.8 1669.33C764.266 1673.33 766 1678.13 766.666 1680C768.533 1685.87 778.666 1704.27 786.4 1716C796 1730.4 821.066 1755.6 835.866 1765.87C848 1774.13 878 1789.33 882.266 1789.33C883.6 1789.33 885.333 1789.87 886.133 1790.53C887.6 1792 900.133 1795.33 915.333 1798.4C930 1801.47 966 1801.47 980.666 1798.4C994.533 1795.6 1008.27 1792 1010 1790.67C1010.8 1790.13 1013.07 1789.33 1015.2 1788.8C1021.73 1787.2 1048.93 1773.47 1056.93 1767.6C1061.2 1764.53 1066.13 1760.93 1068 1759.87C1074.13 1755.87 1098 1731.47 1105.6 1721.33C1113.2 1711.07 1127.47 1685.33 1131.33 1674.53C1133.87 1667.6 1137.07 1656.27 1138.67 1648C1139.33 1644.67 1140.53 1639.6 1141.2 1636.67C1143.47 1628.13 1142.93 1584.27 1140.67 1572.27C1138.4 1560.8 1135.33 1548.93 1132.4 1540C1128.93 1529.73 1117.33 1506.27 1112.27 1499.33C1109.6 1495.6 1105.07 1489.33 1102.4 1485.33C1094.67 1473.87 1074.13 1454.67 1057.6 1443.47C1049.33 1437.87 1042.27 1433.33 1041.87 1433.33C1041.6 1433.33 1035.73 1430.67 1028.93 1427.47C1015.07 1420.93 1009.6 1418.8 1002 1417.2C990.666 1414.93 983.6 1412.4 981.866 1410C980.266 1407.87 980 1379.87 980 1245.33C980 1065.33 979.333 1077.33 988.666 1077.33C991.066 1077.33 994.8 1076.67 996.8 1076C998.8 1075.2 1003.73 1074 1007.87 1073.33C1015.2 1072.27 1037.07 1065.33 1041.6 1062.67C1042.93 1061.87 1044.67 1061.33 1045.33 1061.33C1048.93 1061.33 1081.07 1044.4 1093.47 1036C1101.07 1030.8 1107.6 1026.67 1108.13 1026.67C1109.47 1026.67 1358.67 1275.87 1358.67 1277.2C1358.67 1277.73 1357.07 1281.2 1355.2 1284.8C1350 1294.4 1344.27 1312.93 1342.53 1324.8C1340.8 1337.07 1342 1366.67 1344.53 1372.67C1345.47 1374.8 1346.67 1378.93 1347.2 1381.87C1347.73 1384.67 1348.67 1388 1349.2 1389.2C1363.07 1417.6 1371.47 1429.07 1389.47 1444C1404.4 1456.4 1421.07 1464.53 1444.67 1470.93C1454.27 1473.47 1490.27 1473.07 1500.27 1470.27C1504.4 1469.2 1509.07 1467.6 1510.53 1466.8C1512 1466 1514.53 1465.33 1516.27 1465.33C1518 1465.33 1524.13 1462.67 1529.87 1459.33C1535.73 1456 1540.93 1453.33 1541.47 1453.33C1543.47 1453.33 1563.33 1435.73 1569.73 1428.27C1580.27 1416.13 1594.67 1391.33 1594.67 1385.33C1594.67 1383.73 1595.47 1380.93 1596.53 1378.93C1598.4 1375.2 1601.87 1351.07 1601.87 1342C1601.73 1334.8 1598 1311.47 1595.6 1303.33C1590.13 1285.07 1577.33 1264.8 1561.73 1249.6C1548.4 1236.67 1528.53 1224.27 1515.33 1220.53C1491.2 1213.6 1488.27 1213.2 1468.93 1213.73C1444.93 1214.4 1427.6 1218.4 1413.87 1226.53C1411.33 1228.13 1408 1229.33 1406.53 1229.33C1404.67 1229.33 1362.53 1188 1279.07 1104.67L1154.53 980L1157.47 974.933C1159.07 972.267 1161.87 968.133 1163.6 965.733C1165.2 963.467 1166.67 961.2 1166.67 960.933C1166.67 960.533 1168.8 957.067 1171.47 953.2C1175.6 947.067 1182 934.267 1188.93 918.667C1190.13 916.133 1191.6 912.933 1192.27 911.733C1192.8 910.4 1194.67 905.333 1196.13 900.4C1197.73 895.333 1199.73 888.667 1200.8 885.467C1201.87 882.133 1202.67 877.733 1202.67 875.733C1202.67 873.6 1203.2 870.667 1204 869.333C1206.67 864.533 1209.6 829.2 1208.8 812.667C1207.87 793.2 1206.13 776.267 1204 767.333C1200.53 752.267 1195.33 734.8 1192.67 728.667C1189.6 721.733 1183.2 707.6 1180.27 700.933C1178.67 697.467 1172.53 687.333 1166.67 678.4C1160.8 669.467 1156 661.067 1156 659.733C1156 658.133 1215.33 597.867 1312.53 500.667C1436.93 376.133 1469.6 344.267 1471.6 344.933C1474 345.867 1481.47 350.667 1482.67 352.133C1487.87 358.267 1527.07 379.333 1540 383.067C1553.73 386.8 1562 389.067 1568.67 390.8C1578.13 393.2 1617.33 394 1627.33 392C1631.73 391.067 1638.4 390 1642 389.467C1645.73 388.933 1649.33 388.133 1650.27 387.6C1651.07 387.067 1654.4 386.133 1657.6 385.467C1669.07 383.067 1696.4 370.933 1704.93 364.533C1707.2 362.8 1709.47 361.333 1710 361.333C1712.27 361.333 1732.67 344.133 1742.8 333.867C1753.47 322.8 1765.07 308.533 1767.07 304C1767.6 302.933 1769.2 300.133 1770.67 298C1779.07 284.8 1791.73 253.067 1794.13 238.933C1794.53 236.267 1795.73 229.733 1796.8 224.4C1801.33 200.8 1797.6 161.067 1788.4 136.667C1787.33 133.733 1785.47 128.933 1784.4 126C1783.33 123.067 1781.87 119.733 1781.2 118.667C1780.53 117.6 1779.6 115.733 1779.33 114.667C1774.4 100.933 1756.13 74.6668 1740.8 59.3334C1724.93 43.6001 1693.2 21.3334 1686.53 21.3334C1685.33 21.3334 1683.6 20.5334 1682.8 19.4668C1682 18.4001 1679.87 17.3334 1678.27 16.9334C1676.67 16.5334 1672 14.9334 1668 13.3334C1657.6 9.33344 1648.67 6.8001 1638.67 5.33344C1633.87 4.53343 1629.33 3.06677 1628.53 2.0001C1626.4 -0.933232 1577.33 -0.933232 1575.33 2.0001ZM1622.67 68.6668C1626 69.0668 1633.73 71.0668 1640 72.9334C1649.73 75.8668 1655.73 78.6668 1675.6 89.2001C1677.6 90.1334 1685.87 97.7334 1694 106C1702.27 114.133 1709.87 122.4 1710.8 124.4C1721.47 144.267 1724.13 150.267 1727.07 160C1732.67 178.8 1734 196.8 1731.07 218.667C1729.6 229.2 1722.93 250.933 1720.27 253.6C1719.33 254.533 1718.67 255.733 1718.67 256.267C1718.67 257.867 1710.8 270.4 1704.67 278.533C1697.33 288.4 1677.33 305.6 1667.07 310.933C1662.4 313.333 1656 316.667 1652.93 318.267C1649.87 319.867 1646 321.2 1644.53 321.2C1642.93 321.333 1639.6 322.133 1637.07 323.2C1634.53 324.267 1625.73 326.133 1617.33 327.2C1603.6 329.2 1600.93 329.2 1587.07 327.333C1578.8 326.133 1569.87 324.267 1567.33 323.2C1564.8 322.133 1561.73 321.333 1560.53 321.333C1559.33 321.333 1552.53 318.533 1545.47 315.067C1519.87 302.533 1497.47 280.133 1484.93 254.533C1481.47 247.467 1478.67 240.667 1478.67 239.467C1478.67 238.267 1477.87 235.2 1476.8 232.667C1475.73 230.133 1473.87 221.2 1472.67 212.933C1470.8 199.067 1470.8 196.4 1472.8 182.667C1473.87 174.267 1475.73 165.467 1476.8 162.933C1477.87 160.4 1478.67 157.067 1478.8 155.467C1478.8 154 1480.13 150.133 1481.73 147.067C1483.33 144 1486.67 137.6 1489.07 132.933C1494.4 122.667 1511.6 102.667 1521.47 95.3334C1529.6 89.2001 1542.13 81.3334 1543.73 81.3334C1544.27 81.3334 1545.47 80.6668 1546.27 79.8668C1549.07 77.0668 1573.87 69.4668 1580.67 69.3334C1584.4 69.2001 1588.53 68.5334 1590 67.8668C1592.53 66.8001 1610.27 67.2001 1622.67 68.6668ZM438.933 232.533C468.666 238.8 491.066 268.667 488.933 299.333C487.866 315.2 485.2 322.667 476.266 335.067C472.133 340.8 461.333 350 453.733 354.267C446.266 358.533 434.4 361.333 424.266 361.333C380.933 361.333 348.533 318.267 361.333 277.467C362.8 272.8 366.8 264.8 370.133 259.733C385.466 236.8 411.066 226.667 438.933 232.533ZM969.333 624.667C989.2 626.8 1004.53 630.4 1018 636C1024.8 638.8 1039.2 645.467 1041.33 646.8C1062.53 659.2 1072.13 666.667 1088 682.8C1101.07 696.133 1102.8 698.267 1112.67 713.333C1121.2 726.4 1128.93 741.467 1130.8 748.667C1131.33 750.8 1133.07 756 1134.53 760C1141.33 777.333 1143.2 790.933 1143.2 820C1143.2 848.267 1142.53 853.733 1135.87 875.333C1125.33 909.6 1108.4 937.467 1084 960.4C1073.6 970.133 1056.4 983.867 1052 985.867C1050.93 986.267 1048.27 987.867 1046 989.2C1040.8 992.533 1023.47 1001.33 1022.13 1001.33C1021.6 1001.33 1019.2 1002.13 1016.93 1003.2C998.133 1011.47 963.333 1017.07 939.866 1015.6C922 1014.4 908.133 1012.67 902.666 1010.93C900.133 1010.13 894.133 1008.27 889.333 1006.8C859.466 997.6 831.866 980.8 809.733 958.4C791.066 939.6 784.666 930.8 772.933 908C749.066 861.867 745.066 811.467 761.066 758.667C762.266 754.667 764 749.867 764.933 748C765.866 746.133 766.666 744 766.666 743.2C766.666 740.133 783.866 710.133 790.533 701.6C798.4 691.467 817.333 672.533 826.666 665.333C836.266 658.133 855.333 645.333 856.666 645.333C857.066 645.333 860.533 643.733 864.4 641.867C883.333 632.667 902.8 627.067 924.666 624.667C945.333 622.533 949.333 622.533 969.333 624.667ZM1486.93 1279.87C1499.07 1282.93 1513.07 1291.47 1521.2 1300.93C1532.93 1314.67 1538.53 1334.53 1535.87 1352.4C1532.13 1378.4 1512.27 1399.87 1486 1406.8C1474.4 1409.87 1467.2 1410 1457.6 1407.2C1432.8 1400.13 1418.4 1386.93 1409.2 1363.33C1405.73 1354.4 1405.47 1330.8 1408.8 1323.2C1415.07 1308.67 1422.67 1298.4 1432.4 1291.07C1441.33 1284.4 1444.13 1283.07 1455.47 1280C1467.33 1276.8 1474.27 1276.8 1486.93 1279.87ZM231.2 1414.13C256.133 1422.13 273.466 1432.8 290.4 1450.53C297.733 1458.27 310.666 1476.67 310.666 1479.47C310.666 1480.27 311.466 1481.73 312.4 1482.53C313.466 1483.33 315.333 1487.47 316.666 1491.6C317.866 1495.87 319.866 1501.73 320.8 1504.67C321.866 1507.6 323.466 1516.67 324.533 1524.67C326.266 1537.6 326.266 1541.2 324.533 1554.53C323.466 1562.8 321.733 1571.73 320.666 1574.53C319.733 1577.2 318.533 1581.07 318 1583.33C317.066 1587.47 311.866 1598.4 306.8 1606.67C305.333 1609.2 303.466 1612.67 302.8 1614.13C302.133 1615.73 301.066 1617.2 300.4 1617.47C299.866 1617.73 296.133 1621.6 292.4 1626C285.333 1634.27 270.933 1646.8 265.2 1649.87C231.2 1667.87 213.466 1672 182 1669.33C168.533 1668.13 151.6 1664 144 1659.87C142.933 1659.33 137.6 1656.67 132.266 1653.87C119.2 1647.07 104.4 1634.8 93.7331 1621.87C87.1997 1613.87 74.2664 1591.07 71.9997 1583.33C71.0664 1580.4 69.5997 1575.87 68.5331 1573.33C63.7331 1560.27 63.8664 1514.8 68.7997 1505.07C69.8664 1503.07 70.6664 1500.4 70.6664 1499.2C70.6664 1495.2 83.9997 1470.4 91.1997 1460.67C101.333 1447.2 116.666 1433.33 128 1427.47C131.333 1425.73 136.533 1422.93 139.466 1421.2C142.266 1419.6 150.666 1416.53 157.866 1414.4C165.2 1412.4 171.466 1410.4 171.733 1410C172.133 1409.6 182.4 1409.33 194.533 1409.33C216.266 1409.33 216.933 1409.47 231.2 1414.13ZM962.666 1475.33C971.066 1476.53 980.133 1478.27 982.666 1479.33C985.2 1480.27 989.2 1481.47 991.333 1482C998.8 1483.6 1016.93 1493.6 1027.07 1501.47C1044.13 1515.07 1055.47 1528.67 1064.27 1546.67C1072 1562.67 1074.27 1569.73 1076.93 1588C1078.8 1600.53 1078.93 1604.93 1077.6 1616.4C1076.8 1623.87 1075.2 1633.33 1074 1637.33C1072.8 1641.33 1071.33 1646.93 1070.67 1649.6C1069.47 1654.13 1066.67 1659.87 1058.8 1673.87C1052.27 1685.47 1028.93 1709.73 1020.67 1713.47C1019.2 1714.13 1016.27 1715.87 1014 1717.33C1008.13 1721.07 997.466 1726.13 991.333 1728C988.4 1728.93 983.866 1730.4 981.333 1731.47C972.133 1734.8 943.466 1736.27 927.333 1734.13C898.533 1730.27 867.066 1712 846.666 1687.33C834 1672.13 828.533 1661.07 820.933 1636.67C818.933 1630.27 816.8 1613.07 816.933 1604.67C817.2 1596 819.733 1575.2 821.066 1572C821.733 1570.13 823.466 1565.07 824.8 1560.67C826.266 1556.27 830.4 1547.47 834.133 1541.07C840.8 1529.87 855.066 1510.67 857.066 1510.67C857.6 1510.53 861.066 1507.87 864.666 1504.53C874 1496 900.133 1481.33 906 1481.33C907.066 1481.33 910.266 1480.4 912.933 1479.33C917.066 1477.73 936.4 1474.27 945.333 1473.47C946.533 1473.47 954.266 1474.27 962.666 1475.33Z" fill="black"/>
</svg>
