<?xml version="1.0" standalone="no"?>
<!DOCTYPE svg PUBLIC "-//W3C//DTD SVG 20010904//EN"
 "http://www.w3.org/TR/2001/REC-SVG-20010904/DTD/svg10.dtd">
<svg version="1.0" xmlns="http://www.w3.org/2000/svg"
 width="1536.000000pt" height="1536.000000pt" viewBox="0 0 1536.000000 1536.000000"
 preserveAspectRatio="xMidYMid meet">
<metadata>
Created by potrace 1.10, written by Peter Selinger 2001-2011
</metadata>
<g transform="translate(0.000000,1536.000000) scale(0.100000,-0.100000)"
fill="#000000" stroke="none">
<path d="M6003 14781 c-26 -12 -52 -35 -70 -62 l-28 -43 -5 -715 -5 -716 -865
-6 c-582 -4 -878 -9 -905 -16 -115 -32 -207 -86 -286 -170 -68 -71 -106 -134
-136 -227 l-23 -70 0 -996 c0 -782 -3 -999 -12 -1011 -13 -16 -37 -26 -163
-74 -138 -53 -251 -97 -320 -125 -68 -28 -176 -70 -320 -125 -38 -14 -101 -39
-140 -55 -68 -28 -147 -59 -345 -135 -191 -74 -275 -106 -295 -115 -11 -5 -45
-19 -75 -30 -145 -57 -177 -83 -200 -170 -17 -60 -17 -482 -1 -715 18 -273 50
-537 87 -736 8 -42 14 -86 14 -99 0 -21 18 -108 45 -220 7 -30 20 -86 29 -125
46 -208 151 -606 186 -700 6 -16 40 -120 76 -230 36 -110 77 -229 90 -265 44
-113 56 -144 70 -175 7 -16 25 -61 40 -100 32 -85 125 -306 166 -395 84 -179
114 -244 162 -340 91 -182 198 -382 253 -473 29 -48 53 -90 53 -92 0 -5 66
-114 121 -200 21 -33 63 -98 93 -145 66 -102 100 -152 189 -276 38 -52 67
-100 64 -108 -13 -32 -274 -128 -454 -165 -126 -26 -365 -51 -488 -51 -303 0
-646 68 -880 175 -400 183 -693 259 -1052 272 -175 7 -220 -4 -272 -63 -76
-86 -59 -206 39 -270 38 -25 50 -27 208 -35 256 -12 460 -48 622 -110 30 -11
66 -24 80 -28 14 -5 75 -31 137 -60 181 -82 405 -158 563 -191 163 -34 251
-42 491 -47 202 -4 284 -2 390 11 157 19 328 55 424 87 17 6 44 15 60 19 63
18 195 70 313 124 68 31 129 56 137 56 8 0 29 6 47 14 18 8 49 21 68 29 48 20
192 55 308 73 53 9 194 18 313 21 437 11 679 -39 1094 -228 138 -62 357 -132
510 -163 181 -35 252 -41 535 -41 282 0 351 5 530 41 193 38 404 111 675 233
155 70 387 129 587 151 125 13 421 13 546 0 164 -18 341 -57 452 -100 30 -12
69 -25 85 -29 17 -5 82 -32 145 -61 109 -50 239 -101 305 -120 17 -5 62 -18
100 -30 39 -12 91 -25 117 -30 27 -5 51 -11 55 -13 5 -3 62 -13 128 -23 166
-26 661 -27 810 -2 158 27 311 62 363 84 18 8 38 14 45 14 15 0 185 64 255 96
28 13 78 36 109 50 32 15 69 30 83 35 14 4 50 17 80 29 59 22 88 30 217 60
121 28 228 41 410 49 153 8 165 10 203 35 98 64 115 184 39 270 -52 60 -96 70
-277 63 -341 -13 -583 -71 -957 -229 -193 -82 -196 -83 -354 -128 -258 -73
-595 -98 -886 -65 -160 18 -267 40 -450 95 -100 29 -225 86 -225 101 0 7 18
36 40 65 22 29 40 57 40 63 0 5 4 11 9 13 14 5 295 432 354 538 14 25 51 90
84 145 32 55 76 134 98 175 21 41 54 102 71 135 48 88 149 296 231 475 14 30
34 73 44 95 32 71 85 198 123 295 20 52 43 109 50 125 7 17 21 49 30 73 9 23
22 59 30 80 33 83 104 296 180 532 52 160 109 374 165 615 17 72 36 150 42
175 18 68 35 161 74 400 25 148 64 498 75 680 15 226 14 657 -1 713 -23 89
-60 116 -254 190 -22 8 -74 29 -115 45 -41 17 -106 43 -145 57 -186 71 -252
97 -280 109 -33 15 -66 28 -200 79 -49 20 -153 60 -230 90 -344 135 -475 186
-545 212 -41 15 -81 35 -87 43 -10 12 -13 230 -13 1012 l0 996 -23 70 c-65
197 -216 340 -422 397 -27 7 -323 12 -905 16 l-865 6 -5 716 -5 715 -27 41
c-16 24 -44 49 -70 62 -44 21 -51 21 -739 21 -660 0 -696 -1 -736 -19z m1211
-367 c3 -9 6 -271 6 -583 0 -428 -3 -570 -12 -579 -17 -17 -919 -17 -936 0 -9
9 -12 151 -12 579 0 312 3 574 6 583 5 14 57 16 474 16 417 0 469 -2 474 -16z
m2121 -1579 c36 -22 57 -45 77 -84 l28 -53 0 -894 c0 -810 -2 -895 -16 -901
-15 -6 -43 4 -199 67 -68 28 -151 60 -345 135 -205 79 -278 107 -345 135 -38
16 -124 50 -190 75 -180 69 -184 71 -265 103 -74 30 -188 75 -325 127 -38 14
-104 40 -145 57 -41 16 -93 37 -115 45 -22 9 -49 19 -60 24 -36 15 -119 47
-190 74 -200 77 -253 97 -280 109 -16 8 -66 29 -109 46 -95 38 -150 38 -236
-2 -30 -14 -75 -34 -100 -43 -25 -10 -58 -23 -75 -30 -16 -7 -97 -39 -180 -70
-82 -31 -172 -66 -200 -77 -27 -11 -81 -33 -120 -48 -101 -40 -187 -74 -295
-115 -128 -49 -170 -65 -205 -81 -28 -12 -94 -38 -280 -109 -38 -14 -104 -40
-145 -57 -41 -16 -91 -36 -110 -43 -19 -7 -69 -27 -110 -44 -41 -16 -129 -51
-195 -76 -180 -69 -184 -71 -265 -103 -188 -76 -262 -103 -278 -100 -16 3 -17
63 -20 899 l-2 895 27 54 c16 30 40 62 54 73 68 49 -73 46 2635 44 l2531 -2
48 -30z m-2777 -1987 l2 -617 -29 -20 c-16 -12 -34 -21 -40 -21 -6 0 -25 -6
-43 -14 -18 -8 -67 -28 -108 -44 -69 -28 -124 -49 -385 -149 -49 -19 -106 -40
-125 -48 -43 -16 -187 -74 -215 -86 -11 -5 -69 -27 -130 -49 -60 -22 -119 -44
-130 -49 -11 -5 -40 -16 -65 -26 -25 -9 -58 -23 -75 -30 -16 -7 -68 -27 -115
-45 -89 -34 -156 -59 -305 -116 -49 -20 -106 -41 -125 -49 -19 -7 -69 -26
-110 -43 -41 -16 -111 -44 -155 -60 -156 -59 -320 -124 -352 -138 -17 -8 -37
-14 -45 -14 -8 0 -18 -4 -23 -8 -6 -4 -35 -18 -65 -29 -30 -12 -86 -33 -125
-48 -199 -76 -320 -123 -350 -136 -11 -5 -81 -31 -155 -59 -200 -76 -199 -76
-280 -108 -71 -29 -221 -87 -395 -153 -73 -28 -127 -49 -273 -108 -65 -27 -90
-21 -96 22 -16 106 -37 270 -51 387 -34 305 -47 732 -23 762 7 8 47 28 88 43
41 15 113 43 160 62 47 19 103 42 125 50 22 9 54 21 70 29 17 7 62 25 100 39
147 56 314 121 360 140 17 7 48 20 70 29 22 8 81 30 130 50 50 19 122 46 160
61 39 14 104 40 145 57 41 16 93 37 115 45 22 9 54 21 70 28 17 7 62 24 100
38 68 24 258 99 400 157 39 16 113 45 165 65 52 20 124 47 160 61 36 14 83 33
105 41 22 9 54 22 70 29 28 12 94 38 280 109 39 14 104 40 145 57 41 16 91 36
110 43 19 7 69 27 110 43 41 17 104 42 140 55 191 74 262 101 325 127 68 28
176 70 320 125 85 32 189 74 270 108 33 14 67 25 75 24 13 -2 15 -80 18 -619z
m454 596 c35 -14 79 -32 98 -39 191 -74 350 -135 385 -150 17 -7 48 -19 70
-28 22 -8 74 -29 115 -45 41 -17 107 -43 145 -57 39 -15 111 -42 160 -61 50
-19 103 -41 118 -49 16 -8 35 -15 44 -15 8 0 27 -7 41 -15 26 -13 61 -27 327
-130 66 -25 129 -49 140 -54 11 -5 38 -15 60 -24 22 -8 74 -29 115 -45 41 -17
107 -43 145 -57 147 -56 253 -97 320 -125 39 -16 142 -57 230 -91 88 -34 192
-74 230 -89 76 -31 258 -102 370 -145 170 -65 255 -98 320 -125 39 -16 99 -40
135 -53 186 -72 262 -101 330 -129 41 -16 93 -37 115 -45 22 -9 49 -19 60 -24
11 -5 63 -25 115 -44 51 -20 100 -41 107 -47 10 -8 13 -49 13 -157 0 -283 -30
-641 -86 -998 -8 -51 -19 -51 -139 -3 -66 27 -174 69 -380 147 -112 42 -161
62 -200 78 -31 14 -58 24 -190 74 -174 66 -323 123 -390 151 -38 16 -110 44
-160 63 -294 112 -372 142 -420 162 -16 7 -48 20 -70 28 -157 59 -295 112
-320 122 -51 21 -282 111 -410 160 -140 53 -251 97 -295 115 -25 10 -112 43
-195 75 -82 31 -184 70 -225 87 -41 16 -91 36 -110 44 -19 7 -89 34 -155 59
-66 26 -156 60 -200 77 -44 16 -114 44 -155 60 -41 17 -91 36 -110 43 -83 31
-147 58 -167 71 l-23 14 0 614 c0 337 3 616 7 619 10 11 17 9 85 -19z m-454
-4370 c2 -2279 0 -2733 -11 -2743 -10 -8 -44 -7 -128 3 -209 26 -383 73 -544
147 -143 65 -339 143 -400 159 -16 5 -43 13 -60 19 -80 27 -253 65 -385 83
-126 17 -605 18 -720 0 -117 -17 -236 -41 -289 -58 -95 -30 -100 -27 -196 102
-47 65 -137 194 -199 288 -145 220 -249 395 -398 671 -56 104 -245 489 -275
559 -14 34 -35 84 -48 111 -12 28 -39 91 -60 140 -20 50 -43 104 -50 120 -28
66 -89 222 -101 260 -7 22 -29 85 -49 140 -106 296 -179 536 -270 890 -35 139
-47 196 -41 210 6 16 10 18 131 64 162 61 322 123 395 153 41 16 91 36 110 43
19 8 64 25 100 39 36 13 97 36 135 50 39 15 79 30 90 35 11 5 38 15 60 24 22
8 63 24 90 35 28 11 118 45 200 77 83 31 184 70 225 87 41 16 91 36 110 44 59
22 270 103 370 141 52 20 99 40 104 45 6 4 18 8 27 8 10 0 30 6 46 14 15 8 48
22 73 31 25 10 54 21 65 26 11 5 52 20 90 35 98 36 188 70 275 106 41 16 91
36 110 44 82 31 281 107 355 135 44 17 114 44 155 61 41 16 91 36 110 43 19 7
58 22 87 34 28 11 84 33 125 47 40 14 87 32 103 39 17 7 50 20 75 30 25 9 59
23 75 30 17 7 48 20 70 28 22 9 81 32 130 51 50 20 99 34 110 33 20 -2 20 -10
23 -2733z m549 2681 c65 -25 134 -52 153 -59 19 -8 69 -28 110 -44 41 -17 111
-44 155 -61 121 -46 304 -117 455 -176 74 -30 167 -65 205 -79 39 -15 79 -30
90 -35 11 -5 38 -15 60 -24 78 -29 130 -50 160 -63 17 -7 104 -40 195 -74 91
-34 179 -67 195 -74 36 -16 78 -33 215 -85 223 -85 513 -198 545 -212 11 -5
52 -20 90 -35 98 -36 188 -70 275 -106 41 -16 91 -36 110 -43 19 -8 76 -29
125 -49 50 -19 122 -46 160 -61 39 -14 86 -32 105 -40 19 -7 69 -27 110 -43
73 -30 233 -92 395 -153 121 -46 125 -48 131 -64 6 -15 -10 -95 -41 -210 -7
-27 -21 -79 -30 -115 -86 -335 -295 -967 -389 -1175 -8 -16 -51 -118 -96 -225
-46 -107 -136 -303 -202 -435 -113 -229 -140 -280 -210 -405 -17 -30 -42 -75
-56 -100 -118 -211 -323 -528 -467 -724 -96 -129 -101 -132 -196 -102 -53 17
-172 41 -289 58 -116 18 -616 17 -730 0 -249 -38 -428 -89 -680 -195 -80 -33
-150 -64 -155 -68 -24 -18 -218 -80 -345 -110 -128 -30 -310 -51 -327 -38 -11
10 -13 467 -13 2739 0 1499 3 2730 7 2734 12 12 52 1 180 -49z"/>
<path d="M498 3201 c-132 -28 -188 -188 -102 -291 48 -57 73 -64 259 -71 157
-7 312 -26 410 -50 153 -39 248 -71 398 -138 146 -64 320 -130 412 -156 33 -9
74 -21 90 -25 152 -44 390 -70 640 -70 435 1 690 56 1128 246 216 94 353 137
537 169 148 26 566 32 723 10 225 -31 378 -74 572 -160 62 -28 218 -92 265
-110 19 -7 53 -19 75 -28 134 -49 326 -92 505 -112 336 -39 814 -3 1045 77 17
5 46 14 65 18 19 4 60 18 90 30 30 12 66 25 80 29 14 5 84 34 155 66 275 121
396 157 633 190 151 20 503 20 654 0 223 -31 382 -77 602 -174 140 -62 314
-128 411 -156 33 -9 74 -21 90 -25 152 -44 390 -70 640 -70 446 0 703 57 1160
258 275 121 485 169 790 180 194 8 217 16 270 90 57 82 35 185 -54 247 l-43
30 -176 -2 c-209 -2 -344 -21 -567 -80 -106 -28 -289 -92 -380 -133 -229 -103
-368 -147 -613 -192 -101 -19 -153 -22 -387 -22 -280 0 -332 5 -545 54 -80 18
-222 62 -300 93 -35 13 -45 18 -155 67 -92 42 -275 106 -380 133 -265 70 -360
81 -685 81 -223 0 -309 -4 -395 -18 -232 -37 -477 -106 -647 -185 -241 -110
-371 -154 -583 -199 -125 -26 -141 -27 -445 -26 -262 0 -330 3 -405 18 -129
25 -239 53 -325 83 -72 24 -98 34 -185 74 -176 80 -481 189 -529 189 -10 0
-42 6 -70 14 -133 38 -276 51 -556 51 -280 0 -423 -13 -556 -51 -28 -8 -60
-14 -72 -14 -12 0 -31 -4 -44 -9 -13 -5 -61 -21 -108 -36 -47 -14 -116 -37
-155 -52 -64 -24 -99 -39 -252 -109 -114 -53 -296 -106 -478 -140 -85 -16
-147 -19 -410 -19 -279 1 -321 3 -415 22 -192 40 -339 85 -454 137 -28 13 -80
37 -116 53 -59 27 -179 73 -285 107 -103 34 -258 70 -390 90 -116 18 -383 28
-437 17z"/>
</g>
</svg>
