<svg width="1239" height="1761" viewBox="0 0 1239 1761" fill="none" xmlns="http://www.w3.org/2000/svg">
<path d="M339 3.66672C336.066 5.53339 332.466 7.53339 331 8.33339C329.533 9.00006 322.466 13.4001 315.4 18.0667C224.066 76.7334 151 151.933 95.9329 244.067C91.3995 251.533 87.6662 258.067 87.6662 258.333C87.6662 258.6 85.9329 261.8 83.9329 265.267C72.1995 285.133 49.7995 333.533 43.6662 352.333C42.9995 354.2 41.2662 359 39.6662 363C23.1329 405.533 7.66621 473.533 2.06621 528.333C-0.200456 550.467 -0.200456 638.333 2.06621 659C4.33288 680.067 7.53288 702.067 9.79954 711.933C10.8662 716.467 11.6662 721.933 11.6662 724.067C11.6662 726.2 12.4662 730.467 13.5329 733.8C14.5995 737 16.4662 744.467 17.6662 750.333C25.6662 787.4 42.5995 836.867 61.2662 877.667C84.3329 927.8 112.066 972.733 148.066 1018.33C180.6 1059.53 226.2 1103.93 269.666 1137C289.933 1152.33 322.2 1173.93 338.333 1183C344.6 1186.6 351.8 1190.6 354.333 1192.07C372.2 1202.47 404.333 1217.27 441.666 1232.33C450.466 1235.93 479.933 1245.4 497.666 1250.33C502.066 1251.67 508.333 1253.4 511.533 1254.47C514.866 1255.53 519 1256.33 520.866 1256.33C522.733 1256.33 526.866 1257.53 530.066 1259L535.666 1261.53L535.4 1354.6L535 1447.67L496.333 1448.33C460.733 1449 457.266 1449.27 453.133 1451.67C450.6 1453.13 447.4 1456.07 445.8 1458.07C443 1461.8 443 1463.27 442.6 1525C442.333 1573.93 441.8 1588.47 440.466 1589.53C439.4 1590.47 420.2 1591 385.266 1591.27L331.8 1591.67L327 1596.33C324.466 1598.87 321.666 1603 320.866 1605.67C320.066 1608.6 319.666 1634.47 319.933 1678.47L320.333 1746.6L324.066 1751.4C331.4 1761.13 304.733 1760.33 619.666 1760.33C934.599 1760.33 907.933 1761.13 915.266 1751.4L918.999 1746.6L919.399 1677.27C919.666 1609.27 919.666 1608.07 916.999 1602.6C911.266 1591.27 913.933 1591.67 853.799 1591.27C818.999 1591 799.933 1590.47 798.866 1589.53C797.533 1588.47 796.999 1573.93 796.733 1525.27L796.333 1462.33L793.266 1457.93C786.999 1449.27 785.799 1449.13 743 1448.33L704.333 1447.67L703.933 1362.87C703.666 1295.93 704.066 1277.67 705.266 1276.73C706.2 1275.93 717.533 1274.6 730.333 1273.8C753.266 1272.2 786.599 1268.33 800.999 1265.67C817.533 1262.47 828.733 1260.07 835.133 1258.2C838.866 1257.13 842.999 1256.33 844.466 1256.33C845.799 1256.33 849.266 1255.53 852.333 1254.47C855.266 1253.4 861.533 1251.53 866.333 1250.33C887.133 1244.6 912.466 1236.33 922.999 1231.8C927.266 1229.8 931.666 1228.33 932.866 1228.33C934.066 1228.33 936.199 1227.53 937.666 1226.6C939.133 1225.53 947.533 1221.8 956.333 1217.93C981.666 1207.27 1019.53 1187.4 1040.33 1173.93C1059.53 1161.67 1086.47 1143.27 1087.67 1141.67C1088.07 1141.27 1093.4 1137 1099.67 1132.33C1116.2 1119.93 1137 1101.93 1153.27 1085.8C1165.93 1073.53 1167.67 1071.13 1168.47 1066.2C1170.2 1054.47 1170.07 1054.33 1129.53 1013.67C1108.73 992.733 1091.67 974.867 1091.67 974.067C1091.67 973.267 1097 966.467 1103.67 959.267C1113.8 947.8 1122.87 936.2 1143.4 907.533C1159 886.2 1185.4 837 1196.87 808.333C1198.6 804.333 1200.6 799.133 1201.53 797C1202.6 794.733 1204.07 791.133 1205 789C1207.93 781.8 1215.4 758.6 1218.33 747.667C1219.93 741.8 1221.67 735.133 1222.33 733C1225 723.667 1230.6 697.133 1233.53 679.667C1238.07 652.6 1239 637.8 1239 593.667C1239 549.533 1238.2 537 1233.53 508.333C1232.47 501.4 1231.27 494.2 1231 492.333C1230.47 489.133 1228.47 480.333 1224.47 463C1219.4 440.6 1205.93 397.8 1201.13 388.6C1200.47 387.4 1198.87 383.667 1197.67 380.333C1196.33 377 1194.47 372.2 1193.27 369.667C1191.27 364.733 1175.13 332.2 1172.47 327.667C1171.67 326.2 1168.73 320.733 1165.8 315.667C1163 310.467 1158.47 303 1155.93 299C1147.8 286.2 1139 273.133 1137.4 271C1136.6 269.933 1132.07 263.933 1127.53 257.667C1100.07 220.333 1057.4 177.667 1016.33 146.867C992.333 128.733 947.399 100.333 942.999 100.333C941.933 100.333 940.866 99.8001 940.466 99.1334C939.399 97.5334 918.333 87.4001 901.666 80.3334C885.399 73.5334 884.466 73.2667 876.999 70.3334C873.666 69.1334 869.533 67.4001 867.666 66.7334C833.399 53.2667 752.066 36.4667 720.333 36.2001C715.266 36.2001 708.6 35.8001 705.666 35.1334C697.8 33.6667 634.333 36.0667 620.2 38.3334C613.533 39.4001 605.933 40.3334 603.533 40.3334C601 40.3334 594.866 41.1334 589.666 42.2001C539.4 52.7334 529.533 55.1334 505.666 63.1334C496.866 66.0667 485.533 70.2001 480.333 72.3334C475.266 74.3334 467.666 77.4001 463.666 79.0001C459.666 80.6001 448.333 85.9334 438.6 90.6001C418.733 100.333 419 100.333 413.666 90.0667C410.866 84.6001 392.6 53.0001 390.333 49.6667C389.533 48.6001 388.6 46.7334 388.066 45.6667C387.533 44.6001 383.8 37.9334 379.666 31.0001C375.666 24.0667 371.533 16.8667 370.6 15.0001C363.4 1.13339 350.733 -3.39995 339 3.66672ZM354.6 67.6667C360.2 77.2667 365.666 86.4667 366.6 88.3334C367.533 90.2001 371.8 97.6667 376.066 105C381.8 114.733 383.533 118.867 382.733 120.333C381.933 121.4 378.466 124.2 374.866 126.333C353.8 139.267 310.733 174.6 286.333 199C252.6 232.867 217.8 277.933 197.533 314.333C194.733 319.4 191.666 324.867 190.866 326.333C182.733 340.333 163.4 382.2 159.666 393.667C159 395.533 157.266 400.333 155.666 404.333C147 426.733 140.333 451.133 133.8 483C132.733 488.467 131.133 496.333 130.333 500.333C129.533 504.333 128.333 512.733 127.666 519C127 525.267 125.8 534.467 124.866 539.667C124.066 545.4 123.533 568.2 123.533 598.333C123.533 638.067 123.933 649.133 125.666 655C126.733 659 127.666 664.733 127.666 667.667C127.666 673.667 132.066 697.4 137.933 723.667C140.2 733.533 147.666 760.333 150.466 768.333C156.466 785.667 159.133 792.6 169.533 817C219 934.067 319.533 1039.27 435.133 1095C458.2 1106.07 469.533 1111.27 473 1112.47C474.866 1113 479.666 1114.73 483.666 1116.2C505 1124.33 534.866 1133.4 550.2 1136.47C553.533 1137.13 558.066 1138.2 560.2 1138.87C570.2 1141.93 603.666 1147.67 625 1149.93C646.866 1152.2 716.6 1152.2 737 1149.93C760.599 1147.27 789.666 1142.47 806.333 1138.33C834.999 1131.27 867.799 1121.27 880.866 1115.53C884.733 1113.8 888.466 1112.33 889.133 1112.33C890.466 1112.33 923.133 1097.67 932.199 1093C970.999 1073 1006.07 1049.93 1036.07 1024.73C1045.53 1016.73 1055 1008.87 1057 1007.27C1059.4 1005.27 1061.8 1004.47 1063.27 1004.87C1066.33 1005.8 1119.67 1059.27 1119.67 1061.27C1119.67 1064.07 1087.13 1092.07 1063 1109.93C1018.2 1143.27 960.866 1175 915.799 1191.67C913.133 1192.73 907.666 1194.73 903.666 1196.33C878.466 1205.93 843.399 1215.8 811.666 1222.2C805.399 1223.53 796.599 1225.4 792.066 1226.47C787.533 1227.53 781.799 1228.33 779.533 1228.33C777.133 1228.33 770.333 1229.13 764.466 1230.2C714.866 1238.87 628.866 1237 573 1226.2C567.533 1225.13 556.733 1223.13 549.266 1221.53C461.133 1204.33 372.333 1164.07 295.266 1106.07C237.533 1062.6 179.933 1001.27 144.333 945C141.533 940.6 136.6 933 133.4 928.067C130.333 923.133 127.666 918.867 127.666 918.467C127.666 918.067 125 913.4 121.8 908.067C116.466 899.4 101.8 870.067 92.4662 849.4C85.6662 834.467 70.0662 792.867 67.6662 783C66.9995 780.467 65.5329 775 64.1995 771C48.4662 718.467 39.6662 654.733 39.6662 591.667C39.6662 531.267 47.1329 477.8 63.7995 418.333C67.9329 403.267 68.9995 400.2 69.7995 398.867C70.3329 398.067 71.1329 395.533 71.7995 393.133C72.9995 387.933 80.8662 366.333 87.2662 350.333C92.5995 336.867 114.333 291.933 121.533 279.667C124.2 275.267 126.866 270.467 127.666 269C128.466 267.533 130.066 264.733 131.4 262.733C132.6 260.867 135.4 256.333 137.533 252.733C159.933 215.667 197.8 168.867 233.133 134.333C255.933 112.2 268.866 101 300.333 76.7334C312.466 67.4001 340.333 49.5334 342.2 49.9334C343.266 50.2001 348.866 58.2001 354.6 67.6667ZM687 75.8001C690.066 77.0001 694.2 87.0001 696.466 98.7334C699.8 116.333 698.733 139.533 692.733 175.533C689.4 196.2 690.466 208.067 697 222.467C707.133 245 723.4 257.933 752.333 266.333C756.733 267.667 762.999 269.4 766.333 270.467C787.266 276.467 790.066 277 804.466 277C819.933 276.867 821.933 276.467 838.333 268.6C842.599 266.467 849.533 261.133 855.133 255.667C862.866 248.067 865.666 244.067 870.199 234.333C884.599 203.267 892.199 191.267 908.733 173.533C920.733 160.867 938.066 145.667 940.599 145.667C943.133 145.667 953.399 151.8 971.666 164.2C1017.13 195 1058.33 233.667 1092.6 277.8C1111 301.4 1142.33 351.8 1140.47 354.733C1140.07 355.4 1136.07 357 1131.4 358.2C1126.73 359.533 1120.87 361.4 1118.33 362.333C1109.93 365.533 1084.6 375.133 1073.67 379.133C1048.33 388.6 1032.87 390.467 1012.07 386.333C1001.27 384.067 997.399 383.133 974.333 376.067C961.266 372.2 958.999 371.933 938.999 371.8C921.799 371.667 916.066 372.2 908.999 374.2C883.933 381.533 862.066 396.467 846.199 417C831.799 435.533 818.599 470.6 814.733 500.6C812.733 515.4 812.733 519.533 814.199 531.8C818.733 568.333 837.533 597.267 871.533 619.933C893.533 634.6 932.199 648.467 966.999 654.2C973.666 655.267 984.999 657.133 992.333 658.333C1018.47 662.733 1030.2 668.2 1045 683C1057.4 695.4 1063.53 706.733 1069.13 727.8C1075.8 753 1075.27 784.2 1067.67 822.333C1060.87 856.067 1062.33 889.267 1071.67 915.667C1076.2 928.2 1076.2 929.267 1073 933.267C1062.47 946.867 1024.47 983.133 1003.13 1000.07C976.599 1021 946.733 1040.47 921.666 1053.13C916.599 1055.67 911.399 1058.33 910.333 1059.13C909.266 1059.8 903.533 1062.47 897.666 1065C891.799 1067.67 885.799 1070.33 884.333 1071C882.866 1071.67 876.866 1074.07 870.999 1076.33C865.133 1078.6 858.333 1081.4 855.933 1082.47C853.533 1083.53 850.733 1084.33 849.666 1084.33C848.599 1084.33 845.799 1085.13 843.399 1086.2C826.999 1093.27 772.866 1105.4 744.333 1108.33C738.466 1109 727.533 1110.2 720.066 1111C711.933 1111.93 692.866 1112.33 673.666 1112.07C633.933 1111.53 635 1112.07 639.533 1097.67C649.133 1067.27 674.2 1034.47 707.266 1008.87C713.666 1003.8 719.266 999.4 719.666 999C720.866 997.8 739.666 984.6 753.666 975.4C780.199 957.933 802.599 937.8 820.199 915.667C829.266 904.333 839.666 889.4 839.666 887.8C839.666 887.4 841.399 884.2 843.399 880.733C845.399 877.267 848.199 871.667 849.533 868.333C850.866 865 852.733 860.467 853.666 858.333C862.466 837.533 865.799 804.867 860.733 788.867C851.799 760.2 829.533 740.067 794.733 729C788.999 727.133 772.333 723.267 757.666 720.467C705.133 710.067 698.733 706.333 671.933 672.2C650.733 644.867 628.466 629.4 589 614.333C581.266 611.267 567.8 608.6 552.6 607C528.466 604.333 495.933 609 473.666 618.467C442.6 631.533 418.6 649.4 401.266 672.733C382.333 698.067 372.466 724.6 370.6 754.867C368.066 795.8 375.666 829.533 395.666 865C402.2 876.6 411.4 887.933 430.066 907.4C458.066 936.467 462.066 943.4 465.933 970.067C467.933 983.4 467.8 986.067 465.8 1005.13C462.866 1030.73 457.933 1057.67 455.666 1059C453.666 1060.2 438.6 1052.6 414.466 1038.07C350.2 999.4 297.666 949.933 255 888.2C220.466 838.2 202.2 799.667 181.8 733.667C175.266 712.6 166.6 667.267 168.066 661.533C168.6 659.533 172.066 656.2 177.266 652.733C197 639.8 216.066 620.2 232.2 596.6C241.266 583.133 243.8 578.6 257.266 552.6C269.133 529.4 272.466 523.933 278.466 517C287.933 506.333 297.266 505.533 318.333 513.8C362.333 531 370.866 533 396.333 532.867C415.933 532.733 418.466 532.467 426.733 529.267C438.866 524.733 445.933 520.333 454.866 512.2C461.8 505.933 471.666 492.6 477.533 481.667C484.466 468.6 502.2 453.533 518.066 447.133C521.8 445.667 528.2 443 532.066 441.533C541.4 437.667 551.266 431.133 557.133 424.867C582.066 397.933 574.866 358.067 535.4 305.667C519.8 284.867 496.733 260.6 480.466 247.933C474.733 243.4 464.2 235.133 457.133 229.533C440.333 216.333 431.133 205.667 418.733 185C414.6 178.067 407.4 161.933 406.733 158.2C405.933 153.267 404.2 154.467 439.8 135C463.933 121.8 487.133 111.8 517.666 101.533C524.333 99.2667 531.8 96.8667 534.333 96.3334C536.866 95.6667 543.266 93.9334 548.333 92.4667C575.133 84.6001 614.6 78.2001 647.666 76.4667C673 75.0001 684.466 74.8667 687 75.8001ZM749.666 79.6667C764.333 81.2667 793.399 86.8667 808.999 91.0001C817.399 93.2667 826.466 95.6667 828.999 96.2001C835.133 97.8001 864.199 108.2 876.999 113.4C895.666 120.867 899.666 122.867 899.666 124.6C899.666 125.533 895.533 130.2 890.466 135C866.866 157.133 848.733 182.733 837.666 209.667C832.599 221.933 829.266 226.467 821.666 231.533C811.133 238.6 802.999 238.6 777.666 231.8C747.799 223.8 740.466 219.8 734.466 208.333C731.4 202.333 730.6 186.733 733 177C734.466 171.4 736.066 158.333 738.466 134.733C739.8 120.6 739.266 112.333 735.666 89.1334C734.2 79.4001 735.133 77.0001 739.666 78.3334C740.733 78.6001 745.266 79.2667 749.666 79.6667ZM378.866 194.6C396.2 228.6 408.6 242.867 445 270.733C464.333 285.667 475.533 296.333 494.6 318.333C506.6 332.2 520.6 353.533 525.266 365C532.6 383 533.4 389.133 529.133 395.4C525.8 400.6 522.466 402.6 511.8 406.333C481.933 416.733 457.533 436.733 441.666 463.667C432.866 478.6 426.466 485.533 417.4 489.8C411.933 492.333 408.733 492.867 395 492.867C381.133 492.867 377.4 492.467 367 489.133C355.266 485.533 335.933 478.067 328.6 474.2C326.466 473.133 323.8 472.333 322.6 472.333C321.4 472.333 317.933 471.4 315 470.333C311.8 469.267 304.466 468.467 296.866 468.333C282.333 468.333 272.733 470.867 263.4 477.4C248.2 488.067 240.6 498.2 223 531.667C206.733 562.6 198.333 576.6 189.4 587.667C183.133 595.4 167.133 611 165.4 611C162.466 611 163.133 560.333 166.333 533.667C170.733 497.667 175.4 474.6 184.466 445C185.533 441.267 187 436.467 187.666 434.333C190.466 424.6 202.333 394.067 208.466 380.733C224.733 344.867 242.866 314.6 267.266 281.933C283.666 260.2 292.2 250.467 313.933 228.333C336.066 205.933 365.933 180.467 369.933 180.333C370.866 180.333 374.866 186.733 378.866 194.6ZM1163.13 402.6C1177 433.933 1191.27 488.733 1195.67 528.333C1196.33 534.6 1197.53 544.733 1198.33 551C1199 557.267 1199.67 576.467 1199.67 593.667C1199.67 610.867 1199 630.067 1198.33 636.333C1197.53 642.6 1196.33 652.733 1195.67 659C1191.67 694.867 1180.73 739.667 1167.93 773C1157.67 799.4 1154.07 807.8 1146.73 822.333C1138.2 839.4 1135.13 845 1126.33 859.4C1121.53 867.4 1117 875.133 1116.07 876.733C1113.27 881.8 1106.6 889 1105.67 888.067C1102.2 884.733 1102.6 846.333 1106.07 833C1119.93 779.8 1115.53 721.8 1094.73 683C1083.27 661.667 1064.2 642.6 1043.8 632.467C1034.6 627.8 1012.47 620.333 1007.8 620.333C1005.93 620.333 1001 619.4 996.999 618.333C992.999 617.267 987.666 616.333 985.133 616.333C982.599 616.333 976.866 615.533 972.466 614.467C967.933 613.4 959.799 611.533 954.333 610.2C896.866 597 861.533 569.4 855.399 533.267C853.133 519.4 854.999 497.667 859.666 481.667C871.133 443.4 884.599 427.4 916.733 414.2C921.133 412.467 926.333 411.8 938.066 411.8C952.066 411.667 955.133 412.067 966.999 415.933C996.999 425.4 1009.93 427.667 1033.67 427.667C1054.47 427.667 1065.53 425.533 1085 417.933C1086.87 417.267 1091 415.533 1094.33 414.333C1097.67 413 1101.53 411.533 1103 410.867C1113.13 406.6 1117.67 405 1128.33 401.4C1141.8 397 1148.87 395.4 1155.4 395.133C1159.53 395 1160.07 395.533 1163.13 402.6ZM575.666 652.467C597.933 659.933 617.533 671.667 631 685.667C633.933 688.6 641.8 698.067 648.333 706.733C672.2 737.533 692.333 748.467 743.666 758.333C794.333 768.067 810.466 775.667 819.533 793.933C825.533 805.8 824.999 815.667 817.399 840.333C813.399 852.867 803.799 870.6 793.399 884.6C776.066 907.933 755.666 926.2 723.666 947.267C650.866 995.267 610.866 1042.73 598.333 1096.07C597.4 1100.07 595.8 1103.53 594.6 1103.93C587.8 1106.6 500.2 1082.87 496.733 1077.4C495.133 1074.87 495.4 1069.13 497.533 1059.13C511.666 994.467 510.6 956.867 493.933 923.267C488.733 912.733 479.8 901.4 460.333 880.867C434.333 853.4 429.4 846.467 421 825.133C403.933 782.6 405.933 741.8 426.6 706.6C439.8 684.067 466.733 662.867 493 654.333C497 653 501.8 651.4 503.666 650.6C509.8 648.2 522.866 647.133 543 647.667C561.266 648.067 564.066 648.6 575.666 652.467ZM594.466 1270.2C601.4 1271.27 619 1272.87 633.666 1273.8C648.333 1274.73 661.133 1276.07 662.066 1276.73C663.266 1277.8 663.666 1295.93 663.4 1362.87L663 1447.67H619.666H576.333L575.933 1359.67C575.8 1311.27 575.933 1270.87 576.333 1269.93C577.133 1267.93 579.133 1267.93 594.466 1270.2ZM755.666 1490.87C757.533 1494.47 757.533 1584.87 755.666 1588.47C754.333 1591 751.399 1591 619.666 1591C487.933 1591 485 1591 483.666 1588.47C482.866 1586.73 482.333 1569 482.333 1539.67C482.333 1510.33 482.866 1492.6 483.666 1490.87C485 1488.33 487.933 1488.33 619.666 1488.33C751.399 1488.33 754.333 1488.33 755.666 1490.87ZM878.999 1633.93C879.399 1635.67 879.533 1655.53 879.399 1678.33L878.999 1719.67H619.666H360.333L359.933 1678.33C359.8 1655.53 359.933 1635.67 360.333 1633.93L361 1631H619.666H878.333L878.999 1633.93Z" fill="black"/>
</svg>
