<svg width="1499" height="1405" viewBox="0 0 1499 1405" fill="none" xmlns="http://www.w3.org/2000/svg">
<path d="M75.6673 1.13342C73.534 1.40009 60.334 2.20009 46.334 3.00009C18.0673 4.73342 14.334 5.93342 7.13398 14.6001C4.86732 17.4001 2.33398 21.8001 1.66732 24.3334C0.867318 27.2668 0.333984 232.467 0.333984 596.733C0.333984 1106.6 0.600651 1164.87 2.46732 1169.4C5.40065 1176.73 11.934 1182.6 20.2006 1185.8C27.134 1188.33 28.334 1188.47 51.534 1186.87C65.2673 1185.93 103.134 1185.13 139.667 1185.13C213.801 1185.13 245.401 1186.87 301.667 1194.47C310.067 1195.53 321.267 1197.4 326.334 1198.47C331.534 1199.53 337.001 1200.33 338.734 1200.33C340.334 1200.33 345.134 1201.13 349.401 1202.2C353.534 1203.27 361.801 1205.13 367.667 1206.33C395.267 1212.33 438.867 1224.6 453.667 1230.73C455.534 1231.53 461.534 1233.8 467.001 1235.8C490.867 1244.33 538.201 1266.47 555.001 1277C557.534 1278.6 560.601 1280.33 561.667 1280.73C562.734 1281.27 565.534 1282.87 567.667 1284.33C569.934 1285.8 572.601 1287.4 573.667 1287.93C577.801 1289.8 612.067 1313 622.334 1320.73C650.334 1341.93 669.267 1358.33 696.467 1385.13C707.134 1395.67 716.467 1404.33 717.267 1404.33C718.067 1404.33 719.134 1403.4 719.534 1402.2C721.001 1398.33 720.467 206.333 718.867 202.067C717.267 197.267 697.401 179.267 675.001 162.333C670.201 158.733 666.067 155.4 665.667 155C662.734 151.533 617.134 120.733 600.334 110.733C576.467 96.6001 545.401 80.4668 525.667 71.9334C520.867 69.8001 515.001 67.2668 512.734 66.2001C508.334 64.2001 503.534 62.2001 495.001 58.6001C483.801 53.8001 439.001 39.0001 421.667 34.3334C416.867 33.1334 411.267 31.5334 409.001 30.8668C395.934 26.7334 356.734 18.8668 328.334 14.3334C320.601 13.1334 309.534 11.2668 303.667 10.2001C297.801 9.13342 289.667 8.33342 285.667 8.20009C281.667 8.20009 275.401 7.66676 271.667 7.00009C268.067 6.20009 256.067 5.13342 245.001 4.33342C234.067 3.66676 217.534 2.46676 208.334 1.66676C193.934 0.60009 86.734 0.0667562 75.6673 1.13342ZM397.001 439.133C404.334 441 413.267 448.467 416.467 455.533C418.601 460.333 419.001 464.867 419.001 493.133C419.001 516.2 419.401 525.533 420.601 526.733C421.801 527.933 444.601 528.333 515.001 528.333H607.667L614.601 532.333C628.601 540.333 633.534 556.733 626.334 571C622.734 578.2 617.267 582.733 608.601 586.067C603.801 588.067 596.734 588.333 560.601 588.333H518.334L515.801 594.067C495.134 639 472.201 677.8 443.401 716.6C436.467 725.933 431.134 734.2 431.667 734.867C432.734 736.733 458.601 758.867 464.334 763C491.801 782.467 513.934 794.2 538.734 802.467C548.467 805.667 557.401 808.333 558.734 808.333C566.201 808.467 578.867 818.2 582.334 826.6C585.134 833.267 584.867 844.733 581.801 850.733C576.867 860.2 564.601 868.333 555.001 868.333C549.134 868.333 524.734 861.667 511.001 856.333C507.001 854.733 502.067 853 500.201 852.333C498.334 851.8 495.667 850.733 494.201 849.933C492.867 849.133 487.134 846.2 481.667 843.533C466.201 835.933 464.201 834.867 456.334 829.933C435.534 817 417.401 803.267 399.934 787.4C392.734 780.867 386.734 778.333 385.401 781.4C383.801 785.533 348.334 813.4 327.667 826.867C318.867 832.6 286.067 849.533 275.667 853.8C262.067 859.4 230.334 868.333 224.334 868.333C223.001 868.333 219.001 867.4 215.267 866.2C194.601 859.533 188.201 833 203.534 817.4C208.734 812.333 212.867 810.467 230.334 805.667C242.201 802.467 246.334 801.133 255.001 797.267C288.201 782.867 317.534 763.667 342.601 739.933C349.267 733.533 349.801 735.4 333.801 713.933C310.334 682.467 289.134 647.667 270.867 609.933L260.334 588.333H217.401C174.867 588.333 174.201 588.2 167.667 585.133C159.401 581.267 154.734 576.2 151.667 568.067C146.734 554.867 152.067 539.667 164.067 532.733L170.334 529L264.334 528.333L358.334 527.667L359.134 495C359.667 477 360.467 460.867 361.001 459C363.534 450.733 372.067 442.2 380.334 439.667C387.934 437.4 389.801 437.267 397.001 439.133Z" fill="black"/>
<path d="M329.001 589.534C328.334 590.734 335.401 605.134 341.934 615.667C343.267 617.8 344.734 620.6 345.267 621.667C348.467 628.734 369.001 660.467 379.401 674.6C383.934 680.734 388.467 685.667 389.667 685.667C392.734 685.667 415.001 654.6 429.134 630.334C431.267 626.734 433.667 622.734 434.334 621.4C435.134 620.2 437.934 614.734 440.867 609.4C443.667 604.067 447.134 597.667 448.601 595.4C450.067 593 450.867 590.467 450.334 589.667C449.267 587.934 330.201 587.8 329.001 589.534Z" fill="black"/>
<path d="M1289 1.80012C1281.67 2.46678 1267 3.53345 1256.33 4.20012C1232.87 5.80012 1213 7.80012 1197 10.3334C1190.47 11.4001 1178.47 13.1334 1170.33 14.4668C1143.4 18.4668 1108.2 25.9334 1085 32.3334C1079.13 33.9334 1072.47 35.8001 1070.33 36.3334C1068.07 36.8668 1065 37.9334 1063.4 38.7334C1061.8 39.6668 1059.53 40.3334 1058.33 40.3334C1055 40.3334 1014.33 54.6001 995.667 62.3334C978.867 69.2668 926.467 94.3334 919 99.0001C917.933 99.6668 909.267 104.867 899.667 110.6C853.133 138.2 784.2 191 780.467 202.067C779.4 204.867 779 389 779 803.667C779 1292.73 779.267 1401.67 780.733 1402.73C782.067 1403.93 786.733 1400.07 801 1386.2C835.8 1352.2 871.4 1323.27 905.667 1301C915.533 1294.6 925.267 1288.2 927.267 1286.87C929.267 1285.4 931.267 1284.33 931.533 1284.33C931.933 1284.33 936.067 1282.07 940.733 1279.13C957.267 1269.13 1002.33 1247.27 1022.33 1239.67C1027.53 1237.8 1034.07 1235.27 1037 1234.07C1051.67 1228.47 1071.53 1221.8 1087.67 1217.27C1098.47 1214.2 1106.33 1212.2 1131.67 1206.47C1170.87 1197.4 1212.6 1191.53 1266.33 1187.4C1302.33 1184.73 1411.27 1184.33 1446.73 1186.87C1467.27 1188.2 1470.73 1188.2 1477.27 1186.33C1486.2 1183.67 1495.4 1175.13 1497.53 1167.53C1499.4 1160.6 1499.53 31.1334 1497.67 24.3334C1495.93 17.8001 1489.27 10.3334 1482.6 7.13345C1477.93 4.86678 1471.8 4.06678 1444.07 2.33345C1408.6 0.200116 1312.87 -0.199884 1289 1.80012ZM1119.27 415.267C1128.87 418.067 1134.87 425.667 1142.73 445C1151 465.267 1152.47 468.733 1155.27 475C1156.47 477.533 1161.13 488.6 1165.67 499.667C1170.2 510.6 1179.13 532.2 1185.67 547.667C1192.07 563 1201.13 584.6 1205.67 595.667C1210.2 606.6 1214.73 617.667 1215.8 619.933C1216.87 622.333 1218.6 626.2 1219.53 628.6C1220.6 631 1222.07 634.467 1222.73 636.333C1230.33 654.2 1235 665.667 1235 666.333C1235 666.733 1236.47 670.333 1238.2 674.067C1239.93 677.933 1247.8 696.333 1255.67 715C1263.53 733.667 1270.73 751 1271.8 753.267C1272.87 755.667 1274.47 759.667 1275.53 761.933C1276.47 764.333 1277.93 767.8 1278.73 769.667C1282.47 778.2 1288.87 793.8 1291.67 801.133C1293.27 805.533 1296.2 812.467 1298.07 816.467C1306.2 834.333 1313.8 853.933 1314.47 859.267C1314.87 862.467 1314.6 867.667 1313.67 870.867C1311.93 877.533 1303.67 887 1297.13 890.2C1291 893 1279.67 892.867 1273 889.8C1261.4 884.467 1260.6 882.733 1221.4 788.333C1217 777.667 1213 768.067 1212.47 767C1211.53 765.267 1198.73 765 1109.67 765C1020.6 765 1007.8 765.267 1006.87 767C1005.8 769.267 1005.27 770.333 993.667 798.333C984.6 820.333 983 824.067 976.6 839C975.8 840.867 974.333 844.467 973.133 847C972.067 849.533 968.733 857.667 965.667 865C956.867 886.067 947.667 893.267 931.4 892.067C915.667 890.867 905 879.267 905 863C905 855.533 906.067 851.933 912.067 837.267C915.933 827.8 919.667 819.133 920.333 817.933C920.867 816.733 925 807 929.4 796.333C936.867 778.333 945.4 757.933 978.067 680.333C985 663.8 993.267 644.067 996.333 636.333C999.4 628.6 1003.67 618.6 1005.8 613.933C1007.93 609.267 1009.67 604.867 1009.67 604.067C1009.67 603.4 1010.47 601.133 1011.4 599.267C1014.07 594.2 1016.73 588.067 1022.2 574.333C1025 567.667 1027.67 561.133 1028.33 559.667C1029.93 555.933 1052.33 502.333 1061.93 479C1069.4 460.867 1072.73 453.133 1075 448.2C1075.67 447.133 1077.93 441.667 1080.2 436.067C1082.47 430.6 1086.07 424.467 1088.07 422.6C1096.6 414.467 1107.8 411.8 1119.27 415.267Z" fill="black"/>
<path d="M1107.4 527.267C1106.73 528.2 1105.13 531.667 1103.8 535C1100.47 543 1096.07 553.667 1091.8 563.267C1090.73 565.667 1086.73 575.133 1083 584.333C1074.73 604.733 1073.13 608.467 1067.67 621C1060.47 637.8 1048.33 667 1048.33 667.667C1048.33 668.067 1046.87 671.933 1044.87 676.067C1043 680.2 1040.73 685.667 1039.67 688.067C1038.6 690.467 1036.73 694.467 1035.53 696.867C1034.33 699.4 1033.8 702.067 1034.2 702.867C1035.4 704.733 1183.8 705 1184.87 703.133C1185.4 702.467 1184.87 700.2 1183.8 698.067C1182.73 696.067 1179.13 687.667 1175.8 679.667C1170.2 665.933 1157.27 634.867 1129.67 569C1123.27 553.533 1116.6 537.533 1114.87 533.267C1111.93 525.8 1109.8 524.067 1107.4 527.267Z" fill="black"/>
</svg>
