<?xml version="1.0" standalone="no"?>
<!DOCTYPE svg PUBLIC "-//W3C//DTD SVG 20010904//EN"
 "http://www.w3.org/TR/2001/REC-SVG-20010904/DTD/svg10.dtd">
<svg version="1.0" xmlns="http://www.w3.org/2000/svg"
 width="564.000000pt" height="900.000000pt" viewBox="0 0 564.000000 900.000000"
 preserveAspectRatio="xMidYMid meet">
<metadata>
Created by potrace 1.10, written by Peter Selinger 2001-2011
</metadata>
<g transform="translate(0.000000,900.000000) scale(0.100000,-0.100000)"
fill="#000000" stroke="none">
<path d="M3300 6720 c-35 -13 -75 -20 -109 -19 -41 2 -55 -1 -63 -14 -6 -12
-22 -17 -49 -17 -26 0 -42 -5 -45 -15 -4 -8 -19 -15 -34 -15 -31 0 -207 -86
-285 -140 -28 -18 -72 -49 -100 -67 -27 -18 -54 -38 -60 -44 -5 -6 -33 -35
-61 -63 -92 -93 -244 -288 -244 -313 0 -5 -7 -21 -16 -38 -29 -56 -83 -190
-98 -245 -41 -149 -46 -189 -46 -382 0 -181 2 -201 30 -313 64 -255 193 -483
378 -663 68 -66 222 -182 242 -182 4 0 12 -6 18 -13 6 -6 41 -27 79 -45 37
-19 76 -38 85 -43 10 -5 48 -19 85 -30 38 -11 79 -25 93 -31 100 -40 390 -58
530 -34 262 46 401 105 645 272 65 45 229 210 273 276 90 135 167 285 197 384
9 32 24 79 31 104 8 25 20 114 26 197 22 278 -15 486 -123 708 -67 137 -92
178 -162 265 -89 109 -105 125 -182 187 -38 31 -74 62 -80 68 -13 15 -214 135
-225 135 -5 0 -30 11 -56 25 -26 14 -57 25 -69 25 -11 0 -30 7 -41 15 -10 8
-32 15 -47 15 -16 0 -40 9 -54 20 -21 17 -35 19 -74 14 -37 -5 -58 -2 -86 12
-58 29 -230 31 -303 4z m247 -95 c13 -9 32 -13 45 -10 13 3 37 -1 53 -9 17 -9
38 -16 47 -16 9 0 19 -4 22 -9 3 -5 25 -19 48 -31 74 -37 248 -241 248 -289 0
-31 -33 -27 -72 9 -62 56 -69 61 -113 80 -23 10 -46 23 -49 29 -4 6 -18 11
-30 11 -13 0 -30 9 -37 19 -11 15 -22 18 -47 14 -27 -4 -37 -14 -57 -53 -26
-52 -66 -90 -126 -120 -70 -36 -234 -22 -303 25 -13 10 -45 15 -87 15 -53 0
-69 -4 -84 -20 -10 -11 -25 -20 -33 -20 -9 0 -23 -6 -31 -14 -26 -22 -60 -29
-66 -13 -9 22 6 51 92 171 61 85 201 195 250 196 10 0 27 7 37 15 11 8 34 15
50 15 17 0 38 5 46 10 25 16 172 12 197 -5z m-561 -89 c3 -8 -17 -36 -46 -66
-73 -75 -134 -183 -145 -258 -2 -15 -11 -52 -19 -82 -20 -71 -14 -170 19 -303
65 -267 212 -491 372 -568 56 -27 63 -33 63 -59 0 -16 -6 -32 -12 -37 -7 -4
-98 -6 -203 -5 -113 2 -209 -1 -238 -7 -170 -39 -353 -195 -405 -346 -17 -50
-24 -60 -44 -60 -19 0 -26 10 -44 63 -12 35 -26 73 -32 85 -26 53 -59 185 -72
288 -25 207 5 479 70 624 64 143 87 188 137 262 62 95 197 242 253 276 19 11
38 26 43 33 8 14 140 104 152 104 3 0 21 12 40 26 29 22 70 40 98 43 4 1 10
-5 13 -13z m1059 -48 c128 -80 170 -111 262 -193 202 -181 318 -384 393 -685
6 -25 14 -129 17 -232 6 -193 3 -219 -49 -403 -17 -61 -71 -208 -81 -222 -16
-21 -37 -15 -48 15 -47 119 -83 171 -175 251 -69 61 -142 102 -223 126 -42 13
-94 16 -251 14 -108 -1 -202 1 -209 5 -6 4 -11 20 -11 36 0 25 7 33 53 55 176
89 298 266 383 560 25 84 25 355 1 400 -10 17 -17 35 -17 42 0 28 -68 140
-121 199 -100 110 -69 123 76 32z m-269 -205 c92 -49 179 -111 224 -157 l45
-47 -3 -75 c-2 -67 -22 -168 -51 -262 -5 -19 -33 -79 -61 -135 -66 -133 -153
-231 -244 -277 -66 -32 -90 -57 -101 -103 -11 -42 12 -93 51 -116 19 -11 34
-26 34 -34 0 -8 -15 -30 -32 -50 l-33 -37 -153 -2 -152 -1 -35 33 c-42 41 -44
64 -7 87 43 27 52 43 52 98 0 59 -13 75 -95 120 -84 45 -191 162 -232 252 -10
21 -25 49 -34 63 -20 31 -65 152 -74 200 -16 86 -23 213 -13 235 14 32 94 88
156 109 62 21 93 18 186 -19 90 -36 231 -38 298 -4 63 32 102 65 132 109 22
33 32 40 60 40 18 0 55 -12 82 -27z m-904 -1210 c9 -10 28 -52 42 -94 14 -41
44 -120 67 -175 22 -54 46 -119 53 -144 18 -66 39 -64 130 10 53 44 81 61 98
58 20 -3 23 -8 20 -43 -3 -28 1 -43 14 -52 15 -11 16 -19 5 -70 -19 -94 -49
-292 -56 -373 -4 -41 -12 -80 -17 -87 -10 -13 -58 -8 -93 10 -11 6 -36 14 -55
18 -54 12 -118 36 -200 77 l-75 37 4 143 3 142 -45 0 c-27 0 -47 -5 -50 -13
-2 -7 -1 -53 4 -102 8 -97 7 -105 -20 -105 -21 0 -296 278 -306 309 -4 14 5
49 25 99 74 175 160 261 340 335 102 42 93 41 112 20z m299 -60 c35 -43 74
-88 86 -102 13 -13 23 -31 23 -40 -1 -19 -23 -51 -36 -51 -5 0 -33 -18 -62
-40 -76 -58 -84 -55 -116 40 -15 45 -43 113 -62 153 -18 39 -34 82 -34 94 0
22 4 23 69 23 l68 0 64 -77z m757 54 c2 -10 -8 -37 -22 -61 -26 -44 -67 -153
-81 -211 -8 -36 -22 -55 -41 -55 -7 0 -47 23 -89 51 -96 65 -96 76 -12 173 34
40 72 84 83 98 19 22 28 25 90 24 57 -1 69 -4 72 -19z m180 -7 c18 -11 39 -20
48 -20 29 0 112 -50 167 -100 66 -60 116 -133 153 -222 30 -74 28 -96 -13
-148 -46 -58 -254 -260 -268 -260 -31 0 -36 26 -21 111 16 95 11 109 -38 109
-57 0 -58 -4 -48 -140 6 -68 8 -129 6 -135 -9 -21 -245 -125 -286 -125 -10 0
-29 -6 -41 -14 -21 -14 -52 -20 -88 -17 -12 1 -18 16 -22 64 -10 98 -37 276
-53 347 -18 83 -18 116 1 124 10 4 15 19 15 49 0 52 6 60 33 46 27 -15 97 -69
125 -97 36 -36 64 -26 80 28 8 25 17 54 22 65 5 11 22 52 38 90 26 61 41 101
91 238 13 33 51 36 99 7z m-571 -158 c13 -8 23 -176 11 -188 -12 -12 -192 -4
-200 9 -7 11 -1 147 8 175 4 13 160 17 181 4z m-37 -281 c5 -11 12 -43 14 -73
6 -70 22 -178 47 -308 11 -58 21 -118 22 -135 l2 -30 -133 -3 c-154 -3 -153
-4 -129 91 14 55 36 204 56 386 8 72 25 91 78 91 22 0 36 -6 43 -19z"/>
</g>
</svg>
