<svg width="1799" height="1802" viewBox="0 0 1799 1802" fill="none" xmlns="http://www.w3.org/2000/svg">
<path d="M839.067 1.60004C839.2 2.80004 835.733 3.60004 826.667 4.40004C787.333 7.4667 720.667 17.6 695.333 24.1334C692.4 24.9334 686.4 26.4 682 27.4667C673.2 29.7334 662.533 32.5334 653.333 35.3334C650 36.2667 643.733 38.1334 639.333 39.3334C629.2 42.2667 594.933 53.6 585.333 57.3334C581.333 58.8 575.867 60.9334 573.333 61.8667C565.2 64.9334 531.867 78.6667 529.6 80C528.4 80.6667 515.067 87.3334 500 94.6667C484.933 102 470.267 109.333 467.333 111.067C421.333 137.067 394.133 154.667 360.667 179.867C345.067 191.467 315.333 215.333 309.867 220.667C309.067 221.333 303.733 226.133 297.867 231.2C278.267 248.4 231.2 296.4 216.667 314C213.733 317.6 207.733 324.8 203.333 330C176.133 362 133.867 423.333 116.933 455.333C115.333 458.267 113.333 461.6 112.533 462.667C110.667 464.933 79.7332 526 76.7999 533.333C75.7332 535.867 71.4665 546.133 67.3332 556C63.1999 565.867 59.3332 575.467 58.6665 577.333C57.9999 579.2 56.2665 584 54.6665 588C51.4665 596.267 39.7332 631.467 36.5332 642.667C26.5332 676.933 24.3999 684.8 17.4665 716.667C11.7332 742.933 4.5332 794.533 1.3332 832C-0.40013 853.6 -0.40013 949.2 1.3332 970.667C4.9332 1013.73 14.7999 1078.8 21.4665 1104.67C22.2665 1107.6 23.7332 1113.6 24.7999 1118C27.0665 1126.8 29.8665 1137.47 32.6665 1146.67C33.5999 1150 35.4665 1156.27 36.6665 1160.67C39.5999 1170.8 50.9332 1205.07 54.6665 1214.67C56.1332 1218.67 58.2665 1224.13 59.1999 1226.67C62.1332 1234.4 75.9999 1268 77.3332 1270.4C77.9999 1271.6 84.2665 1284.4 91.3332 1298.67C104 1324.53 111.467 1338.93 115.733 1345.33C116.933 1347.2 119.067 1350.8 120.533 1353.33C121.867 1355.87 125.733 1362.13 128.933 1367.07C132.133 1372 136.933 1380.13 139.467 1385.07C142 1390 147.067 1398.53 150.667 1404C154.267 1409.47 157.867 1415.2 158.533 1416.67C159.2 1418.13 162 1422 164.8 1425.33C167.733 1428.67 172.133 1434 174.667 1437.33C177.067 1440.67 181.2 1445.47 183.6 1448C186 1450.53 191.467 1456.8 195.6 1462C206.267 1474.8 204.533 1472.93 236.533 1508.13C255.6 1529.07 294.8 1568.93 306 1578.67C325.2 1595.47 362.667 1624.13 387.333 1641.2C427.333 1668.53 436.667 1674.53 452.533 1683.2C456.133 1685.07 459.733 1687.2 460.533 1687.87C461.333 1688.53 471.333 1693.6 482.667 1699.33C502.533 1709.2 505.867 1710.8 517.067 1715.47C519.733 1716.67 523.733 1718.4 525.733 1719.47C527.867 1720.53 530.267 1721.33 531.333 1721.33C532.267 1721.33 537.467 1723.2 542.8 1725.47C548.267 1727.73 554.8 1730.4 557.333 1731.33C559.867 1732.27 566.8 1734.93 572.667 1737.33C578.533 1739.73 585.467 1742.4 588 1743.33C590.533 1744.27 595.2 1746 598.4 1747.2C601.467 1748.4 606.4 1750.27 609.333 1751.33C612.267 1752.4 616.933 1754.13 619.733 1755.2C630.933 1759.6 643.867 1764.13 653.333 1767.2C658.8 1768.93 664.8 1771.07 666.667 1771.73C672.4 1774 684.267 1777.2 695.333 1779.47C701.2 1780.67 710.8 1782.8 716.667 1784.27C722.533 1785.87 732.8 1787.47 739.333 1788.13C746 1788.67 757.067 1790 764 1791.07C851.6 1804.93 945.733 1804.8 1036.8 1790.53C1045.73 1789.2 1057.07 1788 1062.13 1788C1067.2 1788 1075.6 1787.07 1080.67 1785.87C1085.87 1784.67 1093.07 1783.2 1096.67 1782.4C1100.4 1781.73 1107.33 1780.27 1112.13 1779.2C1117.07 1778.13 1122.53 1777.33 1124.27 1777.33C1130.93 1777.33 1163.6 1767.47 1196.67 1755.33C1204 1752.67 1211.47 1750.13 1213.2 1749.73C1216.8 1748.8 1231.6 1741.07 1247.33 1731.87C1251.07 1729.73 1259.47 1725.2 1266 1721.87C1272.67 1718.53 1279.2 1715.07 1280.67 1714.13C1285.2 1711.6 1314.8 1695.2 1323.33 1690.67C1347.6 1677.73 1351.47 1675.6 1352.67 1674.67C1353.47 1674.13 1358.27 1671.33 1363.33 1668.53C1368.53 1665.73 1376.27 1661.47 1380.67 1659.07C1385.07 1656.67 1389.6 1654.27 1390.67 1653.73C1391.73 1653.2 1406.93 1642 1424.4 1628.8C1441.87 1615.47 1458.93 1602.53 1462.4 1600C1465.87 1597.47 1471.47 1593.2 1474.67 1590.53C1478 1587.87 1482.53 1584.53 1484.93 1583.07C1497.47 1575.47 1559.33 1514.53 1580.67 1488.67C1583.6 1485.07 1588.13 1479.73 1590.67 1476.67C1593.2 1473.6 1597.2 1468.93 1599.33 1466C1601.6 1463.2 1605.2 1458.67 1607.47 1456.13C1609.73 1453.47 1620.93 1437.2 1632.4 1420C1643.73 1402.8 1654.67 1387.2 1656.53 1385.47C1660.13 1382 1672.27 1362.8 1680.4 1347.33C1682 1344.4 1684 1341.07 1684.8 1340C1686.93 1337.47 1717.2 1277.2 1721.33 1267.73C1722.93 1263.87 1726.93 1254 1730.13 1246C1733.33 1237.87 1736.53 1230.13 1737.2 1228.67C1737.87 1227.2 1739.33 1223.33 1740.67 1220C1741.87 1216.67 1743.6 1212.53 1744.27 1210.67C1746 1206.13 1758.13 1169.07 1760.8 1160C1767.33 1137.6 1769.6 1129.47 1772.53 1118C1773.6 1113.6 1775.07 1107.6 1775.87 1104.67C1783.6 1074.53 1792.4 1014.8 1796.67 963.333C1804.4 870.4 1791.73 747.6 1764.67 656C1763.73 652.667 1761.87 646.4 1760.67 642C1757.73 631.867 1746.4 597.6 1742.67 588C1741.2 584 1739.07 578.533 1738.13 576C1735.33 568.667 1721.33 534.8 1720 532.267C1719.33 531.067 1712.8 517.733 1705.33 502.667C1691.2 473.867 1690.53 472.533 1678.27 451.333C1659.33 418.667 1642.13 392.533 1620.27 363.333C1608.67 348 1585.07 318.533 1579.33 312.533C1578.67 311.733 1573.87 306.4 1568.8 300.533C1551.6 280.933 1503.6 233.867 1486 219.333C1482.4 216.4 1475.2 210.4 1470 206C1438 178.8 1376.67 136.533 1344.67 119.6C1341.73 118 1338.4 116 1337.33 115.2C1334.8 113.2 1274.53 82.8 1265.07 78.6667C1226 62.1334 1187.87 48.1334 1157.33 39.2C1134.93 32.6667 1126.8 30.4 1115.33 27.4667C1110.93 26.4 1104.93 24.9334 1102 24.1334C1074.4 17.0667 1009.47 7.20004 971.333 4.40004C961.733 3.60004 958.133 2.80004 958.267 1.60004C958.533 0.400036 946 3.62605e-05 898.667 3.62605e-05C851.333 3.62605e-05 838.8 0.400036 839.067 1.60004ZM956 64.4C962.933 65.6 974.4 67.3334 981.333 68.5334C994.667 70.5334 1008.8 73.7334 1028.67 79.2C1040.4 82.5334 1043.87 83.6 1058.67 89.3334C1062.67 90.9334 1067.87 92.6667 1070 93.3334C1075.6 94.8 1085.87 99.3334 1105.6 108.933C1114.8 113.6 1122.8 117.333 1123.2 117.333C1124.27 117.333 1162.8 140.533 1169.33 145.2C1172.67 147.6 1178.67 152 1182.8 155.067C1186.93 158.133 1192.93 162.667 1196.13 165.067C1204.13 171.067 1228 192.133 1238 202C1264.13 227.733 1294.4 265.867 1311.6 294.667C1320.53 309.467 1342.13 350.933 1344.93 358.667C1346.13 362 1347.6 365.2 1348 366C1348.53 366.667 1351.2 373.733 1353.87 381.6C1358.53 395.467 1359.87 402 1357.6 401.067C1356.93 400.8 1344.53 391.867 1329.87 381.067C1234.53 310.4 1200.67 287.467 1165.33 270C1146.53 260.533 1135.07 256.133 1118.67 251.733C1108.8 249.067 1104.27 248.667 1084 248.8C1064.67 248.933 1058.93 249.333 1050.53 251.6C1028.13 257.733 1009.33 265.867 990 277.6C987.867 278.933 985.067 280.4 984 280.933C980.8 282.4 940.667 308.8 931.6 315.333C927.067 318.667 912 329.6 898 339.6C884.133 349.6 865.467 363.067 856.667 369.333C787.333 419.467 795.6 415.067 781.333 409.467C749.467 397.067 716 388.8 675.067 383.333C654.4 380.533 591.867 380.533 570.8 383.333C521.6 389.867 479.2 400 445.333 413.333C441.333 414.933 436.667 416.533 434.933 416.933C433.333 417.333 431.6 418.133 431.2 418.8C430.133 420.667 424.4 420.267 423.6 418.267C423.2 417.333 425.333 409.6 428.133 401.2C431.067 392.8 434 384 434.8 381.6C437.2 374 446 353.733 456.667 331.333C472.667 298 503.867 252.533 532.4 221.2C540.133 212.667 554.533 198.267 564.267 189.333C581.2 173.733 619.333 143.867 628 139.333C630.267 138.133 636.133 134.667 641.067 131.467C652 124.4 697.2 101.6 710 96.8C725.067 90.9334 729.867 89.0667 733.333 87.7334C759.733 77.2 808 66.9334 854.667 62.1334C867.6 60.8 944.133 62.5334 956 64.4ZM1260 132.8C1275.73 140 1281.87 143.067 1309.6 158.4C1334 171.867 1336.53 173.333 1368 194C1387.33 206.667 1427.2 236.267 1441.33 248.533C1446.13 252.667 1454 259.333 1458.93 263.333C1476.53 277.867 1520.53 322 1538.67 343.467C1572.27 383.067 1594.93 413.733 1619.47 452.667C1626.93 464.4 1634.67 477.333 1634.67 478C1634.67 478.267 1637.2 482.933 1640.4 488.267C1645.73 497.467 1668.93 543.6 1675.33 558C1685.6 580.8 1691.87 597.067 1700.8 623.333C1704 632.8 1707.2 642.4 1708 644.667C1708.8 646.8 1710.4 651.6 1711.47 655.333C1723.2 695.067 1731.07 729.6 1737.2 769.333C1738.13 774.8 1739.73 784.533 1740.8 790.8C1741.73 797.067 1742.67 804.933 1742.67 808.133C1742.67 811.333 1743.6 821.2 1744.8 830C1747.87 853.6 1747.87 944.8 1744.8 974C1740.53 1015.47 1735.07 1050.27 1726.8 1088.67C1717.47 1132.13 1696.93 1195.87 1679.87 1234C1661.6 1275.07 1658 1282.53 1642.8 1310.27C1637.47 1320 1632.67 1328 1632.13 1328C1630.53 1328 1627.6 1324 1624.67 1318C1620.67 1309.73 1608.13 1288 1603.6 1281.47C1593.07 1266.13 1566.8 1238.13 1549.07 1223.07C1531.07 1208 1524.27 1202.93 1507.73 1192.67C1500.13 1187.87 1470 1173.2 1462.93 1170.8C1458.4 1169.2 1453.6 1167.47 1452.27 1166.8C1448.67 1165.07 1441.07 1162.53 1436 1161.33C1433.47 1160.8 1429.87 1159.73 1428 1159.07C1423.73 1157.2 1409.2 1154 1394.67 1151.47C1388.4 1150.4 1379.47 1148.8 1374.67 1147.87C1369.87 1147.07 1362.13 1145.87 1357.33 1145.33C1352.53 1144.67 1345.33 1143.6 1341.33 1142.8C1337.33 1142 1328 1140.4 1320.67 1139.33C1313.33 1138.13 1303.2 1136.4 1298 1135.2C1292.93 1134.13 1287.2 1133.33 1285.33 1133.33C1283.47 1133.33 1277.87 1132.53 1272.67 1131.47C1255.2 1127.73 1242 1125.47 1227.33 1123.33C1219.33 1122.27 1207.87 1120.4 1202 1119.47C1187.07 1116.8 1168.27 1113.73 1152.67 1111.33C1145.33 1110.27 1134.8 1108.4 1129.33 1107.33C1123.87 1106.27 1115.47 1104.8 1110.67 1104C1096.13 1101.47 1096.53 1102.4 1097.33 1078.67C1098.13 1055.07 1096.67 1057.33 1115.87 1049.07C1147.6 1035.47 1189.2 1011.2 1219.33 988.8C1267.33 953.067 1310.67 908.133 1346.27 857.333C1350.53 851.067 1354.53 845.067 1355.07 844C1355.6 842.933 1357.07 840.4 1358.4 838.4C1371.47 817.733 1389.2 783.467 1400.67 756C1404.8 746.133 1415.33 716 1418 706C1419.07 702.267 1420.4 697.467 1421.2 695.333C1432 662.8 1441.33 597.467 1441.33 553.467C1441.33 514 1434.4 454 1426.53 426C1424.93 420.133 1423.33 413.467 1423.07 411.333C1422 404.667 1414 379.067 1406.67 359.333C1399.2 339.067 1399.07 338.667 1385.87 311.333C1375.47 290.267 1344.4 237.333 1339.87 233.333C1339.47 232.933 1334.4 226.4 1328.67 218.667C1322.93 210.933 1314.27 200.133 1309.47 194.667C1298.8 182.4 1264.27 147.6 1251.07 135.733C1245.73 131.067 1241.73 126.667 1242.27 126.133C1242.8 125.733 1243.87 125.467 1244.53 125.867C1245.33 126.133 1252.27 129.333 1260 132.8ZM536 135.6C536 136.133 528 144.4 518.267 154C497.867 174 487.2 185.333 473.333 201.867C439.733 241.733 405.6 299.067 387.2 346.533C383.867 355.067 380.667 363.2 380 364.667C377.333 370.533 366.667 404 366.667 406.4C366.667 407.733 364.933 415.733 362.8 424.133C360.533 432.533 357.867 445.333 356.667 452.667C355.6 460 353.733 471.333 352.667 478C350.133 493.733 348 518.533 347.067 543.467C346 571.067 350.933 621.6 358 655.333C359.733 663.333 361.467 672.133 362 674.667C362.4 677.2 363.6 682 364.667 685.333C365.6 688.667 367.333 695.2 368.667 700C369.867 704.8 371.733 710.8 372.667 713.333C373.467 715.867 375.333 721.333 376.533 725.333C386.533 756.8 416.667 820 430.667 838.667C432.533 841.2 434.8 844.8 435.6 846.667C437.6 851.6 469.333 893.333 481.067 906.667C512.4 942.267 550.133 976.133 584.667 999.6C614.4 1019.87 642.267 1035.47 676.667 1050.93L690 1057.07L690.933 1063.47C691.333 1067.07 691.867 1076.67 691.867 1084.93C692 1097.87 691.733 1100 689.733 1101.07C687.2 1102.27 680.533 1103.6 658 1107.33C650.667 1108.53 640.133 1110.4 634.667 1111.33C629.2 1112.4 618.667 1114.13 611.333 1115.33C604 1116.53 593.2 1118.27 587.333 1119.33C581.467 1120.4 573.733 1121.6 570 1122C562.667 1122.8 554.8 1124.13 536.667 1127.33C530.133 1128.53 519.6 1130.4 513.333 1131.47C507.067 1132.53 497.2 1134.27 491.333 1135.33C485.467 1136.4 474.667 1138.13 467.333 1139.33C460 1140.53 451.067 1142.13 447.333 1142.93C443.733 1143.6 436.8 1144.8 432 1145.33C410.533 1148 371.467 1155.47 360.667 1158.93C358.533 1159.73 354.533 1160.8 352 1161.33C345.467 1162.8 328.4 1169.33 312 1176.53C268.533 1195.6 222.4 1232.93 190.667 1274.67C183.467 1284 171.867 1302.67 165.333 1315.33C164.267 1317.33 162.667 1319.33 161.867 1319.6C161.067 1319.87 158.267 1316.67 155.733 1312.4C151.333 1304.8 127.867 1257.87 122 1244.67C111.733 1221.87 105.467 1205.6 96.5332 1179.33C93.3332 1169.73 90.1332 1160.13 89.3332 1158C88.5332 1155.73 86.9332 1150.93 85.8665 1147.33C69.0665 1090.27 59.4665 1040.27 52.5332 974C49.3332 944 49.3332 858.8 52.5332 828.667C56.7999 787.333 62.2665 752.4 70.5332 714C79.8665 670.533 100.4 606.8 117.467 568.667C136.133 526.4 139.733 519.2 155.733 490.4C169.333 465.867 170.8 463.333 191.333 432C204 412.667 233.6 372.8 245.867 358.667C250 353.867 256.533 346 260.533 341.2C275.333 323.333 318.933 279.867 340.8 261.333C380 228.133 411.2 205.067 450 180.533C461.6 173.2 474.667 165.333 475.333 165.333C475.6 165.333 479.6 163.067 484.267 160.4C496.533 153.2 532.4 134.8 534.4 134.667C535.2 134.667 536 135.067 536 135.6ZM1114 313.067C1124.67 316.667 1149.73 328.667 1158.67 334.533C1160.53 335.733 1163.2 337.333 1164.67 338.267C1174 343.733 1184 350.267 1188.13 353.6C1190.8 355.6 1193.33 357.333 1193.73 357.333C1194.53 357.333 1208.8 367.067 1221.2 376C1228.8 381.467 1258.4 403.067 1276 415.867C1280 418.8 1295.73 430.4 1310.93 441.6C1326 452.8 1342.13 464.667 1346.8 468C1369.33 484.267 1377.87 490.8 1379.87 493.6C1381.73 496.267 1382 502.8 1382 548C1382 597.733 1381.87 600.133 1378.27 624C1376.13 637.6 1373.6 651.467 1372.53 654.933C1371.47 658.4 1370.67 662.133 1370.67 663.2C1370.67 664.267 1369.73 668.133 1368.67 671.6C1367.6 675.067 1365.73 680.933 1364.67 684.667C1359.87 700.933 1350.27 728 1344.8 740.933C1341.47 749.067 1326.4 780 1324 784C1323.33 785.067 1319.6 791.333 1315.87 798C1283.6 853.733 1234.13 907.733 1177.73 948.4C1170.93 953.333 1164.93 957.333 1164.53 957.333C1164.13 957.333 1161.47 959.067 1158.8 961.2C1156.13 963.2 1151.07 966.533 1147.33 968.667C1143.73 970.667 1136.67 974.667 1131.73 977.467C1116.4 986.4 1085.33 1000.8 1067.33 1007.2C1057.87 1010.67 1047.87 1014.27 1045.33 1015.33C1042.8 1016.4 1037.33 1018.13 1033.33 1019.2C1029.33 1020.27 1020.4 1022.8 1013.47 1024.67C1006.53 1026.67 988 1030.4 972.133 1032.93L943.333 1037.6H895.333C852.533 1037.73 845.6 1037.47 830.667 1034.93C821.467 1033.47 808.933 1031.47 802.667 1030.67C788.267 1028.8 757.067 1020.4 736.667 1012.93C707.2 1002.13 700.133 999.333 682.667 990.8C659.067 979.333 648.4 973.333 628.667 960.267C608.667 947.2 593.867 936.267 580.667 924.8C575.6 920.267 569.2 914.933 566.667 912.667C559.867 906.933 536.533 883.333 527.733 873.333C485.733 825.467 457.467 777.6 432.8 712C423.2 686.667 415.733 656.133 410.667 622C410 617.6 408.8 610.667 408 606.667C406.533 598.933 405.733 502.4 407.2 497.733C408.133 494.933 434.533 481.733 453.333 474.667C457.333 473.2 461.867 471.467 463.333 470.8C489.733 459.6 530.667 449.467 572 443.867C599.6 440.267 648 440.267 674.667 444C702 447.867 723.733 452.8 746 460.4C763.2 466.133 762.933 466 788.933 477.867C801.467 483.6 800.133 483.867 815.6 472.8C820.8 469.067 830.667 462.133 837.467 457.333C844.133 452.533 857.067 443.2 866.133 436.667C875.333 430 893.467 416.8 906.8 407.333C920 397.733 935.733 386.4 941.733 381.867C947.733 377.467 956.533 371.067 961.333 367.733C966.133 364.533 975.067 358.133 981.333 353.867C1003.6 338.267 1035.07 320.4 1051.73 314.133C1065.07 308.933 1071.07 308.133 1087.33 308.533C1099.33 308.933 1104.13 309.733 1114 313.067ZM769.867 1081.6C797.067 1089.07 839.867 1094.8 883.333 1096.8C922.933 1098.67 1008.4 1087.73 1030.93 1078.13C1032.4 1077.47 1034.13 1078.13 1035.87 1079.87C1038.4 1082.4 1038.67 1084.27 1038.67 1096.53C1038.67 1104.27 1038 1112.13 1037.33 1114.13C1035.6 1118.67 905.067 1248.53 896.4 1254.27C893.467 1256.27 892.4 1255.33 862.4 1226.13C845.333 1209.6 813.2 1177.87 791.067 1155.73L750.667 1115.33V1098.4C750.667 1082.4 750.8 1081.33 753.6 1079.33C755.333 1078.27 757.6 1077.73 758.667 1078.13C759.733 1078.67 764.8 1080.13 769.867 1081.6ZM713.2 1160.13C718 1163.07 844.133 1288.93 847.6 1294.27C850.4 1298.53 848.667 1301.73 839.6 1308.67C835.867 1311.6 824 1321.73 813.333 1331.2C766.8 1372.4 760.267 1378.13 756.267 1381.47C754 1383.33 740.933 1394.67 727.2 1406.8C713.6 1418.8 698 1432.4 692.8 1436.93C683.467 1445.2 679.067 1446.93 676.267 1443.6C674.933 1442.13 659.067 1396.8 655.333 1384C654.4 1380.67 649.6 1366.27 644.8 1352C639.867 1337.73 632.533 1315.73 628.533 1303.33C624.533 1290.8 614 1259.33 605.2 1233.33C596.533 1207.2 589.333 1184.8 589.333 1183.33C589.467 1177.07 590.933 1176.53 619.333 1172C628.933 1170.53 639.333 1168.67 642.667 1167.87C646 1167.07 652.933 1165.87 658 1165.33C667.6 1164.13 677.333 1162.4 691.333 1159.33C702.933 1156.8 708.133 1156.93 713.2 1160.13ZM1094 1158.8C1096.93 1159.6 1102.67 1160.67 1106.67 1161.33C1120 1163.07 1133.87 1165.47 1140 1166.93C1143.33 1167.6 1149.6 1168.8 1154 1169.47C1185.2 1173.87 1196.13 1176.27 1198.67 1179.33C1200.53 1181.6 1199.2 1188.67 1194.67 1200C1193.07 1204 1191.33 1209.07 1190.67 1211.33C1190 1213.47 1188.93 1217.07 1188.13 1219.33C1187.2 1221.47 1179.2 1245.87 1170.13 1273.33C1161.07 1300.8 1152.93 1324.8 1152.27 1326.67C1151.47 1328.53 1148.13 1338.93 1144.67 1350C1141.33 1360.93 1137.73 1372.13 1136.8 1374.67C1133.73 1382.93 1131.73 1388.53 1130.67 1392.67C1128.67 1399.33 1113.6 1442.4 1112.67 1443.87C1111.6 1445.73 1104.4 1445.73 1103.33 1444C1102.4 1442.53 1078.4 1421.2 1060 1405.33C1046.4 1393.73 1027.2 1377.07 1010.13 1362C1003.47 1356.13 993.867 1347.73 988.667 1343.33C983.6 1338.93 978.133 1334.13 976.667 1332.67C975.2 1331.2 967.733 1324.53 960.133 1318C952.533 1311.33 944.933 1304.67 943.067 1303.07C940.4 1300.67 939.867 1299.33 940.667 1296.4C941.733 1292 1060.13 1172.4 1072.53 1163.2C1080.8 1156.93 1084.27 1156.27 1094 1158.8ZM530.4 1191.73C531.333 1192.93 535.333 1204.4 539.467 1217.33C543.467 1230.13 547.467 1242.13 548.267 1244C548.933 1245.87 555.2 1264.4 562.133 1285.33C579.6 1338.53 579.2 1337.47 586.133 1356.67C589.467 1366.13 592.667 1375.73 593.2 1378C594.267 1382.4 601.067 1403.07 606.267 1418C608 1423.07 614.267 1441.73 620 1459.33C625.867 1476.93 631.2 1493.07 632 1495.33C632.8 1497.47 636.533 1508.27 640.267 1519.33C643.867 1530.27 647.733 1540.67 648.8 1542.27C651.333 1546.4 656 1546.13 660.8 1541.6C662.933 1539.6 676 1528 689.867 1516C703.733 1503.87 719.333 1490.27 724.4 1485.6C730 1480.8 735.067 1477.33 736.8 1477.33C740.533 1477.33 743.333 1480.8 776.267 1524.8C791.067 1544.53 802.533 1561.2 803.067 1563.47C803.467 1565.73 803.333 1569.6 802.667 1572.13C800.933 1579.33 790.267 1616.93 785.867 1631.33C784.8 1634.93 783.333 1640.13 782.8 1642.67C782.133 1645.2 781.067 1649.07 780.267 1651.33C776.8 1662 763.6 1709.2 762.133 1716.67C761.6 1718.93 760.133 1722.67 758.667 1725.07L756 1729.33H732.4C709.867 1729.33 707.867 1729.07 691.333 1724.8C647.6 1713.47 597.733 1696.67 566 1682.53C526.267 1664.93 514.933 1659.47 501.467 1652C455.867 1626.27 460.533 1629.07 428.667 1608.27C419.2 1602 401.867 1589.73 390.267 1580.93L369.067 1565.07L370 1554.93C370.533 1549.33 371.733 1539.07 372.8 1532.4C375.333 1516 375.2 1507.47 372.533 1504.8C371.467 1503.6 370.133 1502.67 369.6 1502.67C369.067 1502.67 363.333 1502 356.667 1501.2C317.6 1496.67 319.467 1496.4 318 1507.33C317.467 1512.13 316.4 1515.07 315.067 1515.6C313.733 1516.13 308.8 1512.13 300.4 1503.87C288.8 1492.4 266.8 1468.8 258.667 1459.2C240.4 1437.6 232.4 1427.6 217.467 1407.6C207.867 1394.93 200 1383.2 200 1381.73C200 1376.8 207.333 1358.93 216.8 1340.67C228.667 1317.87 257.333 1282.4 276.133 1267.07C290.267 1255.6 298.4 1249.33 299.067 1249.33C299.467 1249.33 306.4 1245.33 314.533 1240.53C322.667 1235.73 333.067 1230.27 337.6 1228.53C342.267 1226.67 348 1224.4 350.4 1223.33C363.467 1217.47 366.267 1216.53 391.333 1210.8C403.6 1208 455.467 1198.67 464 1197.73C469.067 1197.2 485.333 1194.4 501.333 1191.2C519.467 1187.73 527.333 1187.87 530.4 1191.73ZM1284.93 1190.8C1287.2 1191.6 1293.2 1192.67 1298.27 1193.33C1303.2 1194 1310.4 1195.07 1314 1195.87C1317.73 1196.53 1326.4 1198.13 1333.33 1199.33C1371.07 1205.47 1379.33 1206.93 1394 1210.13C1413.73 1214.4 1423.33 1216.93 1429.07 1219.47C1431.47 1220.53 1434 1221.33 1434.67 1221.33C1437.07 1221.33 1469.07 1237.07 1478.93 1243.07C1492.93 1251.6 1497.33 1254.67 1508.8 1264.13C1524 1276.8 1528.13 1280.8 1539.33 1294C1560.67 1319.07 1578.13 1348.8 1588 1377.07C1592.67 1390.4 1592.53 1391.07 1574.8 1414.4C1566.13 1425.87 1555.6 1439.2 1551.47 1444C1547.33 1448.8 1540.53 1456.8 1536.4 1462C1532.13 1467.07 1516.93 1483.33 1502.53 1498C1472.93 1528 1473.07 1527.87 1471.33 1512.27C1470.27 1502.67 1469.07 1499.33 1466.27 1498.27C1465.2 1497.87 1459.73 1498.13 1453.87 1498.8C1448.13 1499.47 1437.73 1500.67 1430.8 1501.33C1423.87 1502.13 1417.47 1503.33 1416.4 1504.13C1414 1506.13 1414.13 1524.27 1416.53 1538.8C1417.6 1544.93 1418.8 1554.8 1419.2 1560.67L1420.13 1571.33L1401.07 1585.47C1390.53 1593.33 1374.8 1604.4 1366 1610C1357.2 1615.73 1347.87 1621.73 1345.33 1623.47C1337.6 1628.4 1322.67 1637.33 1322 1637.33C1321.73 1637.33 1317.07 1639.87 1311.73 1643.07C1302.53 1648.4 1256.4 1671.6 1242 1678C1219.2 1688.27 1202.93 1694.53 1176.67 1703.47C1167.2 1706.67 1157.6 1709.87 1155.33 1710.67C1151.73 1712 1144.53 1714.27 1134 1717.2C1131.87 1717.87 1120.53 1720.8 1109.07 1723.87L1088 1729.33H1061.33C1035.07 1729.33 1034.53 1729.2 1031.47 1726.27C1029.73 1724.53 1027.73 1720 1026.8 1715.87C1025.87 1711.87 1023.6 1703.87 1021.87 1698C1020.13 1692.13 1017.73 1684 1016.53 1680C1015.47 1676 1013.6 1669.6 1012.67 1666C1008.53 1652 1006.8 1645.73 1004.8 1638.67C1003.07 1632.27 999.867 1621.33 992.667 1596.67C991.6 1592.93 989.867 1586.93 988.8 1583.33C985.6 1573.07 984.933 1565.87 986.4 1561.47C987.467 1558.4 1029.07 1501.87 1045.07 1481.87C1050.53 1474.93 1053.87 1475.6 1065.47 1486.4C1070.93 1491.47 1082.4 1501.6 1091.07 1509.2C1099.73 1516.67 1108.8 1524.53 1111.07 1526.53C1129.47 1542.93 1132.67 1545.33 1135.47 1545.33C1139.6 1545.33 1140.8 1542.93 1150.67 1512.67C1155.2 1498.67 1159.73 1485.2 1160.67 1482.67C1163.73 1473.87 1165.6 1468.53 1176.13 1436.67C1181.87 1419.07 1188.27 1400.13 1190.13 1394.67C1192 1389.2 1194.93 1380.13 1196.67 1374.67C1198.4 1369.2 1202.93 1356 1206.67 1345.33C1210.4 1334.67 1214 1323.87 1214.67 1321.33C1215.73 1316.93 1216.8 1313.6 1220.8 1302.67C1221.73 1300.13 1223.47 1294.93 1224.67 1291.33C1230.4 1273.33 1240.13 1244.4 1241.2 1242C1241.73 1240.53 1243.33 1235.73 1244.67 1231.33C1245.87 1226.93 1247.6 1221.87 1248.27 1220C1249.07 1218.13 1250.13 1214.8 1250.8 1212.67C1253.87 1201.07 1258.27 1191.33 1260.93 1190C1264.27 1188.27 1278.4 1188.8 1284.93 1190.8ZM903.6 1345.2C907.2 1348 913.6 1353.47 918 1357.47C922.4 1361.47 930.267 1368.27 935.333 1372.67C940.533 1377.07 948 1383.6 952.133 1387.33C956.133 1390.93 962.533 1396.67 966.4 1399.87C970.267 1403.07 980.133 1411.73 988.267 1419.2C1000.27 1430 1003.47 1433.6 1003.73 1436.8C1004.13 1440.53 1001.33 1445.07 986.4 1464.13C984.533 1466.67 969.333 1486.8 952.8 1508.93C923.6 1548.13 922.667 1549.47 922.667 1555.47C922.667 1561.73 925.333 1572.8 928.8 1581.07C929.867 1583.47 930.667 1586.53 930.667 1588C930.667 1589.47 931.467 1592.53 932.533 1594.93C933.6 1597.33 935.467 1603.2 936.667 1608C938 1612.8 940.4 1621.47 942 1627.33C943.733 1633.2 946.4 1642.8 948 1648.67C949.6 1654.53 951.6 1662 952.667 1665.33C953.6 1668.67 955.467 1674.93 956.667 1679.33C958 1683.73 959.733 1689.73 960.667 1692.67C961.6 1695.6 963.467 1701.6 964.667 1706C965.867 1710.4 967.467 1715.73 968.133 1717.87C969.733 1722.8 969.733 1727.6 968.133 1728.67C966 1729.87 821.067 1729.6 819.733 1728.27C818.267 1726.8 820.933 1715.47 828.267 1691.33C831.2 1681.73 834.4 1670.67 835.467 1666.67C836.533 1662.67 838 1657.47 838.667 1655.33C840 1650.8 841.6 1645.6 849.2 1618.67C852.267 1608 855.6 1596.67 856.533 1593.33C857.467 1590 859.333 1583.47 860.667 1578.67C861.867 1573.87 863.733 1567.6 864.8 1564.67C868.667 1553.6 867.867 1551.2 853.733 1532.53C840 1514.13 813.333 1478.8 811.6 1476.67C797.2 1458.4 784 1439.07 784 1436.13C784 1433.87 790.8 1426.8 800.133 1419.2C802.8 1417.07 812 1409.07 820.667 1401.33C829.333 1393.6 841.6 1382.93 847.867 1377.47C854.133 1372 864.133 1363.33 870 1358.13C886.133 1343.6 890.933 1340 894.133 1340C895.733 1340 900 1342.27 903.6 1345.2Z" fill="black"/>
</svg>
