<svg width="1678" height="1686" viewBox="0 0 1678 1686" fill="none" xmlns="http://www.w3.org/2000/svg">
<path d="M772.667 2.46684C734 6.60017 720.134 8.46684 702.667 11.6668C696.134 12.8668 685.6 14.6002 679.334 15.6668C673.067 16.7335 666.267 18.0668 664 18.8668C661.867 19.5335 654.934 21.0002 648.667 22.3335C642.4 23.5335 634.934 25.4002 632 26.2002C629.067 27.1335 623.067 29.0002 618.667 30.2002C603.334 34.6002 598.534 36.0668 575.334 43.6668C562.534 47.9335 546.934 53.4002 540.667 55.9335C534.4 58.4668 526.4 61.8002 522.667 63.2668C519.067 64.7335 511.467 68.0668 506 70.6002C500.534 73.1335 492.4 76.7335 488 78.6002C483.6 80.4668 475.867 84.2002 470.667 87.0002C465.6 89.8002 456.534 94.4668 450.667 97.5335C433.467 106.2 416.667 116.067 389.334 133.4C362.667 150.2 322 180.467 300.534 199.667C297.2 202.6 291.2 207.667 287.2 211C274.4 221.534 224.4 272.467 208 291.8C175.6 329.934 148.8 366.867 126.534 404.334C121.067 413.534 116 421.934 115.334 423C114.534 424.067 113.6 425.934 113.067 427C112.534 428.067 110.934 431.134 109.334 433.667C106 439 89.3337 471.934 84.2671 483C82.5337 487 79.0671 494.334 76.8004 499.267C72.8004 507.934 58.8004 543 56.5337 549.667C56.0004 551.534 53.0671 559.934 50.0004 568.334C44.8004 583.267 35.3337 615.4 30.8004 634.334C29.6004 639.4 27.7337 647 26.6671 651C12.5337 708.067 6.80039 762.6 6.80039 837C6.80039 891.134 8.00039 908.734 14.6671 958.334C17.2004 976.734 22.5337 1004.73 26.6671 1021.67C27.7337 1025.67 29.6004 1033.13 30.8004 1038.33C34.9337 1055.67 40.8004 1076.87 44.9337 1089.67C49.4671 1103.67 49.4671 1103.93 60.6671 1133.67C69.7337 1157.67 72.2671 1163.8 82.9337 1187C92.1337 1206.87 110.534 1242.6 114.8 1249C117.2 1252.33 117.2 1257 114.8 1264.47C113.867 1267.67 112 1273.93 110.8 1278.33C109.467 1282.73 107.734 1289 106.667 1292.33C104.4 1300.47 101.734 1310.07 94.6671 1337C88.9337 1358.87 86.1337 1369.13 83.0671 1379C82.2671 1381.53 81.0671 1385.8 80.5337 1388.33C80.0004 1390.87 78.5337 1395.93 77.4671 1399.67C75.3337 1407.4 71.3337 1421.67 65.7337 1442.33C63.6004 1450.33 60.9337 1460.33 59.8671 1464.33C58.8004 1468.33 57.3337 1473.8 56.6671 1476.33C56.0004 1478.87 54.5337 1483.93 53.4671 1487.67C52.4004 1491.27 50.2671 1499.13 48.6671 1505C47.0671 1510.87 45.2004 1517.4 44.5337 1519.67C44.0004 1521.8 42.5337 1527 41.6004 1531C40.5337 1535 38.2671 1543.13 36.6671 1549C35.0671 1554.87 33.2004 1561.4 32.6671 1563.67C31.3337 1569 26.2671 1587.27 23.8671 1595.67C22.8004 1599.27 21.3337 1604.47 20.6671 1607C20.0004 1609.53 17.6004 1618.2 15.4671 1626.33C6.66706 1657.53 1.60039 1677.13 0.933724 1681.53L0.400391 1685.93L6.13372 1685C9.33372 1684.6 14.6671 1683.4 18.0004 1682.47C29.3337 1679.13 40.0004 1676.2 63.3337 1670.33C91.8671 1663.13 101.334 1660.6 107.334 1658.73C109.867 1657.93 114.134 1656.73 116.667 1656.2C119.2 1655.8 124.934 1654.33 129.334 1653.13C133.734 1651.8 146.667 1648.47 158 1645.53C169.334 1642.6 184.4 1638.6 191.334 1636.73C198.267 1634.87 206.534 1632.87 209.734 1632.2C212.934 1631.53 216 1630.73 216.667 1630.33C217.334 1629.93 220.4 1629 223.6 1628.33C226.8 1627.67 233.6 1625.93 238.667 1624.47C243.867 1623 261.2 1618.33 277.334 1614.33C293.467 1610.2 308.534 1606.33 310.667 1605.67C312.934 1605 318.534 1603.53 323.334 1602.33C328.134 1601.13 334.134 1599.53 336.667 1598.73C339.2 1597.93 343.2 1596.73 345.334 1596.2C351.2 1594.73 387.6 1585.27 412 1578.87C441.067 1571.27 443.734 1571 452.8 1576.33C460 1580.6 482.134 1591.4 508.667 1603.4C522.134 1609.53 565.467 1626.2 573.334 1628.2C575.6 1628.87 578.8 1629.93 580.667 1630.73C586.8 1633.53 628.267 1645 650 1650.07C694.934 1660.6 726.134 1665.67 772 1669.93C800.8 1672.6 891.334 1672.2 920 1669.27C956.534 1665.53 989.467 1660.33 1016 1654.2C1046.13 1647.27 1059.47 1644.07 1064.67 1642.47C1068 1641.4 1074.53 1639.67 1079.33 1638.33C1084.13 1637.13 1090.13 1635.27 1092.67 1634.33C1103.2 1630.6 1106.8 1629.4 1110.67 1628.33C1112.93 1627.67 1118 1625.93 1122 1624.33C1126 1622.73 1130.8 1621 1132.67 1620.33C1140.67 1617.67 1167.33 1607.13 1174.67 1603.8C1212.67 1586.33 1263.87 1559.27 1285.33 1545.13C1319.47 1522.73 1336.53 1510.6 1355.33 1495.8C1423.2 1442.33 1479.07 1383.13 1529.47 1311.67C1552.8 1278.47 1589.87 1213.53 1602.4 1183.67C1604.27 1179.27 1607.6 1171.4 1610 1166.33C1614.67 1155.8 1615.47 1154.07 1618.67 1145.67C1619.87 1142.33 1621.73 1137.8 1622.67 1135.67C1623.6 1133.4 1625.07 1129.8 1626 1127.67C1627.73 1123.4 1639.07 1088.6 1642.8 1076.33C1648.93 1055.8 1652.13 1044.2 1654.53 1033.67C1655.73 1028.87 1657.87 1019.93 1659.33 1013.67C1664 993.667 1670.13 954.067 1674.93 913C1678.13 884.867 1678.13 789 1674.8 759.667C1671.73 731.8 1668.67 708.734 1667.33 701.667C1666.67 698.334 1665.73 693 1665.2 689.667C1664.4 683.267 1660.53 663.667 1657.6 649.667C1655.6 640.734 1654 634.467 1650.53 621.667C1649.33 617.667 1647.6 611.267 1646.53 607.667C1643.73 597.4 1628.4 549.534 1626.53 545C1625.6 542.734 1624 538.867 1622.8 536.067C1621.6 533.4 1620.67 530.467 1620.67 529.4C1620.67 528.467 1619.73 526.467 1618.67 525.134C1617.6 523.667 1616.67 521.667 1616.67 520.734C1616.67 519.8 1615.2 515.934 1613.47 512.067C1611.73 508.2 1607.47 498.734 1604 491C1600.53 483.267 1596.27 473.934 1594.4 470.334C1592.53 466.6 1589.6 460.6 1587.73 457C1586 453.267 1580.13 442.6 1574.93 433C1569.6 423.534 1564.93 414.734 1564.27 413.667C1563.73 412.6 1562.27 410.067 1560.93 408.2C1559.73 406.2 1556.27 400.867 1553.47 396.2C1515.6 334.867 1464.93 273.4 1412.13 224.6C1367.2 183 1339.2 161.534 1282.67 125C1274.8 119.8 1255.33 108.334 1254.67 108.334C1254.4 108.334 1250.93 106.467 1247.07 104.2C1232.93 95.8002 1196.8 77.9335 1176.67 69.4002C1139.47 53.5335 1136.13 52.2002 1108 43.0002C1089.6 36.8668 1084.53 35.2668 1067.33 30.3335C1021.87 17.2668 969.334 8.06684 908.667 2.33351C880.534 -0.333161 797.2 -0.199828 772.667 2.46684ZM895.334 143C904.534 143.8 917.067 145 923.334 145.8C954.8 149.8 950.934 149.267 978.667 154.6C992.4 157.267 1024 164.867 1036 168.467C1041.2 169.934 1047.2 171.667 1049.33 172.334C1053.6 173.534 1055.2 174.067 1073.33 180.467C1087.47 185.4 1115.47 196.467 1126 201.267C1137.33 206.467 1174.13 225 1179.33 228.2C1181.87 229.667 1184.93 231.4 1186 231.934C1187.07 232.467 1193.47 236.067 1200 240.067C1286.27 292.2 1364.27 366.6 1420.27 450.334C1440.53 480.6 1462.67 521.134 1480.4 560.334C1484.67 569.8 1497.47 603.667 1501.87 617.667C1503.47 622.467 1505.33 628.067 1506.13 630.334C1511.47 645.534 1521.47 687.667 1526.53 716.334C1540.27 793.267 1540.27 878.6 1526.53 955C1517.33 1005.53 1507.33 1041.93 1489.47 1088.6C1474.13 1128.73 1442.53 1189.13 1419.07 1223.13C1398 1253.67 1388.93 1265.4 1364.53 1293.67C1333.87 1329.13 1287.2 1371.93 1250.4 1398.33C1240.4 1405.53 1213.47 1423.67 1212 1424.2C1211.33 1424.47 1209.73 1425.4 1208.67 1426.33C1203.07 1431 1134 1468.33 1130.93 1468.33C1130.53 1468.33 1124.53 1471 1117.47 1474.33C1110.4 1477.67 1104 1480.33 1103.33 1480.33C1102.67 1480.33 1100.13 1481.13 1097.73 1482.2C1095.33 1483.27 1091.2 1485 1088.67 1486.07C1081.47 1489.27 1045.33 1501.13 1033.33 1504.33C1027.47 1505.93 1019.33 1508.2 1015.33 1509.27C1006.93 1511.67 1004.27 1512.2 983.334 1516.73C910.934 1532.07 830.667 1535.13 753.334 1525.53C741.6 1524.2 729.067 1522.33 725.334 1521.67C721.734 1520.87 712.4 1519.13 704.667 1517.67C696.934 1516.07 688.267 1514.2 685.334 1513.53C682.4 1512.73 676.4 1511.27 672 1510.2C667.6 1509 661.334 1507.4 658 1506.33C654.667 1505.4 648.4 1503.53 644 1502.33C628.534 1497.93 593.867 1486.07 584 1481.8C581.867 1480.73 578.267 1479.27 576 1478.33C556.8 1470.07 549.734 1466.87 534.667 1459.4C512.534 1448.47 501.2 1442.33 480.934 1430.2C464.4 1420.33 459.467 1418.73 453.867 1421.67C452.534 1422.47 448.8 1423.53 445.734 1424.2C442.534 1424.87 435.2 1426.73 429.334 1428.33C423.467 1429.93 416.534 1431.8 414 1432.47C406.4 1434.2 347.734 1449.4 343.067 1450.87C340.667 1451.53 334.8 1453.13 330 1454.33C325.2 1455.53 319.2 1457.13 316.667 1457.93C314.134 1458.73 309.867 1459.93 307.334 1460.47C304.8 1461 296.934 1463 290 1464.73C283.067 1466.6 268 1470.6 256.667 1473.53C245.334 1476.47 232.4 1479.8 228 1481.13C223.6 1482.33 217.867 1483.8 215.334 1484.33C212.8 1484.87 208.934 1486.07 206.8 1486.87C200.8 1489.27 199.867 1487.13 202.4 1478.07C204.934 1469.4 210.134 1450.47 216.667 1426.33C218.934 1417.53 221.734 1407.27 222.8 1403.67C223.867 1399.93 225.6 1393.93 226.534 1390.33C227.6 1386.6 229.334 1380.33 230.534 1376.33C231.734 1372.33 236.267 1355.53 240.667 1339C250 1303.67 252.4 1295.13 254.8 1286.6C255.867 1283.13 257.467 1277.53 258.534 1273.93C259.467 1270.47 261.334 1263.8 262.667 1259C264 1254.2 265.867 1247.67 266.8 1244.47C270 1234.2 269.334 1230.47 261.6 1218.6C228.934 1168.33 202.4 1114.2 185.334 1063.67C176.667 1037.93 169.6 1013 163.334 987C159.2 969.267 154 936.334 150.4 905C146.934 873.667 147.334 797.534 151.2 763C154.534 733.667 156.934 717.667 160.8 699.134C162.4 692.067 164 683.934 164.534 681C168.267 661.534 189.6 593.134 195.067 583.4C196 581.8 196.667 579.934 196.667 579.134C196.667 577.8 217.734 529.8 219.334 527.667C219.867 526.867 223.2 520.6 226.8 513.667C232 503.4 241.734 486.734 256 463.134C264.4 449.267 285.867 419.534 301.2 400.334C338.534 353.8 387.867 307.134 437.334 271.534C456 258.2 496.4 232.334 498.8 232.334C499.067 232.334 501.734 230.867 504.534 229.134C509.6 225.934 545.6 207.667 559.334 201.4C569.334 196.734 577.334 193.4 595.334 186.6C615.6 179 619.2 177.667 624 176.334C626.267 175.667 632.534 173.667 638 171.934C654 166.734 661.734 164.6 677.334 161C703.6 155 710.534 153.534 718.667 152.334C723.067 151.667 728.8 150.467 731.334 149.667C733.867 149 738.934 148.334 742.667 148.334C746.267 148.334 751.734 147.667 754.667 147C760 145.667 778.934 143.8 809.334 141.667C828 140.334 871.334 141.134 895.334 143Z" fill="black"/>
<path d="M530.535 451.534C510.268 456.2 492.668 470.2 467.601 501.534C446.668 527.667 431.868 557.267 424.535 587.667C419.068 610.2 416.135 640.6 417.468 660.334C418.801 680.2 423.201 707.134 427.201 719.134C428.001 721.667 430.268 728.467 432.135 734.334C446.268 777.534 468.401 819 502.535 866.334C512.001 879.534 522.801 894.467 526.401 899.667C561.068 948.2 627.335 1020.6 673.335 1060.33C681.468 1067.27 688.268 1073.27 688.668 1073.67C690.535 1075.53 722.535 1100.87 731.335 1107.27C736.801 1111.27 749.735 1120.2 760.001 1127C770.268 1133.8 780.268 1140.47 782.268 1141.8C784.268 1143.27 786.268 1144.33 786.668 1144.33C787.068 1144.33 789.601 1145.67 792.401 1147.4C810.935 1159.13 843.068 1175 872.668 1187.27C874.535 1187.93 877.868 1189.4 880.001 1190.33C898.001 1198.07 924.001 1207.67 944.001 1214.33C949.068 1215.93 954.801 1217.93 956.668 1218.73C959.735 1219.93 982.668 1227.13 992.001 1229.8C1024 1238.87 1080.53 1240.33 1115.73 1233C1151.73 1225.4 1208.13 1192.6 1231.47 1165.4C1244.67 1149.93 1249.33 1141.8 1254.8 1123.67C1261.87 1100.33 1265.07 1080.87 1265.2 1059.67C1265.33 1041.93 1265.07 1039.13 1262.67 1035.27C1259.73 1030.47 1249.73 1023.8 1234 1016.07C1228.53 1013.4 1206.27 1002.47 1184.67 991.934C1102.27 951.667 1087.2 944.867 1071.2 940.334C1052.67 935.267 1046.27 937.534 1033.73 953.8C1006.53 989.267 972.268 1030.73 963.468 1038.73C955.068 1046.6 945.468 1048.87 935.201 1045.53C917.468 1039.67 855.335 1009.67 835.468 997.267C808.801 980.6 778.401 958.2 759.468 941.534C717.735 904.467 675.201 853.267 645.201 804.067C628.268 776.2 628.401 772.734 647.468 749C657.068 737 690.535 692.6 693.601 687.667C697.868 680.734 702.401 670.334 702.935 665.667C703.868 659.4 701.735 650.467 697.201 640.6C693.868 633.267 680.001 600.334 672.401 581.667C670.135 576.2 667.601 569.8 666.535 567.667C665.601 565.4 661.201 555 656.935 544.334C652.535 533.667 647.068 520.467 644.801 515C642.535 509.534 640.668 504.6 640.668 504.067C640.668 503.534 638.801 499 636.535 494.067C624.268 467.267 618.135 458.6 608.268 453.8C603.068 451.267 599.468 451 570.535 450.334C546.001 449.8 536.801 450.067 530.535 451.534Z" fill="black"/>
</svg>
