<?xml version="1.0" standalone="no"?>
<!DOCTYPE svg PUBLIC "-//W3C//DTD SVG 20010904//EN"
 "http://www.w3.org/TR/2001/REC-SVG-20010904/DTD/svg10.dtd">
<svg version="1.0" xmlns="http://www.w3.org/2000/svg"
 width="1536.000000pt" height="1536.000000pt" viewBox="0 0 1536.000000 1536.000000"
 preserveAspectRatio="xMidYMid meet">
<metadata>
Created by potrace 1.10, written by Peter Selinger 2001-2011
</metadata>
<g transform="translate(0.000000,1536.000000) scale(0.100000,-0.100000)"
fill="#000000" stroke="none">
<path d="M6260 14914 c-290 -31 -394 -45 -525 -69 -49 -9 -128 -22 -175 -30
-47 -8 -98 -18 -115 -24 -16 -5 -68 -16 -115 -26 -47 -9 -103 -23 -125 -29
-22 -7 -67 -21 -100 -30 -115 -33 -151 -44 -325 -101 -96 -32 -213 -73 -260
-92 -47 -19 -107 -44 -135 -55 -27 -11 -84 -36 -125 -55 -41 -19 -102 -46
-135 -60 -33 -14 -91 -42 -130 -63 -38 -21 -106 -56 -150 -79 -129 -65 -255
-139 -460 -269 -200 -126 -505 -353 -666 -497 -25 -22 -70 -60 -100 -85 -96
-79 -471 -461 -594 -606 -243 -286 -444 -563 -611 -844 -41 -69 -79 -132 -84
-140 -6 -8 -13 -22 -17 -30 -4 -8 -16 -31 -28 -50 -25 -40 -150 -287 -188
-370 -13 -30 -39 -85 -56 -122 -30 -65 -135 -328 -152 -378 -4 -14 -26 -77
-49 -140 -39 -112 -110 -353 -144 -495 -9 -38 -23 -95 -31 -125 -106 -428
-149 -837 -149 -1395 0 -406 9 -538 59 -910 19 -138 59 -348 90 -475 8 -30 22
-86 31 -125 31 -130 75 -289 106 -385 34 -105 34 -107 118 -330 68 -180 87
-226 167 -400 69 -149 207 -417 239 -465 18 -25 18 -60 0 -116 -7 -24 -21 -71
-30 -104 -10 -33 -23 -80 -31 -105 -17 -61 -37 -133 -90 -335 -43 -164 -64
-241 -87 -315 -6 -19 -15 -51 -19 -70 -4 -19 -15 -57 -23 -85 -16 -58 -46
-165 -88 -320 -16 -60 -36 -135 -44 -165 -8 -30 -19 -71 -24 -90 -5 -19 -16
-57 -24 -85 -8 -27 -24 -86 -36 -130 -12 -44 -26 -93 -31 -110 -4 -16 -15 -55
-22 -85 -8 -30 -25 -91 -37 -135 -12 -44 -26 -93 -30 -110 -10 -40 -48 -177
-66 -240 -8 -27 -19 -66 -24 -85 -5 -19 -23 -84 -39 -145 -66 -234 -104 -381
-109 -414 l-4 -33 43 7 c24 3 64 12 89 19 85 25 165 47 340 91 214 54 285 73
330 87 19 6 51 15 70 19 19 3 62 14 95 23 33 10 130 35 215 57 85 22 198 52
250 66 52 14 114 29 138 34 24 5 47 11 52 14 5 3 28 10 52 15 24 5 75 18 113
29 39 11 169 46 290 76 121 31 234 60 250 65 17 5 59 16 95 25 36 9 81 21 100
27 19 6 49 15 65 19 44 11 317 82 500 130 218 57 238 59 306 19 54 -32 220
-113 419 -203 101 -46 426 -171 485 -186 17 -5 41 -13 55 -19 46 -21 357 -107
520 -145 337 -79 571 -117 915 -149 216 -20 895 -17 1110 5 274 28 521 67 720
113 226 52 326 76 365 88 25 8 74 21 110 31 36 9 81 23 100 30 79 28 106 37
135 45 17 5 55 18 85 30 30 12 66 25 80 30 60 20 260 99 315 124 285 131 669
334 830 440 256 168 384 259 525 370 509 401 928 845 1306 1381 175 249 453
736 547 960 14 33 39 92 57 130 35 79 41 92 65 155 9 25 23 59 30 75 7 17 18
44 25 60 13 32 98 293 126 385 46 154 70 241 88 320 9 36 25 103 36 150 35
150 81 447 117 755 24 211 24 930 -1 1150 -23 209 -46 382 -56 435 -5 25 -12
65 -16 90 -6 48 -35 195 -57 300 -15 67 -27 114 -53 210 -9 30 -22 78 -30 105
-21 77 -136 436 -150 470 -7 17 -19 46 -28 67 -9 20 -16 42 -16 50 0 7 -7 22
-15 32 -8 11 -15 26 -15 33 0 7 -11 36 -24 65 -13 29 -45 100 -71 158 -26 58
-58 128 -72 155 -14 28 -36 73 -50 100 -13 28 -57 108 -96 180 -40 71 -75 137
-80 145 -4 8 -15 27 -25 41 -9 15 -35 55 -56 90 -284 460 -664 921 -1060 1287
-337 312 -547 473 -971 747 -59 39 -205 125 -210 125 -2 0 -28 14 -57 31 -106
63 -377 197 -528 261 -279 119 -304 129 -515 198 -138 46 -176 58 -305 95
-341 98 -735 167 -1190 210 -211 20 -836 19 -1020 -1z m920 -1054 c69 -6 163
-15 210 -21 236 -30 207 -26 415 -66 103 -20 340 -77 430 -104 39 -11 84 -24
100 -29 32 -9 44 -13 180 -61 106 -37 316 -120 395 -156 85 -39 361 -178 400
-202 19 -11 42 -24 50 -28 8 -4 56 -31 105 -61 647 -391 1232 -949 1652 -1577
152 -227 318 -531 451 -825 32 -71 128 -325 161 -430 12 -36 26 -78 32 -95 40
-114 115 -430 153 -645 103 -577 103 -1217 0 -1790 -69 -379 -144 -652 -278
-1002 -115 -301 -352 -754 -528 -1009 -158 -229 -226 -317 -409 -529 -230
-266 -580 -587 -856 -785 -75 -54 -277 -190 -288 -194 -5 -2 -17 -9 -25 -16
-42 -35 -560 -315 -583 -315 -3 0 -48 -20 -101 -45 -53 -25 -101 -45 -106 -45
-5 0 -24 -6 -42 -14 -18 -8 -49 -21 -68 -29 -54 -24 -325 -113 -415 -137 -44
-12 -105 -29 -135 -37 -63 -18 -83 -22 -240 -56 -543 -115 -1145 -138 -1725
-66 -88 10 -182 24 -210 29 -27 6 -97 19 -155 30 -58 12 -123 26 -145 31 -22
6 -67 17 -100 25 -33 9 -80 21 -105 29 -25 7 -72 21 -105 30 -116 33 -376 122
-450 154 -16 8 -43 19 -60 26 -144 62 -197 86 -310 142 -166 82 -251 128 -403
219 -124 74 -161 86 -203 64 -10 -6 -38 -14 -61 -19 -24 -5 -79 -19 -123 -31
-44 -12 -96 -26 -115 -31 -57 -13 -497 -127 -532 -138 -18 -5 -62 -17 -98 -26
-36 -9 -81 -21 -100 -27 -19 -6 -51 -15 -70 -19 -19 -4 -78 -19 -130 -32 -52
-14 -165 -44 -250 -66 -85 -22 -182 -47 -215 -57 -33 -9 -76 -20 -95 -24 -19
-4 -48 -13 -64 -19 -45 -18 -52 -2 -33 66 19 65 58 207 107 388 17 66 38 143
46 170 8 28 21 73 28 100 8 28 21 75 30 105 9 30 43 156 76 280 70 265 88 329
106 393 8 26 20 68 28 95 7 26 21 76 31 112 10 36 24 85 31 109 24 77 19 105
-39 194 -245 377 -444 783 -572 1162 -65 193 -118 380 -165 575 -31 133 -70
380 -97 615 -26 235 -23 806 6 1065 25 220 43 340 72 479 12 53 24 114 28 136
28 146 188 659 229 732 7 12 12 26 12 32 0 10 158 370 170 386 4 6 29 53 56
105 39 77 112 202 219 379 63 104 224 327 339 471 280 349 650 699 1021 966
140 100 443 294 461 294 2 0 22 11 43 24 38 24 308 161 411 208 75 35 135 60
270 111 152 57 179 67 215 77 17 5 64 20 105 33 120 39 178 55 295 82 197 45
249 56 310 65 33 5 76 14 95 20 19 5 57 10 85 10 27 0 68 5 90 10 40 10 182
24 410 40 140 10 465 4 645 -10z"/>
<path d="M4444 11546 c-152 -35 -284 -140 -472 -375 -157 -196 -268 -418 -323
-646 -41 -169 -63 -397 -53 -545 10 -149 43 -351 73 -441 6 -19 23 -70 37
-114 106 -324 272 -635 528 -990 71 -99 152 -211 179 -250 260 -364 757 -907
1102 -1205 61 -52 112 -97 115 -100 14 -14 254 -204 320 -252 41 -30 138 -97
215 -148 77 -51 152 -101 167 -111 15 -11 30 -19 33 -19 3 0 22 -10 43 -23
139 -88 380 -207 602 -299 14 -5 39 -16 55 -23 135 -58 330 -130 480 -180 38
-12 81 -27 95 -33 23 -9 195 -63 265 -83 240 -68 664 -79 928 -24 270 57 693
303 868 507 99 116 134 177 175 313 53 175 77 321 78 480 1 133 -1 154 -19
183 -22 36 -97 86 -215 144 -41 20 -208 102 -370 181 -618 302 -731 353 -851
387 -139 38 -187 21 -281 -101 -204 -266 -461 -577 -527 -637 -63 -59 -135
-76 -212 -51 -133 44 -599 269 -748 362 -200 125 -428 293 -570 418 -313 278
-632 662 -857 1031 -127 209 -126 235 17 413 72 90 323 423 346 460 32 52 66
130 70 165 7 47 -9 114 -43 188 -25 55 -129 302 -186 442 -17 41 -36 89 -44
105 -7 17 -40 95 -72 175 -33 80 -74 179 -91 220 -17 41 -31 78 -31 82 0 4
-14 38 -31 75 -92 201 -138 266 -212 302 -39 19 -66 21 -283 26 -184 4 -253 2
-300 -9z"/>
</g>
</svg>
