<?xml version="1.0" standalone="no"?>
<!DOCTYPE svg PUBLIC "-//W3C//DTD SVG 20010904//EN"
 "http://www.w3.org/TR/2001/REC-SVG-20010904/DTD/svg10.dtd">
<svg version="1.0" xmlns="http://www.w3.org/2000/svg"
 width="300.000000pt" height="145.000000pt" viewBox="0 0 300.000000 145.000000"
 preserveAspectRatio="xMidYMid meet">
<metadata>
Created by potrace 1.10, written by Peter Selinger 2001-2011
</metadata>
<g transform="translate(0.000000,145.000000) scale(0.100000,-0.100000)"
fill="#000000" stroke="none">
<path d="M1492 955 c-18 -8 -46 -24 -62 -35 l-29 -20 -19 20 c-18 19 -19 19
-34 3 -29 -33 -64 -98 -76 -139 -35 -120 14 -273 109 -343 46 -35 131 -71 164
-71 l30 0 0 -60 0 -60 -67 0 -68 0 0 -35 0 -35 145 0 145 0 0 35 0 35 -65 0
-65 0 0 60 c0 57 1 60 25 60 39 0 127 37 168 71 l38 31 -21 23 c-18 19 -19 24
-6 34 32 26 56 100 56 169 0 154 -112 267 -268 270 -40 1 -80 -4 -100 -13z
m182 -26 c37 -10 39 -13 22 -23 -11 -6 -33 -23 -50 -37 -17 -14 -44 -26 -60
-27 -49 -3 -56 -38 -13 -61 19 -10 17 -10 -13 -5 -19 4 -41 11 -48 17 -14 11
-66 107 -60 111 76 44 130 50 222 25z m-311 -76 c-33 -46 -56 -129 -50 -178
26 -211 253 -324 422 -210 34 24 55 25 55 5 0 -16 -121 -69 -173 -75 -74 -9
-170 22 -229 75 -79 69 -119 187 -98 287 14 63 67 150 82 135 7 -7 5 -19 -9
-39z m88 -13 c23 -53 63 -90 98 -90 25 0 41 -34 34 -71 -3 -15 5 -38 21 -62
26 -37 26 -39 10 -73 -34 -71 29 -72 97 -1 69 71 75 112 25 171 -26 30 -42 39
-68 41 -20 1 -40 5 -47 9 -16 10 -14 26 4 26 8 0 15 9 15 19 0 21 48 66 82 77
30 9 83 -52 103 -120 19 -62 19 -80 0 -142 -31 -105 -126 -174 -240 -174 -206
1 -318 237 -191 403 16 21 30 37 32 37 2 0 13 -23 25 -50z m159 -28 c0 -14
-11 -21 -26 -15 -21 8 -17 23 6 23 11 0 20 -4 20 -8z m4 -67 c3 -9 18 -15 36
-15 40 0 103 -64 93 -95 -12 -40 -83 -115 -108 -115 -2 0 2 15 10 34 13 31 13
35 -11 67 -18 24 -24 42 -20 61 3 15 2 30 -3 32 -12 8 -21 46 -11 46 4 0 10
-7 14 -15z m91 -525 c4 -6 -37 -10 -114 -10 -74 0 -121 4 -121 10 0 6 45 10
114 10 66 0 117 -4 121 -10z"/>
</g>
</svg>
